#SM_Env_Sidewalk_Dip_01_(2)_321_19.obj

v 2.469925 0 0
v 1.307419 7.450581E-09 0
v 1.330902 -0.05417278 -0.099823
v 2.484421 -0.05417278 -0.1171417
v 1.087021 -0.05417278 -0.09616089
v 1.061646 7.450581E-09 0
v 0.03359985 -0.05417278 -0.08034515
v 0 7.450581E-09 0
v 0 -0.05417279 -0.08035278
v 0 0 0
v 3.968918 7.450581E-09 7.629395E-06
v 3.959183 -0.05417278 -0.09534454
v 4.165649 7.450581E-09 0
v 4.15274 -0.05417278 -0.09248352
v 5 7.450581E-09 0
v 4.973602 -0.05417278 -0.08034515
v 5 0 0
v 5 -0.05417278 -0.08034515
v 1.297668 -0.08751798 -1.102669
v 2.378891 -0.08751798 -1.073212
v 2.514542 -0.09204555 -0.6508255
v 1.346848 -0.08732895 -0.7674484
v 3.971466 -0.08732895 -0.760849
v 3.916168 -0.08751798 -1.103775
v 1.171661 0 -1.616234
v 2.43985 0 -1.654167
v 2.461182 0.03453716 -1.589645
v 1.23143 0.03316895 -1.558258
v 1.346848 -0.08732895 -0.7674484
v 2.514542 -0.09204555 -0.6508255
v 2.514542 -0.1546712 -0.4923401
v 1.346848 -0.1546712 -0.7184143
v 0.03359985 0 -3.146576
v 0.03359985 0.02436665 -3.199997
v 2.387024 0 -3.176178
v 2.359589 0.01080331 -3.105591
v 1.346848 -0.1546712 -0.7184143
v 2.514542 -0.1546712 -0.4923401
v 2.450455 -0.1580816 -0.2333755
v 1.172989 -0.08353826 -0.2967377
v 1.099976 -0.1548026 -0.7124863
v 0.9588013 -0.08353826 -0.2898941
v 1.330902 -0.05417278 -0.099823
v 1.087021 -0.05417278 -0.09616089
v 0.03359985 -0.08353826 -0.2603378
v 0.03359985 -0.05417278 -0.08034515
v 3.837616 -0.08353826 -0.2883606
v 3.971466 -0.1546712 -0.7118073
v 4.054367 -0.08353826 -0.2830124
v 4.162674 -0.1548026 -0.7070618
v 4.15274 -0.05417278 -0.09248352
v 4.973602 -0.05417278 -0.08034515
v 4.973602 -0.08353826 -0.2603378
v 3.959183 -0.05417278 -0.09534454
v 1.172989 -0.08353826 -0.2967377
v 2.450455 -0.1580816 -0.2333755
v 2.484421 -0.05417278 -0.1171417
v 1.330902 -0.05417278 -0.099823
v 3.959183 -0.05417278 -0.09534454
v 3.837616 -0.08353826 -0.2883606
v 2.387024 0 -3.176178
v 0.03359985 0.02436665 -3.199997
v 0.03359985 0 -4.999992
v 2.43985 0 -4.999992
v 0.03359985 0 -3.146576
v 2.359589 0.01080331 -3.105591
v 2.43985 0 -1.654167
v 1.171661 0 -1.616234
v 1.080154 0 -1.185661
v 0.05514526 0 -1.067596
v 4.973602 -0.08353826 -0.2603378
v 5 -0.08353826 -0.2654266
v 5 -0.05417278 -0.08034515
v 4.973602 -0.05417278 -0.08034515
v 4.973602 -0.2302948 -0.5812683
v 5 -0.2302948 -0.5874481
v 5 -0.08353826 -0.2654266
v 4.973602 -0.08353826 -0.2603378
v 4.973602 0.06969655 -0.6676025
v 5 0.06969652 -0.6737823
v 5 -0.2302948 -0.5874481
v 4.973602 -0.2302948 -0.5812683
v 4.973602 0.06969655 -1.016876
v 5 0.06969652 -1.023071
v 5 0.06969652 -0.6737823
v 4.973602 0.06969655 -0.6676025
v 4.973602 0.0191935 -1.089996
v 5 -7.450581E-09 -1.073792
v 5 0.06969652 -1.023071
v 4.973602 0.06969655 -1.016876
v 4.923431 0 -3.123878
v 5 0 -3.173286
v 5 -7.450581E-09 -1.073792
v 4.973602 0.0191935 -1.089996
v 4.934174 0 -3.216873
v 5 0 -3.173286
v 4.923431 0 -3.123878
v 4.973602 0 -4.999992
v 5 0 -4.999992
v 2.43985 0 -1.654167
v 2.5 0 -1.654167
v 2.461182 0.03453716 -1.589645
v 2.359589 0.01080331 -3.105591
v 2.447189 0 -3.122757
v 2.5 0 -1.654167
v 2.43985 0 -1.654167
v 2.387024 0 -3.176178
v 2.4646 0.03420928 -3.180946
v 2.447189 0 -3.122757
v 2.43985 0 -4.999992
v 2.5 0 -4.999992
v 2.4646 0.03420928 -3.180946
v 2.387024 0 -3.176178
v 4.934174 0 -3.216873
v 2.4646 0.03420928 -3.180946
v 2.5 0 -4.999992
v 4.973602 0 -4.999992
v 4.923431 0 -3.123878
v 2.447189 0 -3.122757
v 2.4646 0.03420928 -3.180946
v 4.934174 0 -3.216873
v 4.923431 0 -3.123878
v 4.973602 0.0191935 -1.089996
v 4.157867 0.01286403 -1.198303
v 4.111328 0.01137158 -1.626625
v 2.447189 0 -3.122757
v 2.5 0 -1.654167
v 4.157867 0.01286403 -1.198303
v 4.973602 0.0191935 -1.089996
v 4.973602 0.06969655 -1.016876
v 4.117935 0.06969655 -1.107788
v 4.09259 0.02883642 -1.172775
v 4.117935 0.06969655 -1.107788
v 4.973602 0.06969655 -1.016876
v 4.973602 0.06969655 -0.6676025
v 4.162674 0.06969655 -0.793396
v 4.162674 0.06969655 -0.793396
v 4.973602 0.06969655 -0.6676025
v 4.973602 -0.2302948 -0.5812683
v 4.162674 -0.1548026 -0.7070618
v 4.162674 -0.1548026 -0.7070618
v 4.973602 -0.2302948 -0.5812683
v 4.973602 -0.08353826 -0.2603378
v 4.054367 -0.08353826 -0.2830124
v 0 0 -3.173286
v 0 0 -4.999992
v 0.03359985 0 -4.999992
v 0.03359985 0.02436665 -3.199997
v 0 0 -3.173286
v 0.03359985 0.02436665 -3.199997
v 0.03359985 0 -3.146576
v 0 -7.450581E-09 -1.073792
v 0 0 -3.173286
v 0.03359985 0 -3.146576
v 0.05514526 0 -1.067596
v 0 0.06969652 -1.023071
v 0 -7.450581E-09 -1.073792
v 0.05514526 0 -1.067596
v 0.08164978 0.06969655 -1.027878
v 0 0.06969652 -0.6737823
v 0 0.06969652 -1.023071
v 0.08164978 0.06969655 -1.027878
v 0.03359985 0.06969655 -0.6676025
v 0 -0.2302948 -0.5874481
v 0 0.06969652 -0.6737823
v 0.03359985 0.06969655 -0.6676025
v 0.03359985 -0.2302948 -0.5812683
v 0 -0.08353826 -0.2654266
v 0 -0.2302948 -0.5874481
v 0.03359985 -0.2302948 -0.5812683
v 0.03359985 -0.08353826 -0.2603378
v 0 -0.05417279 -0.08035278
v 0 -0.08353826 -0.2654266
v 0.03359985 -0.08353826 -0.2603378
v 0.03359985 -0.05417278 -0.08034515
v 2.387024 0 -3.176178
v 2.447189 0 -3.122757
v 2.359589 0.01080331 -3.105591
v 0.05514526 0 -1.067596
v 1.080154 0 -1.185661
v 1.069061 0.06969655 -1.108894
v 0.08164978 0.06969655 -1.027878
v 0.08164978 0.06969655 -1.027878
v 1.069061 0.06969655 -1.108894
v 1.099976 0.06969655 -0.7988205
v 0.03359985 0.06969655 -0.6676025
v 0.03359985 0.06969655 -0.6676025
v 1.099976 0.06969655 -0.7988205
v 1.099976 -0.1548026 -0.7124863
v 0.03359985 -0.2302948 -0.5812683
v 0.03359985 -0.2302948 -0.5812683
v 1.099976 -0.1548026 -0.7124863
v 0.9588013 -0.08353826 -0.2898941
v 0.03359985 -0.08353826 -0.2603378
v 3.916168 -0.08751798 -1.103775
v 4.117935 0.06969655 -1.107788
v 4.162674 0.06969655 -0.793396
v 3.971466 -0.08732895 -0.760849
v 3.971466 -0.08732895 -0.760849
v 4.162674 0.06969655 -0.793396
v 4.162674 -0.1548026 -0.7070618
v 3.971466 -0.1546712 -0.7118073
v 1.080154 0 -1.185661
v 1.171661 0 -1.616234
v 1.23143 0.03316895 -1.558258
v 1.113281 0.02975636 -1.173019
v 1.069061 0.06969655 -1.108894
v 1.297668 -0.08751798 -1.102669
v 1.346848 -0.08732895 -0.7674484
v 1.099976 0.06969655 -0.7988205
v 1.113281 0.02975636 -1.173019
v 1.099976 0.06969655 -0.7988205
v 1.346848 -0.08732895 -0.7674484
v 1.346848 -0.1546712 -0.7184143
v 1.099976 -0.1548026 -0.7124863
v 2.5 0 -1.654167
v 4.111328 0.01137158 -1.626625
v 4.049438 0.03582191 -1.535721
v 2.461182 0.03453716 -1.589645
v 2.514542 -0.09204555 -0.6508255
v 3.971466 -0.08732895 -0.760849
v 3.971466 -0.1546712 -0.7118073
v 2.514542 -0.1546712 -0.4923401
v 1.080154 0 -1.185661
v 1.113281 0.02975636 -1.173019
v 1.069061 0.06969655 -1.108894
v 4.111328 0.01137158 -1.626625
v 4.157867 0.01286403 -1.198303
v 4.09259 0.02883642 -1.172775
v 4.049438 0.03582191 -1.535721
v 1.23143 0.03316895 -1.558258
v 1.297668 -0.08751798 -1.102669
v 1.113281 0.02975636 -1.173019
v 2.461182 0.03453716 -1.589645
v 2.378891 -0.08751798 -1.073212
v 1.297668 -0.08751798 -1.102669
v 1.23143 0.03316895 -1.558258
v 4.049438 0.03582191 -1.535721
v 3.916168 -0.08751798 -1.103775
v 4.09259 0.02883642 -1.172775
v 3.916168 -0.08751798 -1.103775
v 4.049438 0.03582191 -1.535721
v 4.117935 0.06969655 -1.107788
v 3.916168 -0.08751798 -1.103775
v 4.09259 0.02883642 -1.172775

vn 0 0.8925781 -0.4506836
vn -0.003484726 0.8847656 -0.4660645
vn 0.009590149 0.894043 -0.4475098
vn 0.001802444 0.9057617 -0.4240723
vn -0.003772736 0.8632813 -0.5043945
vn -0.003772736 0.8632813 -0.5043945
vn -0.001960754 0.8408203 -0.5415039
vn -0.001960754 0.8408203 -0.5415039
vn 0 0.8291016 -0.559082
vn 0 0.8291016 -0.559082
vn 0.003494263 0.8789063 -0.4772949
vn 0.003494263 0.8789063 -0.4772949
vn 0.003778458 0.8564453 -0.5161133
vn 0.003778458 0.8564453 -0.5161133
vn 0.001950264 0.8378906 -0.5454102
vn 0.001950264 0.8378906 -0.5454102
vn 0 0.8291016 -0.559082
vn 0 0.8291016 -0.559082
vn 0.001752853 1 0.005298615
vn 0.0002295971 1 0.005645752
vn 0.0002295971 1 0.005645752
vn 0.001752853 1 0.005298615
vn -0.001294136 1 0.005992889
vn -0.001294136 1 0.005992889
vn -0.01371002 0.8789063 -0.4768066
vn -0.006855011 0.8803711 -0.4743652
vn -0.006855011 0.8803711 -0.4743652
vn -0.01371002 0.8789063 -0.4768066
vn -0.07592773 0.8452148 0.5292969
vn -0.07592773 0.8452148 0.5292969
vn -0.07592773 0.8452148 0.5292969
vn -0.07592773 0.8452148 0.5292969
vn 0.001371384 0.9941406 0.1090088
vn 0.001371384 0.9941406 0.1090088
vn 0.001371384 0.9941406 0.1090088
vn 0.001371384 0.9941406 0.1090088
vn 0.01776123 0.9916992 -0.126709
vn 0.001917839 0.9951172 -0.09716797
vn 0.001917839 0.9951172 -0.09716797
vn 0.01071167 0.9912109 -0.1331787
vn -0.004936218 0.9858398 -0.1680908
vn -0.003940582 0.987793 -0.1561279
vn -0.003355026 0.9892578 -0.1462402
vn -0.003442764 0.9887695 -0.1501465
vn 0.004257202 0.987793 -0.1564941
vn 0.004257202 0.987793 -0.1564941
vn -0.009712219 0.9897461 -0.142334
vn -0.01609802 0.9902344 -0.1369629
vn 0.00353241 0.9873047 -0.1583252
vn 0.004386902 0.9863281 -0.1644287
vn 0.003105164 0.987793 -0.1552734
vn -0.006080627 0.9873047 -0.1580811
vn -0.006080627 0.9873047 -0.1580811
vn 0.003063202 0.9882813 -0.1530762
vn 0.03570557 0.9116211 -0.4099121
vn 0.003612518 0.9179688 -0.3969727
vn 0.001802444 0.9057617 -0.4240723
vn 0.009590149 0.894043 -0.4475098
vn -0.0125885 0.9077148 -0.4191895
vn -0.02848816 0.9233398 -0.3835449
vn 0.005153656 1 -0.006649017
vn 0.005153656 1 -0.006649017
vn 0.005153656 1 -0.006649017
vn 0.005153656 1 -0.006649017
vn -0.000752449 1 0.001213074
vn 0.03500366 0.9995117 0.00261116
vn 0.03500366 0.9995117 0.00261116
vn -0.001504898 1 0.002426147
vn 0 1 0
vn 0 1 0
vn -0.006080627 0.9873047 -0.1580811
vn -0.01530457 0.9873047 -0.1588135
vn -0.01530457 0.9873047 -0.1588135
vn -0.006080627 0.9873047 -0.1580811
vn -0.08831787 0.90625 -0.4135742
vn -0.08831787 0.90625 -0.4135742
vn -0.08831787 0.90625 -0.4135742
vn -0.08831787 0.90625 -0.4135742
vn 0.2194824 0.2697754 0.9375
vn 0.2194824 0.2697754 0.9375
vn 0.2194824 0.2697754 0.9375
vn 0.2194824 0.2697754 0.9375
vn 0 1 0
vn 0 1 0
vn 0 1 0
vn 0 1 0
vn 0.3657227 0.6679688 -0.6484375
vn 0.3657227 0.6679688 -0.6484375
vn 0.3657227 0.6679688 -0.6484375
vn 0.3657227 0.6679688 -0.6484375
vn 0.1811523 0.9833984 -0.006763458
vn 0.1811523 0.9833984 -0.006763458
vn 0.1811523 0.9833984 -0.006763458
vn 0.1811523 0.9833984 -0.006763458
vn 0.002285004 1 -0.003118515
vn 0 1 0
vn -0.0007414818 1 -0.004497528
vn 0.003425598 1 -0.004676819
vn 0 1 0
vn -0.006855011 0.8803711 -0.4743652
vn 0 0.8818359 -0.4719238
vn -0.006855011 0.8803711 -0.4743652
vn 0.03500366 0.9995117 0.00261116
vn 0.03512573 0.9995117 -0.002088547
vn 0.03512573 0.9995117 -0.002088547
vn 0.03500366 0.9995117 0.00261116
vn -0.3503418 0.8496094 0.3945313
vn -0.3503418 0.8496094 0.3945313
vn -0.3503418 0.8496094 0.3945313
vn -0.2415771 0.9702148 -0.01496124
vn -0.2415771 0.9702148 -0.01496124
vn -0.2415771 0.9702148 -0.01496124
vn -0.2415771 0.9702148 -0.01496124
vn 0.002285004 1 -0.003118515
vn 0.006851196 1 -0.009353638
vn 0.006851196 1 -0.009353638
vn 0.003425598 1 -0.004676819
vn 0.008407593 0.9750977 0.222168
vn 0.008407593 0.9750977 0.222168
vn 0.008407593 0.9750977 0.222168
vn 0.008407593 0.9750977 0.222168
vn -0.0007414818 1 -0.004497528
vn -0.006526947 1 -0.009277344
vn -0.0001068711 1 -0.006721497
vn 0.00178051 1 -0.004356384
vn 0.03512573 0.9995117 -0.002088547
vn 0.03512573 0.9995117 -0.002088547
vn 0.03042603 0.8442383 -0.534668
vn 0.06082153 0.8413086 -0.5371094
vn 0.06082153 0.8413086 -0.5371094
vn 0.03042603 0.8442383 -0.534668
vn 0 0.8466797 -0.5322266
vn 0 1 0
vn 0 1 0
vn 0 1 0
vn 0 1 0
vn -0.1315918 0.3100586 0.9414063
vn -0.1315918 0.3100586 0.9414063
vn -0.1315918 0.3100586 0.9414063
vn -0.1315918 0.3100586 0.9414063
vn 0.06518555 0.9604492 -0.2714844
vn 0.06518555 0.9604492 -0.2714844
vn 0.06518555 0.9604492 -0.2714844
vn 0.06518555 0.9604492 -0.2714844
vn -0.3430176 0.9394531 -0.006309509
vn -0.3430176 0.9394531 -0.006309509
vn -0.3430176 0.9394531 -0.006309509
vn -0.3430176 0.9394531 -0.006309509
vn -0.3132324 0.8642578 0.394043
vn -0.3132324 0.8642578 0.394043
vn -0.3132324 0.8642578 0.394043
vn 0 1 0
vn 0 1 0
vn -0.000752449 1 0.001213074
vn 0 1 0
vn 0.008522034 0.5429688 -0.8398438
vn 0.008522034 0.5429688 -0.8398438
vn 0.008522034 0.5429688 -0.8398438
vn 0.008522034 0.5429688 -0.8398438
vn 0 1 0
vn 0 1 0
vn 0 1 0
vn 0 1 0
vn -0.1740723 0.2724609 0.9462891
vn -0.1740723 0.2724609 0.9462891
vn -0.1740723 0.2724609 0.9462891
vn -0.1740723 0.2724609 0.9462891
vn 0.06945801 0.9077148 -0.4143066
vn 0.06945801 0.9077148 -0.4143066
vn 0.06945801 0.9077148 -0.4143066
vn 0.06945801 0.9077148 -0.4143066
vn 0.01204681 0.9873047 -0.1588135
vn 0.01204681 0.9873047 -0.1588135
vn 0.004257202 0.987793 -0.1564941
vn 0.004257202 0.987793 -0.1564941
vn 0.09985352 0.9887695 -0.1124878
vn 0.09985352 0.9887695 -0.1124878
vn 0.09985352 0.9887695 -0.1124878
vn -0.07531738 0.6445313 -0.7612305
vn -0.07531738 0.6445313 -0.7612305
vn -0.07531738 0.6445313 -0.7612305
vn -0.07531738 0.6445313 -0.7612305
vn 0 1 0
vn 0 1 0
vn 0 1 0
vn 0 1 0
vn 0.1052246 0.3110352 0.9443359
vn 0.1052246 0.3110352 0.9443359
vn 0.1052246 0.3110352 0.9443359
vn 0.1052246 0.3110352 0.9443359
vn -0.05969238 0.9545898 -0.2912598
vn -0.05969238 0.9545898 -0.2912598
vn -0.05969238 0.9545898 -0.2912598
vn -0.05969238 0.9545898 -0.2912598
vn -0.6166992 0.7817383 0.09356689
vn -0.6166992 0.7817383 0.09356689
vn -0.6166992 0.7817383 0.09356689
vn -0.6166992 0.7817383 0.09356689
vn -0.1060791 0.418457 0.9018555
vn -0.1060791 0.418457 0.9018555
vn -0.1060791 0.418457 0.9018555
vn -0.1060791 0.418457 0.9018555
vn -0.4909668 0.8623047 -0.1225586
vn -0.4909668 0.8623047 -0.1225586
vn -0.4909668 0.8623047 -0.1225586
vn -0.4909668 0.8623047 -0.1225586
vn 0.5595703 0.8232422 -0.09405518
vn 0.5595703 0.8232422 -0.09405518
vn 0.5537109 0.8295898 -0.06896973
vn 0.5537109 0.8295898 -0.06896973
vn 0.5649414 0.8164063 -0.1191406
vn 0.08660889 0.4191895 0.9038086
vn 0.08660889 0.4191895 0.9038086
vn 0.08660889 0.4191895 0.9038086
vn 0.08660889 0.4191895 0.9038086
vn 0.005256653 0.9360352 -0.3518066
vn 0.005256653 0.9360352 -0.3518066
vn 0.005256653 0.9360352 -0.3518066
vn 0.005256653 0.9360352 -0.3518066
vn 0.05853271 0.8461914 0.5297852
vn 0.05853271 0.8461914 0.5297852
vn 0.05853271 0.8461914 0.5297852
vn 0.05853271 0.8461914 0.5297852
vn -0.3493652 0.6679688 -0.6572266
vn -0.3493652 0.6679688 -0.6572266
vn -0.3493652 0.6679688 -0.6572266
vn 0.2817383 0.9589844 -0.02528381
vn 0.2817383 0.9589844 -0.02528381
vn 0.2817383 0.9589844 -0.02528381
vn 0.2817383 0.9589844 -0.02528381
vn 0.4868164 0.859375 0.1568604
vn 0.4868164 0.859375 0.1568604
vn 0.4868164 0.859375 0.1568604
vn -0.001318932 0.9692383 0.2460938
vn -0.001318932 0.9692383 0.2460938
vn -0.000371933 0.9702148 0.2423096
vn -0.000371933 0.9702148 0.2423096
vn -0.00226593 0.9682617 0.25
vn -0.00226593 0.9682617 0.25
vn -0.5273438 0.8461914 0.07897949
vn -0.5273438 0.8461914 0.07897949
vn -0.5273438 0.8461914 0.07897949
vn -0.5986328 0.762207 -0.2457275
vn -0.5986328 0.762207 -0.2457275
vn -0.5986328 0.762207 -0.2457275

vt 0.06530762 0.2111816
vt 0.06530762 0.2111816
vt 0.06530762 0.2111816
vt 0.06530762 0.2111816
vt 0.06530762 0.2111816
vt 0.06530762 0.2111816
vt 0.06530762 0.2111816
vt 0.06530762 0.2111816
vt 0.06530762 0.2111816
vt 0.06530762 0.2111816
vt 0.06530762 0.2111816
vt 0.06530762 0.2111816
vt 0.06530762 0.2111816
vt 0.06530762 0.2111816
vt 0.06530762 0.2111816
vt 0.06530762 0.2111816
vt 0.06530762 0.2111816
vt 0.06530762 0.2111816
vt 0.1021729 0.3076172
vt 0.1021729 0.3076172
vt 0.1021729 0.3076172
vt 0.1021729 0.3076172
vt 0.1021729 0.3076172
vt 0.1021729 0.3076172
vt 0.1021729 0.3076172
vt 0.1021729 0.3076172
vt 0.1021729 0.3076172
vt 0.1021729 0.3076172
vt 0.1021729 0.3076172
vt 0.1021729 0.3076172
vt 0.1021729 0.3076172
vt 0.1021729 0.3076172
vt 0.1027222 0.2993164
vt 0.1027222 0.2993164
vt 0.1027222 0.2993164
vt 0.1027222 0.2993164
vt 0.1021729 0.3076172
vt 0.1021729 0.3076172
vt 0.1021729 0.3076172
vt 0.1021729 0.3076172
vt 0.1021729 0.3076172
vt 0.1021729 0.3076172
vt 0.1021729 0.3076172
vt 0.1021729 0.3076172
vt 0.1021729 0.3076172
vt 0.1021729 0.3076172
vt 0.1021729 0.3076172
vt 0.1021729 0.3076172
vt 0.1021729 0.3076172
vt 0.1021729 0.3076172
vt 0.1021729 0.3076172
vt 0.1021729 0.3076172
vt 0.1021729 0.3076172
vt 0.1021729 0.3076172
vt 0.1021729 0.3076172
vt 0.1021729 0.3076172
vt 0.1021729 0.3076172
vt 0.1021729 0.3076172
vt 0.1021729 0.3076172
vt 0.1021729 0.3076172
vt 0.1022949 0.3276367
vt 0.1022949 0.3276367
vt 0.1022949 0.3276367
vt 0.1022949 0.3276367
vt 0.1022949 0.3276367
vt 0.1022949 0.3276367
vt 0.1022949 0.3276367
vt 0.1022949 0.3276367
vt 0.1022949 0.3276367
vt 0.1022949 0.3276367
vt 0.102478 0.2792969
vt 0.102478 0.2792969
vt 0.102478 0.2792969
vt 0.102478 0.2792969
vt 0.102478 0.2792969
vt 0.102478 0.2792969
vt 0.102478 0.2792969
vt 0.102478 0.2792969
vt 0.102478 0.2792969
vt 0.102478 0.2792969
vt 0.102478 0.2792969
vt 0.102478 0.2792969
vt 0.102478 0.2792969
vt 0.102478 0.2792969
vt 0.102478 0.2792969
vt 0.102478 0.2792969
vt 0.102478 0.2792969
vt 0.102478 0.2792969
vt 0.102478 0.2792969
vt 0.102478 0.2792969
vt 0.1027222 0.2993164
vt 0.1027222 0.2993164
vt 0.1027222 0.2993164
vt 0.1027222 0.2993164
vt 0.1027222 0.2993164
vt 0.1027222 0.2993164
vt 0.1027222 0.2993164
vt 0.1027222 0.2993164
vt 0.1027222 0.2993164
vt 0.102478 0.3017578
vt 0.102478 0.3017578
vt 0.102478 0.3017578
vt 0.1027222 0.2993164
vt 0.1027222 0.2993164
vt 0.1027222 0.2993164
vt 0.1027222 0.2993164
vt 0.1027222 0.2993164
vt 0.1027222 0.2993164
vt 0.1027222 0.2993164
vt 0.1027222 0.2993164
vt 0.1027222 0.2993164
vt 0.1027222 0.2993164
vt 0.1027222 0.2993164
vt 0.1022949 0.3276367
vt 0.1022949 0.3276367
vt 0.1022949 0.3276367
vt 0.1022949 0.3276367
vt 0.1027222 0.2993164
vt 0.1027222 0.2993164
vt 0.1027222 0.2993164
vt 0.1027222 0.2993164
vt 0.1022949 0.3276367
vt 0.1022949 0.3276367
vt 0.1022949 0.3276367
vt 0.1022949 0.3276367
vt 0.1022949 0.3276367
vt 0.1022949 0.3276367
vt 0.1021729 0.3076172
vt 0.1021729 0.3076172
vt 0.1021729 0.3076172
vt 0.1021729 0.3076172
vt 0.1021729 0.3076172
vt 0.1021729 0.3076172
vt 0.1021729 0.3076172
vt 0.1021729 0.3076172
vt 0.1021729 0.3076172
vt 0.1021729 0.3076172
vt 0.1021729 0.3076172
vt 0.1021729 0.3076172
vt 0.1021729 0.3076172
vt 0.1021729 0.3076172
vt 0.1021729 0.3076172
vt 0.1021729 0.3076172
vt 0.1021729 0.3076172
vt 0.1027222 0.2993164
vt 0.1027222 0.2993164
vt 0.1027222 0.2993164
vt 0.1027222 0.2993164
vt 0.1027222 0.2993164
vt 0.1027222 0.2993164
vt 0.1027222 0.2993164
vt 0.1027222 0.2993164
vt 0.1027222 0.2993164
vt 0.1027222 0.2993164
vt 0.1027222 0.2993164
vt 0.102478 0.2792969
vt 0.102478 0.2792969
vt 0.102478 0.2792969
vt 0.102478 0.2792969
vt 0.102478 0.2792969
vt 0.102478 0.2792969
vt 0.102478 0.2792969
vt 0.102478 0.2792969
vt 0.102478 0.2792969
vt 0.102478 0.2792969
vt 0.102478 0.2792969
vt 0.102478 0.2792969
vt 0.102478 0.2792969
vt 0.102478 0.2792969
vt 0.102478 0.2792969
vt 0.102478 0.2792969
vt 0.102478 0.2792969
vt 0.102478 0.2792969
vt 0.102478 0.2792969
vt 0.102478 0.2792969
vt 0.1027222 0.2993164
vt 0.1027222 0.2993164
vt 0.1027222 0.2993164
vt 0.1021729 0.3076172
vt 0.1021729 0.3076172
vt 0.1021729 0.3076172
vt 0.1021729 0.3076172
vt 0.1021729 0.3076172
vt 0.1021729 0.3076172
vt 0.1021729 0.3076172
vt 0.1021729 0.3076172
vt 0.1021729 0.3076172
vt 0.1021729 0.3076172
vt 0.1021729 0.3076172
vt 0.1021729 0.3076172
vt 0.1021729 0.3076172
vt 0.1021729 0.3076172
vt 0.1021729 0.3076172
vt 0.1021729 0.3076172
vt 0.1021729 0.3076172
vt 0.1021729 0.3076172
vt 0.1021729 0.3076172
vt 0.1021729 0.3076172
vt 0.1021729 0.3076172
vt 0.1021729 0.3076172
vt 0.1021729 0.3076172
vt 0.1021729 0.3076172
vt 0.1021729 0.3076172
vt 0.1021729 0.3076172
vt 0.1021729 0.3076172
vt 0.1021729 0.3076172
vt 0.1021729 0.3076172
vt 0.1021729 0.3076172
vt 0.1021729 0.3076172
vt 0.1021729 0.3076172
vt 0.1021729 0.3076172
vt 0.1021729 0.3076172
vt 0.1021729 0.3076172
vt 0.1021729 0.3076172
vt 0.1021729 0.3076172
vt 0.1021729 0.3076172
vt 0.1021729 0.3076172
vt 0.1021729 0.3076172
vt 0.1021729 0.3076172
vt 0.1021729 0.3076172
vt 0.1021729 0.3076172
vt 0.1021729 0.3076172
vt 0.1021729 0.3076172
vt 0.1021729 0.3076172
vt 0.1021729 0.3076172
vt 0.1021729 0.3076172
vt 0.1021729 0.3076172
vt 0.1021729 0.3076172
vt 0.1021729 0.3076172
vt 0.1021729 0.3076172
vt 0.1021729 0.3076172
vt 0.1021729 0.3076172
vt 0.1021729 0.3076172
vt 0.1021729 0.3076172
vt 0.1021729 0.3076172
vt 0.1021729 0.3076172
vt 0.1021729 0.3076172
vt 0.1021729 0.3076172
vt 0.1021729 0.3076172
vt 0.1021729 0.3076172
vt 0.1021729 0.3076172
vt 0.1021729 0.3076172
vt 0.1021729 0.3076172
vt 0.1021729 0.3076172
vt 0.1021729 0.3076172

g SM_Env_Sidewalk_Dip_01_(2)_321_19
usemtl SM_Env_Sidewalk_Dip_01_(2)_321_19
usemap SM_Env_Sidewalk_Dip_01_(2)_321_19
f 1/1/1 3/3/3 2/2/2
f 1/1/1 4/4/4 3/3/3
f 2/2/2 3/3/3 5/5/5
f 2/2/2 5/5/5 6/6/6
f 6/6/6 5/5/5 7/7/7
f 6/6/6 7/7/7 8/8/8
f 8/8/8 7/7/7 9/9/9
f 8/8/8 9/9/9 10/10/10
f 11/11/11 4/4/4 1/1/1
f 11/11/11 12/12/12 4/4/4
f 13/13/13 12/12/12 11/11/11
f 13/13/13 14/14/14 12/12/12
f 15/15/15 14/14/14 13/13/13
f 15/15/15 16/16/16 14/14/14
f 17/17/17 16/16/16 15/15/15
f 17/17/17 18/18/18 16/16/16
f 19/19/19 21/21/21 20/20/20
f 19/19/19 22/22/22 21/21/21
f 20/20/20 21/21/21 23/23/23
f 20/20/20 23/23/23 24/24/24
f 25/25/25 27/27/27 26/26/26
f 25/25/25 28/28/28 27/27/27
f 29/29/29 31/31/31 30/30/30
f 29/29/29 32/32/32 31/31/31
f 33/33/33 35/35/35 34/34/34
f 33/33/33 36/36/36 35/35/35
f 37/37/37 39/39/39 38/38/38
f 37/37/37 40/40/40 39/39/39
f 41/41/41 40/40/40 37/37/37
f 41/41/41 42/42/42 40/40/40
f 42/42/42 43/43/43 40/40/40
f 42/42/42 44/44/44 43/43/43
f 45/45/45 44/44/44 42/42/42
f 45/45/45 46/46/46 44/44/44
f 38/38/38 39/39/39 47/47/47
f 38/38/38 47/47/47 48/48/48
f 48/48/48 47/47/47 49/49/49
f 48/48/48 49/49/49 50/50/50
f 47/47/47 51/51/51 49/49/49
f 49/49/49 51/51/51 52/52/52
f 49/49/49 52/52/52 53/53/53
f 47/47/47 54/54/54 51/51/51
f 55/55/55 57/57/57 56/56/56
f 55/55/55 58/58/58 57/57/57
f 56/56/56 57/57/57 59/59/59
f 56/56/56 59/59/59 60/60/60
f 61/61/61 63/63/63 62/62/62
f 61/61/61 64/64/64 63/63/63
f 65/65/65 67/67/67 66/66/66
f 65/65/65 68/68/68 67/67/67
f 65/65/65 69/69/69 68/68/68
f 65/65/65 70/70/70 69/69/69
f 71/71/71 73/73/73 72/72/72
f 71/71/71 74/74/74 73/73/73
f 75/75/75 77/77/77 76/76/76
f 75/75/75 78/78/78 77/77/77
f 79/79/79 81/81/81 80/80/80
f 79/79/79 82/82/82 81/81/81
f 83/83/83 85/85/85 84/84/84
f 83/83/83 86/86/86 85/85/85
f 87/87/87 89/89/89 88/88/88
f 87/87/87 90/90/90 89/89/89
f 91/91/91 93/93/93 92/92/92
f 91/91/91 94/94/94 93/93/93
f 95/95/95 97/97/97 96/96/96
f 98/98/98 95/95/95 96/96/96
f 98/98/98 96/96/96 99/99/99
f 100/100/100 102/102/102 101/101/101
f 103/103/103 105/105/105 104/104/104
f 103/103/103 106/106/106 105/105/105
f 107/107/107 109/109/109 108/108/108
f 110/110/110 112/112/112 111/111/111
f 110/110/110 113/113/113 112/112/112
f 114/114/114 116/116/116 115/115/115
f 114/114/114 117/117/117 116/116/116
f 118/118/118 120/120/120 119/119/119
f 118/118/118 121/121/121 120/120/120
f 122/122/122 124/124/124 123/123/123
f 122/122/122 125/125/125 124/124/124
f 126/126/126 125/125/125 122/122/122
f 126/126/126 127/127/127 125/125/125
f 128/128/128 130/130/130 129/129/129
f 128/128/128 131/131/131 130/130/130
f 128/128/128 132/132/132 131/131/131
f 133/133/133 135/135/135 134/134/134
f 133/133/133 136/136/136 135/135/135
f 137/137/137 139/139/139 138/138/138
f 137/137/137 140/140/140 139/139/139
f 141/141/141 143/143/143 142/142/142
f 141/141/141 144/144/144 143/143/143
f 145/145/145 147/147/147 146/146/146
f 145/145/145 148/148/148 147/147/147
f 149/149/149 151/151/151 150/150/150
f 152/152/152 154/154/154 153/153/153
f 152/152/152 155/155/155 154/154/154
f 156/156/156 158/158/158 157/157/157
f 156/156/156 159/159/159 158/158/158
f 160/160/160 162/162/162 161/161/161
f 160/160/160 163/163/163 162/162/162
f 164/164/164 166/166/166 165/165/165
f 164/164/164 167/167/167 166/166/166
f 168/168/168 170/170/170 169/169/169
f 168/168/168 171/171/171 170/170/170
f 172/172/172 174/174/174 173/173/173
f 172/172/172 175/175/175 174/174/174
f 176/176/176 178/178/178 177/177/177
f 179/179/179 181/181/181 180/180/180
f 179/179/179 182/182/182 181/181/181
f 183/183/183 185/185/185 184/184/184
f 183/183/183 186/186/186 185/185/185
f 187/187/187 189/189/189 188/188/188
f 187/187/187 190/190/190 189/189/189
f 191/191/191 193/193/193 192/192/192
f 191/191/191 194/194/194 193/193/193
f 195/195/195 197/197/197 196/196/196
f 195/195/195 198/198/198 197/197/197
f 199/199/199 201/201/201 200/200/200
f 199/199/199 202/202/202 201/201/201
f 203/203/203 205/205/205 204/204/204
f 203/203/203 206/206/206 205/205/205
f 207/207/207 209/209/209 208/208/208
f 207/207/207 210/210/210 209/209/209
f 211/211/211 207/207/207 208/208/208
f 212/212/212 214/214/214 213/213/213
f 212/212/212 215/215/215 214/214/214
f 216/216/216 218/218/218 217/217/217
f 216/216/216 219/219/219 218/218/218
f 220/220/220 222/222/222 221/221/221
f 220/220/220 223/223/223 222/222/222
f 224/224/224 226/226/226 225/225/225
f 227/227/227 229/229/229 228/228/228
f 227/227/227 230/230/230 229/229/229
f 231/231/231 233/233/233 232/232/232
f 234/234/234 236/236/236 235/235/235
f 234/234/234 237/237/237 236/236/236
f 238/238/238 234/234/234 235/235/235
f 238/238/238 235/235/235 239/239/239
f 240/240/240 242/242/242 241/241/241
f 243/243/243 245/245/245 244/244/244
