#SM_Env_Sidewalk_01_(12)_340_11.obj

v 4.9664 0.02436665 -2.439842
v 2.552811 0 -2.463654
v 2.580261 0.01080331 -2.540985
v 4.966408 0 -2.5
v 5 0 0
v 2.469917 0 0
v 2.501823 0 -0.06304932
v 4.9664 0.0008423775 -0.06222534
v 2.441063 0.001182646 -0.0628891
v 0.03358459 0 -0.039505
v 0 0 0
v 4.966408 0 -2.5
v 2.580261 0.01080331 -2.540985
v 2.565453 0.0002123378 -4.938156
v 4.945282 0 -4.96048
v 0.07658386 0 -2.556984
v 0 0 -2.536041
v 0 0 -5
v 0.02738953 0.01881625 -4.938972
v 0.06583405 0 -2.489075
v 0 0 -2.536041
v 0.07658386 0 -2.556984
v 0 0 0
v 0.03358459 0 -0.039505
v 2.580261 0.01080331 -2.540985
v 2.492661 0 -2.523811
v 2.504753 0 -4.93782
v 2.565453 0.0002123378 -4.938156
v 2.533798 0 -5
v 2.552811 0 -2.463654
v 2.475235 0.03420928 -2.458885
v 2.492661 0 -2.523811
v 2.475235 0.03420928 -2.458885
v 0.06583405 0 -2.489075
v 0.07658386 0 -2.556984
v 2.492661 0 -2.523811
v 2.492661 0 -2.523811
v 0.07658386 0 -2.556984
v 0.02738953 0.01881625 -4.938972
v 2.504753 0 -4.93782
v 5 0 -2.469925
v 4.9664 0.02436665 -2.439842
v 4.966408 0 -2.5
v 5 0 -5
v 5 0 -2.469925
v 4.966408 0 -2.5
v 4.945282 0 -4.96048
v 2.552811 0 -2.463654
v 2.492661 0 -2.523811
v 2.580261 0.01080331 -2.540985
v 5 0 -2.469925
v 5 0 0
v 4.9664 0.0008423775 -0.06222534
v 4.9664 0.02436665 -2.439842
v 2.501823 0 -0.06304932
v 2.552811 0 -2.463654
v 4.9664 0.02436665 -2.439842
v 4.9664 0.0008423775 -0.06222534
v 2.441063 0.001182646 -0.0628891
v 2.475235 0.03420928 -2.458885
v 2.552811 0 -2.463654
v 2.501823 0 -0.06304932
v 0.03358459 0 -0.039505
v 0.06583405 0 -2.489075
v 2.475235 0.03420928 -2.458885
v 2.441063 0.001182646 -0.0628891
v 2.565453 0.0002123378 -4.938156
v 2.533798 0 -5
v 5 0 -5
v 4.945282 0 -4.96048
v 0.02738953 0.01881625 -4.938972
v 0 0 -5
v 2.533798 0 -5
v 2.504753 0 -4.93782

vn -0.001482964 0.9951172 -0.09844971
vn -0.001482964 0.9951172 -0.09844971
vn 0.0004191399 0.9985352 -0.05038452
vn 0.0004191399 0.9985352 -0.05038452
vn -0.000169754 1 0.006725311
vn 0.006378174 1 0.009376526
vn 0.004707336 1 0.007152557
vn -0.002681732 1 0.00579834
vn 0.003982544 1 0.009368896
vn -0.002513885 1 0.006084442
vn -9.357929E-05 1 0.005771637
vn 0.0002794266 0.9995117 -0.03359985
vn -0.02453613 0.9990234 -0.03433228
vn -0.01889038 1 -0.001609802
vn 0.0007734299 1 -0.001428604
vn -0.1801758 0.9833984 0.005649567
vn -0.1801758 0.9833984 0.005649567
vn -0.1801758 0.9833984 0.005649567
vn -0.1801758 0.9833984 0.005649567
vn -0.00245285 1 0.00223732
vn 0 1 0
vn 0.001909256 1 0.001946449
vn -9.357929E-05 1 0.005771637
vn -0.002513885 1 0.006084442
vn -0.03604126 0.9995117 -0.002176285
vn -0.03527832 0.9995117 0.0008707047
vn -0.02468872 0.9995117 0.0005803108
vn -0.01889038 1 -0.001609802
vn -0.001753807 1 -0.00104332
vn 0.3581543 0.8623047 -0.3581543
vn 0.3581543 0.8623047 -0.3581543
vn 0.3581543 0.8623047 -0.3581543
vn -0.003580093 0.9682617 -0.25
vn -0.003580093 0.9682617 -0.25
vn -0.003580093 0.9682617 -0.25
vn -0.003580093 0.9682617 -0.25
vn -0.03527832 0.9995117 0.0008707047
vn 0.001909256 1 0.001946449
vn 0.003818512 1 0.003892899
vn -0.02468872 0.9995117 0.0005803108
vn 0.3186035 0.878418 -0.3557129
vn 0.3186035 0.878418 -0.3557129
vn 0.3186035 0.878418 -0.3557129
vn 0 1 -0.00104332
vn 0 1 0
vn 0.001159668 1 -0.001098633
vn 0.0007734299 1 -0.001428604
vn -0.1020508 0.9897461 0.1020508
vn -0.1020508 0.9897461 0.1020508
vn -0.1020508 0.9897461 0.1020508
vn 0.3493652 0.9370117 0.004547119
vn 0.3493652 0.9370117 0.004547119
vn 0.3493652 0.9370117 0.004547119
vn 0.3493652 0.9370117 0.004547119
vn 0.004707336 1 0.007152557
vn -0.005191803 1 0.004867554
vn -0.005191803 1 0.004867554
vn -0.002681732 1 0.00579834
vn 0.2481689 0.96875 0.01107788
vn 0.2481689 0.96875 0.01107788
vn 0.2481689 0.96875 0.01107788
vn 0.2481689 0.96875 0.01107788
vn -0.002513885 1 0.006084442
vn -0.00245285 1 0.00223732
vn -0.007354736 1 0.006713867
vn 0.003982544 1 0.009368896
vn -0.01889038 1 -0.001609802
vn -0.001753807 1 -0.00104332
vn 0 1 -0.00104332
vn 0.0007734299 1 -0.001428604
vn 0.003746033 0.9887695 -0.1508789
vn 0.003746033 0.9887695 -0.1508789
vn 0.003746033 0.9887695 -0.1508789
vn 0.003746033 0.9887695 -0.1508789

vt 0.1027222 0.2993164
vt 0.1027222 0.2993164
vt 0.1027222 0.2993164
vt 0.1027222 0.2993164
vt 0.09960938 0.3049316
vt 0.09960938 0.3049316
vt 0.09960938 0.3049316
vt 0.09960938 0.3049316
vt 0.09960938 0.3049316
vt 0.09960938 0.3049316
vt 0.09960938 0.3049316
vt 0.1022949 0.3276367
vt 0.1022949 0.3276367
vt 0.1022949 0.3276367
vt 0.1022949 0.3276367
vt 0.1027222 0.2993164
vt 0.1027222 0.2993164
vt 0.1027222 0.2993164
vt 0.1027222 0.2993164
vt 0.1027222 0.2993164
vt 0.1027222 0.2993164
vt 0.1027222 0.2993164
vt 0.1027222 0.2993164
vt 0.1027222 0.2993164
vt 0.1027222 0.2993164
vt 0.1027222 0.2993164
vt 0.1027222 0.2993164
vt 0.1027222 0.2993164
vt 0.1027222 0.2993164
vt 0.1027222 0.2993164
vt 0.1027222 0.2993164
vt 0.1027222 0.2993164
vt 0.1027222 0.2993164
vt 0.1027222 0.2993164
vt 0.1027222 0.2993164
vt 0.1027222 0.2993164
vt 0.1022949 0.3276367
vt 0.1022949 0.3276367
vt 0.1022949 0.3276367
vt 0.1022949 0.3276367
vt 0.1027222 0.2993164
vt 0.1027222 0.2993164
vt 0.1027222 0.2993164
vt 0.1027222 0.2993164
vt 0.1027222 0.2993164
vt 0.1027222 0.2993164
vt 0.1027222 0.2993164
vt 0.1027222 0.2993164
vt 0.1027222 0.2993164
vt 0.1027222 0.2993164
vt 0.1027222 0.2993164
vt 0.1027222 0.2993164
vt 0.1027222 0.2993164
vt 0.1027222 0.2993164
vt 0.1022949 0.3276367
vt 0.1022949 0.3276367
vt 0.1022949 0.3276367
vt 0.1022949 0.3276367
vt 0.1027222 0.2993164
vt 0.1027222 0.2993164
vt 0.1027222 0.2993164
vt 0.1027222 0.2993164
vt 0.1022949 0.3276367
vt 0.1022949 0.3276367
vt 0.1022949 0.3276367
vt 0.1022949 0.3276367
vt 0.1030884 0.3049316
vt 0.1030884 0.3049316
vt 0.1030884 0.3049316
vt 0.1030884 0.3049316
vt 0.09960938 0.3049316
vt 0.09960938 0.3049316
vt 0.09960938 0.3049316
vt 0.09960938 0.3049316

g SM_Env_Sidewalk_01_(12)_340_11
usemtl SM_Env_Sidewalk_01_(12)_340_11
usemap SM_Env_Sidewalk_01_(12)_340_11
f 1/1/1 3/3/3 2/2/2
f 1/1/1 4/4/4 3/3/3
f 5/5/5 7/7/7 6/6/6
f 5/5/5 8/8/8 7/7/7
f 6/6/6 7/7/7 9/9/9
f 6/6/6 9/9/9 10/10/10
f 6/6/6 10/10/10 11/11/11
f 12/12/12 14/14/14 13/13/13
f 12/12/12 15/15/15 14/14/14
f 16/16/16 18/18/18 17/17/17
f 16/16/16 19/19/19 18/18/18
f 20/20/20 22/22/22 21/21/21
f 23/23/23 20/20/20 21/21/21
f 23/23/23 24/24/24 20/20/20
f 25/25/25 27/27/27 26/26/26
f 25/25/25 28/28/28 27/27/27
f 27/27/27 28/28/28 29/29/29
f 30/30/30 32/32/32 31/31/31
f 33/33/33 35/35/35 34/34/34
f 33/33/33 36/36/36 35/35/35
f 37/37/37 39/39/39 38/38/38
f 37/37/37 40/40/40 39/39/39
f 41/41/41 43/43/43 42/42/42
f 44/44/44 46/46/46 45/45/45
f 44/44/44 47/47/47 46/46/46
f 48/48/48 50/50/50 49/49/49
f 51/51/51 53/53/53 52/52/52
f 51/51/51 54/54/54 53/53/53
f 55/55/55 57/57/57 56/56/56
f 55/55/55 58/58/58 57/57/57
f 59/59/59 61/61/61 60/60/60
f 59/59/59 62/62/62 61/61/61
f 63/63/63 65/65/65 64/64/64
f 63/63/63 66/66/66 65/65/65
f 67/67/67 69/69/69 68/68/68
f 67/67/67 70/70/70 69/69/69
f 71/71/71 73/73/73 72/72/72
f 71/71/71 74/74/74 73/73/73
