#SM_Prop_LightPole_Base_01_(5)_344_8.obj

v -0.1422935 6.321997 1.621256
v -0.1422935 6.4507 1.621256
v -0.1422935 6.4507 2.305864
v -0.1422935 6.321997 2.305864
v -0.1166039 6.482997 1.683043
v 0.1166137 6.482997 1.683043
v 0.1166137 6.482997 2.244078
v -0.1166039 6.482997 2.244078
v 0.1422935 6.4507 1.621256
v 0.1422935 6.321997 1.621256
v 0.1422935 6.321997 2.305864
v 0.1422935 6.4507 2.305864
v 0.08102415 6.230476 1.714539
v -0.08102273 6.230476 1.71454
v -0.08102273 6.230476 2.21258
v 0.08102415 6.230476 2.21258
v -0.1422935 6.321997 2.305864
v -0.1422935 6.4507 2.305864
v 0.1422935 6.4507 2.305864
v 0.1422935 6.321997 2.305864
v 0.1422935 6.321997 1.621256
v 0.1422935 6.4507 1.621256
v -0.1422935 6.4507 1.621256
v -0.1422935 6.321997 1.621256
v -0.1422935 6.4507 1.621256
v -0.1166039 6.482997 1.683043
v -0.1166039 6.482997 2.244078
v -0.1422935 6.4507 2.305864
v -0.1422935 6.4507 2.305864
v -0.1166039 6.482997 2.244078
v 0.1166137 6.482997 2.244078
v 0.1422935 6.4507 2.305864
v 0.1422935 6.4507 2.305864
v 0.1166137 6.482997 2.244078
v 0.1166137 6.482997 1.683043
v 0.1422935 6.4507 1.621256
v 0.1422935 6.4507 1.621256
v 0.1166137 6.482997 1.683043
v -0.1166039 6.482997 1.683043
v -0.1422935 6.4507 1.621256
v 0.1422935 6.321997 1.621256
v 0.09971432 6.321997 1.665693
v 0.09971432 6.321997 2.261427
v 0.1422935 6.321997 2.305864
v -0.09971432 6.321997 2.261427
v -0.1422935 6.321997 2.305864
v -0.09971432 6.321997 1.665693
v -0.1422935 6.321997 1.621256
v 0.09971432 6.321997 1.665693
v 0.08102415 6.230476 1.714539
v 0.08102415 6.230476 2.21258
v 0.09971432 6.321997 2.261427
v 0.09971432 6.321997 2.261427
v 0.08102415 6.230476 2.21258
v -0.08102273 6.230476 2.21258
v -0.09971432 6.321997 2.261427
v -0.09971432 6.321997 2.261427
v -0.08102273 6.230476 2.21258
v -0.08102273 6.230476 1.71454
v -0.09971432 6.321997 1.665693
v -0.09971432 6.321997 1.665693
v -0.08102273 6.230476 1.71454
v 0.08102415 6.230476 1.714539
v 0.09971432 6.321997 1.665693
v 0.05355642 5.345001 0.05355255
v 0.05355642 5.421756 0.05355255
v 0.07573929 5.421756 -1.938815E-06
v 0.07573929 5.345001 -1.938815E-06
v 0.07573929 5.345001 -1.938815E-06
v 0.07573929 5.421756 -1.938815E-06
v 0.05355642 5.421756 -0.05355255
v 0.05355642 5.345001 -0.05355255
v 0.05355642 5.345001 -0.05355255
v 0.05355642 5.421756 -0.05355255
v 0 5.421756 -0.07573505
v 0 5.345001 -0.07573505
v 0 5.345001 -0.07573505
v 0 5.421756 -0.07573505
v -0.05355219 5.421756 -0.05355255
v -0.05355219 5.345001 -0.05355255
v -0.05355219 5.345001 -0.05355255
v -0.05355219 5.421756 -0.05355255
v -0.07573505 5.421756 -1.938815E-06
v -0.07573505 5.345001 -1.938815E-06
v -0.07573505 5.345001 -1.938815E-06
v -0.07573505 5.421756 -1.938815E-06
v -0.05355219 5.421756 0.05355255
v -0.05355219 5.345001 0.05355255
v -0.05355219 5.345001 0.05355255
v -0.05355219 5.421756 0.05355255
v 0 5.421756 0.07573312
v 0 5.345001 0.07573312
v 0 5.345001 0.07573312
v 0 5.421756 0.07573312
v 0.05355642 5.421756 0.05355255
v 0.05355642 5.345001 0.05355255
v 0.172869 0 -1.938815E-06
v 0 0 0
v 0.1222384 0 0.1222344
v 0.1222384 0 -0.1222344
v -1.410047E-06 0 -0.1728649
v -0.1222328 0 -0.1222344
v -0.1728662 0 0
v -0.1222328 0 0.1222344
v -1.410047E-06 0 0.1728611
v 0.04091112 5.792081 0.04090689
v 0 5.792081 0
v 0.05785565 5.792081 -1.938815E-06
v 0.04091112 5.792081 -0.04090882
v 0 5.792081 -0.05785372
v -0.04090689 5.792081 -0.04090882
v -0.05785425 5.792081 0
v -0.04090689 5.792081 0.04090689
v 0 5.792081 0.05785178
v -0.04090689 0.8341886 0.04090689
v -0.02453765 3.126472 0.02525712
v 0.01636642 3.126472 0.04220008
v -1.410047E-06 0.8341886 0.05785178
v -1.410047E-06 0.8341886 0.05785178
v 0.01636642 3.126472 0.04220008
v 0.05727895 3.126472 0.02525712
v 0.04091112 0.8341886 0.04090689
v 0.04091112 0.8341886 0.04090689
v 0.05727895 3.126472 0.02525712
v 0.07422208 3.126472 -0.0156517
v 0.05785425 0.8341886 0
v 0.05785425 0.8341886 0
v 0.07422208 3.126472 -0.0156517
v 0.05727895 3.126472 -0.05656053
v 0.04091112 0.8341886 -0.04090882
v 0.04091112 0.8341886 -0.04090882
v 0.05727895 3.126472 -0.05656053
v 0.01636642 3.126472 -0.07350542
v -1.410047E-06 0.8341886 -0.05785372
v -1.410047E-06 0.8341886 -0.05785372
v 0.01636642 3.126472 -0.07350542
v -0.02453765 3.126472 -0.05656053
v -0.04090689 0.8341886 -0.04090882
v -0.04090689 0.8341886 -0.04090882
v -0.02453765 3.126472 -0.05656053
v -0.041485 3.126472 -0.0156517
v -0.05785425 0.8341886 0
v -0.05785425 0.8341886 0
v -0.041485 3.126472 -0.0156517
v -0.02453765 3.126472 0.02525712
v -0.04090689 0.8341886 0.04090689
v -0.04090689 5.421756 -0.04090882
v -0.04090689 5.792081 -0.04090882
v -0.05785425 5.792081 0
v -0.05785425 5.421756 0
v 0 5.421756 -0.05785372
v 0 5.792081 -0.05785372
v -0.04090689 5.792081 -0.04090882
v -0.04090689 5.421756 -0.04090882
v 0.04091112 5.421756 -0.04090882
v 0.04091112 5.792081 -0.04090882
v 0 5.792081 -0.05785372
v 0 5.421756 -0.05785372
v 0.05785565 5.421756 -1.938815E-06
v 0.05785565 5.792081 -1.938815E-06
v 0.04091112 5.792081 -0.04090882
v 0.04091112 5.421756 -0.04090882
v 0.04091112 5.421756 0.04090689
v 0.04091112 5.792081 0.04090689
v 0.05785565 5.792081 -1.938815E-06
v 0.05785565 5.421756 -1.938815E-06
v 0 5.421756 0.05785178
v 0 5.792081 0.05785178
v 0.04091112 5.792081 0.04090689
v 0.04091112 5.421756 0.04090689
v -0.04090689 5.421756 0.04090689
v -0.04090689 5.792081 0.04090689
v 0 5.792081 0.05785178
v 0 5.421756 0.05785178
v -0.05785425 5.421756 0
v -0.05785425 5.792081 0
v -0.04090689 5.792081 0.04090689
v -0.04090689 5.421756 0.04090689
v 0.04091112 5.345001 0.04090689
v 0.05355642 5.345001 0.05355255
v 0.07573929 5.345001 -1.938815E-06
v 0.05785565 5.345001 -1.938815E-06
v 0.05355642 5.345001 -0.05355255
v 0.04091112 5.345001 -0.04090882
v 0 5.345001 -0.07573505
v 0 5.345001 -0.05785372
v -0.05355219 5.345001 -0.05355255
v -0.04090689 5.345001 -0.04090882
v -0.07573505 5.345001 -1.938815E-06
v -0.05785425 5.345001 0
v -0.05355219 5.345001 0.05355255
v -0.04090689 5.345001 0.04090689
v 0 5.345001 0.07573312
v 0 5.345001 0.05785178
v 0.05785565 5.421756 -1.938815E-06
v 0.07573929 5.421756 -1.938815E-06
v 0.05355642 5.421756 0.05355255
v 0.04091112 5.421756 0.04090689
v 0.04091112 5.421756 -0.04090882
v 0.05355642 5.421756 -0.05355255
v 0 5.421756 -0.05785372
v 0 5.421756 -0.07573505
v -0.04090689 5.421756 -0.04090882
v -0.05355219 5.421756 -0.05355255
v -0.05785425 5.421756 0
v -0.07573505 5.421756 -1.938815E-06
v -0.04090689 5.421756 0.04090689
v -0.05355219 5.421756 0.05355255
v 0 5.421756 0.05785178
v 0 5.421756 0.07573312
v 0.0461297 6.347058 0.9370442
v 0.0461297 6.048279 0.4494438
v 0.03261722 6.025213 0.4725094
v 0.03261722 6.316921 0.949526
v 0.0461297 5.722008 0.1292266
v 0.03261722 5.709524 0.1593646
v 0.03261722 6.377195 0.9245604
v 0.03261722 6.071346 0.4263783
v 0.0461297 6.048279 0.4494438
v 0.0461297 6.347058 0.9370442
v 0.0461297 5.722008 0.1292266
v 0.03261722 5.734491 0.09908862
v -1.410047E-06 6.0809 0.4168224
v 0.03261722 6.071346 0.4263783
v 0.03261722 6.377195 0.9245604
v -1.410047E-06 6.389678 0.9193897
v -0.03262145 6.377195 0.9245604
v -0.03262145 6.071346 0.4263783
v -1.410047E-06 6.0809 0.4168224
v -1.410047E-06 6.389678 0.9193897
v -0.04613252 6.347058 0.9370442
v -0.04613252 6.048279 0.4494438
v -0.03262145 6.071346 0.4263783
v -0.03262145 6.377195 0.9245604
v -0.03262145 5.734491 0.09908862
v -0.04613252 5.722008 0.1292266
v -0.03262145 6.316921 0.949526
v -0.03262145 6.025213 0.4725094
v -0.04613252 6.048279 0.4494438
v -0.04613252 6.347058 0.9370442
v -0.04613252 5.722008 0.1292266
v -0.03262145 5.709524 0.1593646
v -1.410047E-06 6.304437 0.9546987
v -1.410047E-06 6.015658 0.4820653
v -0.03262145 6.025213 0.4725094
v -0.03262145 6.316921 0.949526
v 0.03261722 6.316921 0.949526
v 0.03261722 6.025213 0.4725094
v -1.410047E-06 6.015658 0.4820653
v -1.410047E-06 6.304437 0.9546987
v 0.03261722 6.359972 1.621256
v -1.410047E-06 6.392592 1.621256
v 0.0461297 6.392592 1.621256
v 0.03261722 6.425213 1.621256
v -1.410047E-06 6.438725 1.621256
v -0.03262145 6.425213 1.621256
v -0.04613252 6.392592 1.621256
v -0.03262145 6.359972 1.621256
v -1.410047E-06 6.34646 1.621256
v 0.03261722 5.734491 0.09908862
v 0.03261722 6.071346 0.4263783
v -1.410047E-06 6.0809 0.4168224
v -1.410047E-06 5.739662 0.08660512
v -1.410047E-06 5.739662 0.08660512
v -1.410047E-06 6.0809 0.4168224
v -0.03262145 6.071346 0.4263783
v -0.03262145 5.734491 0.09908862
v -0.03262145 5.709524 0.1593646
v -0.03262145 6.025213 0.4725094
v -1.410047E-06 6.015658 0.4820653
v -1.410047E-06 5.704353 0.1718464
v -1.410047E-06 5.704353 0.1718464
v -1.410047E-06 6.015658 0.4820653
v 0.03261722 6.025213 0.4725094
v 0.03261722 5.709524 0.1593646
v -0.03262145 5.734491 0.09908862
v -0.03262145 5.299864 -0.03262145
v -1.410047E-06 5.299864 -0.04613305
v -1.410047E-06 5.739662 0.08660512
v -0.04613252 5.722008 0.1292266
v -0.04613252 5.299864 -1.938815E-06
v -0.03262145 5.299864 -0.03262145
v -0.03262145 5.734491 0.09908862
v -0.03262145 5.709524 0.1593646
v -0.03262145 5.299864 0.03261951
v -0.04613252 5.299864 -1.938815E-06
v -0.04613252 5.722008 0.1292266
v -1.410047E-06 5.704353 0.1718464
v -1.410047E-06 5.299864 0.04613111
v -0.03262145 5.299864 0.03261951
v -0.03262145 5.709524 0.1593646
v 0.03261722 5.709524 0.1593646
v 0.03261722 5.299864 0.03261951
v -1.410047E-06 5.299864 0.04613111
v -1.410047E-06 5.704353 0.1718464
v 0.0461297 5.722008 0.1292266
v 0.0461297 5.299864 -1.938815E-06
v 0.03261722 5.299864 0.03261951
v 0.03261722 5.709524 0.1593646
v 0.03261722 5.299864 -0.03262145
v 0.0461297 5.299864 -1.938815E-06
v 0.0461297 5.722008 0.1292266
v 0.03261722 5.734491 0.09908862
v -1.410047E-06 5.739662 0.08660512
v -1.410047E-06 5.299864 -0.04613305
v 0.03261722 5.299864 -0.03262145
v 0.03261722 5.734491 0.09908862
v -1.410047E-06 6.304437 0.9546987
v -1.410047E-06 6.34646 1.621256
v 0.03261722 6.359972 1.621256
v 0.03261722 6.316921 0.949526
v -0.03262145 6.316921 0.949526
v -0.03262145 6.359972 1.621256
v -1.410047E-06 6.34646 1.621256
v -1.410047E-06 6.304437 0.9546987
v -0.04613252 6.347058 0.9370442
v -0.04613252 6.392592 1.621256
v -0.03262145 6.359972 1.621256
v -0.03262145 6.316921 0.949526
v -0.03262145 6.377195 0.9245604
v -0.03262145 6.425213 1.621256
v -0.04613252 6.392592 1.621256
v -0.04613252 6.347058 0.9370442
v -1.410047E-06 6.389678 0.9193897
v -1.410047E-06 6.438725 1.621256
v -0.03262145 6.425213 1.621256
v -0.03262145 6.377195 0.9245604
v 0.03261722 6.377195 0.9245604
v 0.03261722 6.425213 1.621256
v -1.410047E-06 6.438725 1.621256
v -1.410047E-06 6.389678 0.9193897
v 0.0461297 6.347058 0.9370442
v 0.0461297 6.392592 1.621256
v 0.03261722 6.425213 1.621256
v 0.03261722 6.377195 0.9245604
v 0.03261722 6.359972 1.621256
v 0.0461297 6.392592 1.621256
v 0.0461297 6.347058 0.9370442
v 0.03261722 6.316921 0.949526
v -4.230142E-06 0.8033353 -0.08579452
v -1.410047E-06 0.8341886 -0.05785372
v -0.04090689 0.8341886 -0.04090882
v -0.06066306 0.8033353 -0.06066712
v -0.06066306 0.8033353 -0.06066712
v -0.04090689 0.8341886 -0.04090882
v -0.05785425 0.8341886 0
v -0.08579434 0.8033353 -1.938815E-06
v -0.08579434 0.8033353 -1.938815E-06
v -0.05785425 0.8341886 0
v -0.04090689 0.8341886 0.04090689
v -0.06066306 0.8033353 0.06066518
v -0.06066306 0.8033353 0.06066518
v -0.04090689 0.8341886 0.04090689
v -1.410047E-06 0.8341886 0.05785178
v -4.230142E-06 0.8033353 0.08579257
v -4.230142E-06 0.8033353 0.08579257
v -1.410047E-06 0.8341886 0.05785178
v 0.04091112 0.8341886 0.04090689
v 0.0606687 0.8033353 0.06066518
v 0.0606687 0.8033353 0.06066518
v 0.04091112 0.8341886 0.04090689
v 0.05785425 0.8341886 0
v 0.08579434 0.8033353 -1.938815E-06
v 0.08579434 0.8033353 -1.938815E-06
v 0.05785425 0.8341886 0
v 0.04091112 0.8341886 -0.04090882
v 0.0606687 0.8033353 -0.06066518
v 0.0606687 0.8033353 -0.06066518
v 0.04091112 0.8341886 -0.04090882
v -1.410047E-06 0.8341886 -0.05785372
v -4.230142E-06 0.8033353 -0.08579452
v -1.410047E-06 0.1137413 -0.1728649
v -4.230142E-06 0.2100812 -0.08579452
v -0.06066306 0.2100812 -0.06066712
v -0.1222328 0.1137413 -0.1222344
v -0.1222328 0.1137413 -0.1222344
v -0.06066306 0.2100812 -0.06066712
v -0.08579857 0.2100812 -1.938815E-06
v -0.1728662 0.1137413 0
v -0.1728662 0.1137413 0
v -0.08579857 0.2100812 -1.938815E-06
v -0.06066306 0.2100812 0.06066518
v -0.1222328 0.1137413 0.1222344
v -0.1222328 0.1137413 0.1222344
v -0.06066306 0.2100812 0.06066518
v -4.230142E-06 0.2100812 0.08579257
v -1.410047E-06 0.1137413 0.1728611
v -1.410047E-06 0.1137413 0.1728611
v -4.230142E-06 0.2100812 0.08579257
v 0.0606687 0.2100812 0.06066518
v 0.1222384 0.1137413 0.1222344
v 0.1222384 0.1137413 0.1222344
v 0.0606687 0.2100812 0.06066518
v 0.08579575 0.2100812 0
v 0.172869 0.1137413 -1.938815E-06
v 0.172869 0.1137413 -1.938815E-06
v 0.08579575 0.2100812 0
v 0.0606687 0.2100812 -0.06066518
v 0.1222384 0.1137413 -0.1222344
v 0.1222384 0.1137413 -0.1222344
v 0.0606687 0.2100812 -0.06066518
v -4.230142E-06 0.2100812 -0.08579452
v -1.410047E-06 0.1137413 -0.1728649
v -1.410047E-06 0 -0.1728649
v -1.410047E-06 0.1137413 -0.1728649
v -0.1222328 0.1137413 -0.1222344
v -0.1222328 0 -0.1222344
v -0.1222328 0 -0.1222344
v -0.1222328 0.1137413 -0.1222344
v -0.1728662 0.1137413 0
v -0.1728662 0 0
v -0.1728662 0 0
v -0.1728662 0.1137413 0
v -0.1222328 0.1137413 0.1222344
v -0.1222328 0 0.1222344
v -0.1222328 0 0.1222344
v -0.1222328 0.1137413 0.1222344
v -1.410047E-06 0.1137413 0.1728611
v -1.410047E-06 0 0.1728611
v -1.410047E-06 0 0.1728611
v -1.410047E-06 0.1137413 0.1728611
v 0.1222384 0.1137413 0.1222344
v 0.1222384 0 0.1222344
v 0.1222384 0 0.1222344
v 0.1222384 0.1137413 0.1222344
v 0.172869 0.1137413 -1.938815E-06
v 0.172869 0 -1.938815E-06
v 0.172869 0 -1.938815E-06
v 0.172869 0.1137413 -1.938815E-06
v 0.1222384 0.1137413 -0.1222344
v 0.1222384 0 -0.1222344
v 0.1222384 0 -0.1222344
v 0.1222384 0.1137413 -0.1222344
v -1.410047E-06 0.1137413 -0.1728649
v -1.410047E-06 0 -0.1728649
v 0.0606687 0.2100812 0.06066518
v 0.0606687 0.8033353 0.06066518
v 0.08579434 0.8033353 -1.938815E-06
v 0.08579575 0.2100812 0
v -4.230142E-06 0.2100812 0.08579257
v -4.230142E-06 0.8033353 0.08579257
v 0.0606687 0.8033353 0.06066518
v 0.0606687 0.2100812 0.06066518
v -0.06066306 0.2100812 0.06066518
v -0.06066306 0.8033353 0.06066518
v -4.230142E-06 0.8033353 0.08579257
v -4.230142E-06 0.2100812 0.08579257
v -0.08579857 0.2100812 -1.938815E-06
v -0.08579434 0.8033353 -1.938815E-06
v -0.06066306 0.8033353 0.06066518
v -0.06066306 0.2100812 0.06066518
v -0.06066306 0.2100812 -0.06066712
v -0.06066306 0.8033353 -0.06066712
v -0.08579434 0.8033353 -1.938815E-06
v -0.08579857 0.2100812 -1.938815E-06
v -4.230142E-06 0.2100812 -0.08579452
v -4.230142E-06 0.8033353 -0.08579452
v -0.06066306 0.8033353 -0.06066712
v -0.06066306 0.2100812 -0.06066712
v 0.0606687 0.2100812 -0.06066518
v 0.0606687 0.8033353 -0.06066518
v -4.230142E-06 0.8033353 -0.08579452
v -4.230142E-06 0.2100812 -0.08579452
v 0.08579575 0.2100812 0
v 0.08579434 0.8033353 -1.938815E-06
v 0.0606687 0.8033353 -0.06066518
v 0.0606687 0.2100812 -0.06066518
v 0.05596337 3.201168 -0.05536833
v 0.0255416 4.208497 -0.02781495
v -0.009933785 4.208497 -0.04250711
v 0.01527645 3.201168 -0.07221981
v 0 5.345001 -0.05785372
v 0.04091112 5.345001 -0.04090882
v 0.07281344 3.201168 -0.01468476
v 0.04023429 4.208497 0.007659907
v 0.0255416 4.208497 -0.02781495
v 0.05596337 3.201168 -0.05536833
v 0.04091112 5.345001 -0.04090882
v 0.05785565 5.345001 -1.938815E-06
v 0.05596337 3.201168 0.02599722
v 0.0255416 4.208497 0.04313282
v 0.04023429 4.208497 0.007659907
v 0.07281344 3.201168 -0.01468476
v 0.05785565 5.345001 -1.938815E-06
v 0.04091112 5.345001 0.04090689
v 0.01527645 3.201168 0.04284852
v -0.009933785 4.208497 0.05782516
v 0.0255416 4.208497 0.04313282
v 0.05596337 3.201168 0.02599722
v 0.04091112 5.345001 0.04090689
v 0 5.345001 0.05785178
v -0.02540341 3.201168 0.02599722
v -0.04540494 4.208497 0.04313282
v -0.009933785 4.208497 0.05782516
v 0.01527645 3.201168 0.04284852
v 0 5.345001 0.05785178
v -0.04090689 5.345001 0.04090689
v -0.04225771 3.201168 -0.01468476
v -0.06010045 4.208497 0.007659907
v -0.04540494 4.208497 0.04313282
v -0.02540341 3.201168 0.02599722
v -0.04090689 5.345001 0.04090689
v -0.05785425 5.345001 0
v -0.02540341 3.201168 -0.05536833
v -0.04540494 4.208497 -0.02781495
v -0.06010045 4.208497 0.007659907
v -0.04225771 3.201168 -0.01468476
v -0.05785425 5.345001 0
v -0.04090689 5.345001 -0.04090882
v 0.01527645 3.201168 -0.07221981
v -0.009933785 4.208497 -0.04250711
v -0.04540494 4.208497 -0.02781495
v -0.02540341 3.201168 -0.05536833
v -0.04090689 5.345001 -0.04090882
v 0 5.345001 -0.05785372
v 0.01636924 3.138916 -0.09364319
v 0.01525107 3.189301 -0.0921956
v -0.03971539 3.189172 -0.06947321
v -0.03865786 3.138803 -0.07081611
v -0.03865786 3.138803 -0.07081611
v -0.03971539 3.189172 -0.06947321
v -0.0623664 3.188773 -0.0146065
v -0.06157254 3.138412 -0.01569559
v -0.06157254 3.138412 -0.01569559
v -0.0623664 3.188773 -0.0146065
v -0.03957298 3.18862 0.04026214
v -0.03879322 3.138252 0.03942687
v -0.03879322 3.138252 0.03942687
v -0.03957298 3.18862 0.04026214
v 0.01523979 3.188914 0.06298823
v 0.01635796 3.138547 0.06225959
v 0.01635796 3.138547 0.06225959
v 0.01523979 3.188914 0.06298823
v 0.07007372 3.189146 0.04026408
v 0.07152889 3.138783 0.03942863
v 0.07152889 3.138783 0.03942863
v 0.07007372 3.189146 0.04026408
v 0.09285303 3.18952 -0.01460457
v 0.09429974 3.139159 -0.01569171
v 0.09429974 3.139159 -0.01569171
v 0.09285303 3.18952 -0.01460457
v 0.07020062 3.189703 -0.06946757
v 0.07137801 3.139326 -0.07081029
v 0.07137801 3.139326 -0.07081029
v 0.07020062 3.189703 -0.06946757
v 0.01525107 3.189301 -0.0921956
v 0.01636924 3.138916 -0.09364319
v 0.01636642 3.126472 -0.07350542
v 0.01636924 3.138916 -0.09364319
v -0.03865786 3.138803 -0.07081611
v -0.02453765 3.126472 -0.05656053
v -0.02540341 3.201168 -0.05536833
v -0.03971539 3.189172 -0.06947321
v 0.01525107 3.189301 -0.0921956
v 0.01527645 3.201168 -0.07221981
v -0.02453765 3.126472 -0.05656053
v -0.03865786 3.138803 -0.07081611
v -0.06157254 3.138412 -0.01569559
v -0.041485 3.126472 -0.0156517
v -0.04225771 3.201168 -0.01468476
v -0.0623664 3.188773 -0.0146065
v -0.03971539 3.189172 -0.06947321
v -0.02540341 3.201168 -0.05536833
v -0.041485 3.126472 -0.0156517
v -0.06157254 3.138412 -0.01569559
v -0.03879322 3.138252 0.03942687
v -0.02453765 3.126472 0.02525712
v -0.02540341 3.201168 0.02599722
v -0.03957298 3.18862 0.04026214
v -0.0623664 3.188773 -0.0146065
v -0.04225771 3.201168 -0.01468476
v -0.02453765 3.126472 0.02525712
v -0.03879322 3.138252 0.03942687
v 0.01635796 3.138547 0.06225959
v 0.01636642 3.126472 0.04220008
v 0.01527645 3.201168 0.04284852
v 0.01523979 3.188914 0.06298823
v -0.03957298 3.18862 0.04026214
v -0.02540341 3.201168 0.02599722
v 0.01636642 3.126472 0.04220008
v 0.01635796 3.138547 0.06225959
v 0.07152889 3.138783 0.03942863
v 0.05727895 3.126472 0.02525712
v 0.05596337 3.201168 0.02599722
v 0.07007372 3.189146 0.04026408
v 0.01523979 3.188914 0.06298823
v 0.01527645 3.201168 0.04284852
v 0.05727895 3.126472 0.02525712
v 0.07152889 3.138783 0.03942863
v 0.09429974 3.139159 -0.01569171
v 0.07422208 3.126472 -0.0156517
v 0.07281344 3.201168 -0.01468476
v 0.09285303 3.18952 -0.01460457
v 0.07007372 3.189146 0.04026408
v 0.05596337 3.201168 0.02599722
v 0.07422208 3.126472 -0.0156517
v 0.09429974 3.139159 -0.01569171
v 0.07137801 3.139326 -0.07081029
v 0.05727895 3.126472 -0.05656053
v 0.05596337 3.201168 -0.05536833
v 0.07020062 3.189703 -0.06946757
v 0.09285303 3.18952 -0.01460457
v 0.07281344 3.201168 -0.01468476
v 0.05727895 3.126472 -0.05656053
v 0.07137801 3.139326 -0.07081029
v 0.01636924 3.138916 -0.09364319
v 0.01636642 3.126472 -0.07350542
v 0.01527645 3.201168 -0.07221981
v 0.01525107 3.189301 -0.0921956
v 0.07020062 3.189703 -0.06946757
v 0.05596337 3.201168 -0.05536833

vn -1 0 0
vn -1 0 0
vn -1 0 0
vn -1 0 0
vn 0 1 0
vn 0 1 0
vn 0 1 0
vn 0 1 0
vn 1 0 0
vn 1 0 0
vn 1 0 0
vn 1 0 0
vn 0 -1 0
vn 0 -1 0
vn 0 -1 0
vn 0 -1 0
vn 0 0 1
vn 0 0 1
vn 0 0 1
vn 0 0 1
vn 0 0 -1
vn 0 0 -1
vn 0 0 -1
vn 0 0 -1
vn -0.7827148 0.6225586 0
vn -0.7827148 0.6225586 0
vn -0.7827148 0.6225586 0
vn -0.7827148 0.6225586 0
vn 0 0.8862305 0.4631348
vn 0 0.8862305 0.4631348
vn 0 0.8862305 0.4631348
vn 0 0.8862305 0.4631348
vn 0.7827148 0.6225586 0
vn 0.7827148 0.6225586 0
vn 0.7827148 0.6225586 0
vn 0.7827148 0.6225586 0
vn 0 0.8862305 -0.4631348
vn 0 0.8862305 -0.4631348
vn 0 0.8862305 -0.4631348
vn 0 0.8862305 -0.4631348
vn 0 -1 0
vn 0 -1 0
vn 0 -1 0
vn 0 -1 0
vn 0 -1 0
vn 0 -1 0
vn 0 -1 0
vn 0 -1 0
vn 0.9799805 -0.2000732 0
vn 0.9799805 -0.2000732 0
vn 0.9799805 -0.2000732 0
vn 0.9799805 -0.2000732 0
vn 0 -0.4709473 0.8823242
vn 0 -0.4709473 0.8823242
vn 0 -0.4709473 0.8823242
vn 0 -0.4709473 0.8823242
vn -0.9799805 -0.2000732 0
vn -0.9799805 -0.2000732 0
vn -0.9799805 -0.2000732 0
vn -0.9799805 -0.2000732 0
vn 0 -0.4709473 -0.8823242
vn 0 -0.4709473 -0.8823242
vn 0 -0.4709473 -0.8823242
vn 0 -0.4709473 -0.8823242
vn 0.9238281 0 0.3825684
vn 0.9238281 0 0.3825684
vn 0.9238281 0 0.3825684
vn 0.9238281 0 0.3825684
vn 0.9238281 0 -0.3828125
vn 0.9238281 0 -0.3828125
vn 0.9238281 0 -0.3828125
vn 0.9238281 0 -0.3828125
vn 0.3825684 0 -0.9238281
vn 0.3825684 0 -0.9238281
vn 0.3825684 0 -0.9238281
vn 0.3825684 0 -0.9238281
vn -0.3825684 0 -0.9238281
vn -0.3825684 0 -0.9238281
vn -0.3825684 0 -0.9238281
vn -0.3825684 0 -0.9238281
vn -0.9238281 0 -0.3828125
vn -0.9238281 0 -0.3828125
vn -0.9238281 0 -0.3828125
vn -0.9238281 0 -0.3828125
vn -0.9238281 0 0.3825684
vn -0.9238281 0 0.3825684
vn -0.9238281 0 0.3825684
vn -0.9238281 0 0.3825684
vn -0.3825684 0 0.9238281
vn -0.3825684 0 0.9238281
vn -0.3825684 0 0.9238281
vn -0.3825684 0 0.9238281
vn 0.3825684 0 0.9238281
vn 0.3825684 0 0.9238281
vn 0.3825684 0 0.9238281
vn 0.3825684 0 0.9238281
vn 0 -1 0
vn 0 -1 0
vn 0 -1 0
vn 0 -1 0
vn 0 -1 0
vn 0 -1 0
vn 0 -1 0
vn 0 -1 0
vn 0 -1 0
vn 0 1 0
vn 0 1 0
vn 0 1 0
vn 0 1 0
vn 0 1 0
vn 0 1 0
vn 0 1 0
vn 0 1 0
vn 0 1 0
vn -0.3825684 0.009040833 0.9238281
vn -0.3825684 0.009040833 0.9238281
vn -0.3825684 0.009040833 0.9238281
vn -0.3825684 0.009040833 0.9238281
vn 0.3825684 0.003576279 0.9238281
vn 0.3825684 0.003576279 0.9238281
vn 0.3825684 0.003576279 0.9238281
vn 0.3825684 0.003576279 0.9238281
vn 0.9238281 -0.003986359 0.3825684
vn 0.9238281 -0.003986359 0.3825684
vn 0.9238281 -0.003986359 0.3825684
vn 0.9238281 -0.003986359 0.3825684
vn 0.9238281 -0.009208679 -0.3825684
vn 0.9238281 -0.009208679 -0.3825684
vn 0.9238281 -0.009208679 -0.3825684
vn 0.9238281 -0.009208679 -0.3825684
vn 0.3825684 -0.009040833 -0.9238281
vn 0.3825684 -0.009040833 -0.9238281
vn 0.3825684 -0.009040833 -0.9238281
vn 0.3825684 -0.009040833 -0.9238281
vn -0.3828125 -0.003574371 -0.9238281
vn -0.3828125 -0.003574371 -0.9238281
vn -0.3828125 -0.003574371 -0.9238281
vn -0.3828125 -0.003574371 -0.9238281
vn -0.9238281 0.003982544 -0.3828125
vn -0.9238281 0.003982544 -0.3828125
vn -0.9238281 0.003982544 -0.3828125
vn -0.9238281 0.003982544 -0.3828125
vn -0.9238281 0.009208679 0.3828125
vn -0.9238281 0.009208679 0.3828125
vn -0.9238281 0.009208679 0.3828125
vn -0.9238281 0.009208679 0.3828125
vn -0.9238281 0 -0.3828125
vn -0.9238281 0 -0.3828125
vn -0.9238281 0 -0.3828125
vn -0.9238281 0 -0.3828125
vn -0.3828125 0 -0.9238281
vn -0.3828125 0 -0.9238281
vn -0.3828125 0 -0.9238281
vn -0.3828125 0 -0.9238281
vn 0.3825684 0 -0.9238281
vn 0.3825684 0 -0.9238281
vn 0.3825684 0 -0.9238281
vn 0.3825684 0 -0.9238281
vn 0.9238281 0 -0.3828125
vn 0.9238281 0 -0.3828125
vn 0.9238281 0 -0.3828125
vn 0.9238281 0 -0.3828125
vn 0.9238281 0 0.3825684
vn 0.9238281 0 0.3825684
vn 0.9238281 0 0.3825684
vn 0.9238281 0 0.3825684
vn 0.3825684 0 0.9238281
vn 0.3825684 0 0.9238281
vn 0.3825684 0 0.9238281
vn 0.3825684 0 0.9238281
vn -0.3828125 0 0.9238281
vn -0.3828125 0 0.9238281
vn -0.3828125 0 0.9238281
vn -0.3828125 0 0.9238281
vn -0.9238281 0 0.3828125
vn -0.9238281 0 0.3828125
vn -0.9238281 0 0.3828125
vn -0.9238281 0 0.3828125
vn 0 -1 0
vn 0 -1 0
vn 0 -1 0
vn 0 -1 0
vn 0 -1 0
vn 0 -1 0
vn 0 -1 0
vn 0 -1 0
vn 0 -1 0
vn 0 -1 0
vn 0 -1 0
vn 0 -1 0
vn 0 -1 0
vn 0 -1 0
vn 0 -1 0
vn 0 -1 0
vn 0 1 0
vn 0 1 0
vn 0 1 0
vn 0 1 0
vn 0 1 0
vn 0 1 0
vn 0 1 0
vn 0 1 0
vn 0 1 0
vn 0 1 0
vn 0 1 0
vn 0 1 0
vn 0 1 0
vn 0 1 0
vn 0 1 0
vn 0 1 0
vn 0.9208984 -0.3320313 0.2032471
vn 0.9208984 -0.3051758 0.2425537
vn 0.9208984 -0.3051758 0.2425537
vn 0.9208984 -0.3320313 0.2032471
vn 0.918457 -0.2773438 0.28125
vn 0.918457 -0.2773438 0.28125
vn 0.9208984 0.3317871 -0.2034912
vn 0.9208984 0.3041992 -0.2432861
vn 0.9208984 0.3041992 -0.2432861
vn 0.9208984 0.3317871 -0.2034912
vn 0.9189453 0.2758789 -0.2824707
vn 0.9189453 0.2758789 -0.2824707
vn 0.3762207 0.7895508 -0.4848633
vn 0.3762207 0.7895508 -0.4848633
vn 0.3762207 0.7895508 -0.4848633
vn 0.3762207 0.7895508 -0.4848633
vn -0.3762207 0.7895508 -0.4848633
vn -0.3762207 0.7895508 -0.4848633
vn -0.3762207 0.7895508 -0.4848633
vn -0.3762207 0.7895508 -0.4848633
vn -0.9208984 0.3317871 -0.2034912
vn -0.9208984 0.3041992 -0.2432861
vn -0.9208984 0.3041992 -0.2432861
vn -0.9208984 0.3317871 -0.2034912
vn -0.9189453 0.2758789 -0.2824707
vn -0.9189453 0.2758789 -0.2824707
vn -0.9208984 -0.3320313 0.2032471
vn -0.9208984 -0.3051758 0.2425537
vn -0.9208984 -0.3051758 0.2425537
vn -0.9208984 -0.3320313 0.2032471
vn -0.918457 -0.2773438 0.28125
vn -0.918457 -0.2773438 0.28125
vn -0.3762207 -0.7905273 0.4831543
vn -0.3762207 -0.7905273 0.4831543
vn -0.3762207 -0.7905273 0.4831543
vn -0.3762207 -0.7905273 0.4831543
vn 0.3762207 -0.7905273 0.4831543
vn 0.3762207 -0.7905273 0.4831543
vn 0.3762207 -0.7905273 0.4831543
vn 0.3762207 -0.7905273 0.4831543
vn 0 0 1
vn 0 0 1
vn 0 0 1
vn 0 0 1
vn 0 0 1
vn 0 0 1
vn 0 0 1
vn 0 0 1
vn 0 0 1
vn 0.3710938 0.6464844 -0.6665039
vn 0.3710938 0.6464844 -0.6665039
vn 0.3710938 0.6464844 -0.6665039
vn 0.3710938 0.6464844 -0.6665039
vn -0.3710938 0.6464844 -0.6665039
vn -0.3710938 0.6464844 -0.6665039
vn -0.3710938 0.6464844 -0.6665039
vn -0.3710938 0.6464844 -0.6665039
vn -0.3703613 -0.6547852 0.6586914
vn -0.3703613 -0.6547852 0.6586914
vn -0.3703613 -0.6547852 0.6586914
vn -0.3703613 -0.6547852 0.6586914
vn 0.3703613 -0.6547852 0.6586914
vn 0.3703613 -0.6547852 0.6586914
vn 0.3703613 -0.6547852 0.6586914
vn 0.3703613 -0.6547852 0.6586914
vn -0.3747559 0.2683105 -0.887207
vn -0.3747559 0.2683105 -0.887207
vn -0.3747559 0.2683105 -0.887207
vn -0.3747559 0.2683105 -0.887207
vn -0.9204102 0.1138306 -0.3737793
vn -0.9204102 0.1138306 -0.3737793
vn -0.9204102 0.1138306 -0.3737793
vn -0.9204102 0.1138306 -0.3737793
vn -0.9204102 -0.1149292 0.3735352
vn -0.9204102 -0.1149292 0.3735352
vn -0.9204102 -0.1149292 0.3735352
vn -0.9204102 -0.1149292 0.3735352
vn -0.3745117 -0.2746582 0.8857422
vn -0.3745117 -0.2746582 0.8857422
vn -0.3745117 -0.2746582 0.8857422
vn -0.3745117 -0.2746582 0.8857422
vn 0.3745117 -0.2746582 0.8857422
vn 0.3745117 -0.2746582 0.8857422
vn 0.3745117 -0.2746582 0.8857422
vn 0.3745117 -0.2746582 0.8857422
vn 0.9204102 -0.1149292 0.3735352
vn 0.9204102 -0.1149292 0.3735352
vn 0.9204102 -0.1149292 0.3735352
vn 0.9204102 -0.1149292 0.3735352
vn 0.9204102 0.1138306 -0.3737793
vn 0.9204102 0.1138306 -0.3737793
vn 0.9204102 0.1138306 -0.3737793
vn 0.9204102 0.1138306 -0.3737793
vn 0.3747559 0.2683105 -0.887207
vn 0.3747559 0.2683105 -0.887207
vn 0.3747559 0.2683105 -0.887207
vn 0.3747559 0.2683105 -0.887207
vn 0.3735352 -0.9257813 0.05883789
vn 0.3735352 -0.9257813 0.05883789
vn 0.3735352 -0.9257813 0.05883789
vn 0.3735352 -0.9257813 0.05883789
vn -0.3735352 -0.9257813 0.05883789
vn -0.3735352 -0.9257813 0.05883789
vn -0.3735352 -0.9257813 0.05883789
vn -0.3735352 -0.9257813 0.05883789
vn -0.9199219 -0.3911133 0.02554321
vn -0.9199219 -0.3911133 0.02554321
vn -0.9199219 -0.3911133 0.02554321
vn -0.9199219 -0.3911133 0.02554321
vn -0.9199219 0.3908691 -0.02648926
vn -0.9199219 0.3908691 -0.02648926
vn -0.9199219 0.3908691 -0.02648926
vn -0.9199219 0.3908691 -0.02648926
vn -0.3737793 0.925293 -0.06420898
vn -0.3737793 0.925293 -0.06420898
vn -0.3737793 0.925293 -0.06420898
vn -0.3737793 0.925293 -0.06420898
vn 0.3737793 0.925293 -0.06420898
vn 0.3737793 0.925293 -0.06420898
vn 0.3737793 0.925293 -0.06420898
vn 0.3737793 0.925293 -0.06420898
vn 0.9199219 0.3908691 -0.02648926
vn 0.9199219 0.3908691 -0.02648926
vn 0.9199219 0.3908691 -0.02648926
vn 0.9199219 0.3908691 -0.02648926
vn 0.9199219 -0.3911133 0.02554321
vn 0.9199219 -0.3911133 0.02554321
vn 0.9199219 -0.3911133 0.02554321
vn 0.9199219 -0.3911133 0.02554321
vn -0.293457 0.6416016 -0.7084961
vn -0.293457 0.6416016 -0.7084961
vn -0.293457 0.6416016 -0.7084961
vn -0.293457 0.6416016 -0.7084961
vn -0.7084961 0.6416016 -0.293457
vn -0.7084961 0.6416016 -0.293457
vn -0.7084961 0.6416016 -0.293457
vn -0.7084961 0.6416016 -0.293457
vn -0.7084961 0.6416016 0.293457
vn -0.7084961 0.6416016 0.293457
vn -0.7084961 0.6416016 0.293457
vn -0.7084961 0.6416016 0.293457
vn -0.293457 0.6416016 0.7084961
vn -0.293457 0.6416016 0.7084961
vn -0.293457 0.6416016 0.7084961
vn -0.293457 0.6416016 0.7084961
vn 0.293457 0.6416016 0.7084961
vn 0.293457 0.6416016 0.7084961
vn 0.293457 0.6416016 0.7084961
vn 0.293457 0.6416016 0.7084961
vn 0.7084961 0.6416016 0.293457
vn 0.7084961 0.6416016 0.293457
vn 0.7084961 0.6416016 0.293457
vn 0.7084961 0.6416016 0.293457
vn 0.7084961 0.6416016 -0.293457
vn 0.7084961 0.6416016 -0.293457
vn 0.7084961 0.6416016 -0.293457
vn 0.7084961 0.6416016 -0.293457
vn 0.293457 0.6416016 -0.7084961
vn 0.293457 0.6416016 -0.7084961
vn 0.293457 0.6416016 -0.7084961
vn 0.293457 0.6416016 -0.7084961
vn -0.2937012 0.6411133 -0.7089844
vn -0.2937012 0.6411133 -0.7089844
vn -0.2937012 0.6411133 -0.7089844
vn -0.2937012 0.6411133 -0.7089844
vn -0.7089844 0.6411133 -0.2937012
vn -0.7089844 0.6411133 -0.2937012
vn -0.7089844 0.6411133 -0.2937012
vn -0.7089844 0.6411133 -0.2937012
vn -0.7089844 0.6411133 0.2937012
vn -0.7089844 0.6411133 0.2937012
vn -0.7089844 0.6411133 0.2937012
vn -0.7089844 0.6411133 0.2937012
vn -0.2937012 0.6411133 0.7089844
vn -0.2937012 0.6411133 0.7089844
vn -0.2937012 0.6411133 0.7089844
vn -0.2937012 0.6411133 0.7089844
vn 0.2937012 0.6411133 0.7089844
vn 0.2937012 0.6411133 0.7089844
vn 0.2937012 0.6411133 0.7089844
vn 0.2937012 0.6411133 0.7089844
vn 0.7089844 0.6411133 0.2937012
vn 0.7089844 0.6411133 0.2937012
vn 0.7089844 0.6411133 0.2937012
vn 0.7089844 0.6411133 0.2937012
vn 0.7089844 0.6411133 -0.2937012
vn 0.7089844 0.6411133 -0.2937012
vn 0.7089844 0.6411133 -0.2937012
vn 0.7089844 0.6411133 -0.2937012
vn 0.2937012 0.6411133 -0.7089844
vn 0.2937012 0.6411133 -0.7089844
vn 0.2937012 0.6411133 -0.7089844
vn 0.2937012 0.6411133 -0.7089844
vn -0.3825684 0 -0.9238281
vn -0.3825684 0 -0.9238281
vn -0.3825684 0 -0.9238281
vn -0.3825684 0 -0.9238281
vn -0.9238281 0 -0.3828125
vn -0.9238281 0 -0.3828125
vn -0.9238281 0 -0.3828125
vn -0.9238281 0 -0.3828125
vn -0.9238281 0 0.3828125
vn -0.9238281 0 0.3828125
vn -0.9238281 0 0.3828125
vn -0.9238281 0 0.3828125
vn -0.3825684 0 0.9238281
vn -0.3825684 0 0.9238281
vn -0.3825684 0 0.9238281
vn -0.3825684 0 0.9238281
vn 0.3825684 0 0.9238281
vn 0.3825684 0 0.9238281
vn 0.3825684 0 0.9238281
vn 0.3825684 0 0.9238281
vn 0.9238281 0 0.3825684
vn 0.9238281 0 0.3825684
vn 0.9238281 0 0.3825684
vn 0.9238281 0 0.3825684
vn 0.9238281 0 -0.3825684
vn 0.9238281 0 -0.3825684
vn 0.9238281 0 -0.3825684
vn 0.9238281 0 -0.3825684
vn 0.3825684 0 -0.9238281
vn 0.3825684 0 -0.9238281
vn 0.3825684 0 -0.9238281
vn 0.3825684 0 -0.9238281
vn 0.9238281 0 0.3825684
vn 0.9238281 0 0.3825684
vn 0.9238281 0 0.3825684
vn 0.9238281 0 0.3825684
vn 0.3825684 0 0.9238281
vn 0.3825684 0 0.9238281
vn 0.3825684 0 0.9238281
vn 0.3825684 0 0.9238281
vn -0.3828125 0 0.9238281
vn -0.3828125 0 0.9238281
vn -0.3828125 0 0.9238281
vn -0.3828125 0 0.9238281
vn -0.9238281 0 0.3828125
vn -0.9238281 0 0.3828125
vn -0.9238281 0 0.3828125
vn -0.9238281 0 0.3828125
vn -0.9238281 0 -0.3828125
vn -0.9238281 0 -0.3828125
vn -0.9238281 0 -0.3828125
vn -0.9238281 0 -0.3828125
vn -0.3828125 0 -0.9238281
vn -0.3828125 0 -0.9238281
vn -0.3828125 0 -0.9238281
vn -0.3828125 0 -0.9238281
vn 0.3825684 0 -0.9238281
vn 0.3825684 0 -0.9238281
vn 0.3825684 0 -0.9238281
vn 0.3825684 0 -0.9238281
vn 0.9238281 0 -0.3825684
vn 0.9238281 0 -0.3825684
vn 0.9238281 0 -0.3825684
vn 0.9238281 0 -0.3825684
vn 0.3823242 0.0368042 -0.9233398
vn 0.3825684 0.01049805 -0.9238281
vn 0.3825684 0.01049805 -0.9238281
vn 0.3823242 0.0368042 -0.9233398
vn 0.3825684 -0.01582336 -0.9238281
vn 0.3825684 -0.01582336 -0.9238281
vn 0.9233398 0.03833008 -0.3823242
vn 0.9238281 0.01072693 -0.3825684
vn 0.9238281 0.01072693 -0.3825684
vn 0.9233398 0.03833008 -0.3823242
vn 0.9238281 -0.01690674 -0.3825684
vn 0.9238281 -0.01690674 -0.3825684
vn 0.9238281 0.02139282 0.3825684
vn 0.9238281 0.004821777 0.3825684
vn 0.9238281 0.004821777 0.3825684
vn 0.9238281 0.02139282 0.3825684
vn 0.9238281 -0.01174164 0.3825684
vn 0.9238281 -0.01174164 0.3825684
vn 0.3825684 -0.004161835 0.9238281
vn 0.3825684 -0.003763199 0.9238281
vn 0.3825684 -0.003763199 0.9238281
vn 0.3825684 -0.004161835 0.9238281
vn 0.3825684 -0.00336647 0.9238281
vn 0.3825684 -0.00336647 0.9238281
vn -0.3825684 -0.02330017 0.9238281
vn -0.3825684 -0.009994507 0.9238281
vn -0.3825684 -0.009994507 0.9238281
vn -0.3825684 -0.02330017 0.9238281
vn -0.3825684 0.003322601 0.9238281
vn -0.3825684 0.003322601 0.9238281
vn -0.9233398 -0.02484131 0.3825684
vn -0.9238281 -0.01022339 0.3828125
vn -0.9238281 -0.01022339 0.3828125
vn -0.9233398 -0.02484131 0.3825684
vn -0.9238281 0.004405975 0.3828125
vn -0.9238281 0.004405975 0.3828125
vn -0.9238281 -0.007873535 -0.3828125
vn -0.9238281 -0.004314423 -0.3828125
vn -0.9238281 -0.004314423 -0.3828125
vn -0.9238281 -0.007873535 -0.3828125
vn -0.9238281 -0.0007534027 -0.3828125
vn -0.9238281 -0.0007534027 -0.3828125
vn -0.3825684 0.01766968 -0.9238281
vn -0.3825684 0.004272461 -0.9238281
vn -0.3825684 0.004272461 -0.9238281
vn -0.3825684 0.01766968 -0.9238281
vn -0.3825684 -0.009132385 -0.9238281
vn -0.3825684 -0.009132385 -0.9238281
vn -0.3825684 0.01733398 -0.9238281
vn -0.3825684 0.01733398 -0.9238281
vn -0.3825684 0.01733398 -0.9238281
vn -0.3825684 0.01733398 -0.9238281
vn -0.9238281 -0.007724762 -0.3828125
vn -0.9238281 -0.007724762 -0.3828125
vn -0.9238281 -0.007724762 -0.3828125
vn -0.9238281 -0.007724762 -0.3828125
vn -0.9238281 -0.02174377 0.3825684
vn -0.9238281 -0.02174377 0.3825684
vn -0.9238281 -0.02174377 0.3825684
vn -0.9238281 -0.02174377 0.3825684
vn -0.3825684 -0.02154541 0.9238281
vn -0.3825684 -0.02154541 0.9238281
vn -0.3825684 -0.02154541 0.9238281
vn -0.3825684 -0.02154541 0.9238281
vn 0.3825684 -0.004570007 0.9238281
vn 0.3825684 -0.004570007 0.9238281
vn 0.3825684 -0.004570007 0.9238281
vn 0.3825684 -0.004570007 0.9238281
vn 0.9238281 0.01930237 0.3825684
vn 0.9238281 0.01930237 0.3825684
vn 0.9238281 0.01930237 0.3825684
vn 0.9238281 0.01930237 0.3825684
vn 0.9233398 0.03329468 -0.3825684
vn 0.9233398 0.03329468 -0.3825684
vn 0.9233398 0.03329468 -0.3825684
vn 0.9233398 0.03329468 -0.3825684
vn 0.3823242 0.03427124 -0.9233398
vn 0.3823242 0.03427124 -0.9233398
vn 0.3823242 0.03427124 -0.9233398
vn 0.3823242 0.03427124 -0.9233398
vn -0.2115479 -0.8320313 -0.5126953
vn -0.2115479 -0.8320313 -0.5126953
vn -0.2115479 -0.8320313 -0.5126953
vn -0.2115479 -0.8320313 -0.5126953
vn -0.208252 0.840332 -0.5004883
vn -0.208252 0.840332 -0.5004883
vn -0.208252 0.840332 -0.5004883
vn -0.208252 0.840332 -0.5004883
vn -0.5043945 -0.8369141 -0.2128906
vn -0.5043945 -0.8369141 -0.2128906
vn -0.5043945 -0.8369141 -0.2128906
vn -0.5043945 -0.8369141 -0.2128906
vn -0.5083008 0.8359375 -0.206665
vn -0.5083008 0.8359375 -0.206665
vn -0.5083008 0.8359375 -0.206665
vn -0.5083008 0.8359375 -0.206665
vn -0.4978027 -0.8427734 0.2045898
vn -0.4978027 -0.8427734 0.2045898
vn -0.4978027 -0.8427734 0.2045898
vn -0.4978027 -0.8427734 0.2045898
vn -0.5141602 0.8300781 0.2147217
vn -0.5141602 0.8300781 0.2147217
vn -0.5141602 0.8300781 0.2147217
vn -0.5141602 0.8300781 0.2147217
vn -0.204834 -0.8408203 0.5009766
vn -0.204834 -0.8408203 0.5009766
vn -0.204834 -0.8408203 0.5009766
vn -0.204834 -0.8408203 0.5009766
vn -0.2144775 0.8320313 0.5112305
vn -0.2144775 0.8320313 0.5112305
vn -0.2144775 0.8320313 0.5112305
vn -0.2144775 0.8320313 0.5112305
vn 0.2119141 -0.8354492 0.5068359
vn 0.2119141 -0.8354492 0.5068359
vn 0.2119141 -0.8354492 0.5068359
vn 0.2119141 -0.8354492 0.5068359
vn 0.2075195 0.8374023 0.5058594
vn 0.2075195 0.8374023 0.5058594
vn 0.2075195 0.8374023 0.5058594
vn 0.2075195 0.8374023 0.5058594
vn 0.5170898 -0.8295898 0.2106934
vn 0.5170898 -0.8295898 0.2106934
vn 0.5170898 -0.8295898 0.2106934
vn 0.5170898 -0.8295898 0.2106934
vn 0.4960938 0.8427734 0.2091064
vn 0.4960938 0.8427734 0.2091064
vn 0.4960938 0.8427734 0.2091064
vn 0.4960938 0.8427734 0.2091064
vn 0.5239258 -0.8232422 -0.2188721
vn 0.5239258 -0.8232422 -0.2188721
vn 0.5239258 -0.8232422 -0.2188721
vn 0.5239258 -0.8232422 -0.2188721
vn 0.4897461 0.8481445 -0.2009277
vn 0.4897461 0.8481445 -0.2009277
vn 0.4897461 0.8481445 -0.2009277
vn 0.4897461 0.8481445 -0.2009277
vn 0.2185059 -0.8266602 -0.5185547
vn 0.2185059 -0.8266602 -0.5185547
vn 0.2185059 -0.8266602 -0.5185547
vn 0.2185059 -0.8266602 -0.5185547
vn 0.2012939 0.8452148 -0.494873
vn 0.2012939 0.8452148 -0.494873
vn 0.2012939 0.8452148 -0.494873
vn 0.2012939 0.8452148 -0.494873

vt 0.1011353 0.2785645
vt 0.1011353 0.2785645
vt 0.1011353 0.2785645
vt 0.1011353 0.2785645
vt 0.1011353 0.2785645
vt 0.1011353 0.2785645
vt 0.1011353 0.2785645
vt 0.1011353 0.2785645
vt 0.1011353 0.2785645
vt 0.1011353 0.2785645
vt 0.1011353 0.2785645
vt 0.1011353 0.2785645
vt 0.3146973 0.03466797
vt 0.3146973 0.03466797
vt 0.3146973 0.03466797
vt 0.3146973 0.03466797
vt 0.1011353 0.2785645
vt 0.1011353 0.2785645
vt 0.1011353 0.2785645
vt 0.1011353 0.2785645
vt 0.1011353 0.2785645
vt 0.1011353 0.2785645
vt 0.1011353 0.2785645
vt 0.1011353 0.2785645
vt 0.1011353 0.2785645
vt 0.1011353 0.2785645
vt 0.1011353 0.2785645
vt 0.1011353 0.2785645
vt 0.1011353 0.2785645
vt 0.1011353 0.2785645
vt 0.1011353 0.2785645
vt 0.1011353 0.2785645
vt 0.1011353 0.2785645
vt 0.1011353 0.2785645
vt 0.1011353 0.2785645
vt 0.1011353 0.2785645
vt 0.1011353 0.2785645
vt 0.1011353 0.2785645
vt 0.1011353 0.2785645
vt 0.1011353 0.2785645
vt 0.1011353 0.2785645
vt 0.1011353 0.2785645
vt 0.1011353 0.2785645
vt 0.1011353 0.2785645
vt 0.1011353 0.2785645
vt 0.1011353 0.2785645
vt 0.1011353 0.2785645
vt 0.1011353 0.2785645
vt 0.3146973 0.03466797
vt 0.3146973 0.03466797
vt 0.3146973 0.03466797
vt 0.3146973 0.03466797
vt 0.3146973 0.03466797
vt 0.3146973 0.03466797
vt 0.3146973 0.03466797
vt 0.3146973 0.03466797
vt 0.3146973 0.03466797
vt 0.3146973 0.03466797
vt 0.3146973 0.03466797
vt 0.3146973 0.03466797
vt 0.3146973 0.03466797
vt 0.3146973 0.03466797
vt 0.3146973 0.03466797
vt 0.3146973 0.03466797
vt 0.1022339 0.2286377
vt 0.1022339 0.2286377
vt 0.1022339 0.2286377
vt 0.1022339 0.2286377
vt 0.1022339 0.2286377
vt 0.1022339 0.2286377
vt 0.1022339 0.2286377
vt 0.1022339 0.2286377
vt 0.1022339 0.2286377
vt 0.1022339 0.2286377
vt 0.1022339 0.2286377
vt 0.1022339 0.2286377
vt 0.1022339 0.2286377
vt 0.1022339 0.2286377
vt 0.1022339 0.2286377
vt 0.1022339 0.2286377
vt 0.1022339 0.2286377
vt 0.1022339 0.2286377
vt 0.1022339 0.2286377
vt 0.1022339 0.2286377
vt 0.1022339 0.2286377
vt 0.1022339 0.2286377
vt 0.1022339 0.2286377
vt 0.1022339 0.2286377
vt 0.1022339 0.2286377
vt 0.1022339 0.2286377
vt 0.1022339 0.2286377
vt 0.1022339 0.2286377
vt 0.1022339 0.2286377
vt 0.1022339 0.2286377
vt 0.1022339 0.2286377
vt 0.1022339 0.2286377
vt 0.1022339 0.2788086
vt 0.1022339 0.2788086
vt 0.1022339 0.2788086
vt 0.1022339 0.2788086
vt 0.1022339 0.2788086
vt 0.1022339 0.2788086
vt 0.1022339 0.2788086
vt 0.1022339 0.2788086
vt 0.1022339 0.2788086
vt 0.1022339 0.2788086
vt 0.1022339 0.2788086
vt 0.1022339 0.2788086
vt 0.1022339 0.2788086
vt 0.1022339 0.2788086
vt 0.1022339 0.2788086
vt 0.1022339 0.2788086
vt 0.1022339 0.2788086
vt 0.1022339 0.2788086
vt 0.1022339 0.2788086
vt 0.1022339 0.2788086
vt 0.1022339 0.2788086
vt 0.1022339 0.2788086
vt 0.1022339 0.2788086
vt 0.1022339 0.2788086
vt 0.1022339 0.2788086
vt 0.1022339 0.2788086
vt 0.1022339 0.2788086
vt 0.1022339 0.2788086
vt 0.1022339 0.2788086
vt 0.1022339 0.2788086
vt 0.1022339 0.2788086
vt 0.1022339 0.2788086
vt 0.1022339 0.2788086
vt 0.1022339 0.2788086
vt 0.1022339 0.2788086
vt 0.1022339 0.2788086
vt 0.1022339 0.2788086
vt 0.1022339 0.2788086
vt 0.1022339 0.2788086
vt 0.1022339 0.2788086
vt 0.1022339 0.2788086
vt 0.1022339 0.2788086
vt 0.1022339 0.2788086
vt 0.1022339 0.2788086
vt 0.1022339 0.2788086
vt 0.1022339 0.2788086
vt 0.1022339 0.2788086
vt 0.1022339 0.2788086
vt 0.1022339 0.2788086
vt 0.1022339 0.2788086
vt 0.1022339 0.2788086
vt 0.1022339 0.2788086
vt 0.1022339 0.2788086
vt 0.1022339 0.2788086
vt 0.1022339 0.2788086
vt 0.1022339 0.2788086
vt 0.1022339 0.2788086
vt 0.1022339 0.2788086
vt 0.1022339 0.2788086
vt 0.1022339 0.2788086
vt 0.1022339 0.2788086
vt 0.1022339 0.2788086
vt 0.1022339 0.2788086
vt 0.1022339 0.2788086
vt 0.1022339 0.2788086
vt 0.1022339 0.2788086
vt 0.1022339 0.2788086
vt 0.1022339 0.2788086
vt 0.1022339 0.2788086
vt 0.1022339 0.2788086
vt 0.1022339 0.2788086
vt 0.1022339 0.2788086
vt 0.1022339 0.2788086
vt 0.1022339 0.2788086
vt 0.1022339 0.2788086
vt 0.1022339 0.2788086
vt 0.1022339 0.2788086
vt 0.1022339 0.2788086
vt 0.1022339 0.2788086
vt 0.1022339 0.2788086
vt 0.1022339 0.2788086
vt 0.1022339 0.2788086
vt 0.1022339 0.2286377
vt 0.1022339 0.2286377
vt 0.1022339 0.2286377
vt 0.1022339 0.2286377
vt 0.1022339 0.2286377
vt 0.1022339 0.2286377
vt 0.1022339 0.2286377
vt 0.1022339 0.2286377
vt 0.1022339 0.2286377
vt 0.1022339 0.2286377
vt 0.1022339 0.2286377
vt 0.1022339 0.2286377
vt 0.1022339 0.2286377
vt 0.1022339 0.2286377
vt 0.1022339 0.2286377
vt 0.1022339 0.2286377
vt 0.1022339 0.2286377
vt 0.1022339 0.2286377
vt 0.1022339 0.2286377
vt 0.1022339 0.2286377
vt 0.1022339 0.2286377
vt 0.1022339 0.2286377
vt 0.1022339 0.2286377
vt 0.1022339 0.2286377
vt 0.1022339 0.2286377
vt 0.1022339 0.2286377
vt 0.1022339 0.2286377
vt 0.1022339 0.2286377
vt 0.1022339 0.2286377
vt 0.1022339 0.2286377
vt 0.1022339 0.2286377
vt 0.1022339 0.2286377
vt 0.1022339 0.2788086
vt 0.1022339 0.2788086
vt 0.1022339 0.2788086
vt 0.1022339 0.2788086
vt 0.1022339 0.2788086
vt 0.1022339 0.2788086
vt 0.1022339 0.2788086
vt 0.1022339 0.2788086
vt 0.1022339 0.2788086
vt 0.1022339 0.2788086
vt 0.1022339 0.2788086
vt 0.1022339 0.2788086
vt 0.1022339 0.2788086
vt 0.1022339 0.2788086
vt 0.1022339 0.2788086
vt 0.1022339 0.2788086
vt 0.1022339 0.2788086
vt 0.1022339 0.2788086
vt 0.1022339 0.2788086
vt 0.1022339 0.2788086
vt 0.1022339 0.2788086
vt 0.1022339 0.2788086
vt 0.1022339 0.2788086
vt 0.1022339 0.2788086
vt 0.1022339 0.2788086
vt 0.1022339 0.2788086
vt 0.1022339 0.2788086
vt 0.1022339 0.2788086
vt 0.1022339 0.2788086
vt 0.1022339 0.2788086
vt 0.1022339 0.2788086
vt 0.1022339 0.2788086
vt 0.1022339 0.2788086
vt 0.1022339 0.2788086
vt 0.1022339 0.2788086
vt 0.1022339 0.2788086
vt 0.1022339 0.2788086
vt 0.1022339 0.2788086
vt 0.1022339 0.2788086
vt 0.1022339 0.2788086
vt 0.1022339 0.2788086
vt 0.1022339 0.2788086
vt 0.1022339 0.2788086
vt 0.1022339 0.2788086
vt 0.1022339 0.2788086
vt 0.1022339 0.2788086
vt 0.1022339 0.2788086
vt 0.1022339 0.2788086
vt 0.1022339 0.2788086
vt 0.1022339 0.2788086
vt 0.1022339 0.2788086
vt 0.1022339 0.2788086
vt 0.1022339 0.2788086
vt 0.1022339 0.2788086
vt 0.1022339 0.2788086
vt 0.1022339 0.2788086
vt 0.1022339 0.2788086
vt 0.1022339 0.2788086
vt 0.1022339 0.2788086
vt 0.1022339 0.2788086
vt 0.1022339 0.2788086
vt 0.1022339 0.2788086
vt 0.1022339 0.2788086
vt 0.1022339 0.2788086
vt 0.1022339 0.2788086
vt 0.1022339 0.2788086
vt 0.1022339 0.2788086
vt 0.1022339 0.2788086
vt 0.1022339 0.2788086
vt 0.1022339 0.2788086
vt 0.1022339 0.2788086
vt 0.1022339 0.2788086
vt 0.1022339 0.2788086
vt 0.1022339 0.2788086
vt 0.1022339 0.2788086
vt 0.1022339 0.2788086
vt 0.1022339 0.2788086
vt 0.1022339 0.2788086
vt 0.1022339 0.2788086
vt 0.1022339 0.2788086
vt 0.1022339 0.2788086
vt 0.1022339 0.2788086
vt 0.1022339 0.2788086
vt 0.1022339 0.2788086
vt 0.1022339 0.2788086
vt 0.1022339 0.2788086
vt 0.1022339 0.2788086
vt 0.1022339 0.2788086
vt 0.1022339 0.2788086
vt 0.1022339 0.2788086
vt 0.1022339 0.2788086
vt 0.1022339 0.2788086
vt 0.1022339 0.2788086
vt 0.1022339 0.2788086
vt 0.1022339 0.2788086
vt 0.1022339 0.2788086
vt 0.1022339 0.2788086
vt 0.1022339 0.2788086
vt 0.1022339 0.2788086
vt 0.1022339 0.2788086
vt 0.1022339 0.2788086
vt 0.1022339 0.2788086
vt 0.1022339 0.2788086
vt 0.1022339 0.2788086
vt 0.1022339 0.2788086
vt 0.1022339 0.2788086
vt 0.1022339 0.2788086
vt 0.1022339 0.2788086
vt 0.1022339 0.2788086
vt 0.1022339 0.2788086
vt 0.1022339 0.2788086
vt 0.1022339 0.2788086
vt 0.1022339 0.2788086
vt 0.1022339 0.2788086
vt 0.1022339 0.2788086
vt 0.1022339 0.2788086
vt 0.1022339 0.2788086
vt 0.1022339 0.2788086
vt 0.1022339 0.2788086
vt 0.1022339 0.2788086
vt 0.1022339 0.2788086
vt 0.1022339 0.2788086
vt 0.1022339 0.2788086
vt 0.1022339 0.2788086
vt 0.1022339 0.2788086
vt 0.1022339 0.2788086
vt 0.1022339 0.2788086
vt 0.1022339 0.2788086
vt 0.1022339 0.2788086
vt 0.1022339 0.2788086
vt 0.1022339 0.2788086
vt 0.1022339 0.2788086
vt 0.1022339 0.2788086
vt 0.1022339 0.2788086
vt 0.1022339 0.2788086
vt 0.1022339 0.2788086
vt 0.1022339 0.2788086
vt 0.1022339 0.2788086
vt 0.1022339 0.2788086
vt 0.1022339 0.2788086
vt 0.1022339 0.2788086
vt 0.1022339 0.2788086
vt 0.1022339 0.2788086
vt 0.1022339 0.2788086
vt 0.1022339 0.2788086
vt 0.1022339 0.2788086
vt 0.1022339 0.2788086
vt 0.1022339 0.2788086
vt 0.1022339 0.2788086
vt 0.1022339 0.2788086
vt 0.1022339 0.2788086
vt 0.1022339 0.2788086
vt 0.1022339 0.2788086
vt 0.1022339 0.2788086
vt 0.1022339 0.2788086
vt 0.1022339 0.2788086
vt 0.1022339 0.2788086
vt 0.1022339 0.2788086
vt 0.1022339 0.2788086
vt 0.1022339 0.2788086
vt 0.1022339 0.2788086
vt 0.1022339 0.2788086
vt 0.1022339 0.2788086
vt 0.1022339 0.2788086
vt 0.1022339 0.2788086
vt 0.1022339 0.2788086
vt 0.1022339 0.2788086
vt 0.1022339 0.2788086
vt 0.1022339 0.2788086
vt 0.1022339 0.2788086
vt 0.1022339 0.2788086
vt 0.1022339 0.2788086
vt 0.1022339 0.2788086
vt 0.1022339 0.2788086
vt 0.1022339 0.2788086
vt 0.1022339 0.2788086
vt 0.1022339 0.2788086
vt 0.1022339 0.2788086
vt 0.1022339 0.2788086
vt 0.1022339 0.2788086
vt 0.1022339 0.2788086
vt 0.1022339 0.2788086
vt 0.1022339 0.2788086
vt 0.1022339 0.2788086
vt 0.1022339 0.2788086
vt 0.1022339 0.2788086
vt 0.1022339 0.2788086
vt 0.1022339 0.2788086
vt 0.1022339 0.2788086
vt 0.1022339 0.2788086
vt 0.1022339 0.2788086
vt 0.1022339 0.2788086
vt 0.1022339 0.2788086
vt 0.1022339 0.2788086
vt 0.1022339 0.2788086
vt 0.1022339 0.2788086
vt 0.1022339 0.2788086
vt 0.1022339 0.2788086
vt 0.1022339 0.2788086
vt 0.1022339 0.2788086
vt 0.1022339 0.2788086
vt 0.1022339 0.2788086
vt 0.1022339 0.2788086
vt 0.1022339 0.2788086
vt 0.1022339 0.2788086
vt 0.1022339 0.2788086
vt 0.1022339 0.2788086
vt 0.1022339 0.2788086
vt 0.1022339 0.2788086
vt 0.1022339 0.2788086
vt 0.1022339 0.2788086
vt 0.1022339 0.2788086
vt 0.1022339 0.2788086
vt 0.1022339 0.2788086
vt 0.1022339 0.2788086
vt 0.1022339 0.2788086
vt 0.1022339 0.2788086
vt 0.1022339 0.2788086
vt 0.1022339 0.2788086
vt 0.1022339 0.2788086
vt 0.1022339 0.2788086
vt 0.1022339 0.2788086
vt 0.1022339 0.2788086
vt 0.1022339 0.2788086
vt 0.1022339 0.2788086
vt 0.1022339 0.2788086
vt 0.1022339 0.2788086
vt 0.1022339 0.2788086
vt 0.1022339 0.2788086
vt 0.1022339 0.2788086
vt 0.1022339 0.2788086
vt 0.1022339 0.2788086
vt 0.1022339 0.2788086
vt 0.1022339 0.2788086
vt 0.1022339 0.2788086
vt 0.1022339 0.2788086
vt 0.1022339 0.2788086
vt 0.1022339 0.2788086
vt 0.1022339 0.2788086
vt 0.1022339 0.2788086
vt 0.1022339 0.2788086
vt 0.1022339 0.2788086
vt 0.1022339 0.2788086
vt 0.1022339 0.2788086
vt 0.1022339 0.2788086
vt 0.1022339 0.2788086
vt 0.1022339 0.2788086
vt 0.1022339 0.2788086
vt 0.1022339 0.2788086
vt 0.1022339 0.2788086
vt 0.1022339 0.2788086
vt 0.1022339 0.2788086
vt 0.1022339 0.2788086
vt 0.1022339 0.2788086
vt 0.1022339 0.2788086
vt 0.1022339 0.2788086
vt 0.1022339 0.2788086
vt 0.1022339 0.2788086
vt 0.1022339 0.2788086
vt 0.1022339 0.2788086
vt 0.1022339 0.2788086
vt 0.1022339 0.2788086
vt 0.1022339 0.2788086
vt 0.1022339 0.2788086
vt 0.1022339 0.2788086
vt 0.1022339 0.2788086
vt 0.1022339 0.2788086
vt 0.1022339 0.2788086
vt 0.1022339 0.2788086
vt 0.1022339 0.2788086
vt 0.1022339 0.2788086
vt 0.1022339 0.2788086
vt 0.1022339 0.2788086
vt 0.1022339 0.2788086
vt 0.1022339 0.2788086
vt 0.1022339 0.2788086
vt 0.1022339 0.2788086
vt 0.1022339 0.2788086
vt 0.1022339 0.2788086
vt 0.1022339 0.2788086
vt 0.1022339 0.2788086
vt 0.1022339 0.2788086
vt 0.1022339 0.2788086
vt 0.1022339 0.2788086
vt 0.1022339 0.2788086
vt 0.1022339 0.2788086
vt 0.1022339 0.2788086
vt 0.1022339 0.2788086
vt 0.1022339 0.2788086
vt 0.1022339 0.2788086
vt 0.1022339 0.2788086
vt 0.1022339 0.2788086
vt 0.1022339 0.2788086
vt 0.1022339 0.2788086
vt 0.1022339 0.2788086
vt 0.1022339 0.2788086
vt 0.1022339 0.2788086
vt 0.1022339 0.2788086
vt 0.1022339 0.2788086
vt 0.1022339 0.2788086
vt 0.1022339 0.2788086
vt 0.1022339 0.2788086
vt 0.1022339 0.2788086
vt 0.1022339 0.2788086
vt 0.1022339 0.2788086
vt 0.1115723 0.277832
vt 0.1115723 0.277832
vt 0.1115723 0.277832
vt 0.1115723 0.277832
vt 0.1115723 0.277832
vt 0.1115723 0.277832
vt 0.1115723 0.277832
vt 0.1115723 0.277832
vt 0.1115723 0.277832
vt 0.1115723 0.277832
vt 0.1115723 0.277832
vt 0.1115723 0.277832
vt 0.1115723 0.277832
vt 0.1115723 0.277832
vt 0.1115723 0.277832
vt 0.1115723 0.277832
vt 0.1115723 0.277832
vt 0.1115723 0.277832
vt 0.1115723 0.277832
vt 0.1115723 0.277832
vt 0.1115723 0.277832
vt 0.1115723 0.277832
vt 0.1115723 0.277832
vt 0.1115723 0.277832
vt 0.1115723 0.277832
vt 0.1115723 0.277832
vt 0.1115723 0.277832
vt 0.1115723 0.277832
vt 0.1115723 0.277832
vt 0.1115723 0.277832
vt 0.1115723 0.277832
vt 0.1115723 0.277832
vt 0.1115723 0.277832
vt 0.1115723 0.277832
vt 0.1115723 0.277832
vt 0.1115723 0.277832
vt 0.1115723 0.277832
vt 0.1115723 0.277832
vt 0.1115723 0.277832
vt 0.1115723 0.277832
vt 0.1115723 0.277832
vt 0.1115723 0.277832
vt 0.1115723 0.277832
vt 0.1115723 0.277832
vt 0.1115723 0.277832
vt 0.1115723 0.277832
vt 0.1115723 0.277832
vt 0.1115723 0.277832
vt 0.1115723 0.277832
vt 0.1115723 0.277832
vt 0.1115723 0.277832
vt 0.1115723 0.277832
vt 0.1115723 0.277832
vt 0.1115723 0.277832
vt 0.1115723 0.277832
vt 0.1115723 0.277832
vt 0.1115723 0.277832
vt 0.1115723 0.277832
vt 0.1115723 0.277832
vt 0.1115723 0.277832
vt 0.1115723 0.277832
vt 0.1115723 0.277832
vt 0.1115723 0.277832
vt 0.1115723 0.277832
vt 0.1115723 0.277832
vt 0.1115723 0.277832
vt 0.1115723 0.277832
vt 0.1115723 0.277832
vt 0.1115723 0.277832
vt 0.1115723 0.277832
vt 0.1115723 0.277832
vt 0.1115723 0.277832
vt 0.1115723 0.277832
vt 0.1115723 0.277832
vt 0.1115723 0.277832
vt 0.1115723 0.277832
vt 0.1115723 0.277832
vt 0.1115723 0.277832
vt 0.1115723 0.277832
vt 0.1115723 0.277832
vt 0.1115723 0.277832
vt 0.1115723 0.277832
vt 0.1115723 0.277832
vt 0.1115723 0.277832
vt 0.1115723 0.277832
vt 0.1115723 0.277832
vt 0.1115723 0.277832
vt 0.1115723 0.277832
vt 0.1115723 0.277832
vt 0.1115723 0.277832
vt 0.1115723 0.277832
vt 0.1115723 0.277832
vt 0.1115723 0.277832
vt 0.1115723 0.277832
vt 0.1115723 0.277832
vt 0.1115723 0.277832

g SM_Prop_LightPole_Base_01_(5)_344_8
usemtl SM_Prop_LightPole_Base_01_(5)_344_8
usemap SM_Prop_LightPole_Base_01_(5)_344_8
f 1/1/1 3/3/3 2/2/2
f 1/1/1 4/4/4 3/3/3
f 5/5/5 7/7/7 6/6/6
f 5/5/5 8/8/8 7/7/7
f 9/9/9 11/11/11 10/10/10
f 9/9/9 12/12/12 11/11/11
f 13/13/13 15/15/15 14/14/14
f 13/13/13 16/16/16 15/15/15
f 17/17/17 19/19/19 18/18/18
f 17/17/17 20/20/20 19/19/19
f 21/21/21 23/23/23 22/22/22
f 21/21/21 24/24/24 23/23/23
f 25/25/25 27/27/27 26/26/26
f 25/25/25 28/28/28 27/27/27
f 29/29/29 31/31/31 30/30/30
f 29/29/29 32/32/32 31/31/31
f 33/33/33 35/35/35 34/34/34
f 33/33/33 36/36/36 35/35/35
f 37/37/37 39/39/39 38/38/38
f 37/37/37 40/40/40 39/39/39
f 41/41/41 43/43/43 42/42/42
f 41/41/41 44/44/44 43/43/43
f 44/44/44 45/45/45 43/43/43
f 44/44/44 46/46/46 45/45/45
f 46/46/46 47/47/47 45/45/45
f 46/46/46 48/48/48 47/47/47
f 48/48/48 42/42/42 47/47/47
f 48/48/48 41/41/41 42/42/42
f 49/49/49 51/51/51 50/50/50
f 49/49/49 52/52/52 51/51/51
f 53/53/53 55/55/55 54/54/54
f 53/53/53 56/56/56 55/55/55
f 57/57/57 59/59/59 58/58/58
f 57/57/57 60/60/60 59/59/59
f 61/61/61 63/63/63 62/62/62
f 61/61/61 64/64/64 63/63/63
f 65/65/65 67/67/67 66/66/66
f 65/65/65 68/68/68 67/67/67
f 69/69/69 71/71/71 70/70/70
f 69/69/69 72/72/72 71/71/71
f 73/73/73 75/75/75 74/74/74
f 73/73/73 76/76/76 75/75/75
f 77/77/77 79/79/79 78/78/78
f 77/77/77 80/80/80 79/79/79
f 81/81/81 83/83/83 82/82/82
f 81/81/81 84/84/84 83/83/83
f 85/85/85 87/87/87 86/86/86
f 85/85/85 88/88/88 87/87/87
f 89/89/89 91/91/91 90/90/90
f 89/89/89 92/92/92 91/91/91
f 93/93/93 95/95/95 94/94/94
f 93/93/93 96/96/96 95/95/95
f 97/97/97 99/99/99 98/98/98
f 100/100/100 97/97/97 98/98/98
f 101/101/101 100/100/100 98/98/98
f 102/102/102 101/101/101 98/98/98
f 103/103/103 102/102/102 98/98/98
f 104/104/104 103/103/103 98/98/98
f 105/105/105 104/104/104 98/98/98
f 99/99/99 105/105/105 98/98/98
f 106/106/106 108/108/108 107/107/107
f 108/108/108 109/109/109 107/107/107
f 109/109/109 110/110/110 107/107/107
f 110/110/110 111/111/111 107/107/107
f 111/111/111 112/112/112 107/107/107
f 112/112/112 113/113/113 107/107/107
f 113/113/113 114/114/114 107/107/107
f 114/114/114 106/106/106 107/107/107
f 115/115/115 117/117/117 116/116/116
f 115/115/115 118/118/118 117/117/117
f 119/119/119 121/121/121 120/120/120
f 119/119/119 122/122/122 121/121/121
f 123/123/123 125/125/125 124/124/124
f 123/123/123 126/126/126 125/125/125
f 127/127/127 129/129/129 128/128/128
f 127/127/127 130/130/130 129/129/129
f 131/131/131 133/133/133 132/132/132
f 131/131/131 134/134/134 133/133/133
f 135/135/135 137/137/137 136/136/136
f 135/135/135 138/138/138 137/137/137
f 139/139/139 141/141/141 140/140/140
f 139/139/139 142/142/142 141/141/141
f 143/143/143 145/145/145 144/144/144
f 143/143/143 146/146/146 145/145/145
f 147/147/147 149/149/149 148/148/148
f 147/147/147 150/150/150 149/149/149
f 151/151/151 153/153/153 152/152/152
f 151/151/151 154/154/154 153/153/153
f 155/155/155 157/157/157 156/156/156
f 155/155/155 158/158/158 157/157/157
f 159/159/159 161/161/161 160/160/160
f 159/159/159 162/162/162 161/161/161
f 163/163/163 165/165/165 164/164/164
f 163/163/163 166/166/166 165/165/165
f 167/167/167 169/169/169 168/168/168
f 167/167/167 170/170/170 169/169/169
f 171/171/171 173/173/173 172/172/172
f 171/171/171 174/174/174 173/173/173
f 175/175/175 177/177/177 176/176/176
f 175/175/175 178/178/178 177/177/177
f 179/179/179 181/181/181 180/180/180
f 179/179/179 182/182/182 181/181/181
f 182/182/182 183/183/183 181/181/181
f 182/182/182 184/184/184 183/183/183
f 184/184/184 185/185/185 183/183/183
f 184/184/184 186/186/186 185/185/185
f 186/186/186 187/187/187 185/185/185
f 186/186/186 188/188/188 187/187/187
f 188/188/188 189/189/189 187/187/187
f 188/188/188 190/190/190 189/189/189
f 190/190/190 191/191/191 189/189/189
f 190/190/190 192/192/192 191/191/191
f 192/192/192 193/193/193 191/191/191
f 192/192/192 194/194/194 193/193/193
f 194/194/194 180/180/180 193/193/193
f 194/194/194 179/179/179 180/180/180
f 195/195/195 197/197/197 196/196/196
f 195/195/195 198/198/198 197/197/197
f 199/199/199 195/195/195 196/196/196
f 199/199/199 196/196/196 200/200/200
f 201/201/201 199/199/199 200/200/200
f 201/201/201 200/200/200 202/202/202
f 203/203/203 201/201/201 202/202/202
f 203/203/203 202/202/202 204/204/204
f 205/205/205 203/203/203 204/204/204
f 205/205/205 204/204/204 206/206/206
f 207/207/207 205/205/205 206/206/206
f 207/207/207 206/206/206 208/208/208
f 209/209/209 207/207/207 208/208/208
f 209/209/209 208/208/208 210/210/210
f 198/198/198 210/210/210 197/197/197
f 198/198/198 209/209/209 210/210/210
f 211/211/211 213/213/213 212/212/212
f 211/211/211 214/214/214 213/213/213
f 213/213/213 215/215/215 212/212/212
f 213/213/213 216/216/216 215/215/215
f 217/217/217 219/219/219 218/218/218
f 217/217/217 220/220/220 219/219/219
f 221/221/221 218/218/218 219/219/219
f 221/221/221 222/222/222 218/218/218
f 223/223/223 225/225/225 224/224/224
f 223/223/223 226/226/226 225/225/225
f 227/227/227 229/229/229 228/228/228
f 227/227/227 230/230/230 229/229/229
f 231/231/231 233/233/233 232/232/232
f 231/231/231 234/234/234 233/233/233
f 235/235/235 232/232/232 233/233/233
f 235/235/235 236/236/236 232/232/232
f 237/237/237 239/239/239 238/238/238
f 237/237/237 240/240/240 239/239/239
f 241/241/241 238/238/238 239/239/239
f 241/241/241 242/242/242 238/238/238
f 243/243/243 245/245/245 244/244/244
f 243/243/243 246/246/246 245/245/245
f 247/247/247 249/249/249 248/248/248
f 247/247/247 250/250/250 249/249/249
f 251/251/251 253/253/253 252/252/252
f 253/253/253 254/254/254 252/252/252
f 254/254/254 255/255/255 252/252/252
f 255/255/255 256/256/256 252/252/252
f 256/256/256 257/257/257 252/252/252
f 257/257/257 258/258/258 252/252/252
f 258/258/258 259/259/259 252/252/252
f 259/259/259 251/251/251 252/252/252
f 260/260/260 262/262/262 261/261/261
f 260/260/260 263/263/263 262/262/262
f 264/264/264 266/266/266 265/265/265
f 264/264/264 267/267/267 266/266/266
f 268/268/268 270/270/270 269/269/269
f 268/268/268 271/271/271 270/270/270
f 272/272/272 274/274/274 273/273/273
f 272/272/272 275/275/275 274/274/274
f 276/276/276 278/278/278 277/277/277
f 276/276/276 279/279/279 278/278/278
f 280/280/280 282/282/282 281/281/281
f 280/280/280 283/283/283 282/282/282
f 284/284/284 286/286/286 285/285/285
f 284/284/284 287/287/287 286/286/286
f 288/288/288 290/290/290 289/289/289
f 288/288/288 291/291/291 290/290/290
f 292/292/292 294/294/294 293/293/293
f 292/292/292 295/295/295 294/294/294
f 296/296/296 298/298/298 297/297/297
f 296/296/296 299/299/299 298/298/298
f 300/300/300 302/302/302 301/301/301
f 300/300/300 303/303/303 302/302/302
f 304/304/304 306/306/306 305/305/305
f 304/304/304 307/307/307 306/306/306
f 308/308/308 310/310/310 309/309/309
f 308/308/308 311/311/311 310/310/310
f 312/312/312 314/314/314 313/313/313
f 312/312/312 315/315/315 314/314/314
f 316/316/316 318/318/318 317/317/317
f 316/316/316 319/319/319 318/318/318
f 320/320/320 322/322/322 321/321/321
f 320/320/320 323/323/323 322/322/322
f 324/324/324 326/326/326 325/325/325
f 324/324/324 327/327/327 326/326/326
f 328/328/328 330/330/330 329/329/329
f 328/328/328 331/331/331 330/330/330
f 332/332/332 334/334/334 333/333/333
f 332/332/332 335/335/335 334/334/334
f 336/336/336 338/338/338 337/337/337
f 336/336/336 339/339/339 338/338/338
f 340/340/340 342/342/342 341/341/341
f 340/340/340 343/343/343 342/342/342
f 344/344/344 346/346/346 345/345/345
f 344/344/344 347/347/347 346/346/346
f 348/348/348 350/350/350 349/349/349
f 348/348/348 351/351/351 350/350/350
f 352/352/352 354/354/354 353/353/353
f 352/352/352 355/355/355 354/354/354
f 356/356/356 358/358/358 357/357/357
f 356/356/356 359/359/359 358/358/358
f 360/360/360 362/362/362 361/361/361
f 360/360/360 363/363/363 362/362/362
f 364/364/364 366/366/366 365/365/365
f 364/364/364 367/367/367 366/366/366
f 368/368/368 370/370/370 369/369/369
f 368/368/368 371/371/371 370/370/370
f 372/372/372 374/374/374 373/373/373
f 372/372/372 375/375/375 374/374/374
f 376/376/376 378/378/378 377/377/377
f 376/376/376 379/379/379 378/378/378
f 380/380/380 382/382/382 381/381/381
f 380/380/380 383/383/383 382/382/382
f 384/384/384 386/386/386 385/385/385
f 384/384/384 387/387/387 386/386/386
f 388/388/388 390/390/390 389/389/389
f 388/388/388 391/391/391 390/390/390
f 392/392/392 394/394/394 393/393/393
f 392/392/392 395/395/395 394/394/394
f 396/396/396 398/398/398 397/397/397
f 396/396/396 399/399/399 398/398/398
f 400/400/400 402/402/402 401/401/401
f 400/400/400 403/403/403 402/402/402
f 404/404/404 406/406/406 405/405/405
f 404/404/404 407/407/407 406/406/406
f 408/408/408 410/410/410 409/409/409
f 408/408/408 411/411/411 410/410/410
f 412/412/412 414/414/414 413/413/413
f 412/412/412 415/415/415 414/414/414
f 416/416/416 418/418/418 417/417/417
f 416/416/416 419/419/419 418/418/418
f 420/420/420 422/422/422 421/421/421
f 420/420/420 423/423/423 422/422/422
f 424/424/424 426/426/426 425/425/425
f 424/424/424 427/427/427 426/426/426
f 428/428/428 430/430/430 429/429/429
f 428/428/428 431/431/431 430/430/430
f 432/432/432 434/434/434 433/433/433
f 432/432/432 435/435/435 434/434/434
f 436/436/436 438/438/438 437/437/437
f 436/436/436 439/439/439 438/438/438
f 440/440/440 442/442/442 441/441/441
f 440/440/440 443/443/443 442/442/442
f 444/444/444 446/446/446 445/445/445
f 444/444/444 447/447/447 446/446/446
f 448/448/448 450/450/450 449/449/449
f 448/448/448 451/451/451 450/450/450
f 452/452/452 454/454/454 453/453/453
f 452/452/452 455/455/455 454/454/454
f 456/456/456 458/458/458 457/457/457
f 456/456/456 459/459/459 458/458/458
f 460/460/460 462/462/462 461/461/461
f 460/460/460 463/463/463 462/462/462
f 464/464/464 466/466/466 465/465/465
f 464/464/464 467/467/467 466/466/466
f 468/468/468 470/470/470 469/469/469
f 468/468/468 471/471/471 470/470/470
f 469/469/469 470/470/470 472/472/472
f 469/469/469 472/472/472 473/473/473
f 474/474/474 476/476/476 475/475/475
f 474/474/474 477/477/477 476/476/476
f 475/475/475 476/476/476 478/478/478
f 475/475/475 478/478/478 479/479/479
f 480/480/480 482/482/482 481/481/481
f 480/480/480 483/483/483 482/482/482
f 481/481/481 482/482/482 484/484/484
f 481/481/481 484/484/484 485/485/485
f 486/486/486 488/488/488 487/487/487
f 486/486/486 489/489/489 488/488/488
f 487/487/487 488/488/488 490/490/490
f 487/487/487 490/490/490 491/491/491
f 492/492/492 494/494/494 493/493/493
f 492/492/492 495/495/495 494/494/494
f 493/493/493 494/494/494 496/496/496
f 493/493/493 496/496/496 497/497/497
f 498/498/498 500/500/500 499/499/499
f 498/498/498 501/501/501 500/500/500
f 499/499/499 500/500/500 502/502/502
f 499/499/499 502/502/502 503/503/503
f 504/504/504 506/506/506 505/505/505
f 504/504/504 507/507/507 506/506/506
f 505/505/505 506/506/506 508/508/508
f 505/505/505 508/508/508 509/509/509
f 510/510/510 512/512/512 511/511/511
f 510/510/510 513/513/513 512/512/512
f 511/511/511 512/512/512 514/514/514
f 511/511/511 514/514/514 515/515/515
f 516/516/516 518/518/518 517/517/517
f 516/516/516 519/519/519 518/518/518
f 520/520/520 522/522/522 521/521/521
f 520/520/520 523/523/523 522/522/522
f 524/524/524 526/526/526 525/525/525
f 524/524/524 527/527/527 526/526/526
f 528/528/528 530/530/530 529/529/529
f 528/528/528 531/531/531 530/530/530
f 532/532/532 534/534/534 533/533/533
f 532/532/532 535/535/535 534/534/534
f 536/536/536 538/538/538 537/537/537
f 536/536/536 539/539/539 538/538/538
f 540/540/540 542/542/542 541/541/541
f 540/540/540 543/543/543 542/542/542
f 544/544/544 546/546/546 545/545/545
f 544/544/544 547/547/547 546/546/546
f 548/548/548 550/550/550 549/549/549
f 548/548/548 551/551/551 550/550/550
f 552/552/552 554/554/554 553/553/553
f 552/552/552 555/555/555 554/554/554
f 556/556/556 558/558/558 557/557/557
f 556/556/556 559/559/559 558/558/558
f 560/560/560 562/562/562 561/561/561
f 560/560/560 563/563/563 562/562/562
f 564/564/564 566/566/566 565/565/565
f 564/564/564 567/567/567 566/566/566
f 568/568/568 570/570/570 569/569/569
f 568/568/568 571/571/571 570/570/570
f 572/572/572 574/574/574 573/573/573
f 572/572/572 575/575/575 574/574/574
f 576/576/576 578/578/578 577/577/577
f 576/576/576 579/579/579 578/578/578
f 580/580/580 582/582/582 581/581/581
f 580/580/580 583/583/583 582/582/582
f 584/584/584 586/586/586 585/585/585
f 584/584/584 587/587/587 586/586/586
f 588/588/588 590/590/590 589/589/589
f 588/588/588 591/591/591 590/590/590
f 592/592/592 594/594/594 593/593/593
f 592/592/592 595/595/595 594/594/594
f 596/596/596 598/598/598 597/597/597
f 596/596/596 599/599/599 598/598/598
f 600/600/600 602/602/602 601/601/601
f 600/600/600 603/603/603 602/602/602
f 604/604/604 606/606/606 605/605/605
f 604/604/604 607/607/607 606/606/606
f 608/608/608 610/610/610 609/609/609
f 608/608/608 611/611/611 610/610/610
