#SM_Prop_SidewalkPoles_01_320_18.obj

v 1.434306 1.07913 0.06569669
v 1.457405 1.108072 0.04259497
v 1.5 1.108072 0.06024177
v 1.5 1.07913 0.0929032
v 1.5 1.07913 0.0929032
v 1.5 1.108072 0.06024177
v 1.542593 1.108072 0.04259497
v 1.565693 1.07913 0.06569669
v 1.565693 1.07913 0.06569669
v 1.542593 1.108072 0.04259497
v 1.560236 1.108072 0
v 1.592906 1.07913 0
v 1.592906 1.07913 0
v 1.560236 1.108072 0
v 1.542593 1.108072 -0.04259497
v 1.565693 1.07913 -0.06569669
v 1.565693 1.07913 -0.06569669
v 1.542593 1.108072 -0.04259497
v 1.5 1.108072 -0.06024177
v 1.5 1.07913 -0.0929032
v 1.5 1.07913 -0.0929032
v 1.5 1.108072 -0.06024177
v 1.457405 1.108072 -0.04259497
v 1.434306 1.07913 -0.06569669
v 1.434306 1.07913 -0.06569669
v 1.457405 1.108072 -0.04259497
v 1.439762 1.108072 0
v 1.407095 1.07913 0
v 1.407095 1.07913 0
v 1.439762 1.108072 0
v 1.457405 1.108072 0.04259497
v 1.434306 1.07913 0.06569669
v 1.457405 1.108072 0.04259497
v 1.5 1.123759 0
v 1.5 1.108072 0.06024177
v 1.5 1.108072 0.06024177
v 1.5 1.123759 0
v 1.542593 1.108072 0.04259497
v 1.542593 1.108072 0.04259497
v 1.5 1.123759 0
v 1.560236 1.108072 0
v 1.560236 1.108072 0
v 1.5 1.123759 0
v 1.542593 1.108072 -0.04259497
v 1.542593 1.108072 -0.04259497
v 1.5 1.123759 0
v 1.5 1.108072 -0.06024177
v 1.5 1.108072 -0.06024177
v 1.5 1.123759 0
v 1.457405 1.108072 -0.04259497
v 1.457405 1.108072 -0.04259497
v 1.5 1.123759 0
v 1.439762 1.108072 0
v 1.439762 1.108072 0
v 1.5 1.123759 0
v 1.457405 1.108072 0.04259497
v 1.574013 1.045242 0.07401275
v 1.565693 1.07913 0.06569669
v 1.592906 1.07913 0
v 1.604669 1.045242 0
v 1.604669 1.045242 0
v 1.592906 1.07913 0
v 1.565693 1.07913 -0.06569669
v 1.574013 1.045242 -0.0740166
v 1.574013 1.045242 -0.0740166
v 1.565693 1.07913 -0.06569669
v 1.5 1.07913 -0.0929032
v 1.5 1.045242 -0.1046676
v 1.5 1.045242 -0.1046676
v 1.5 1.07913 -0.0929032
v 1.434306 1.07913 -0.06569669
v 1.425987 1.045242 -0.0740166
v 1.425987 1.045242 -0.0740166
v 1.434306 1.07913 -0.06569669
v 1.407095 1.07913 0
v 1.39533 1.045242 0
v 1.39533 1.045242 0
v 1.407095 1.07913 0
v 1.434306 1.07913 0.06569669
v 1.425987 1.045242 0.07401275
v 1.425987 1.045242 0.07401275
v 1.434306 1.07913 0.06569669
v 1.5 1.07913 0.0929032
v 1.5 1.045242 0.1046676
v 1.5 1.045242 0.1046676
v 1.5 1.07913 0.0929032
v 1.565693 1.07913 0.06569669
v 1.574013 1.045242 0.07401275
v 1.557534 0.3091289 -0.06566232
v 1.574013 1.045242 -0.0740166
v 1.5 1.045242 -0.1046676
v 1.49993 0.2559791 -0.09284973
v 1.49993 0.2559791 -0.09284973
v 1.5 1.045242 -0.1046676
v 1.425987 1.045242 -0.0740166
v 1.430986 0.1404975 -0.06566232
v 1.430986 0.1404975 -0.06566232
v 1.425987 1.045242 -0.0740166
v 1.39533 1.045242 0
v 1.41186 0.08972627 0
v 1.41186 0.08972627 0
v 1.39533 1.045242 0
v 1.425987 1.045242 0.07401275
v 1.440418 0.08972627 0.06565864
v 1.440418 0.08972627 0.06565864
v 1.425987 1.045242 0.07401275
v 1.5 1.045242 0.1046676
v 1.49993 0.1404975 0.09285358
v 1.49993 0.1404975 0.09285358
v 1.5 1.045242 0.1046676
v 1.574013 1.045242 0.07401275
v 1.568872 0.2559791 0.06565864
v 1.568872 0.2559791 0.06565864
v 1.574013 1.045242 0.07401275
v 1.604669 1.045242 0
v 1.58609 0.3091289 0
v 1.58609 0.3091289 0
v 1.604669 1.045242 0
v 1.574013 1.045242 -0.0740166
v 1.557534 0.3091289 -0.06566232
v 1.574013 0 -0.0740166
v 1.557534 0.3091289 -0.06566232
v 1.49993 0.2559791 -0.09284973
v 1.5 0 -0.1046676
v 1.5 0 -0.1046676
v 1.49993 0.2559791 -0.09284973
v 1.430986 0.1404975 -0.06566232
v 1.425987 0 -0.0740166
v 1.425987 0 -0.0740166
v 1.430986 0.1404975 -0.06566232
v 1.41186 0.08972627 0
v 1.39533 0 0
v 1.39533 0 0
v 1.41186 0.08972627 0
v 1.440418 0.08972627 0.06565864
v 1.425987 0 0.07401275
v 1.425987 0 0.07401275
v 1.440418 0.08972627 0.06565864
v 1.49993 0.1404975 0.09285358
v 1.5 0 0.1046676
v 1.5 0 0.1046676
v 1.49993 0.1404975 0.09285358
v 1.568872 0.2559791 0.06565864
v 1.574013 0 0.07401275
v 1.574013 0 0.07401275
v 1.568872 0.2559791 0.06565864
v 1.58609 0.3091289 0
v 1.604669 0 0
v 1.604669 0 0
v 1.58609 0.3091289 0
v 1.557534 0.3091289 -0.06566232
v 1.574013 0 -0.0740166
v 0.5656952 1.07913 0.06569283
v 0.5425928 1.108072 0.04259497
v 0.5602397 1.108072 0
v 0.5929012 1.07913 0
v 0.5929012 1.07913 0
v 0.5602397 1.108072 0
v 0.5425928 1.108072 -0.04259497
v 0.5656952 1.07913 -0.06569283
v 0.5656952 1.07913 -0.06569283
v 0.5425928 1.108072 -0.04259497
v 0.4999982 1.108072 -0.06023791
v 0.4999982 1.07913 -0.09290504
v 0.4999982 1.07913 -0.09290504
v 0.4999982 1.108072 -0.06023791
v 0.4574035 1.108072 -0.04259497
v 0.4343011 1.07913 -0.06569283
v 0.4343011 1.07913 -0.06569283
v 0.4574035 1.108072 -0.04259497
v 0.4397566 1.108072 0
v 0.4070951 1.07913 0
v 0.4070951 1.07913 0
v 0.4397566 1.108072 0
v 0.4574035 1.108072 0.04259497
v 0.4343025 1.07913 0.06569283
v 0.4343025 1.07913 0.06569283
v 0.4574035 1.108072 0.04259497
v 0.4999982 1.108072 0.06023791
v 0.4999982 1.07913 0.09290504
v 0.4999982 1.07913 0.09290504
v 0.4999982 1.108072 0.06023791
v 0.5425928 1.108072 0.04259497
v 0.5656952 1.07913 0.06569283
v 0.5425928 1.108072 0.04259497
v 0.4999982 1.123759 0
v 0.5602397 1.108072 0
v 0.5602397 1.108072 0
v 0.4999982 1.123759 0
v 0.5425928 1.108072 -0.04259497
v 0.5425928 1.108072 -0.04259497
v 0.4999982 1.123759 0
v 0.4999982 1.108072 -0.06023791
v 0.4999982 1.108072 -0.06023791
v 0.4999982 1.123759 0
v 0.4574035 1.108072 -0.04259497
v 0.4574035 1.108072 -0.04259497
v 0.4999982 1.123759 0
v 0.4397566 1.108072 0
v 0.4397566 1.108072 0
v 0.4999982 1.123759 0
v 0.4574035 1.108072 0.04259497
v 0.4574035 1.108072 0.04259497
v 0.4999982 1.123759 0
v 0.4999982 1.108072 0.06023791
v 0.4999982 1.108072 0.06023791
v 0.4999982 1.123759 0
v 0.5425928 1.108072 0.04259497
v 0.5740111 1.045242 -0.07401275
v 0.5656952 1.07913 -0.06569283
v 0.4999982 1.07913 -0.09290504
v 0.4999982 1.045242 -0.1046696
v 0.4999982 1.045242 -0.1046696
v 0.4999982 1.07913 -0.09290504
v 0.4343011 1.07913 -0.06569283
v 0.4259812 1.045242 -0.07401275
v 0.4259812 1.045242 -0.07401275
v 0.4343011 1.07913 -0.06569283
v 0.4070951 1.07913 0
v 0.3953314 1.045242 0
v 0.3953314 1.045242 0
v 0.4070951 1.07913 0
v 0.4343025 1.07913 0.06569283
v 0.4259812 1.045242 0.07401275
v 0.4259812 1.045242 0.07401275
v 0.4343025 1.07913 0.06569283
v 0.4999982 1.07913 0.09290504
v 0.4999982 1.045242 0.1046696
v 0.4999982 1.045242 0.1046696
v 0.4999982 1.07913 0.09290504
v 0.5656952 1.07913 0.06569283
v 0.5740111 1.045242 0.07401275
v 0.5740111 1.045242 0.07401275
v 0.5656952 1.07913 0.06569283
v 0.5929012 1.07913 0
v 0.6046663 1.045242 0
v 0.6046663 1.045242 0
v 0.5929012 1.07913 0
v 0.5656952 1.07913 -0.06569283
v 0.5740111 1.045242 -0.07401275
v 0.434336 0.3091289 -0.05753334
v 0.4259812 1.045242 -0.07401275
v 0.3953314 1.045242 0
v 0.4071488 0.2559791 7.05731E-05
v 0.4071488 0.2559791 7.05731E-05
v 0.3953314 1.045242 0
v 0.4259812 1.045242 0.07401275
v 0.434336 0.1404975 0.06901363
v 0.434336 0.1404975 0.06901363
v 0.4259812 1.045242 0.07401275
v 0.4999982 1.045242 0.1046696
v 0.4999982 0.08972627 0.0881386
v 0.4999982 0.08972627 0.0881386
v 0.4999982 1.045242 0.1046696
v 0.5740111 1.045242 0.07401275
v 0.5656563 0.08972627 0.05958181
v 0.5656563 0.08972627 0.05958181
v 0.5740111 1.045242 0.07401275
v 0.6046663 1.045242 0
v 0.5928516 0.1404975 7.05731E-05
v 0.5928516 0.1404975 7.05731E-05
v 0.6046663 1.045242 0
v 0.5740111 1.045242 -0.07401275
v 0.5656563 0.2559791 -0.06887432
v 0.5656563 0.2559791 -0.06887432
v 0.5740111 1.045242 -0.07401275
v 0.4999982 1.045242 -0.1046696
v 0.4999982 0.3091289 -0.08609013
v 0.4999982 0.3091289 -0.08609013
v 0.4999982 1.045242 -0.1046696
v 0.4259812 1.045242 -0.07401275
v 0.434336 0.3091289 -0.05753334
v 0.4259812 0 -0.07401275
v 0.434336 0.3091289 -0.05753334
v 0.4071488 0.2559791 7.05731E-05
v 0.3953314 0 0
v 0.3953314 0 0
v 0.4071488 0.2559791 7.05731E-05
v 0.434336 0.1404975 0.06901363
v 0.4259812 0 0.07401275
v 0.4259812 0 0.07401275
v 0.434336 0.1404975 0.06901363
v 0.4999982 0.08972627 0.0881386
v 0.4999982 0 0.1046696
v 0.4999982 0 0.1046696
v 0.4999982 0.08972627 0.0881386
v 0.5656563 0.08972627 0.05958181
v 0.5740111 0 0.07401275
v 0.5740111 0 0.07401275
v 0.5656563 0.08972627 0.05958181
v 0.5928516 0.1404975 7.05731E-05
v 0.6046663 0 0
v 0.6046663 0 0
v 0.5928516 0.1404975 7.05731E-05
v 0.5656563 0.2559791 -0.06887432
v 0.5740111 0 -0.07401275
v 0.5740111 0 -0.07401275
v 0.5656563 0.2559791 -0.06887432
v 0.4999982 0.3091289 -0.08609013
v 0.4999982 0 -0.1046696
v 0.4999982 0 -0.1046696
v 0.4999982 0.3091289 -0.08609013
v 0.434336 0.3091289 -0.05753334
v 0.4259812 0 -0.07401275
v -0.4343065 1.07913 -0.0656987
v -0.4574075 1.108072 -0.04259682
v -0.5000022 1.108072 -0.06024361
v -0.5000022 1.07913 -0.09290504
v -0.5000022 1.07913 -0.09290504
v -0.5000022 1.108072 -0.06024361
v -0.5425968 1.108072 -0.04259682
v -0.5656952 1.07913 -0.0656987
v -0.5656952 1.07913 -0.0656987
v -0.5425968 1.108072 -0.04259682
v -0.5602384 1.108072 -1.843953E-06
v -0.5929065 1.07913 -1.843953E-06
v -0.5929065 1.07913 -1.843953E-06
v -0.5602384 1.108072 -1.843953E-06
v -0.5425968 1.108072 0.04259296
v -0.5656952 1.07913 0.06569484
v -0.5656952 1.07913 0.06569484
v -0.5425968 1.108072 0.04259296
v -0.5000022 1.108072 0.06023976
v -0.5000022 1.07913 0.09290119
v -0.5000022 1.07913 0.09290119
v -0.5000022 1.108072 0.06023976
v -0.4574075 1.108072 0.04259296
v -0.4343065 1.07913 0.06569484
v -0.4343065 1.07913 0.06569484
v -0.4574075 1.108072 0.04259296
v -0.4397646 1.108072 -1.843953E-06
v -0.4070965 1.07913 -1.843953E-06
v -0.4070965 1.07913 -1.843953E-06
v -0.4397646 1.108072 -1.843953E-06
v -0.4574075 1.108072 -0.04259682
v -0.4343065 1.07913 -0.0656987
v -0.4574075 1.108072 -0.04259682
v -0.5000022 1.123759 -1.843953E-06
v -0.5000022 1.108072 -0.06024361
v -0.5000022 1.108072 -0.06024361
v -0.5000022 1.123759 -1.843953E-06
v -0.5425968 1.108072 -0.04259682
v -0.5425968 1.108072 -0.04259682
v -0.5000022 1.123759 -1.843953E-06
v -0.5602384 1.108072 -1.843953E-06
v -0.5602384 1.108072 -1.843953E-06
v -0.5000022 1.123759 -1.843953E-06
v -0.5425968 1.108072 0.04259296
v -0.5425968 1.108072 0.04259296
v -0.5000022 1.123759 -1.843953E-06
v -0.5000022 1.108072 0.06023976
v -0.5000022 1.108072 0.06023976
v -0.5000022 1.123759 -1.843953E-06
v -0.4574075 1.108072 0.04259296
v -0.4574075 1.108072 0.04259296
v -0.5000022 1.123759 -1.843953E-06
v -0.4397646 1.108072 -1.843953E-06
v -0.4397646 1.108072 -1.843953E-06
v -0.5000022 1.123759 -1.843953E-06
v -0.4574075 1.108072 -0.04259682
v -0.5740151 1.045242 -0.07401459
v -0.5656952 1.07913 -0.0656987
v -0.5929065 1.07913 -1.843953E-06
v -0.6046717 1.045242 -1.843953E-06
v -0.6046717 1.045242 -1.843953E-06
v -0.5929065 1.07913 -1.843953E-06
v -0.5656952 1.07913 0.06569484
v -0.5740151 1.045242 0.07401459
v -0.5740151 1.045242 0.07401459
v -0.5656952 1.07913 0.06569484
v -0.5000022 1.07913 0.09290119
v -0.5000022 1.045242 0.1046658
v -0.5000022 1.045242 0.1046658
v -0.5000022 1.07913 0.09290119
v -0.4343065 1.07913 0.06569484
v -0.4259893 1.045242 0.07401459
v -0.4259893 1.045242 0.07401459
v -0.4343065 1.07913 0.06569484
v -0.4070965 1.07913 -1.843953E-06
v -0.3953327 1.045242 -1.843953E-06
v -0.3953327 1.045242 -1.843953E-06
v -0.4070965 1.07913 -1.843953E-06
v -0.4343065 1.07913 -0.0656987
v -0.4259893 1.045242 -0.07401459
v -0.4259893 1.045242 -0.07401459
v -0.4343065 1.07913 -0.0656987
v -0.5000022 1.07913 -0.09290504
v -0.5000022 1.045242 -0.1046696
v -0.5000022 1.045242 -0.1046696
v -0.5000022 1.07913 -0.09290504
v -0.5656952 1.07913 -0.0656987
v -0.5740151 1.045242 -0.07401459
v -0.5575348 0.3091289 0.06566048
v -0.5740151 1.045242 0.07401459
v -0.5000022 1.045242 0.1046658
v -0.4999311 0.2559791 0.09284788
v -0.4999311 0.2559791 0.09284788
v -0.5000022 1.045242 0.1046658
v -0.4259893 1.045242 0.07401459
v -0.430986 0.1404975 0.06566048
v -0.430986 0.1404975 0.06566048
v -0.4259893 1.045242 0.07401459
v -0.3953327 1.045242 -1.843953E-06
v -0.4118612 0.08972627 -1.843953E-06
v -0.4118612 0.08972627 -1.843953E-06
v -0.3953327 1.045242 -1.843953E-06
v -0.4259893 1.045242 -0.07401459
v -0.4404204 0.08972627 -0.06566048
v -0.4404204 0.08972627 -0.06566048
v -0.4259893 1.045242 -0.07401459
v -0.5000022 1.045242 -0.1046696
v -0.4999311 0.1404975 -0.09285543
v -0.4999311 0.1404975 -0.09285543
v -0.5000022 1.045242 -0.1046696
v -0.5740151 1.045242 -0.07401459
v -0.5688748 0.2559791 -0.06566048
v -0.5688748 0.2559791 -0.06566048
v -0.5740151 1.045242 -0.07401459
v -0.6046717 1.045242 -1.843953E-06
v -0.5860927 0.3091289 -1.843953E-06
v -0.5860927 0.3091289 -1.843953E-06
v -0.6046717 1.045242 -1.843953E-06
v -0.5740151 1.045242 0.07401459
v -0.5575348 0.3091289 0.06566048
v -0.5740151 0 0.07401459
v -0.5575348 0.3091289 0.06566048
v -0.4999311 0.2559791 0.09284788
v -0.5000022 0 0.1046658
v -0.5000022 0 0.1046658
v -0.4999311 0.2559791 0.09284788
v -0.430986 0.1404975 0.06566048
v -0.4259893 0 0.07401459
v -0.4259893 0 0.07401459
v -0.430986 0.1404975 0.06566048
v -0.4118612 0.08972627 -1.843953E-06
v -0.3953327 0 -1.843953E-06
v -0.3953327 0 -1.843953E-06
v -0.4118612 0.08972627 -1.843953E-06
v -0.4404204 0.08972627 -0.06566048
v -0.4259893 0 -0.07401459
v -0.4259893 0 -0.07401459
v -0.4404204 0.08972627 -0.06566048
v -0.4999311 0.1404975 -0.09285543
v -0.5000022 0 -0.1046696
v -0.5000022 0 -0.1046696
v -0.4999311 0.1404975 -0.09285543
v -0.5688748 0.2559791 -0.06566048
v -0.5740151 0 -0.07401459
v -0.5740151 0 -0.07401459
v -0.5688748 0.2559791 -0.06566048
v -0.5860927 0.3091289 -1.843953E-06
v -0.6046717 0 -1.843953E-06
v -0.6046717 0 -1.843953E-06
v -0.5860927 0.3091289 -1.843953E-06
v -0.5575348 0.3091289 0.06566048
v -0.5740151 0 0.07401459
v -1.565698 1.07913 -0.06569484
v -1.542597 1.108072 -0.04259497
v -1.560244 1.108072 0
v -1.592906 1.07913 0
v -1.592906 1.07913 0
v -1.560244 1.108072 0
v -1.542597 1.108072 0.04259296
v -1.565698 1.07913 0.06569283
v -1.565698 1.07913 0.06569283
v -1.542597 1.108072 0.04259296
v -1.500003 1.108072 0.0602359
v -1.500001 1.07913 0.09290504
v -1.500001 1.07913 0.09290504
v -1.500003 1.108072 0.0602359
v -1.457407 1.108072 0.04259296
v -1.434306 1.07913 0.06569283
v -1.434306 1.07913 0.06569283
v -1.457407 1.108072 0.04259296
v -1.43976 1.108072 0
v -1.407099 1.07913 0
v -1.407099 1.07913 0
v -1.43976 1.108072 0
v -1.457407 1.108072 -0.04259497
v -1.434306 1.07913 -0.06569484
v -1.434306 1.07913 -0.06569484
v -1.457407 1.108072 -0.04259497
v -1.500001 1.108072 -0.06023791
v -1.500001 1.07913 -0.09290689
v -1.500001 1.07913 -0.09290689
v -1.500001 1.108072 -0.06023791
v -1.542597 1.108072 -0.04259497
v -1.565698 1.07913 -0.06569484
v -1.542597 1.108072 -0.04259497
v -1.500003 1.123759 0
v -1.560244 1.108072 0
v -1.560244 1.108072 0
v -1.500003 1.123759 0
v -1.542597 1.108072 0.04259296
v -1.542597 1.108072 0.04259296
v -1.500003 1.123759 0
v -1.500003 1.108072 0.0602359
v -1.500003 1.108072 0.0602359
v -1.500003 1.123759 0
v -1.457407 1.108072 0.04259296
v -1.457407 1.108072 0.04259296
v -1.500003 1.123759 0
v -1.43976 1.108072 0
v -1.43976 1.108072 0
v -1.500003 1.123759 0
v -1.457407 1.108072 -0.04259497
v -1.457407 1.108072 -0.04259497
v -1.500003 1.123759 0
v -1.500001 1.108072 -0.06023791
v -1.500001 1.108072 -0.06023791
v -1.500003 1.123759 0
v -1.542597 1.108072 -0.04259497
v -1.574014 1.045242 0.07401275
v -1.565698 1.07913 0.06569283
v -1.500001 1.07913 0.09290504
v -1.500001 1.045242 0.1046696
v -1.500001 1.045242 0.1046696
v -1.500001 1.07913 0.09290504
v -1.434306 1.07913 0.06569283
v -1.425986 1.045242 0.07401275
v -1.425986 1.045242 0.07401275
v -1.434306 1.07913 0.06569283
v -1.407099 1.07913 0
v -1.395334 1.045242 0
v -1.395334 1.045242 0
v -1.407099 1.07913 0
v -1.434306 1.07913 -0.06569484
v -1.425986 1.045242 -0.07401275
v -1.425986 1.045242 -0.07401275
v -1.434306 1.07913 -0.06569484
v -1.500001 1.07913 -0.09290689
v -1.500001 1.045242 -0.1046715
v -1.500001 1.045242 -0.1046715
v -1.500001 1.07913 -0.09290689
v -1.565698 1.07913 -0.06569484
v -1.574014 1.045242 -0.07401275
v -1.574014 1.045242 -0.07401275
v -1.565698 1.07913 -0.06569484
v -1.592906 1.07913 0
v -1.604669 1.045242 0
v -1.604669 1.045242 0
v -1.592906 1.07913 0
v -1.565698 1.07913 0.06569283
v -1.574014 1.045242 0.07401275
v -1.434339 0.3091289 0.05753334
v -1.425986 1.045242 0.07401275
v -1.395334 1.045242 0
v -1.407152 0.2559791 -7.05731E-05
v -1.407152 0.2559791 -7.05731E-05
v -1.395334 1.045242 0
v -1.425986 1.045242 -0.07401275
v -1.434339 0.1404975 -0.06901547
v -1.434339 0.1404975 -0.06901547
v -1.425986 1.045242 -0.07401275
v -1.500001 1.045242 -0.1046715
v -1.500003 0.08972627 -0.08814044
v -1.500003 0.08972627 -0.08814044
v -1.500001 1.045242 -0.1046715
v -1.574014 1.045242 -0.07401275
v -1.565661 0.08972627 -0.05958181
v -1.565661 0.08972627 -0.05958181
v -1.574014 1.045242 -0.07401275
v -1.604669 1.045242 0
v -1.592856 0.1404975 -7.05731E-05
v -1.592856 0.1404975 -7.05731E-05
v -1.604669 1.045242 0
v -1.574014 1.045242 0.07401275
v -1.565661 0.2559791 0.06887247
v -1.565661 0.2559791 0.06887247
v -1.574014 1.045242 0.07401275
v -1.500001 1.045242 0.1046696
v -1.500001 0.3091289 0.08609013
v -1.500001 0.3091289 0.08609013
v -1.500001 1.045242 0.1046696
v -1.425986 1.045242 0.07401275
v -1.434339 0.3091289 0.05753334
v -1.425986 0 0.07401275
v -1.434339 0.3091289 0.05753334
v -1.407152 0.2559791 -7.05731E-05
v -1.395334 0 0
v -1.395334 0 0
v -1.407152 0.2559791 -7.05731E-05
v -1.434339 0.1404975 -0.06901547
v -1.425986 0 -0.07401275
v -1.425986 0 -0.07401275
v -1.434339 0.1404975 -0.06901547
v -1.500003 0.08972627 -0.08814044
v -1.500001 0 -0.1046715
v -1.500001 0 -0.1046715
v -1.500003 0.08972627 -0.08814044
v -1.565661 0.08972627 -0.05958181
v -1.574014 0 -0.07401275
v -1.574014 0 -0.07401275
v -1.565661 0.08972627 -0.05958181
v -1.592856 0.1404975 -7.05731E-05
v -1.604669 0 0
v -1.604669 0 0
v -1.592856 0.1404975 -7.05731E-05
v -1.565661 0.2559791 0.06887247
v -1.574014 0 0.07401275
v -1.574014 0 0.07401275
v -1.565661 0.2559791 0.06887247
v -1.500001 0.3091289 0.08609013
v -1.500001 0 0.1046696
v -1.500001 0 0.1046696
v -1.500001 0.3091289 0.08609013
v -1.434339 0.3091289 0.05753334
v -1.425986 0 0.07401275

vn -0.2648926 0.7216797 0.6396484
vn -0.2648926 0.7216797 0.6396484
vn -0.2648926 0.7216797 0.6396484
vn -0.2648926 0.7216797 0.6396484
vn 0.2648926 0.7216797 0.6396484
vn 0.2648926 0.7216797 0.6396484
vn 0.2648926 0.7216797 0.6396484
vn 0.2648926 0.7216797 0.6396484
vn 0.6396484 0.7216797 0.2648926
vn 0.6396484 0.7216797 0.2648926
vn 0.6396484 0.7216797 0.2648926
vn 0.6396484 0.7216797 0.2648926
vn 0.6396484 0.7216797 -0.2648926
vn 0.6396484 0.7216797 -0.2648926
vn 0.6396484 0.7216797 -0.2648926
vn 0.6396484 0.7216797 -0.2648926
vn 0.2648926 0.7216797 -0.6396484
vn 0.2648926 0.7216797 -0.6396484
vn 0.2648926 0.7216797 -0.6396484
vn 0.2648926 0.7216797 -0.6396484
vn -0.2648926 0.7216797 -0.6396484
vn -0.2648926 0.7216797 -0.6396484
vn -0.2648926 0.7216797 -0.6396484
vn -0.2648926 0.7216797 -0.6396484
vn -0.6396484 0.7216797 -0.2648926
vn -0.6396484 0.7216797 -0.2648926
vn -0.6396484 0.7216797 -0.2648926
vn -0.6396484 0.7216797 -0.2648926
vn -0.6396484 0.7216797 0.2648926
vn -0.6396484 0.7216797 0.2648926
vn -0.6396484 0.7216797 0.2648926
vn -0.6396484 0.7216797 0.2648926
vn -0.1038208 0.9624023 0.2507324
vn -0.1038208 0.9624023 0.2507324
vn -0.1038208 0.9624023 0.2507324
vn 0.1038208 0.9624023 0.2507324
vn 0.1038208 0.9624023 0.2507324
vn 0.1038208 0.9624023 0.2507324
vn 0.2507324 0.9624023 0.1038208
vn 0.2507324 0.9624023 0.1038208
vn 0.2507324 0.9624023 0.1038208
vn 0.2507324 0.9624023 -0.1038208
vn 0.2507324 0.9624023 -0.1038208
vn 0.2507324 0.9624023 -0.1038208
vn 0.1038208 0.9624023 -0.2507324
vn 0.1038208 0.9624023 -0.2507324
vn 0.1038208 0.9624023 -0.2507324
vn -0.1038208 0.9624023 -0.2507324
vn -0.1038208 0.9624023 -0.2507324
vn -0.1038208 0.9624023 -0.2507324
vn -0.2507324 0.9624023 -0.1038208
vn -0.2507324 0.9624023 -0.1038208
vn -0.2507324 0.9624023 -0.1038208
vn -0.2507324 0.9624023 0.1038208
vn -0.2507324 0.9624023 0.1038208
vn -0.2507324 0.9624023 0.1038208
vn 0.8798828 0.3054199 0.364502
vn 0.8798828 0.3054199 0.364502
vn 0.8798828 0.3054199 0.364502
vn 0.8798828 0.3054199 0.364502
vn 0.8798828 0.3054199 -0.364502
vn 0.8798828 0.3054199 -0.364502
vn 0.8798828 0.3054199 -0.364502
vn 0.8798828 0.3054199 -0.364502
vn 0.3642578 0.3054199 -0.8798828
vn 0.3642578 0.3054199 -0.8798828
vn 0.3642578 0.3054199 -0.8798828
vn 0.3642578 0.3054199 -0.8798828
vn -0.3642578 0.3054199 -0.8798828
vn -0.3642578 0.3054199 -0.8798828
vn -0.3642578 0.3054199 -0.8798828
vn -0.3642578 0.3054199 -0.8798828
vn -0.8798828 0.3054199 -0.3642578
vn -0.8798828 0.3054199 -0.3642578
vn -0.8798828 0.3054199 -0.3642578
vn -0.8798828 0.3054199 -0.3642578
vn -0.8798828 0.3054199 0.364502
vn -0.8798828 0.3054199 0.364502
vn -0.8798828 0.3054199 0.364502
vn -0.8798828 0.3054199 0.364502
vn -0.3642578 0.3054199 0.8798828
vn -0.3642578 0.3054199 0.8798828
vn -0.3642578 0.3054199 0.8798828
vn -0.3642578 0.3054199 0.8798828
vn 0.3642578 0.3054199 0.8798828
vn 0.3642578 0.3054199 0.8798828
vn 0.3642578 0.3054199 0.8798828
vn 0.3642578 0.3054199 0.8798828
vn 0.3974609 0.01386261 -0.9174805
vn 0.4077148 -0.01649475 -0.9130859
vn 0.4077148 -0.01649475 -0.9130859
vn 0.3974609 0.01386261 -0.9174805
vn -0.3886719 0.01965332 -0.9213867
vn -0.3666992 -0.012146 -0.9301758
vn -0.3666992 -0.012146 -0.9301758
vn -0.3886719 0.01965332 -0.9213867
vn -0.9404297 -0.0124054 -0.3395996
vn -0.9404297 -0.0124054 -0.3395996
vn -0.9404297 -0.0124054 -0.3395996
vn -0.9404297 -0.0124054 -0.3395996
vn -0.9204102 -0.01661682 0.3903809
vn -0.9204102 -0.01661682 0.3903809
vn -0.9204102 -0.01661682 0.3903809
vn -0.9204102 -0.01661682 0.3903809
vn -0.3933105 -0.01300049 0.9194336
vn -0.3933105 -0.01300049 0.9194336
vn -0.3933105 -0.01300049 0.9194336
vn -0.3933105 -0.01300049 0.9194336
vn 0.361084 0.02005005 0.9321289
vn 0.3835449 -0.01217651 0.9233398
vn 0.3835449 -0.01217651 0.9233398
vn 0.361084 0.02005005 0.9321289
vn 0.9443359 0.01399231 0.3288574
vn 0.9477539 -0.01647949 0.3186035
vn 0.9477539 -0.01647949 0.3186035
vn 0.9443359 0.01399231 0.3288574
vn 0.9204102 0.01664734 -0.3901367
vn 0.9204102 -0.0241394 -0.3901367
vn 0.9204102 -0.0241394 -0.3901367
vn 0.9204102 0.01664734 -0.3901367
vn 0.3869629 0.04421997 -0.9208984
vn 0.3974609 0.01386261 -0.9174805
vn 0.3974609 0.01386261 -0.9174805
vn 0.3869629 0.04421997 -0.9208984
vn -0.4099121 0.05142212 -0.9106445
vn -0.3886719 0.01965332 -0.9213867
vn -0.3886719 0.01965332 -0.9213867
vn -0.4099121 0.05142212 -0.9106445
vn -0.9482422 0.09960938 -0.3017578
vn -0.9482422 0.09960938 -0.3017578
vn -0.9482422 0.09960938 -0.3017578
vn -0.9482422 0.09960938 -0.3017578
vn -0.9067383 0.1743164 0.3842773
vn -0.9067383 0.1743164 0.3842773
vn -0.9067383 0.1743164 0.3842773
vn -0.9067383 0.1743164 0.3842773
vn -0.4287109 0.1053467 0.8974609
vn -0.4287109 0.1053467 0.8974609
vn -0.4287109 0.1053467 0.8974609
vn -0.4287109 0.1053467 0.8974609
vn 0.3381348 0.05224609 0.9394531
vn 0.361084 0.02005005 0.9321289
vn 0.361084 0.02005005 0.9321289
vn 0.3381348 0.05224609 0.9394531
vn 0.9399414 0.04446411 0.3391113
vn 0.9443359 0.01399231 0.3288574
vn 0.9443359 0.01399231 0.3288574
vn 0.9399414 0.04446411 0.3391113
vn 0.9189453 0.05737305 -0.3896484
vn 0.9204102 0.01664734 -0.3901367
vn 0.9204102 0.01664734 -0.3901367
vn 0.9189453 0.05737305 -0.3896484
vn 0.6396484 0.7216797 0.2648926
vn 0.6396484 0.7216797 0.2648926
vn 0.6396484 0.7216797 0.2648926
vn 0.6396484 0.7216797 0.2648926
vn 0.6396484 0.7216797 -0.2648926
vn 0.6396484 0.7216797 -0.2648926
vn 0.6396484 0.7216797 -0.2648926
vn 0.6396484 0.7216797 -0.2648926
vn 0.2648926 0.7216797 -0.6396484
vn 0.2648926 0.7216797 -0.6396484
vn 0.2648926 0.7216797 -0.6396484
vn 0.2648926 0.7216797 -0.6396484
vn -0.2648926 0.7216797 -0.6396484
vn -0.2648926 0.7216797 -0.6396484
vn -0.2648926 0.7216797 -0.6396484
vn -0.2648926 0.7216797 -0.6396484
vn -0.6396484 0.7216797 -0.2648926
vn -0.6396484 0.7216797 -0.2648926
vn -0.6396484 0.7216797 -0.2648926
vn -0.6396484 0.7216797 -0.2648926
vn -0.6396484 0.7216797 0.2648926
vn -0.6396484 0.7216797 0.2648926
vn -0.6396484 0.7216797 0.2648926
vn -0.6396484 0.7216797 0.2648926
vn -0.2648926 0.7216797 0.6396484
vn -0.2648926 0.7216797 0.6396484
vn -0.2648926 0.7216797 0.6396484
vn -0.2648926 0.7216797 0.6396484
vn 0.2648926 0.7216797 0.6396484
vn 0.2648926 0.7216797 0.6396484
vn 0.2648926 0.7216797 0.6396484
vn 0.2648926 0.7216797 0.6396484
vn 0.2507324 0.9624023 0.1038208
vn 0.2507324 0.9624023 0.1038208
vn 0.2507324 0.9624023 0.1038208
vn 0.2507324 0.9624023 -0.1038208
vn 0.2507324 0.9624023 -0.1038208
vn 0.2507324 0.9624023 -0.1038208
vn 0.1038208 0.9624023 -0.2507324
vn 0.1038208 0.9624023 -0.2507324
vn 0.1038208 0.9624023 -0.2507324
vn -0.1038208 0.9624023 -0.2507324
vn -0.1038208 0.9624023 -0.2507324
vn -0.1038208 0.9624023 -0.2507324
vn -0.2507324 0.9624023 -0.1038208
vn -0.2507324 0.9624023 -0.1038208
vn -0.2507324 0.9624023 -0.1038208
vn -0.2507324 0.9624023 0.1038208
vn -0.2507324 0.9624023 0.1038208
vn -0.2507324 0.9624023 0.1038208
vn -0.1038208 0.9624023 0.2507324
vn -0.1038208 0.9624023 0.2507324
vn -0.1038208 0.9624023 0.2507324
vn 0.1038208 0.9624023 0.2507324
vn 0.1038208 0.9624023 0.2507324
vn 0.1038208 0.9624023 0.2507324
vn 0.364502 0.3054199 -0.8798828
vn 0.364502 0.3054199 -0.8798828
vn 0.364502 0.3054199 -0.8798828
vn 0.364502 0.3054199 -0.8798828
vn -0.364502 0.3054199 -0.8798828
vn -0.364502 0.3054199 -0.8798828
vn -0.364502 0.3054199 -0.8798828
vn -0.364502 0.3054199 -0.8798828
vn -0.8798828 0.3054199 -0.3642578
vn -0.8798828 0.3054199 -0.3642578
vn -0.8798828 0.3054199 -0.3642578
vn -0.8798828 0.3054199 -0.3642578
vn -0.8798828 0.3054199 0.3642578
vn -0.8798828 0.3054199 0.3642578
vn -0.8798828 0.3054199 0.3642578
vn -0.8798828 0.3054199 0.3642578
vn -0.364502 0.3054199 0.8798828
vn -0.364502 0.3054199 0.8798828
vn -0.364502 0.3054199 0.8798828
vn -0.364502 0.3054199 0.8798828
vn 0.364502 0.3054199 0.8798828
vn 0.364502 0.3054199 0.8798828
vn 0.364502 0.3054199 0.8798828
vn 0.364502 0.3054199 0.8798828
vn 0.8798828 0.3054199 0.3642578
vn 0.8798828 0.3054199 0.3642578
vn 0.8798828 0.3054199 0.3642578
vn 0.8798828 0.3054199 0.3642578
vn 0.8798828 0.3054199 -0.3642578
vn 0.8798828 0.3054199 -0.3642578
vn 0.8798828 0.3054199 -0.3642578
vn 0.8798828 0.3054199 -0.3642578
vn -0.9174805 0.01386261 -0.3974609
vn -0.9130859 -0.01649475 -0.4077148
vn -0.9130859 -0.01649475 -0.4077148
vn -0.9174805 0.01386261 -0.3974609
vn -0.9213867 0.01965332 0.3886719
vn -0.9301758 -0.012146 0.3666992
vn -0.9301758 -0.012146 0.3666992
vn -0.9213867 0.01965332 0.3886719
vn -0.3395996 -0.01241302 0.9404297
vn -0.3395996 -0.01241302 0.9404297
vn -0.3395996 -0.01241302 0.9404297
vn -0.3395996 -0.01241302 0.9404297
vn 0.3903809 -0.01661682 0.9204102
vn 0.3903809 -0.01661682 0.9204102
vn 0.3903809 -0.01661682 0.9204102
vn 0.3903809 -0.01661682 0.9204102
vn 0.9194336 -0.01300049 0.3933105
vn 0.9194336 -0.01300049 0.3933105
vn 0.9194336 -0.01300049 0.3933105
vn 0.9194336 -0.01300049 0.3933105
vn 0.9321289 0.02005005 -0.361084
vn 0.9233398 -0.01217651 -0.3835449
vn 0.9233398 -0.01217651 -0.3835449
vn 0.9321289 0.02005005 -0.361084
vn 0.3288574 0.01399231 -0.9443359
vn 0.3186035 -0.01647949 -0.9477539
vn 0.3186035 -0.01647949 -0.9477539
vn 0.3288574 0.01399231 -0.9443359
vn -0.3901367 0.01664734 -0.9204102
vn -0.3901367 -0.0241394 -0.9204102
vn -0.3901367 -0.0241394 -0.9204102
vn -0.3901367 0.01664734 -0.9204102
vn -0.9208984 0.04421997 -0.3869629
vn -0.9174805 0.01386261 -0.3974609
vn -0.9174805 0.01386261 -0.3974609
vn -0.9208984 0.04421997 -0.3869629
vn -0.9106445 0.05142212 0.4099121
vn -0.9213867 0.01965332 0.3886719
vn -0.9213867 0.01965332 0.3886719
vn -0.9106445 0.05142212 0.4099121
vn -0.3017578 0.09960938 0.9482422
vn -0.3017578 0.09960938 0.9482422
vn -0.3017578 0.09960938 0.9482422
vn -0.3017578 0.09960938 0.9482422
vn 0.3842773 0.1743164 0.9067383
vn 0.3842773 0.1743164 0.9067383
vn 0.3842773 0.1743164 0.9067383
vn 0.3842773 0.1743164 0.9067383
vn 0.8974609 0.1053467 0.4287109
vn 0.8974609 0.1053467 0.4287109
vn 0.8974609 0.1053467 0.4287109
vn 0.8974609 0.1053467 0.4287109
vn 0.9394531 0.05224609 -0.3381348
vn 0.9321289 0.02005005 -0.361084
vn 0.9321289 0.02005005 -0.361084
vn 0.9394531 0.05224609 -0.3381348
vn 0.3391113 0.04446411 -0.9399414
vn 0.3288574 0.01399231 -0.9443359
vn 0.3288574 0.01399231 -0.9443359
vn 0.3391113 0.04446411 -0.9399414
vn -0.3896484 0.05737305 -0.9189453
vn -0.3901367 0.01664734 -0.9204102
vn -0.3901367 0.01664734 -0.9204102
vn -0.3896484 0.05737305 -0.9189453
vn 0.2648926 0.7216797 -0.6396484
vn 0.2648926 0.7216797 -0.6396484
vn 0.2648926 0.7216797 -0.6396484
vn 0.2648926 0.7216797 -0.6396484
vn -0.2648926 0.7216797 -0.6396484
vn -0.2648926 0.7216797 -0.6396484
vn -0.2648926 0.7216797 -0.6396484
vn -0.2648926 0.7216797 -0.6396484
vn -0.6396484 0.7216797 -0.2648926
vn -0.6396484 0.7216797 -0.2648926
vn -0.6396484 0.7216797 -0.2648926
vn -0.6396484 0.7216797 -0.2648926
vn -0.6396484 0.7216797 0.2648926
vn -0.6396484 0.7216797 0.2648926
vn -0.6396484 0.7216797 0.2648926
vn -0.6396484 0.7216797 0.2648926
vn -0.2648926 0.7216797 0.6396484
vn -0.2648926 0.7216797 0.6396484
vn -0.2648926 0.7216797 0.6396484
vn -0.2648926 0.7216797 0.6396484
vn 0.2648926 0.7216797 0.6396484
vn 0.2648926 0.7216797 0.6396484
vn 0.2648926 0.7216797 0.6396484
vn 0.2648926 0.7216797 0.6396484
vn 0.6396484 0.7216797 0.2648926
vn 0.6396484 0.7216797 0.2648926
vn 0.6396484 0.7216797 0.2648926
vn 0.6396484 0.7216797 0.2648926
vn 0.6396484 0.7216797 -0.2648926
vn 0.6396484 0.7216797 -0.2648926
vn 0.6396484 0.7216797 -0.2648926
vn 0.6396484 0.7216797 -0.2648926
vn 0.1038208 0.9624023 -0.2507324
vn 0.1038208 0.9624023 -0.2507324
vn 0.1038208 0.9624023 -0.2507324
vn -0.1038208 0.9624023 -0.2507324
vn -0.1038208 0.9624023 -0.2507324
vn -0.1038208 0.9624023 -0.2507324
vn -0.2507324 0.9624023 -0.1038208
vn -0.2507324 0.9624023 -0.1038208
vn -0.2507324 0.9624023 -0.1038208
vn -0.2507324 0.9624023 0.1038208
vn -0.2507324 0.9624023 0.1038208
vn -0.2507324 0.9624023 0.1038208
vn -0.1038208 0.9624023 0.2507324
vn -0.1038208 0.9624023 0.2507324
vn -0.1038208 0.9624023 0.2507324
vn 0.1038208 0.9624023 0.2507324
vn 0.1038208 0.9624023 0.2507324
vn 0.1038208 0.9624023 0.2507324
vn 0.2507324 0.9624023 0.1038208
vn 0.2507324 0.9624023 0.1038208
vn 0.2507324 0.9624023 0.1038208
vn 0.2507324 0.9624023 -0.1038208
vn 0.2507324 0.9624023 -0.1038208
vn 0.2507324 0.9624023 -0.1038208
vn -0.8798828 0.3054199 -0.364502
vn -0.8798828 0.3054199 -0.364502
vn -0.8798828 0.3054199 -0.364502
vn -0.8798828 0.3054199 -0.364502
vn -0.8798828 0.3054199 0.364502
vn -0.8798828 0.3054199 0.364502
vn -0.8798828 0.3054199 0.364502
vn -0.8798828 0.3054199 0.364502
vn -0.3642578 0.3054199 0.8798828
vn -0.3642578 0.3054199 0.8798828
vn -0.3642578 0.3054199 0.8798828
vn -0.3642578 0.3054199 0.8798828
vn 0.3642578 0.3054199 0.8798828
vn 0.3642578 0.3054199 0.8798828
vn 0.3642578 0.3054199 0.8798828
vn 0.3642578 0.3054199 0.8798828
vn 0.8798828 0.3054199 0.3642578
vn 0.8798828 0.3054199 0.3642578
vn 0.8798828 0.3054199 0.3642578
vn 0.8798828 0.3054199 0.3642578
vn 0.8798828 0.3054199 -0.364502
vn 0.8798828 0.3054199 -0.364502
vn 0.8798828 0.3054199 -0.364502
vn 0.8798828 0.3054199 -0.364502
vn 0.3642578 0.3054199 -0.8798828
vn 0.3642578 0.3054199 -0.8798828
vn 0.3642578 0.3054199 -0.8798828
vn 0.3642578 0.3054199 -0.8798828
vn -0.3642578 0.3054199 -0.8798828
vn -0.3642578 0.3054199 -0.8798828
vn -0.3642578 0.3054199 -0.8798828
vn -0.3642578 0.3054199 -0.8798828
vn -0.3974609 0.01386261 0.9174805
vn -0.4077148 -0.01649475 0.9130859
vn -0.4077148 -0.01649475 0.9130859
vn -0.3974609 0.01386261 0.9174805
vn 0.3886719 0.01965332 0.9213867
vn 0.3666992 -0.012146 0.9301758
vn 0.3666992 -0.012146 0.9301758
vn 0.3886719 0.01965332 0.9213867
vn 0.9404297 -0.0124054 0.3395996
vn 0.9404297 -0.0124054 0.3395996
vn 0.9404297 -0.0124054 0.3395996
vn 0.9404297 -0.0124054 0.3395996
vn 0.9204102 -0.01661682 -0.3903809
vn 0.9204102 -0.01661682 -0.3903809
vn 0.9204102 -0.01661682 -0.3903809
vn 0.9204102 -0.01661682 -0.3903809
vn 0.3933105 -0.01300049 -0.9194336
vn 0.3933105 -0.01300049 -0.9194336
vn 0.3933105 -0.01300049 -0.9194336
vn 0.3933105 -0.01300049 -0.9194336
vn -0.361084 0.02005005 -0.9321289
vn -0.3835449 -0.01217651 -0.9233398
vn -0.3835449 -0.01217651 -0.9233398
vn -0.361084 0.02005005 -0.9321289
vn -0.9443359 0.01399231 -0.3288574
vn -0.9477539 -0.01647949 -0.3186035
vn -0.9477539 -0.01647949 -0.3186035
vn -0.9443359 0.01399231 -0.3288574
vn -0.9204102 0.01664734 0.3901367
vn -0.9204102 -0.0241394 0.3901367
vn -0.9204102 -0.0241394 0.3901367
vn -0.9204102 0.01664734 0.3901367
vn -0.3869629 0.04421997 0.9208984
vn -0.3974609 0.01386261 0.9174805
vn -0.3974609 0.01386261 0.9174805
vn -0.3869629 0.04421997 0.9208984
vn 0.4099121 0.05142212 0.9106445
vn 0.3886719 0.01965332 0.9213867
vn 0.3886719 0.01965332 0.9213867
vn 0.4099121 0.05142212 0.9106445
vn 0.9482422 0.09960938 0.3017578
vn 0.9482422 0.09960938 0.3017578
vn 0.9482422 0.09960938 0.3017578
vn 0.9482422 0.09960938 0.3017578
vn 0.9067383 0.1743164 -0.3842773
vn 0.9067383 0.1743164 -0.3842773
vn 0.9067383 0.1743164 -0.3842773
vn 0.9067383 0.1743164 -0.3842773
vn 0.4287109 0.1053467 -0.8974609
vn 0.4287109 0.1053467 -0.8974609
vn 0.4287109 0.1053467 -0.8974609
vn 0.4287109 0.1053467 -0.8974609
vn -0.3381348 0.05224609 -0.9394531
vn -0.361084 0.02005005 -0.9321289
vn -0.361084 0.02005005 -0.9321289
vn -0.3381348 0.05224609 -0.9394531
vn -0.9399414 0.04446411 -0.3391113
vn -0.9443359 0.01399231 -0.3288574
vn -0.9443359 0.01399231 -0.3288574
vn -0.9399414 0.04446411 -0.3391113
vn -0.9189453 0.05737305 0.3896484
vn -0.9204102 0.01664734 0.3901367
vn -0.9204102 0.01664734 0.3901367
vn -0.9189453 0.05737305 0.3896484
vn -0.6396484 0.7216797 -0.2648926
vn -0.6396484 0.7216797 -0.2648926
vn -0.6396484 0.7216797 -0.2648926
vn -0.6396484 0.7216797 -0.2648926
vn -0.6396484 0.7216797 0.2648926
vn -0.6396484 0.7216797 0.2648926
vn -0.6396484 0.7216797 0.2648926
vn -0.6396484 0.7216797 0.2648926
vn -0.2648926 0.7216797 0.6396484
vn -0.2648926 0.7216797 0.6396484
vn -0.2648926 0.7216797 0.6396484
vn -0.2648926 0.7216797 0.6396484
vn 0.2648926 0.7216797 0.6396484
vn 0.2648926 0.7216797 0.6396484
vn 0.2648926 0.7216797 0.6396484
vn 0.2648926 0.7216797 0.6396484
vn 0.6396484 0.7216797 0.2648926
vn 0.6396484 0.7216797 0.2648926
vn 0.6396484 0.7216797 0.2648926
vn 0.6396484 0.7216797 0.2648926
vn 0.6396484 0.7216797 -0.2648926
vn 0.6396484 0.7216797 -0.2648926
vn 0.6396484 0.7216797 -0.2648926
vn 0.6396484 0.7216797 -0.2648926
vn 0.2648926 0.7216797 -0.6396484
vn 0.2648926 0.7216797 -0.6396484
vn 0.2648926 0.7216797 -0.6396484
vn 0.2648926 0.7216797 -0.6396484
vn -0.2648926 0.7216797 -0.6396484
vn -0.2648926 0.7216797 -0.6396484
vn -0.2648926 0.7216797 -0.6396484
vn -0.2648926 0.7216797 -0.6396484
vn -0.2507324 0.9624023 -0.1038208
vn -0.2507324 0.9624023 -0.1038208
vn -0.2507324 0.9624023 -0.1038208
vn -0.2507324 0.9624023 0.1038208
vn -0.2507324 0.9624023 0.1038208
vn -0.2507324 0.9624023 0.1038208
vn -0.1038208 0.9624023 0.2507324
vn -0.1038208 0.9624023 0.2507324
vn -0.1038208 0.9624023 0.2507324
vn 0.1038208 0.9624023 0.2507324
vn 0.1038208 0.9624023 0.2507324
vn 0.1038208 0.9624023 0.2507324
vn 0.2507324 0.9624023 0.1038208
vn 0.2507324 0.9624023 0.1038208
vn 0.2507324 0.9624023 0.1038208
vn 0.2507324 0.9624023 -0.1038208
vn 0.2507324 0.9624023 -0.1038208
vn 0.2507324 0.9624023 -0.1038208
vn 0.1038208 0.9624023 -0.2507324
vn 0.1038208 0.9624023 -0.2507324
vn 0.1038208 0.9624023 -0.2507324
vn -0.1038208 0.9624023 -0.2507324
vn -0.1038208 0.9624023 -0.2507324
vn -0.1038208 0.9624023 -0.2507324
vn -0.364502 0.3054199 0.8798828
vn -0.364502 0.3054199 0.8798828
vn -0.364502 0.3054199 0.8798828
vn -0.364502 0.3054199 0.8798828
vn 0.364502 0.3054199 0.8798828
vn 0.364502 0.3054199 0.8798828
vn 0.364502 0.3054199 0.8798828
vn 0.364502 0.3054199 0.8798828
vn 0.8798828 0.3054199 0.3642578
vn 0.8798828 0.3054199 0.3642578
vn 0.8798828 0.3054199 0.3642578
vn 0.8798828 0.3054199 0.3642578
vn 0.8798828 0.3054199 -0.3642578
vn 0.8798828 0.3054199 -0.3642578
vn 0.8798828 0.3054199 -0.3642578
vn 0.8798828 0.3054199 -0.3642578
vn 0.364502 0.3054199 -0.8798828
vn 0.364502 0.3054199 -0.8798828
vn 0.364502 0.3054199 -0.8798828
vn 0.364502 0.3054199 -0.8798828
vn -0.364502 0.3054199 -0.8798828
vn -0.364502 0.3054199 -0.8798828
vn -0.364502 0.3054199 -0.8798828
vn -0.364502 0.3054199 -0.8798828
vn -0.8798828 0.3054199 -0.3642578
vn -0.8798828 0.3054199 -0.3642578
vn -0.8798828 0.3054199 -0.3642578
vn -0.8798828 0.3054199 -0.3642578
vn -0.8798828 0.3054199 0.3642578
vn -0.8798828 0.3054199 0.3642578
vn -0.8798828 0.3054199 0.3642578
vn -0.8798828 0.3054199 0.3642578
vn 0.9174805 0.01386261 0.3974609
vn 0.9130859 -0.01649475 0.4077148
vn 0.9130859 -0.01649475 0.4077148
vn 0.9174805 0.01386261 0.3974609
vn 0.9213867 0.01965332 -0.3886719
vn 0.9301758 -0.012146 -0.3664551
vn 0.9301758 -0.012146 -0.3664551
vn 0.9213867 0.01965332 -0.3886719
vn 0.3395996 -0.01241302 -0.9404297
vn 0.3395996 -0.01241302 -0.9404297
vn 0.3395996 -0.01241302 -0.9404297
vn 0.3395996 -0.01241302 -0.9404297
vn -0.3903809 -0.01661682 -0.9204102
vn -0.3903809 -0.01661682 -0.9204102
vn -0.3903809 -0.01661682 -0.9204102
vn -0.3903809 -0.01661682 -0.9204102
vn -0.9194336 -0.01300049 -0.3933105
vn -0.9194336 -0.01300049 -0.3933105
vn -0.9194336 -0.01300049 -0.3933105
vn -0.9194336 -0.01300049 -0.3933105
vn -0.9321289 0.02005005 0.361084
vn -0.9233398 -0.01217651 0.3835449
vn -0.9233398 -0.01217651 0.3835449
vn -0.9321289 0.02005005 0.361084
vn -0.3288574 0.01399231 0.9443359
vn -0.3186035 -0.01647949 0.9477539
vn -0.3186035 -0.01647949 0.9477539
vn -0.3288574 0.01399231 0.9443359
vn 0.3901367 0.01664734 0.9204102
vn 0.3901367 -0.0241394 0.9204102
vn 0.3901367 -0.0241394 0.9204102
vn 0.3901367 0.01664734 0.9204102
vn 0.9208984 0.04421997 0.3869629
vn 0.9174805 0.01386261 0.3974609
vn 0.9174805 0.01386261 0.3974609
vn 0.9208984 0.04421997 0.3869629
vn 0.9106445 0.05142212 -0.4099121
vn 0.9213867 0.01965332 -0.3886719
vn 0.9213867 0.01965332 -0.3886719
vn 0.9106445 0.05142212 -0.4099121
vn 0.3017578 0.09960938 -0.9482422
vn 0.3017578 0.09960938 -0.9482422
vn 0.3017578 0.09960938 -0.9482422
vn 0.3017578 0.09960938 -0.9482422
vn -0.3842773 0.1743164 -0.9067383
vn -0.3842773 0.1743164 -0.9067383
vn -0.3842773 0.1743164 -0.9067383
vn -0.3842773 0.1743164 -0.9067383
vn -0.8974609 0.1053467 -0.4287109
vn -0.8974609 0.1053467 -0.4287109
vn -0.8974609 0.1053467 -0.4287109
vn -0.8974609 0.1053467 -0.4287109
vn -0.9394531 0.05224609 0.3381348
vn -0.9321289 0.02005005 0.361084
vn -0.9321289 0.02005005 0.361084
vn -0.9394531 0.05224609 0.3381348
vn -0.3391113 0.04446411 0.9399414
vn -0.3288574 0.01399231 0.9443359
vn -0.3288574 0.01399231 0.9443359
vn -0.3391113 0.04446411 0.9399414
vn 0.3896484 0.05737305 0.9189453
vn 0.3901367 0.01664734 0.9204102
vn 0.3901367 0.01664734 0.9204102
vn 0.3896484 0.05737305 0.9189453

vt 0.09637451 0.2078857
vt 0.09637451 0.2078857
vt 0.09637451 0.2078857
vt 0.09637451 0.2078857
vt 0.09637451 0.2078857
vt 0.09637451 0.2078857
vt 0.09637451 0.2078857
vt 0.09637451 0.2078857
vt 0.09637451 0.2078857
vt 0.09637451 0.2078857
vt 0.09637451 0.2078857
vt 0.09637451 0.2078857
vt 0.09637451 0.2078857
vt 0.09637451 0.2078857
vt 0.09637451 0.2078857
vt 0.09637451 0.2078857
vt 0.09637451 0.2078857
vt 0.09637451 0.2078857
vt 0.09637451 0.2078857
vt 0.09637451 0.2078857
vt 0.09637451 0.2078857
vt 0.09637451 0.2078857
vt 0.09637451 0.2078857
vt 0.09637451 0.2078857
vt 0.09637451 0.2078857
vt 0.09637451 0.2078857
vt 0.09637451 0.2078857
vt 0.09637451 0.2078857
vt 0.09637451 0.2078857
vt 0.09637451 0.2078857
vt 0.09637451 0.2078857
vt 0.09637451 0.2078857
vt 0.09637451 0.2078857
vt 0.09637451 0.2078857
vt 0.09637451 0.2078857
vt 0.09637451 0.2078857
vt 0.09637451 0.2078857
vt 0.09637451 0.2078857
vt 0.09637451 0.2078857
vt 0.09637451 0.2078857
vt 0.09637451 0.2078857
vt 0.09637451 0.2078857
vt 0.09637451 0.2078857
vt 0.09637451 0.2078857
vt 0.09637451 0.2078857
vt 0.09637451 0.2078857
vt 0.09637451 0.2078857
vt 0.09637451 0.2078857
vt 0.09637451 0.2078857
vt 0.09637451 0.2078857
vt 0.09637451 0.2078857
vt 0.09637451 0.2078857
vt 0.09637451 0.2078857
vt 0.09637451 0.2078857
vt 0.09637451 0.2078857
vt 0.09637451 0.2078857
vt 0.09637451 0.2078857
vt 0.09637451 0.2078857
vt 0.09637451 0.2078857
vt 0.09637451 0.2078857
vt 0.09637451 0.2078857
vt 0.09637451 0.2078857
vt 0.09637451 0.2078857
vt 0.09637451 0.2078857
vt 0.09637451 0.2078857
vt 0.09637451 0.2078857
vt 0.09637451 0.2078857
vt 0.09637451 0.2078857
vt 0.09637451 0.2078857
vt 0.09637451 0.2078857
vt 0.09637451 0.2078857
vt 0.09637451 0.2078857
vt 0.09637451 0.2078857
vt 0.09637451 0.2078857
vt 0.09637451 0.2078857
vt 0.09637451 0.2078857
vt 0.09637451 0.2078857
vt 0.09637451 0.2078857
vt 0.09637451 0.2078857
vt 0.09637451 0.2078857
vt 0.09637451 0.2078857
vt 0.09637451 0.2078857
vt 0.09637451 0.2078857
vt 0.09637451 0.2078857
vt 0.09637451 0.2078857
vt 0.09637451 0.2078857
vt 0.09637451 0.2078857
vt 0.09637451 0.2078857
vt 0.09637451 0.2078857
vt 0.09637451 0.2078857
vt 0.09637451 0.2078857
vt 0.09637451 0.2078857
vt 0.09637451 0.2078857
vt 0.09637451 0.2078857
vt 0.09637451 0.2078857
vt 0.09637451 0.2078857
vt 0.09637451 0.2078857
vt 0.09637451 0.2078857
vt 0.09637451 0.2078857
vt 0.09637451 0.2078857
vt 0.09637451 0.2078857
vt 0.09637451 0.2078857
vt 0.09637451 0.2078857
vt 0.09637451 0.2078857
vt 0.09637451 0.2078857
vt 0.09637451 0.2078857
vt 0.09637451 0.2078857
vt 0.09637451 0.2078857
vt 0.09637451 0.2078857
vt 0.09637451 0.2078857
vt 0.09637451 0.2078857
vt 0.09637451 0.2078857
vt 0.09637451 0.2078857
vt 0.09637451 0.2078857
vt 0.09637451 0.2078857
vt 0.09637451 0.2078857
vt 0.09637451 0.2078857
vt 0.09637451 0.2078857
vt 0.09637451 0.2078857
vt 0.09637451 0.2078857
vt 0.2178955 0.4204102
vt 0.2178955 0.4204102
vt 0.2178955 0.4204102
vt 0.2178955 0.4204102
vt 0.2178955 0.4204102
vt 0.2178955 0.4204102
vt 0.2178955 0.4204102
vt 0.2178955 0.4204102
vt 0.2178955 0.4204102
vt 0.2178955 0.4204102
vt 0.2178955 0.4204102
vt 0.2178955 0.4204102
vt 0.2178955 0.4204102
vt 0.2178955 0.4204102
vt 0.2178955 0.4204102
vt 0.2178955 0.4204102
vt 0.2178955 0.4204102
vt 0.2178955 0.4204102
vt 0.2178955 0.4204102
vt 0.2178955 0.4204102
vt 0.2178955 0.4204102
vt 0.2178955 0.4204102
vt 0.2178955 0.4204102
vt 0.2178955 0.4204102
vt 0.2178955 0.4204102
vt 0.2178955 0.4204102
vt 0.2178955 0.4204102
vt 0.2178955 0.4204102
vt 0.2178955 0.4204102
vt 0.2178955 0.4204102
vt 0.2178955 0.4204102
vt 0.2178955 0.4204102
vt 0.09637451 0.2078857
vt 0.09637451 0.2078857
vt 0.09637451 0.2078857
vt 0.09637451 0.2078857
vt 0.09637451 0.2078857
vt 0.09637451 0.2078857
vt 0.09637451 0.2078857
vt 0.09637451 0.2078857
vt 0.09637451 0.2078857
vt 0.09637451 0.2078857
vt 0.09637451 0.2078857
vt 0.09637451 0.2078857
vt 0.09637451 0.2078857
vt 0.09637451 0.2078857
vt 0.09637451 0.2078857
vt 0.09637451 0.2078857
vt 0.09637451 0.2078857
vt 0.09637451 0.2078857
vt 0.09637451 0.2078857
vt 0.09637451 0.2078857
vt 0.09637451 0.2078857
vt 0.09637451 0.2078857
vt 0.09637451 0.2078857
vt 0.09637451 0.2078857
vt 0.09637451 0.2078857
vt 0.09637451 0.2078857
vt 0.09637451 0.2078857
vt 0.09637451 0.2078857
vt 0.09637451 0.2078857
vt 0.09637451 0.2078857
vt 0.09637451 0.2078857
vt 0.09637451 0.2078857
vt 0.09637451 0.2078857
vt 0.09637451 0.2078857
vt 0.09637451 0.2078857
vt 0.09637451 0.2078857
vt 0.09637451 0.2078857
vt 0.09637451 0.2078857
vt 0.09637451 0.2078857
vt 0.09637451 0.2078857
vt 0.09637451 0.2078857
vt 0.09637451 0.2078857
vt 0.09637451 0.2078857
vt 0.09637451 0.2078857
vt 0.09637451 0.2078857
vt 0.09637451 0.2078857
vt 0.09637451 0.2078857
vt 0.09637451 0.2078857
vt 0.09637451 0.2078857
vt 0.09637451 0.2078857
vt 0.09637451 0.2078857
vt 0.09637451 0.2078857
vt 0.09637451 0.2078857
vt 0.09637451 0.2078857
vt 0.09637451 0.2078857
vt 0.09637451 0.2078857
vt 0.09637451 0.2078857
vt 0.09637451 0.2078857
vt 0.09637451 0.2078857
vt 0.09637451 0.2078857
vt 0.09637451 0.2078857
vt 0.09637451 0.2078857
vt 0.09637451 0.2078857
vt 0.09637451 0.2078857
vt 0.09637451 0.2078857
vt 0.09637451 0.2078857
vt 0.09637451 0.2078857
vt 0.09637451 0.2078857
vt 0.09637451 0.2078857
vt 0.09637451 0.2078857
vt 0.09637451 0.2078857
vt 0.09637451 0.2078857
vt 0.09637451 0.2078857
vt 0.09637451 0.2078857
vt 0.09637451 0.2078857
vt 0.09637451 0.2078857
vt 0.09637451 0.2078857
vt 0.09637451 0.2078857
vt 0.09637451 0.2078857
vt 0.09637451 0.2078857
vt 0.09637451 0.2078857
vt 0.09637451 0.2078857
vt 0.09637451 0.2078857
vt 0.09637451 0.2078857
vt 0.09637451 0.2078857
vt 0.09637451 0.2078857
vt 0.09637451 0.2078857
vt 0.09637451 0.2078857
vt 0.09637451 0.2078857
vt 0.09637451 0.2078857
vt 0.09637451 0.2078857
vt 0.09637451 0.2078857
vt 0.09637451 0.2078857
vt 0.09637451 0.2078857
vt 0.09637451 0.2078857
vt 0.09637451 0.2078857
vt 0.09637451 0.2078857
vt 0.09637451 0.2078857
vt 0.09637451 0.2078857
vt 0.09637451 0.2078857
vt 0.09637451 0.2078857
vt 0.09637451 0.2078857
vt 0.09637451 0.2078857
vt 0.09637451 0.2078857
vt 0.09637451 0.2078857
vt 0.09637451 0.2078857
vt 0.09637451 0.2078857
vt 0.09637451 0.2078857
vt 0.09637451 0.2078857
vt 0.09637451 0.2078857
vt 0.09637451 0.2078857
vt 0.09637451 0.2078857
vt 0.09637451 0.2078857
vt 0.09637451 0.2078857
vt 0.09637451 0.2078857
vt 0.09637451 0.2078857
vt 0.09637451 0.2078857
vt 0.09637451 0.2078857
vt 0.09637451 0.2078857
vt 0.09637451 0.2078857
vt 0.2178955 0.4204102
vt 0.2178955 0.4204102
vt 0.2178955 0.4204102
vt 0.2178955 0.4204102
vt 0.2178955 0.4204102
vt 0.2178955 0.4204102
vt 0.2178955 0.4204102
vt 0.2178955 0.4204102
vt 0.2178955 0.4204102
vt 0.2178955 0.4204102
vt 0.2178955 0.4204102
vt 0.2178955 0.4204102
vt 0.2178955 0.4204102
vt 0.2178955 0.4204102
vt 0.2178955 0.4204102
vt 0.2178955 0.4204102
vt 0.2178955 0.4204102
vt 0.2178955 0.4204102
vt 0.2178955 0.4204102
vt 0.2178955 0.4204102
vt 0.2178955 0.4204102
vt 0.2178955 0.4204102
vt 0.2178955 0.4204102
vt 0.2178955 0.4204102
vt 0.2178955 0.4204102
vt 0.2178955 0.4204102
vt 0.2178955 0.4204102
vt 0.2178955 0.4204102
vt 0.2178955 0.4204102
vt 0.2178955 0.4204102
vt 0.2178955 0.4204102
vt 0.2178955 0.4204102
vt 0.09637451 0.2078857
vt 0.09637451 0.2078857
vt 0.09637451 0.2078857
vt 0.09637451 0.2078857
vt 0.09637451 0.2078857
vt 0.09637451 0.2078857
vt 0.09637451 0.2078857
vt 0.09637451 0.2078857
vt 0.09637451 0.2078857
vt 0.09637451 0.2078857
vt 0.09637451 0.2078857
vt 0.09637451 0.2078857
vt 0.09637451 0.2078857
vt 0.09637451 0.2078857
vt 0.09637451 0.2078857
vt 0.09637451 0.2078857
vt 0.09637451 0.2078857
vt 0.09637451 0.2078857
vt 0.09637451 0.2078857
vt 0.09637451 0.2078857
vt 0.09637451 0.2078857
vt 0.09637451 0.2078857
vt 0.09637451 0.2078857
vt 0.09637451 0.2078857
vt 0.09637451 0.2078857
vt 0.09637451 0.2078857
vt 0.09637451 0.2078857
vt 0.09637451 0.2078857
vt 0.09637451 0.2078857
vt 0.09637451 0.2078857
vt 0.09637451 0.2078857
vt 0.09637451 0.2078857
vt 0.09637451 0.2078857
vt 0.09637451 0.2078857
vt 0.09637451 0.2078857
vt 0.09637451 0.2078857
vt 0.09637451 0.2078857
vt 0.09637451 0.2078857
vt 0.09637451 0.2078857
vt 0.09637451 0.2078857
vt 0.09637451 0.2078857
vt 0.09637451 0.2078857
vt 0.09637451 0.2078857
vt 0.09637451 0.2078857
vt 0.09637451 0.2078857
vt 0.09637451 0.2078857
vt 0.09637451 0.2078857
vt 0.09637451 0.2078857
vt 0.09637451 0.2078857
vt 0.09637451 0.2078857
vt 0.09637451 0.2078857
vt 0.09637451 0.2078857
vt 0.09637451 0.2078857
vt 0.09637451 0.2078857
vt 0.09637451 0.2078857
vt 0.09637451 0.2078857
vt 0.09637451 0.2078857
vt 0.09637451 0.2078857
vt 0.09637451 0.2078857
vt 0.09637451 0.2078857
vt 0.09637451 0.2078857
vt 0.09637451 0.2078857
vt 0.09637451 0.2078857
vt 0.09637451 0.2078857
vt 0.09637451 0.2078857
vt 0.09637451 0.2078857
vt 0.09637451 0.2078857
vt 0.09637451 0.2078857
vt 0.09637451 0.2078857
vt 0.09637451 0.2078857
vt 0.09637451 0.2078857
vt 0.09637451 0.2078857
vt 0.09637451 0.2078857
vt 0.09637451 0.2078857
vt 0.09637451 0.2078857
vt 0.09637451 0.2078857
vt 0.09637451 0.2078857
vt 0.09637451 0.2078857
vt 0.09637451 0.2078857
vt 0.09637451 0.2078857
vt 0.09637451 0.2078857
vt 0.09637451 0.2078857
vt 0.09637451 0.2078857
vt 0.09637451 0.2078857
vt 0.09637451 0.2078857
vt 0.09637451 0.2078857
vt 0.09637451 0.2078857
vt 0.09637451 0.2078857
vt 0.09637451 0.2078857
vt 0.09637451 0.2078857
vt 0.09637451 0.2078857
vt 0.09637451 0.2078857
vt 0.09637451 0.2078857
vt 0.09637451 0.2078857
vt 0.09637451 0.2078857
vt 0.09637451 0.2078857
vt 0.09637451 0.2078857
vt 0.09637451 0.2078857
vt 0.09637451 0.2078857
vt 0.09637451 0.2078857
vt 0.09637451 0.2078857
vt 0.09637451 0.2078857
vt 0.09637451 0.2078857
vt 0.09637451 0.2078857
vt 0.09637451 0.2078857
vt 0.09637451 0.2078857
vt 0.09637451 0.2078857
vt 0.09637451 0.2078857
vt 0.09637451 0.2078857
vt 0.09637451 0.2078857
vt 0.09637451 0.2078857
vt 0.09637451 0.2078857
vt 0.09637451 0.2078857
vt 0.09637451 0.2078857
vt 0.09637451 0.2078857
vt 0.09637451 0.2078857
vt 0.09637451 0.2078857
vt 0.09637451 0.2078857
vt 0.09637451 0.2078857
vt 0.09637451 0.2078857
vt 0.2178955 0.4204102
vt 0.2178955 0.4204102
vt 0.2178955 0.4204102
vt 0.2178955 0.4204102
vt 0.2178955 0.4204102
vt 0.2178955 0.4204102
vt 0.2178955 0.4204102
vt 0.2178955 0.4204102
vt 0.2178955 0.4204102
vt 0.2178955 0.4204102
vt 0.2178955 0.4204102
vt 0.2178955 0.4204102
vt 0.2178955 0.4204102
vt 0.2178955 0.4204102
vt 0.2178955 0.4204102
vt 0.2178955 0.4204102
vt 0.2178955 0.4204102
vt 0.2178955 0.4204102
vt 0.2178955 0.4204102
vt 0.2178955 0.4204102
vt 0.2178955 0.4204102
vt 0.2178955 0.4204102
vt 0.2178955 0.4204102
vt 0.2178955 0.4204102
vt 0.2178955 0.4204102
vt 0.2178955 0.4204102
vt 0.2178955 0.4204102
vt 0.2178955 0.4204102
vt 0.2178955 0.4204102
vt 0.2178955 0.4204102
vt 0.2178955 0.4204102
vt 0.2178955 0.4204102
vt 0.09637451 0.2078857
vt 0.09637451 0.2078857
vt 0.09637451 0.2078857
vt 0.09637451 0.2078857
vt 0.09637451 0.2078857
vt 0.09637451 0.2078857
vt 0.09637451 0.2078857
vt 0.09637451 0.2078857
vt 0.09637451 0.2078857
vt 0.09637451 0.2078857
vt 0.09637451 0.2078857
vt 0.09637451 0.2078857
vt 0.09637451 0.2078857
vt 0.09637451 0.2078857
vt 0.09637451 0.2078857
vt 0.09637451 0.2078857
vt 0.09637451 0.2078857
vt 0.09637451 0.2078857
vt 0.09637451 0.2078857
vt 0.09637451 0.2078857
vt 0.09637451 0.2078857
vt 0.09637451 0.2078857
vt 0.09637451 0.2078857
vt 0.09637451 0.2078857
vt 0.09637451 0.2078857
vt 0.09637451 0.2078857
vt 0.09637451 0.2078857
vt 0.09637451 0.2078857
vt 0.09637451 0.2078857
vt 0.09637451 0.2078857
vt 0.09637451 0.2078857
vt 0.09637451 0.2078857
vt 0.09637451 0.2078857
vt 0.09637451 0.2078857
vt 0.09637451 0.2078857
vt 0.09637451 0.2078857
vt 0.09637451 0.2078857
vt 0.09637451 0.2078857
vt 0.09637451 0.2078857
vt 0.09637451 0.2078857
vt 0.09637451 0.2078857
vt 0.09637451 0.2078857
vt 0.09637451 0.2078857
vt 0.09637451 0.2078857
vt 0.09637451 0.2078857
vt 0.09637451 0.2078857
vt 0.09637451 0.2078857
vt 0.09637451 0.2078857
vt 0.09637451 0.2078857
vt 0.09637451 0.2078857
vt 0.09637451 0.2078857
vt 0.09637451 0.2078857
vt 0.09637451 0.2078857
vt 0.09637451 0.2078857
vt 0.09637451 0.2078857
vt 0.09637451 0.2078857
vt 0.09637451 0.2078857
vt 0.09637451 0.2078857
vt 0.09637451 0.2078857
vt 0.09637451 0.2078857
vt 0.09637451 0.2078857
vt 0.09637451 0.2078857
vt 0.09637451 0.2078857
vt 0.09637451 0.2078857
vt 0.09637451 0.2078857
vt 0.09637451 0.2078857
vt 0.09637451 0.2078857
vt 0.09637451 0.2078857
vt 0.09637451 0.2078857
vt 0.09637451 0.2078857
vt 0.09637451 0.2078857
vt 0.09637451 0.2078857
vt 0.09637451 0.2078857
vt 0.09637451 0.2078857
vt 0.09637451 0.2078857
vt 0.09637451 0.2078857
vt 0.09637451 0.2078857
vt 0.09637451 0.2078857
vt 0.09637451 0.2078857
vt 0.09637451 0.2078857
vt 0.09637451 0.2078857
vt 0.09637451 0.2078857
vt 0.09637451 0.2078857
vt 0.09637451 0.2078857
vt 0.09637451 0.2078857
vt 0.09637451 0.2078857
vt 0.09637451 0.2078857
vt 0.09637451 0.2078857
vt 0.09637451 0.2078857
vt 0.09637451 0.2078857
vt 0.09637451 0.2078857
vt 0.09637451 0.2078857
vt 0.09637451 0.2078857
vt 0.09637451 0.2078857
vt 0.09637451 0.2078857
vt 0.09637451 0.2078857
vt 0.09637451 0.2078857
vt 0.09637451 0.2078857
vt 0.09637451 0.2078857
vt 0.09637451 0.2078857
vt 0.09637451 0.2078857
vt 0.09637451 0.2078857
vt 0.09637451 0.2078857
vt 0.09637451 0.2078857
vt 0.09637451 0.2078857
vt 0.09637451 0.2078857
vt 0.09637451 0.2078857
vt 0.09637451 0.2078857
vt 0.09637451 0.2078857
vt 0.09637451 0.2078857
vt 0.09637451 0.2078857
vt 0.09637451 0.2078857
vt 0.09637451 0.2078857
vt 0.09637451 0.2078857
vt 0.09637451 0.2078857
vt 0.09637451 0.2078857
vt 0.09637451 0.2078857
vt 0.09637451 0.2078857
vt 0.09637451 0.2078857
vt 0.09637451 0.2078857
vt 0.2178955 0.4204102
vt 0.2178955 0.4204102
vt 0.2178955 0.4204102
vt 0.2178955 0.4204102
vt 0.2178955 0.4204102
vt 0.2178955 0.4204102
vt 0.2178955 0.4204102
vt 0.2178955 0.4204102
vt 0.2178955 0.4204102
vt 0.2178955 0.4204102
vt 0.2178955 0.4204102
vt 0.2178955 0.4204102
vt 0.2178955 0.4204102
vt 0.2178955 0.4204102
vt 0.2178955 0.4204102
vt 0.2178955 0.4204102
vt 0.2178955 0.4204102
vt 0.2178955 0.4204102
vt 0.2178955 0.4204102
vt 0.2178955 0.4204102
vt 0.2178955 0.4204102
vt 0.2178955 0.4204102
vt 0.2178955 0.4204102
vt 0.2178955 0.4204102
vt 0.2178955 0.4204102
vt 0.2178955 0.4204102
vt 0.2178955 0.4204102
vt 0.2178955 0.4204102
vt 0.2178955 0.4204102
vt 0.2178955 0.4204102
vt 0.2178955 0.4204102
vt 0.2178955 0.4204102

g SM_Prop_SidewalkPoles_01_320_18
usemtl SM_Prop_SidewalkPoles_01_320_18
usemap SM_Prop_SidewalkPoles_01_320_18
f 1/1/1 3/3/3 2/2/2
f 1/1/1 4/4/4 3/3/3
f 5/5/5 7/7/7 6/6/6
f 5/5/5 8/8/8 7/7/7
f 9/9/9 11/11/11 10/10/10
f 9/9/9 12/12/12 11/11/11
f 13/13/13 15/15/15 14/14/14
f 13/13/13 16/16/16 15/15/15
f 17/17/17 19/19/19 18/18/18
f 17/17/17 20/20/20 19/19/19
f 21/21/21 23/23/23 22/22/22
f 21/21/21 24/24/24 23/23/23
f 25/25/25 27/27/27 26/26/26
f 25/25/25 28/28/28 27/27/27
f 29/29/29 31/31/31 30/30/30
f 29/29/29 32/32/32 31/31/31
f 33/33/33 35/35/35 34/34/34
f 36/36/36 38/38/38 37/37/37
f 39/39/39 41/41/41 40/40/40
f 42/42/42 44/44/44 43/43/43
f 45/45/45 47/47/47 46/46/46
f 48/48/48 50/50/50 49/49/49
f 51/51/51 53/53/53 52/52/52
f 54/54/54 56/56/56 55/55/55
f 57/57/57 59/59/59 58/58/58
f 57/57/57 60/60/60 59/59/59
f 61/61/61 63/63/63 62/62/62
f 61/61/61 64/64/64 63/63/63
f 65/65/65 67/67/67 66/66/66
f 65/65/65 68/68/68 67/67/67
f 69/69/69 71/71/71 70/70/70
f 69/69/69 72/72/72 71/71/71
f 73/73/73 75/75/75 74/74/74
f 73/73/73 76/76/76 75/75/75
f 77/77/77 79/79/79 78/78/78
f 77/77/77 80/80/80 79/79/79
f 81/81/81 83/83/83 82/82/82
f 81/81/81 84/84/84 83/83/83
f 85/85/85 87/87/87 86/86/86
f 85/85/85 88/88/88 87/87/87
f 89/89/89 91/91/91 90/90/90
f 89/89/89 92/92/92 91/91/91
f 93/93/93 95/95/95 94/94/94
f 93/93/93 96/96/96 95/95/95
f 97/97/97 99/99/99 98/98/98
f 97/97/97 100/100/100 99/99/99
f 101/101/101 103/103/103 102/102/102
f 101/101/101 104/104/104 103/103/103
f 105/105/105 107/107/107 106/106/106
f 105/105/105 108/108/108 107/107/107
f 109/109/109 111/111/111 110/110/110
f 109/109/109 112/112/112 111/111/111
f 113/113/113 115/115/115 114/114/114
f 113/113/113 116/116/116 115/115/115
f 117/117/117 119/119/119 118/118/118
f 117/117/117 120/120/120 119/119/119
f 121/121/121 123/123/123 122/122/122
f 121/121/121 124/124/124 123/123/123
f 125/125/125 127/127/127 126/126/126
f 125/125/125 128/128/128 127/127/127
f 129/129/129 131/131/131 130/130/130
f 129/129/129 132/132/132 131/131/131
f 133/133/133 135/135/135 134/134/134
f 133/133/133 136/136/136 135/135/135
f 137/137/137 139/139/139 138/138/138
f 137/137/137 140/140/140 139/139/139
f 141/141/141 143/143/143 142/142/142
f 141/141/141 144/144/144 143/143/143
f 145/145/145 147/147/147 146/146/146
f 145/145/145 148/148/148 147/147/147
f 149/149/149 151/151/151 150/150/150
f 149/149/149 152/152/152 151/151/151
f 153/153/153 155/155/155 154/154/154
f 153/153/153 156/156/156 155/155/155
f 157/157/157 159/159/159 158/158/158
f 157/157/157 160/160/160 159/159/159
f 161/161/161 163/163/163 162/162/162
f 161/161/161 164/164/164 163/163/163
f 165/165/165 167/167/167 166/166/166
f 165/165/165 168/168/168 167/167/167
f 169/169/169 171/171/171 170/170/170
f 169/169/169 172/172/172 171/171/171
f 173/173/173 175/175/175 174/174/174
f 173/173/173 176/176/176 175/175/175
f 177/177/177 179/179/179 178/178/178
f 177/177/177 180/180/180 179/179/179
f 181/181/181 183/183/183 182/182/182
f 181/181/181 184/184/184 183/183/183
f 185/185/185 187/187/187 186/186/186
f 188/188/188 190/190/190 189/189/189
f 191/191/191 193/193/193 192/192/192
f 194/194/194 196/196/196 195/195/195
f 197/197/197 199/199/199 198/198/198
f 200/200/200 202/202/202 201/201/201
f 203/203/203 205/205/205 204/204/204
f 206/206/206 208/208/208 207/207/207
f 209/209/209 211/211/211 210/210/210
f 209/209/209 212/212/212 211/211/211
f 213/213/213 215/215/215 214/214/214
f 213/213/213 216/216/216 215/215/215
f 217/217/217 219/219/219 218/218/218
f 217/217/217 220/220/220 219/219/219
f 221/221/221 223/223/223 222/222/222
f 221/221/221 224/224/224 223/223/223
f 225/225/225 227/227/227 226/226/226
f 225/225/225 228/228/228 227/227/227
f 229/229/229 231/231/231 230/230/230
f 229/229/229 232/232/232 231/231/231
f 233/233/233 235/235/235 234/234/234
f 233/233/233 236/236/236 235/235/235
f 237/237/237 239/239/239 238/238/238
f 237/237/237 240/240/240 239/239/239
f 241/241/241 243/243/243 242/242/242
f 241/241/241 244/244/244 243/243/243
f 245/245/245 247/247/247 246/246/246
f 245/245/245 248/248/248 247/247/247
f 249/249/249 251/251/251 250/250/250
f 249/249/249 252/252/252 251/251/251
f 253/253/253 255/255/255 254/254/254
f 253/253/253 256/256/256 255/255/255
f 257/257/257 259/259/259 258/258/258
f 257/257/257 260/260/260 259/259/259
f 261/261/261 263/263/263 262/262/262
f 261/261/261 264/264/264 263/263/263
f 265/265/265 267/267/267 266/266/266
f 265/265/265 268/268/268 267/267/267
f 269/269/269 271/271/271 270/270/270
f 269/269/269 272/272/272 271/271/271
f 273/273/273 275/275/275 274/274/274
f 273/273/273 276/276/276 275/275/275
f 277/277/277 279/279/279 278/278/278
f 277/277/277 280/280/280 279/279/279
f 281/281/281 283/283/283 282/282/282
f 281/281/281 284/284/284 283/283/283
f 285/285/285 287/287/287 286/286/286
f 285/285/285 288/288/288 287/287/287
f 289/289/289 291/291/291 290/290/290
f 289/289/289 292/292/292 291/291/291
f 293/293/293 295/295/295 294/294/294
f 293/293/293 296/296/296 295/295/295
f 297/297/297 299/299/299 298/298/298
f 297/297/297 300/300/300 299/299/299
f 301/301/301 303/303/303 302/302/302
f 301/301/301 304/304/304 303/303/303
f 305/305/305 307/307/307 306/306/306
f 305/305/305 308/308/308 307/307/307
f 309/309/309 311/311/311 310/310/310
f 309/309/309 312/312/312 311/311/311
f 313/313/313 315/315/315 314/314/314
f 313/313/313 316/316/316 315/315/315
f 317/317/317 319/319/319 318/318/318
f 317/317/317 320/320/320 319/319/319
f 321/321/321 323/323/323 322/322/322
f 321/321/321 324/324/324 323/323/323
f 325/325/325 327/327/327 326/326/326
f 325/325/325 328/328/328 327/327/327
f 329/329/329 331/331/331 330/330/330
f 329/329/329 332/332/332 331/331/331
f 333/333/333 335/335/335 334/334/334
f 333/333/333 336/336/336 335/335/335
f 337/337/337 339/339/339 338/338/338
f 340/340/340 342/342/342 341/341/341
f 343/343/343 345/345/345 344/344/344
f 346/346/346 348/348/348 347/347/347
f 349/349/349 351/351/351 350/350/350
f 352/352/352 354/354/354 353/353/353
f 355/355/355 357/357/357 356/356/356
f 358/358/358 360/360/360 359/359/359
f 361/361/361 363/363/363 362/362/362
f 361/361/361 364/364/364 363/363/363
f 365/365/365 367/367/367 366/366/366
f 365/365/365 368/368/368 367/367/367
f 369/369/369 371/371/371 370/370/370
f 369/369/369 372/372/372 371/371/371
f 373/373/373 375/375/375 374/374/374
f 373/373/373 376/376/376 375/375/375
f 377/377/377 379/379/379 378/378/378
f 377/377/377 380/380/380 379/379/379
f 381/381/381 383/383/383 382/382/382
f 381/381/381 384/384/384 383/383/383
f 385/385/385 387/387/387 386/386/386
f 385/385/385 388/388/388 387/387/387
f 389/389/389 391/391/391 390/390/390
f 389/389/389 392/392/392 391/391/391
f 393/393/393 395/395/395 394/394/394
f 393/393/393 396/396/396 395/395/395
f 397/397/397 399/399/399 398/398/398
f 397/397/397 400/400/400 399/399/399
f 401/401/401 403/403/403 402/402/402
f 401/401/401 404/404/404 403/403/403
f 405/405/405 407/407/407 406/406/406
f 405/405/405 408/408/408 407/407/407
f 409/409/409 411/411/411 410/410/410
f 409/409/409 412/412/412 411/411/411
f 413/413/413 415/415/415 414/414/414
f 413/413/413 416/416/416 415/415/415
f 417/417/417 419/419/419 418/418/418
f 417/417/417 420/420/420 419/419/419
f 421/421/421 423/423/423 422/422/422
f 421/421/421 424/424/424 423/423/423
f 425/425/425 427/427/427 426/426/426
f 425/425/425 428/428/428 427/427/427
f 429/429/429 431/431/431 430/430/430
f 429/429/429 432/432/432 431/431/431
f 433/433/433 435/435/435 434/434/434
f 433/433/433 436/436/436 435/435/435
f 437/437/437 439/439/439 438/438/438
f 437/437/437 440/440/440 439/439/439
f 441/441/441 443/443/443 442/442/442
f 441/441/441 444/444/444 443/443/443
f 445/445/445 447/447/447 446/446/446
f 445/445/445 448/448/448 447/447/447
f 449/449/449 451/451/451 450/450/450
f 449/449/449 452/452/452 451/451/451
f 453/453/453 455/455/455 454/454/454
f 453/453/453 456/456/456 455/455/455
f 457/457/457 459/459/459 458/458/458
f 457/457/457 460/460/460 459/459/459
f 461/461/461 463/463/463 462/462/462
f 461/461/461 464/464/464 463/463/463
f 465/465/465 467/467/467 466/466/466
f 465/465/465 468/468/468 467/467/467
f 469/469/469 471/471/471 470/470/470
f 469/469/469 472/472/472 471/471/471
f 473/473/473 475/475/475 474/474/474
f 473/473/473 476/476/476 475/475/475
f 477/477/477 479/479/479 478/478/478
f 477/477/477 480/480/480 479/479/479
f 481/481/481 483/483/483 482/482/482
f 481/481/481 484/484/484 483/483/483
f 485/485/485 487/487/487 486/486/486
f 485/485/485 488/488/488 487/487/487
f 489/489/489 491/491/491 490/490/490
f 492/492/492 494/494/494 493/493/493
f 495/495/495 497/497/497 496/496/496
f 498/498/498 500/500/500 499/499/499
f 501/501/501 503/503/503 502/502/502
f 504/504/504 506/506/506 505/505/505
f 507/507/507 509/509/509 508/508/508
f 510/510/510 512/512/512 511/511/511
f 513/513/513 515/515/515 514/514/514
f 513/513/513 516/516/516 515/515/515
f 517/517/517 519/519/519 518/518/518
f 517/517/517 520/520/520 519/519/519
f 521/521/521 523/523/523 522/522/522
f 521/521/521 524/524/524 523/523/523
f 525/525/525 527/527/527 526/526/526
f 525/525/525 528/528/528 527/527/527
f 529/529/529 531/531/531 530/530/530
f 529/529/529 532/532/532 531/531/531
f 533/533/533 535/535/535 534/534/534
f 533/533/533 536/536/536 535/535/535
f 537/537/537 539/539/539 538/538/538
f 537/537/537 540/540/540 539/539/539
f 541/541/541 543/543/543 542/542/542
f 541/541/541 544/544/544 543/543/543
f 545/545/545 547/547/547 546/546/546
f 545/545/545 548/548/548 547/547/547
f 549/549/549 551/551/551 550/550/550
f 549/549/549 552/552/552 551/551/551
f 553/553/553 555/555/555 554/554/554
f 553/553/553 556/556/556 555/555/555
f 557/557/557 559/559/559 558/558/558
f 557/557/557 560/560/560 559/559/559
f 561/561/561 563/563/563 562/562/562
f 561/561/561 564/564/564 563/563/563
f 565/565/565 567/567/567 566/566/566
f 565/565/565 568/568/568 567/567/567
f 569/569/569 571/571/571 570/570/570
f 569/569/569 572/572/572 571/571/571
f 573/573/573 575/575/575 574/574/574
f 573/573/573 576/576/576 575/575/575
f 577/577/577 579/579/579 578/578/578
f 577/577/577 580/580/580 579/579/579
f 581/581/581 583/583/583 582/582/582
f 581/581/581 584/584/584 583/583/583
f 585/585/585 587/587/587 586/586/586
f 585/585/585 588/588/588 587/587/587
f 589/589/589 591/591/591 590/590/590
f 589/589/589 592/592/592 591/591/591
f 593/593/593 595/595/595 594/594/594
f 593/593/593 596/596/596 595/595/595
f 597/597/597 599/599/599 598/598/598
f 597/597/597 600/600/600 599/599/599
f 601/601/601 603/603/603 602/602/602
f 601/601/601 604/604/604 603/603/603
f 605/605/605 607/607/607 606/606/606
f 605/605/605 608/608/608 607/607/607
