#SM_Env_Sidewalk_Dip_Corner_01_341_12.obj

v 4.999993 0 -4.999992
v 4.919648 -0.05417279 -4.973587
v 4.919641 -0.05417279 -4.999992
v 4.921876 -0.05417279 -3.91124
v 4.999993 -3.72529E-09 -3.920097
v 4.922227 -0.05417279 -3.749847
v 5.000001 -3.72529E-09 -3.756042
v 4.924455 -0.05417279 -2.694336
v 5.000001 -3.72529E-09 -2.683105
v 4.734559 -0.08353825 -4.973587
v 4.734567 -0.08353825 -4.999992
v 4.919641 -0.05417279 -4.999992
v 4.919648 -0.05417279 -4.973587
v 4.412553 -0.2302948 -4.973587
v 4.412545 -0.2302948 -4.999992
v 4.734567 -0.08353825 -4.999992
v 4.734559 -0.08353825 -4.973587
v 4.326219 0.06969655 -4.973587
v 4.326211 0.06969652 -4.999992
v 4.412545 -0.2302948 -4.999992
v 4.412553 -0.2302948 -4.973587
v 3.976937 0.06969655 -4.91787
v 3.976937 0.06969652 -4.999992
v 4.326211 0.06969652 -4.999992
v 4.326219 0.06969655 -4.973587
v 3.91623 -3.72529E-09 -4.948929
v 3.926217 -3.72529E-09 -4.999992
v 3.976937 0.06969652 -4.999992
v 3.976937 0.06969655 -4.91787
v 1.853425 -0.00745512 -4.973587
v 1.833421 -3.72529E-09 -5
v 3.926217 -3.72529E-09 -4.999992
v 3.91623 -3.72529E-09 -4.948929
v 1.815705 0.008382607 -4.973389
v 1.833421 -3.72529E-09 -5
v 1.853425 -0.00745512 -4.973587
v 1.889603 -3.72529E-09 -3.145386
v 1.960877 -0.03616041 -3.151978
v 3.373673 -3.72529E-09 -2.968033
v 3.370324 -3.72529E-09 -3.091789
v 3.522515 0.04598088 -3.00106
v 1.977059 -3.72529E-09 -3.062248
v 1.960877 -0.03616041 -3.151978
v 3.370324 -3.72529E-09 -3.091789
v 3.373673 -3.72529E-09 -2.968033
v 1.853425 -0.00745512 -4.973587
v 3.788552 -3.72529E-09 -4.083321
v 3.460763 -3.72529E-09 -3.95182
v 1.960877 -0.03616041 -3.151978
v 1.853425 -0.00745512 -4.973587
v 3.370324 -3.72529E-09 -3.091789
v 3.91623 -3.72529E-09 -4.948929
v 3.460763 -3.72529E-09 -3.95182
v 3.788552 -3.72529E-09 -4.083321
v 3.606957 0.04598088 -3.888725
v 3.606957 0.04598088 -3.888725
v 3.891946 0.06969655 -4.024452
v 3.957536 -0.1284117 -3.837952
v 4.228311 -0.1418551 -3.906975
v 4.24122 0.06969655 -4.047646
v 4.327569 -0.2302948 -4.046959
v 4.314652 -0.2302948 -3.906189
v 4.314652 -0.2302948 -3.906189
v 4.327569 -0.2302948 -4.046959
v 4.716805 -0.09265381 -3.962807
v 4.714112 -0.09403862 -3.80925
v 4.396165 -0.2302948 -3.162674
v 4.696481 -0.1030955 -2.804985
v 4.734559 -0.08353825 -4.973587
v 4.412553 -0.2302948 -4.973587
v 4.714112 -0.09403862 -3.80925
v 4.716805 -0.09265381 -3.962807
v 4.921876 -0.05417279 -3.91124
v 4.922227 -0.05417279 -3.749847
v 4.696481 -0.1030955 -2.804985
v 4.924455 -0.05417279 -2.694336
v 4.919648 -0.05417279 -4.973587
v 4.734559 -0.08353825 -4.973587
v 1.104767 -3.72529E-09 6.764523E-17
v 0.9651948 -3.72529E-09 5.909918E-17
v 0.9871217 -0.05417279 -0.07795715
v 1.124985 -0.05417279 -0.0776062
v 1.937378 -3.72529E-09 1.186263E-16
v 1.947495 -0.05417279 -0.07554626
v 0.03359985 -0.05417279 -0.08035278
v 0 0 0
v 4.920026E-18 -0.05417279 -0.08035278
v 0.919533 0.06969653 -1.143166
v 1.047623 -0.01574426 -1.385544
v 1.119896 -0.1135627 -1.132011
v 0.8896105 -3.72529E-09 -1.238121
v 1.046021 -3.72529E-09 -1.524704
v 1.047623 -0.01574426 -1.385544
v 0.919533 0.06969653 -0.7938919
v 1.047623 -0.1418551 -0.811264
v 1.047615 -0.2302948 -0.7249222
v 0.919533 -0.2302948 -0.7075577
v 0.03360021 -3.72529E-09 -3.199997
v 1.889603 -3.72529E-09 -3.145386
v 1.889603 0.01793588 -3.091965
v 0.03360021 -3.72529E-09 -3.146576
v 0.919533 -0.2302948 -0.7075577
v 1.047615 -0.2302948 -0.7249222
v 1.055832 -0.09469059 -0.3050537
v 0.926697 -0.09328178 -0.3000488
v 1.826218 -0.1030955 -0.3349304
v 1.645401 -0.2302948 -0.6413879
v 0.03359997 -0.2302948 -0.5874481
v 0.03359985 -0.08353826 -0.2654266
v 0.926697 -0.09328178 -0.3000488
v 1.055832 -0.09469059 -0.3050537
v 1.124985 -0.05417279 -0.0776062
v 0.9871217 -0.05417279 -0.07795715
v 1.947495 -0.05417279 -0.07554626
v 1.826218 -0.1030955 -0.3349304
v 0.03359985 -0.08353826 -0.2654266
v 0.03359985 -0.05417279 -0.08035278
v 0.03360021 -3.72529E-09 -3.199997
v 0.03360045 -3.72529E-09 -4.973785
v 1.815705 0.008382607 -4.973389
v 1.889603 -3.72529E-09 -3.145386
v 0.03360021 -3.72529E-09 -3.146576
v 1.046021 -3.72529E-09 -1.524704
v 0.8896105 -3.72529E-09 -1.238121
v 1.765633 -3.72529E-09 -1.617897
v 1.889603 0.01793588 -3.091965
v 0.09117901 -3.72529E-09 -1.108849
v 1.765633 -3.72529E-09 -1.617897
v 1.867966 -3.72529E-09 -1.641296
v 1.811837 0.04598088 -1.516472
v 1.889603 0.01793588 -3.091965
v 1.977059 -3.72529E-09 -3.062248
v 1.867966 -3.72529E-09 -1.641296
v 1.765633 -3.72529E-09 -1.617897
v 1.889603 -3.72529E-09 -3.145386
v 1.960877 -0.03616041 -3.151978
v 1.977059 -3.72529E-09 -3.062248
v 5.960464E-07 7.450581E-09 -5
v 0.03360045 -3.72529E-09 -4.973785
v 0.03360021 -3.72529E-09 -3.199997
v -7.152557E-06 -3.72529E-09 -3.173286
v 0.03360021 -3.72529E-09 -3.146576
v -7.390976E-06 -3.72529E-09 -1.073784
v 0.09117901 -3.72529E-09 -1.108849
v -7.390976E-06 0.06969652 -1.023064
v -7.390976E-06 -3.72529E-09 -1.073784
v 0.09117901 -3.72529E-09 -1.108849
v 0.03359234 0.06969655 -1.023064
v 1.192093E-07 0.06969652 -0.6737823
v -7.390976E-06 0.06969652 -1.023064
v 0.03359234 0.06969655 -1.023064
v 0.03359997 0.06969655 -0.6737823
v 1.192093E-07 -0.2302948 -0.5874481
v 1.192093E-07 0.06969652 -0.6737823
v 0.03359997 0.06969655 -0.6737823
v 0.03359997 -0.2302948 -0.5874481
v 1.625216E-17 -0.08353826 -0.2654266
v 1.192093E-07 -0.2302948 -0.5874481
v 0.03359997 -0.2302948 -0.5874481
v 0.03359985 -0.08353826 -0.2654266
v 4.920026E-18 -0.05417279 -0.08035278
v 1.625216E-17 -0.08353826 -0.2654266
v 0.03359985 -0.08353826 -0.2654266
v 0.03359985 -0.05417279 -0.08035278
v 1.889603 -3.72529E-09 -3.145386
v 1.977059 -3.72529E-09 -3.062248
v 1.889603 0.01793588 -3.091965
v 1.833421 -3.72529E-09 -5
v 1.815705 0.008382607 -4.973389
v 0.03360045 -3.72529E-09 -4.973785
v 5.960464E-07 7.450581E-09 -5
v 4.999993 1.117587E-08 7.629395E-06
v 4.149582 1.117587E-08 -0.7691193
v 5.000001 -3.72529E-09 -2.683105
v 1.937378 -3.72529E-09 1.186263E-16
v 4.924455 -0.05417279 -2.694336
v 4.028641 -0.05417279 -0.8784943
v 3.834748 -0.1030955 -1.048782
v 4.696481 -0.1030955 -2.804985
v 3.462334 -0.2302948 -1.434135
v 4.396165 -0.2302948 -3.162674
v 4.396165 -0.2302948 -3.162674
v 3.462334 -0.2302948 -1.434135
v 3.391488 -0.1418551 -1.545708
v 4.309831 -0.1418551 -3.164139
v 3.16726 -0.1018782 -1.826012
v 2.981911 0.04598088 -1.996986
v 3.522515 0.04598088 -3.00106
v 3.74051 -0.08833031 -2.938812
v 3.522515 0.04598088 -3.00106
v 2.981911 0.04598088 -1.996986
v 2.881333 -3.72529E-09 -2.104095
v 3.373673 -3.72529E-09 -2.968033
v 3.373673 -3.72529E-09 -2.968033
v 2.881333 -3.72529E-09 -2.104095
v 1.977059 -3.72529E-09 -3.062248
v 1.867966 -3.72529E-09 -1.641296
v 2.981911 0.04598088 -1.996986
v 1.811837 0.04598088 -1.516472
v 1.867966 -3.72529E-09 -1.641296
v 2.881333 -3.72529E-09 -2.104095
v 1.884117 -0.09776269 -1.286232
v 1.811837 0.04598088 -1.516472
v 2.981911 0.04598088 -1.996986
v 3.16726 -0.1018782 -1.826012
v 3.462334 -0.2302948 -1.434135
v 1.645401 -0.2302948 -0.6413879
v 1.645401 -0.1418551 -0.7277222
v 3.391488 -0.1418551 -1.545708
v 3.834748 -0.1030955 -1.048782
v 1.826218 -0.1030955 -0.3349304
v 1.645401 -0.2302948 -0.6413879
v 3.462334 -0.2302948 -1.434135
v 4.028641 -0.05417279 -0.8784943
v 1.947495 -0.05417279 -0.07554626
v 1.826218 -0.1030955 -0.3349304
v 3.834748 -0.1030955 -1.048782
v 4.149582 1.117587E-08 -0.7691193
v 4.028641 -0.05417279 -0.8784943
v 4.924455 -0.05417279 -2.694336
v 5.000001 -3.72529E-09 -2.683105
v 1.937378 -3.72529E-09 1.186263E-16
v 1.947495 -0.05417279 -0.07554626
v 4.028641 -0.05417279 -0.8784943
v 4.149582 1.117587E-08 -0.7691193
v 1.047623 -0.1418551 -0.811264
v 1.645401 -0.1418551 -0.7277222
v 1.645401 -0.2302948 -0.6413879
v 1.047615 -0.2302948 -0.7249222
v 1.047623 -0.01574426 -1.385544
v 1.811837 0.04598088 -1.516472
v 1.884117 -0.09776269 -1.286232
v 1.119896 -0.1135627 -1.132011
v 1.046021 -3.72529E-09 -1.524704
v 1.765633 -3.72529E-09 -1.617897
v 1.811837 0.04598088 -1.516472
v 1.047623 -0.01574426 -1.385544
v 3.370324 -3.72529E-09 -3.091789
v 3.460763 -3.72529E-09 -3.95182
v 3.606957 0.04598088 -3.888725
v 3.522515 0.04598088 -3.00106
v 3.522515 0.04598088 -3.00106
v 3.606957 0.04598088 -3.888725
v 3.957536 -0.1284117 -3.837952
v 3.74051 -0.08833031 -2.938812
v 4.309831 -0.1418551 -3.164139
v 4.228311 -0.1418551 -3.906975
v 4.314652 -0.2302948 -3.906189
v 4.396165 -0.2302948 -3.162674
v 0.09117901 -3.72529E-09 -1.108849
v 0.8896105 -3.72529E-09 -1.238121
v 0.919533 0.06969653 -1.143166
v 0.03359234 0.06969655 -1.023064
v 0.03359234 0.06969655 -1.023064
v 0.919533 0.06969653 -1.143166
v 0.919533 0.06969653 -0.7938919
v 0.03359997 0.06969655 -0.6737823
v 0.03359997 0.06969655 -0.6737823
v 0.919533 0.06969653 -0.7938919
v 0.919533 -0.2302948 -0.7075577
v 0.03359997 -0.2302948 -0.5874481
v 4.24122 0.06969655 -4.047646
v 4.326219 0.06969655 -4.973587
v 4.412553 -0.2302948 -4.973587
v 4.327569 -0.2302948 -4.046959
v 3.891946 0.06969655 -4.024452
v 3.976937 0.06969655 -4.91787
v 4.326219 0.06969655 -4.973587
v 4.24122 0.06969655 -4.047646
v 3.788552 -3.72529E-09 -4.083321
v 3.91623 -3.72529E-09 -4.948929
v 3.976937 0.06969655 -4.91787
v 3.891946 0.06969655 -4.024452
v 0.8896105 -3.72529E-09 -1.238121
v 1.047623 -0.01574426 -1.385544
v 0.919533 0.06969653 -1.143166
v 3.788552 -3.72529E-09 -4.083321
v 3.891946 0.06969655 -4.024452
v 3.606957 0.04598088 -3.888725
v 0.919533 0.06969653 -1.143166
v 1.119896 -0.1135627 -1.132011
v 1.047623 -0.1418551 -0.811264
v 0.919533 0.06969653 -0.7938919
v 1.884117 -0.09776269 -1.286232
v 1.645401 -0.1418551 -0.7277222
v 1.047623 -0.1418551 -0.811264
v 1.119896 -0.1135627 -1.132011
v 3.391488 -0.1418551 -1.545708
v 1.645401 -0.1418551 -0.7277222
v 1.884117 -0.09776269 -1.286232
v 3.16726 -0.1018782 -1.826012
v 4.309831 -0.1418551 -3.164139
v 3.74051 -0.08833031 -2.938812
v 3.957536 -0.1284117 -3.837952
v 4.228311 -0.1418551 -3.906975
v 4.309831 -0.1418551 -3.164139
v 3.74051 -0.08833031 -2.938812
v 3.891946 0.06969655 -4.024452
v 4.24122 0.06969655 -4.047646
v 4.228311 -0.1418551 -3.906975
v 3.957536 -0.1284117 -3.837952

vn -0.0002932549 0.8271484 -0.5615234
vn -0.0002932549 0.8271484 -0.5615234
vn 5.960464E-08 0.8291016 -0.559082
vn -0.0006079674 0.8232422 -0.5673828
vn -0.0006079674 0.8232422 -0.5673828
vn -0.0006165504 0.8188477 -0.5737305
vn -0.0006165504 0.8188477 -0.5737305
vn -0.0006041527 0.8168945 -0.5771484
vn -0.0006041527 0.8168945 -0.5771484
vn -0.001523018 0.9863281 -0.1641846
vn 0 0.987793 -0.1567383
vn 0 0.987793 -0.1567383
vn -0.001523018 0.9863281 -0.1641846
vn 0.00761795 0.9199219 -0.392334
vn 5.960464E-08 0.9101563 -0.4147949
vn 5.960464E-08 0.9101563 -0.4147949
vn 0.00761795 0.9199219 -0.392334
vn -0.04394531 0.2763672 0.9599609
vn -1.192093E-07 0.2766113 0.9609375
vn -1.192093E-07 0.2766113 0.9609375
vn -0.04394531 0.2763672 0.9599609
vn 0 1 0
vn 0 1 0
vn 0 1 0
vn 0 1 0
vn 0.0579834 0.6313477 -0.7734375
vn 0.0579834 0.6313477 -0.7734375
vn 0.0579834 0.6313477 -0.7734375
vn 0.0579834 0.6313477 -0.7734375
vn -0.03549194 0.9995117 -0.008110046
vn -0.09606934 0.9956055 -0.002355576
vn -0.09606934 0.9956055 -0.002355576
vn -0.04782104 0.9990234 -0.002985001
vn 0.02250671 0.9125977 0.4084473
vn 0.0328064 0.9213867 0.3867188
vn 0.02250671 0.9125977 0.4084473
vn 0.01219177 0.902832 0.4299316
vn 0.01219177 0.902832 0.4299316
vn -0.0079422 0.9560547 -0.293457
vn 0.01009369 0.9575195 -0.2873535
vn 0.01009369 0.9575195 -0.2873535
vn 0.166626 0.9858398 -0.003534317
vn 0.166626 0.9858398 -0.003534317
vn 0.166626 0.9858398 -0.003534317
vn 0.166626 0.9858398 -0.003534317
vn -0.001937866 1 -0.007911682
vn 0.002502441 1 -0.002700806
vn -0.003171921 1 -0.01006317
vn -0.01081848 1 -0.01834106
vn -0.02549744 0.9995117 -0.006526947
vn -0.01081848 1 -0.01834106
vn -0.04782104 0.9990234 -0.002985001
vn 0.3498535 0.9262695 -0.1403809
vn 0.3498535 0.9262695 -0.1403809
vn 0.3498535 0.9262695 -0.1403809
vn -0.6601563 0.7060547 0.2556152
vn -0.6601563 0.7060547 0.2556152
vn -0.6601563 0.7060547 0.2556152
vn -0.3635254 0.3796387 0.8505859
vn -0.3635254 0.3796387 0.8505859
vn -0.3635254 0.3796387 0.8505859
vn -0.3635254 0.3796387 0.8505859
vn -0.002635956 0.9389648 -0.3439941
vn 0.01402283 0.9375 -0.3476563
vn 0.01402283 0.9375 -0.3476563
vn -0.002635956 0.9389648 -0.3439941
vn -0.01808167 0.9316406 -0.3625488
vn -0.01808167 0.9316406 -0.3625488
vn 0.00761795 0.9199219 -0.392334
vn 0.00761795 0.9199219 -0.392334
vn -0.002868652 0.980957 -0.1938477
vn -0.002986908 0.9838867 -0.1794434
vn -0.002986908 0.9838867 -0.1794434
vn -0.002868652 0.980957 -0.1938477
vn 0.04083252 0.9814453 -0.1861572
vn 0.04083252 0.9814453 -0.1861572
vn -0.001523018 0.9863281 -0.1641846
vn -0.001523018 0.9863281 -0.1641846
vn 0.5742188 0.8183594 0.0007209778
vn 0.5678711 0.8232422 0.0007138252
vn 0.5678711 0.8232422 0.0007138252
vn 0.5742188 0.8183594 0.0007209778
vn 0.5776367 0.8164063 0.0007185936
vn 0.5776367 0.8164063 0.0007185936
vn 0.5620117 0.8271484 0.0003526211
vn 0.5620117 0.8271484 0.0003526211
vn 0.559082 0.8291016 5.960464E-08
vn -0.09368896 0.7373047 0.6689453
vn -0.09368896 0.7373047 0.6689453
vn -0.09368896 0.7373047 0.6689453
vn -0.1079712 0.9741211 0.1977539
vn -0.1079712 0.9741211 0.1977539
vn -0.1079712 0.9741211 0.1977539
vn -0.8305664 0.3691406 0.4174805
vn -0.8305664 0.3691406 0.4174805
vn -0.8305664 0.3691406 0.4174805
vn -0.8305664 0.3691406 0.4174805
vn 0.1655273 0.9863281 0.0001061559
vn 0.1655273 0.9863281 0.0001061559
vn 0.1655273 0.9863281 0.0001061559
vn 0.1655273 0.9863281 0.0001061559
vn 0.3374023 0.940918 -0.02420044
vn 0.3286133 0.9443359 -0.001347542
vn 0.3286133 0.9443359 -0.001347542
vn 0.3374023 0.940918 -0.02420044
vn 0.3447266 0.9384766 0.01928711
vn 0.3447266 0.9384766 0.01928711
vn 0.3886719 0.9213867 -0.01320648
vn 0.3886719 0.9213867 -0.01320648
vn 0.1706543 0.9853516 0.002223969
vn 0.1782227 0.9838867 0.002082825
vn 0.1782227 0.9838867 0.002082825
vn 0.1706543 0.9853516 0.002223969
vn 0.1787109 0.9833984 -0.03161621
vn 0.1787109 0.9833984 -0.03161621
vn 0.161499 0.9868164 0.001151085
vn 0.161499 0.9868164 0.001151085
vn -0.0007915497 1 -0.0007801056
vn -0.001187325 1 -0.001170158
vn -0.002374649 1 -0.002340317
vn -0.002374649 1 -0.002340317
vn -0.001551628 1 -0.001369476
vn -0.003879547 1 -0.003423691
vn 0 1 0
vn -0.007759094 1 -0.006847382
vn -0.007759094 1 -0.006847382
vn 0 1 0
vn 0.378418 0.9213867 -0.08654785
vn 0.359375 0.9257813 -0.1168213
vn 0.359375 0.9257813 -0.1168213
vn -0.01370239 0.9956055 0.09362793
vn -0.004573822 0.9995117 0.03123474
vn -0.006858826 0.9990234 0.046875
vn -0.01370239 0.9956055 0.09362793
vn 0.4038086 0.8305664 0.3840332
vn 0.4038086 0.8305664 0.3840332
vn 0.4038086 0.8305664 0.3840332
vn 0 1 0
vn -0.001187325 1 -0.001170158
vn -0.0007915497 1 -0.0007801056
vn 0 1 0
vn -0.001551628 1 -0.001369476
vn 0 1 0
vn 0 1 0
vn 0.7402344 0.6391602 -0.2080078
vn 0.7402344 0.6391602 -0.2080078
vn 0.7402344 0.6391602 -0.2080078
vn 0.7402344 0.6391602 -0.2080078
vn 0 1 0
vn 0 1 0
vn 0 1 0
vn 0 1 0
vn -0.9609375 0.2766113 -1.192093E-07
vn -0.9609375 0.2766113 -1.192093E-07
vn -0.9609375 0.2766113 -1.192093E-07
vn -0.9609375 0.2766113 -1.192093E-07
vn 0.4147949 0.9101563 5.960464E-08
vn 0.4147949 0.9101563 5.960464E-08
vn 0.3886719 0.9213867 -0.01320648
vn 0.3886719 0.9213867 -0.01320648
vn 0.1567383 0.987793 0
vn 0.1567383 0.987793 0
vn 0.161499 0.9868164 0.001151085
vn 0.161499 0.9868164 0.001151085
vn 0.3046875 0.9072266 0.2895508
vn 0.3046875 0.9072266 0.2895508
vn 0.3046875 0.9072266 0.2895508
vn 0.1560059 0.987793 -0.00227356
vn 0.1560059 0.987793 -0.00227356
vn 0.1560059 0.987793 -0.00227356
vn 0.1560059 0.987793 -0.00227356
vn 0 1 0
vn 0 1 0
vn 0 1 0
vn 0 1 0
vn 0.04083252 0.9814453 -0.1861572
vn 0.08435059 0.9814453 -0.1715088
vn 0.1021729 0.9741211 -0.2021484
vn 0.06726074 0.9770508 -0.2019043
vn 0.119873 0.965332 -0.2325439
vn 0.119873 0.965332 -0.2325439
vn -0.3278809 0.7358398 0.5922852
vn -0.3278809 0.7358398 0.5922852
vn -0.3278809 0.7358398 0.5922852
vn -0.3278809 0.7358398 0.5922852
vn -0.2456055 0.8554688 0.4562988
vn -0.2456055 0.8554688 0.4562988
vn -0.2456055 0.8554688 0.4562988
vn -0.2456055 0.8554688 0.4562988
vn 0.1646729 0.9404297 -0.2978516
vn 0.1646729 0.9404297 -0.2978516
vn 0.1646729 0.9404297 -0.2978516
vn 0.1646729 0.9404297 -0.2978516
vn 0 1 0
vn 0 1 0
vn -0.004573822 0.9995117 0.03123474
vn -0.006858826 0.9990234 0.046875
vn 0.3400879 0.9287109 -0.1469727
vn 0.359375 0.9257813 -0.1168213
vn 0.359375 0.9257813 -0.1168213
vn 0.3400879 0.9287109 -0.1469727
vn -0.4865723 0.8496094 0.2037354
vn -0.4865723 0.8496094 0.2037354
vn -0.4865723 0.8496094 0.2037354
vn -0.4865723 0.8496094 0.2037354
vn -0.5878906 0.7641602 0.265625
vn -0.5878906 0.7641602 0.265625
vn -0.5878906 0.7641602 0.265625
vn -0.5878906 0.7641602 0.265625
vn 0.2678223 0.9575195 -0.1054688
vn 0.2678223 0.9575195 -0.1054688
vn 0.2678223 0.9575195 -0.1054688
vn 0.2678223 0.9575195 -0.1054688
vn 0.1759033 0.9824219 -0.06524658
vn 0.1787109 0.9833984 -0.03161621
vn 0.1787109 0.9833984 -0.03161621
vn 0.1759033 0.9824219 -0.06524658
vn 0.1812744 0.9038086 -0.387207
vn 0.1812744 0.9038086 -0.387207
vn 0.1812744 0.9038086 -0.387207
vn 0.1812744 0.9038086 -0.387207
vn 0.4277344 0.8901367 -0.1566162
vn 0.4277344 0.8901367 -0.1566162
vn 0.4277344 0.8901367 -0.1566162
vn 0.4277344 0.8901367 -0.1566162
vn -0.7119141 0.6953125 -0.0994873
vn -0.7119141 0.6953125 -0.0994873
vn -0.7119141 0.6953125 -0.0994873
vn -0.7119141 0.6953125 -0.0994873
vn -0.4377441 0.8984375 0.03610229
vn -0.4377441 0.8984375 0.03610229
vn -0.4377441 0.8984375 0.03610229
vn -0.4377441 0.8984375 0.03610229
vn 0.1130371 0.9916992 -0.05834961
vn 0.1130371 0.9916992 -0.05834961
vn 0.1130371 0.9916992 -0.05834961
vn 0.1130371 0.9916992 -0.05834961
vn 0.01009369 0.9575195 -0.2873535
vn 0.02813721 0.9594727 -0.28125
vn 0.02813721 0.9594727 -0.28125
vn 0.01009369 0.9575195 -0.2873535
vn -0.05905151 0.8823242 0.4672852
vn -0.05905151 0.8823242 0.4672852
vn -0.05905151 0.8823242 0.4672852
vn -0.05905151 0.8823242 0.4672852
vn 0.07830811 0.6958008 0.7138672
vn 0.07830811 0.6958008 0.7138672
vn 0.07830811 0.6958008 0.7138672
vn 0.07830811 0.6958008 0.7138672
vn 0.6166992 0.7817383 -0.09130859
vn 0.6166992 0.7817383 -0.09130859
vn 0.6166992 0.7817383 -0.09130859
vn 0.6166992 0.7817383 -0.09130859
vn 0 1 0
vn 0 1 0
vn 0 1 0
vn 0 1 0
vn -0.953125 0.2741699 0.1291504
vn -0.953125 0.2741699 0.1291504
vn -0.953125 0.2741699 0.1291504
vn -0.953125 0.2741699 0.1291504
vn -0.08782959 0.2756348 0.9570313
vn -0.04394531 0.2763672 0.9599609
vn -0.04394531 0.2763672 0.9599609
vn -0.08782959 0.2756348 0.9570313
vn 0 1 0
vn 0 1 0
vn 0 1 0
vn 0 1 0
vn 0.07513428 0.7797852 -0.6210938
vn 0.07513428 0.7797852 -0.6210938
vn 0.07513428 0.7797852 -0.6210938
vn 0.07513428 0.7797852 -0.6210938
vn 0.4743652 0.8022461 -0.362793
vn 0.4743652 0.8022461 -0.362793
vn 0.4743652 0.8022461 -0.362793
vn 0.470459 0.8325195 -0.2932129
vn 0.470459 0.8325195 -0.2932129
vn 0.470459 0.8325195 -0.2932129
vn -0.109314 0.6347656 0.7651367
vn -0.109314 0.6347656 0.7651367
vn -0.109314 0.6347656 0.7651367
vn -0.109314 0.6347656 0.7651367
vn -0.08996582 0.9956055 0.01947021
vn -0.08996582 0.9956055 0.01947021
vn -0.07940674 0.996582 -0.007442474
vn -0.07940674 0.996582 -0.007442474
vn -0.08337402 0.9931641 0.0793457
vn -0.08996582 0.9956055 0.01947021
vn -0.08996582 0.9956055 0.01947021
vn -0.08337402 0.9931641 0.0793457
vn -0.02397156 0.9956055 0.09277344
vn -0.02397156 0.9956055 0.09277344
vn 0.01831055 0.9970703 0.07305908
vn 0.01831055 0.9970703 0.07305908
vn -0.02397156 0.9956055 0.09277344
vn -0.02397156 0.9956055 0.09277344
vn -0.7670898 0.6289063 0.1276855
vn -0.7670898 0.6289063 0.1276855
vn -0.7670898 0.6289063 0.1276855
vn -0.7670898 0.6289063 0.1276855

vt 0.06616211 0.2094727
vt 0.06616211 0.2094727
vt 0.06616211 0.2094727
vt 0.06616211 0.2094727
vt 0.06616211 0.2094727
vt 0.06616211 0.2094727
vt 0.06616211 0.2094727
vt 0.06616211 0.2094727
vt 0.06616211 0.2094727
vt 0.102478 0.2792969
vt 0.102478 0.2792969
vt 0.102478 0.2792969
vt 0.102478 0.2792969
vt 0.102478 0.2792969
vt 0.102478 0.2792969
vt 0.102478 0.2792969
vt 0.102478 0.2792969
vt 0.102478 0.2792969
vt 0.102478 0.2792969
vt 0.102478 0.2792969
vt 0.102478 0.2792969
vt 0.102478 0.2792969
vt 0.102478 0.2792969
vt 0.102478 0.2792969
vt 0.102478 0.2792969
vt 0.102478 0.2792969
vt 0.102478 0.2792969
vt 0.102478 0.2792969
vt 0.102478 0.2792969
vt 0.1027222 0.2993164
vt 0.1027222 0.2993164
vt 0.1027222 0.2993164
vt 0.1027222 0.2993164
vt 0.1027222 0.2993164
vt 0.1027222 0.2993164
vt 0.1027222 0.2993164
vt 0.1027222 0.2993164
vt 0.1027222 0.2993164
vt 0.102478 0.3017578
vt 0.102478 0.3017578
vt 0.102478 0.3017578
vt 0.1027222 0.2993164
vt 0.1027222 0.2993164
vt 0.1027222 0.2993164
vt 0.1027222 0.2993164
vt 0.1022949 0.3276367
vt 0.1022949 0.3276367
vt 0.1022949 0.3276367
vt 0.1022949 0.3276367
vt 0.1022949 0.3276367
vt 0.1022949 0.3276367
vt 0.1022949 0.3276367
vt 0.1021729 0.3076172
vt 0.1021729 0.3076172
vt 0.1021729 0.3076172
vt 0.1021729 0.3076172
vt 0.1021729 0.3076172
vt 0.1021729 0.3076172
vt 0.1021729 0.3076172
vt 0.1021729 0.3076172
vt 0.1021729 0.3076172
vt 0.1021729 0.3076172
vt 0.1021729 0.3076172
vt 0.1021729 0.3076172
vt 0.1021729 0.3076172
vt 0.1021729 0.3076172
vt 0.1021729 0.3076172
vt 0.1021729 0.3076172
vt 0.1021729 0.3076172
vt 0.1021729 0.3076172
vt 0.1021729 0.3076172
vt 0.1021729 0.3076172
vt 0.1021729 0.3076172
vt 0.1021729 0.3076172
vt 0.1021729 0.3076172
vt 0.1021729 0.3076172
vt 0.1021729 0.3076172
vt 0.1021729 0.3076172
vt 0.06616211 0.2094727
vt 0.06616211 0.2094727
vt 0.06616211 0.2094727
vt 0.06616211 0.2094727
vt 0.06616211 0.2094727
vt 0.06616211 0.2094727
vt 0.06616211 0.2094727
vt 0.06616211 0.2094727
vt 0.06616211 0.2094727
vt 0.1021729 0.3076172
vt 0.1021729 0.3076172
vt 0.1021729 0.3076172
vt 0.1021729 0.3076172
vt 0.1021729 0.3076172
vt 0.1021729 0.3076172
vt 0.1021729 0.3076172
vt 0.1021729 0.3076172
vt 0.1021729 0.3076172
vt 0.1021729 0.3076172
vt 0.1027222 0.2993164
vt 0.1027222 0.2993164
vt 0.1027222 0.2993164
vt 0.1027222 0.2993164
vt 0.1021729 0.3076172
vt 0.1021729 0.3076172
vt 0.1021729 0.3076172
vt 0.1021729 0.3076172
vt 0.1021729 0.3076172
vt 0.1021729 0.3076172
vt 0.1021729 0.3076172
vt 0.1021729 0.3076172
vt 0.1021729 0.3076172
vt 0.1021729 0.3076172
vt 0.1021729 0.3076172
vt 0.1021729 0.3076172
vt 0.1021729 0.3076172
vt 0.1021729 0.3076172
vt 0.1021729 0.3076172
vt 0.1021729 0.3076172
vt 0.1022949 0.3276367
vt 0.1022949 0.3276367
vt 0.1022949 0.3276367
vt 0.1022949 0.3276367
vt 0.1022949 0.3276367
vt 0.1022949 0.3276367
vt 0.1022949 0.3276367
vt 0.1022949 0.3276367
vt 0.1022949 0.3276367
vt 0.1022949 0.3276367
vt 0.102478 0.3017578
vt 0.102478 0.3017578
vt 0.102478 0.3017578
vt 0.1027222 0.2993164
vt 0.1027222 0.2993164
vt 0.1027222 0.2993164
vt 0.1027222 0.2993164
vt 0.1027222 0.2993164
vt 0.1027222 0.2993164
vt 0.1027222 0.2993164
vt 0.1027222 0.2993164
vt 0.1027222 0.2993164
vt 0.1027222 0.2993164
vt 0.1027222 0.2993164
vt 0.1027222 0.2993164
vt 0.1027222 0.2993164
vt 0.1027222 0.2993164
vt 0.102478 0.2792969
vt 0.102478 0.2792969
vt 0.102478 0.2792969
vt 0.102478 0.2792969
vt 0.102478 0.2792969
vt 0.102478 0.2792969
vt 0.102478 0.2792969
vt 0.102478 0.2792969
vt 0.102478 0.2792969
vt 0.102478 0.2792969
vt 0.102478 0.2792969
vt 0.102478 0.2792969
vt 0.102478 0.2792969
vt 0.102478 0.2792969
vt 0.102478 0.2792969
vt 0.102478 0.2792969
vt 0.102478 0.2792969
vt 0.102478 0.2792969
vt 0.102478 0.2792969
vt 0.102478 0.2792969
vt 0.1027222 0.2993164
vt 0.1027222 0.2993164
vt 0.1027222 0.2993164
vt 0.1022949 0.3061523
vt 0.1022949 0.3061523
vt 0.1022949 0.3061523
vt 0.1022949 0.3061523
vt 0.065979 0.208374
vt 0.065979 0.208374
vt 0.065979 0.208374
vt 0.065979 0.208374
vt 0.1015625 0.3046875
vt 0.1015625 0.3046875
vt 0.1015625 0.3046875
vt 0.1015625 0.3046875
vt 0.1015625 0.3046875
vt 0.1015625 0.3046875
vt 0.1015625 0.3063965
vt 0.1015625 0.3063965
vt 0.1015625 0.3063965
vt 0.1015625 0.3063965
vt 0.1015625 0.3063965
vt 0.1015625 0.3063965
vt 0.1015625 0.3063965
vt 0.1015625 0.3063965
vt 0.1015625 0.3063965
vt 0.1015625 0.3063965
vt 0.1015625 0.3063965
vt 0.1015625 0.3063965
vt 0.1015625 0.3310547
vt 0.1015625 0.3310547
vt 0.1015625 0.3310547
vt 0.1015625 0.3310547
vt 0.1015625 0.3063965
vt 0.1015625 0.3063965
vt 0.1015625 0.3063965
vt 0.1015625 0.3063965
vt 0.1015625 0.3063965
vt 0.1015625 0.3063965
vt 0.1015625 0.3063965
vt 0.1015625 0.3063965
vt 0.1015625 0.3063965
vt 0.1015625 0.3063965
vt 0.1015625 0.3063965
vt 0.1015625 0.3063965
vt 0.1015625 0.3046875
vt 0.1015625 0.3046875
vt 0.1015625 0.3046875
vt 0.1015625 0.3046875
vt 0.1015625 0.3046875
vt 0.1015625 0.3046875
vt 0.1015625 0.3046875
vt 0.1015625 0.3046875
vt 0.065979 0.208374
vt 0.065979 0.208374
vt 0.065979 0.208374
vt 0.065979 0.208374
vt 0.065979 0.208374
vt 0.065979 0.208374
vt 0.065979 0.208374
vt 0.065979 0.208374
vt 0.1021729 0.3076172
vt 0.1021729 0.3076172
vt 0.1021729 0.3076172
vt 0.1021729 0.3076172
vt 0.1021729 0.3076172
vt 0.1021729 0.3076172
vt 0.1021729 0.3076172
vt 0.1021729 0.3076172
vt 0.1021729 0.3076172
vt 0.1021729 0.3076172
vt 0.1021729 0.3076172
vt 0.1021729 0.3076172
vt 0.1021729 0.3076172
vt 0.1021729 0.3076172
vt 0.1021729 0.3076172
vt 0.1021729 0.3076172
vt 0.1021729 0.3076172
vt 0.1021729 0.3076172
vt 0.1021729 0.3076172
vt 0.1021729 0.3076172
vt 0.1021729 0.3076172
vt 0.1021729 0.3076172
vt 0.1021729 0.3076172
vt 0.1021729 0.3076172
vt 0.1021729 0.3076172
vt 0.1021729 0.3076172
vt 0.1021729 0.3076172
vt 0.1021729 0.3076172
vt 0.1021729 0.3076172
vt 0.1021729 0.3076172
vt 0.1021729 0.3076172
vt 0.1021729 0.3076172
vt 0.1021729 0.3076172
vt 0.1021729 0.3076172
vt 0.1021729 0.3076172
vt 0.1021729 0.3076172
vt 0.1021729 0.3076172
vt 0.1021729 0.3076172
vt 0.1021729 0.3076172
vt 0.1021729 0.3076172
vt 0.1021729 0.3076172
vt 0.1021729 0.3076172
vt 0.1021729 0.3076172
vt 0.1021729 0.3076172
vt 0.1021729 0.3076172
vt 0.1021729 0.3076172
vt 0.1021729 0.3076172
vt 0.1021729 0.3076172
vt 0.1021729 0.3076172
vt 0.1021729 0.3076172
vt 0.1021729 0.3076172
vt 0.1021729 0.3076172
vt 0.1021729 0.3076172
vt 0.1021729 0.3076172
vt 0.1021729 0.3076172
vt 0.1021729 0.3076172
vt 0.1021729 0.3076172
vt 0.1021729 0.3076172
vt 0.1021729 0.3076172
vt 0.1021729 0.3076172
vt 0.1021729 0.3076172
vt 0.1021729 0.3076172
vt 0.1015625 0.3063965
vt 0.1015625 0.3063965
vt 0.1015625 0.3063965
vt 0.1015625 0.3063965
vt 0.1015625 0.3063965
vt 0.1015625 0.3063965
vt 0.1021729 0.3076172
vt 0.1021729 0.3076172
vt 0.1021729 0.3076172
vt 0.1021729 0.3076172
vt 0.1021729 0.3076172
vt 0.1021729 0.3076172
vt 0.1021729 0.3076172
vt 0.1021729 0.3076172

g SM_Env_Sidewalk_Dip_Corner_01_341_12
usemtl SM_Env_Sidewalk_Dip_Corner_01_341_12
usemap SM_Env_Sidewalk_Dip_Corner_01_341_12
f 1/1/1 3/3/3 2/2/2
f 1/1/1 2/2/2 4/4/4
f 1/1/1 4/4/4 5/5/5
f 5/5/5 4/4/4 6/6/6
f 5/5/5 6/6/6 7/7/7
f 7/7/7 6/6/6 8/8/8
f 7/7/7 8/8/8 9/9/9
f 10/10/10 12/12/12 11/11/11
f 10/10/10 13/13/13 12/12/12
f 14/14/14 16/16/16 15/15/15
f 14/14/14 17/17/17 16/16/16
f 18/18/18 20/20/20 19/19/19
f 18/18/18 21/21/21 20/20/20
f 22/22/22 24/24/24 23/23/23
f 22/22/22 25/25/25 24/24/24
f 26/26/26 28/28/28 27/27/27
f 26/26/26 29/29/29 28/28/28
f 30/30/30 32/32/32 31/31/31
f 30/30/30 33/33/33 32/32/32
f 34/34/34 36/36/36 35/35/35
f 37/37/37 36/36/36 34/34/34
f 37/37/37 38/38/38 36/36/36
f 39/39/39 41/41/41 40/40/40
f 42/42/42 44/44/44 43/43/43
f 42/42/42 45/45/45 44/44/44
f 46/46/46 48/48/48 47/47/47
f 49/49/49 48/48/48 50/50/50
f 49/49/49 51/51/51 48/48/48
f 50/50/50 47/47/47 52/52/52
f 53/53/53 55/55/55 54/54/54
f 56/56/56 58/58/58 57/57/57
f 59/59/59 61/61/61 60/60/60
f 59/59/59 62/62/62 61/61/61
f 63/63/63 65/65/65 64/64/64
f 63/63/63 66/66/66 65/65/65
f 67/67/67 66/66/66 63/63/63
f 67/67/67 68/68/68 66/66/66
f 64/64/64 65/65/65 69/69/69
f 64/64/64 69/69/69 70/70/70
f 71/71/71 73/73/73 72/72/72
f 71/71/71 74/74/74 73/73/73
f 75/75/75 74/74/74 71/71/71
f 75/75/75 76/76/76 74/74/74
f 72/72/72 73/73/73 77/77/77
f 72/72/72 77/77/77 78/78/78
f 79/79/79 81/81/81 80/80/80
f 79/79/79 82/82/82 81/81/81
f 83/83/83 82/82/82 79/79/79
f 83/83/83 84/84/84 82/82/82
f 80/80/80 81/81/81 85/85/85
f 80/80/80 85/85/85 86/86/86
f 86/86/86 85/85/85 87/87/87
f 88/88/88 90/90/90 89/89/89
f 91/91/91 93/93/93 92/92/92
f 94/94/94 96/96/96 95/95/95
f 94/94/94 97/97/97 96/96/96
f 98/98/98 100/100/100 99/99/99
f 98/98/98 101/101/101 100/100/100
f 102/102/102 104/104/104 103/103/103
f 102/102/102 105/105/105 104/104/104
f 103/103/103 104/104/104 106/106/106
f 103/103/103 106/106/106 107/107/107
f 108/108/108 105/105/105 102/102/102
f 108/108/108 109/109/109 105/105/105
f 110/110/110 112/112/112 111/111/111
f 110/110/110 113/113/113 112/112/112
f 111/111/111 112/112/112 114/114/114
f 111/111/111 114/114/114 115/115/115
f 116/116/116 113/113/113 110/110/110
f 116/116/116 117/117/117 113/113/113
f 118/118/118 120/120/120 119/119/119
f 118/118/118 121/121/121 120/120/120
f 122/122/122 124/124/124 123/123/123
f 122/122/122 123/123/123 125/125/125
f 122/122/122 125/125/125 126/126/126
f 122/122/122 127/127/127 124/124/124
f 128/128/128 130/130/130 129/129/129
f 131/131/131 133/133/133 132/132/132
f 131/131/131 134/134/134 133/133/133
f 135/135/135 137/137/137 136/136/136
f 138/138/138 140/140/140 139/139/139
f 138/138/138 141/141/141 140/140/140
f 141/141/141 142/142/142 140/140/140
f 143/143/143 142/142/142 141/141/141
f 143/143/143 144/144/144 142/142/142
f 145/145/145 147/147/147 146/146/146
f 145/145/145 148/148/148 147/147/147
f 149/149/149 151/151/151 150/150/150
f 149/149/149 152/152/152 151/151/151
f 153/153/153 155/155/155 154/154/154
f 153/153/153 156/156/156 155/155/155
f 157/157/157 159/159/159 158/158/158
f 157/157/157 160/160/160 159/159/159
f 161/161/161 163/163/163 162/162/162
f 161/161/161 164/164/164 163/163/163
f 165/165/165 167/167/167 166/166/166
f 168/168/168 170/170/170 169/169/169
f 168/168/168 171/171/171 170/170/170
f 172/172/172 174/174/174 173/173/173
f 175/175/175 172/172/172 173/173/173
f 176/176/176 178/178/178 177/177/177
f 176/176/176 179/179/179 178/178/178
f 179/179/179 180/180/180 178/178/178
f 179/179/179 181/181/181 180/180/180
f 182/182/182 184/184/184 183/183/183
f 182/182/182 185/185/185 184/184/184
f 186/186/186 188/188/188 187/187/187
f 186/186/186 189/189/189 188/188/188
f 190/190/190 192/192/192 191/191/191
f 190/190/190 193/193/193 192/192/192
f 194/194/194 196/196/196 195/195/195
f 195/195/195 196/196/196 197/197/197
f 198/198/198 200/200/200 199/199/199
f 198/198/198 201/201/201 200/200/200
f 202/202/202 204/204/204 203/203/203
f 202/202/202 205/205/205 204/204/204
f 206/206/206 208/208/208 207/207/207
f 206/206/206 209/209/209 208/208/208
f 210/210/210 212/212/212 211/211/211
f 210/210/210 213/213/213 212/212/212
f 214/214/214 216/216/216 215/215/215
f 214/214/214 217/217/217 216/216/216
f 218/218/218 220/220/220 219/219/219
f 218/218/218 221/221/221 220/220/220
f 222/222/222 224/224/224 223/223/223
f 222/222/222 225/225/225 224/224/224
f 226/226/226 228/228/228 227/227/227
f 226/226/226 229/229/229 228/228/228
f 230/230/230 232/232/232 231/231/231
f 230/230/230 233/233/233 232/232/232
f 234/234/234 236/236/236 235/235/235
f 234/234/234 237/237/237 236/236/236
f 238/238/238 240/240/240 239/239/239
f 238/238/238 241/241/241 240/240/240
f 242/242/242 244/244/244 243/243/243
f 242/242/242 245/245/245 244/244/244
f 246/246/246 248/248/248 247/247/247
f 246/246/246 249/249/249 248/248/248
f 250/250/250 252/252/252 251/251/251
f 250/250/250 253/253/253 252/252/252
f 254/254/254 256/256/256 255/255/255
f 254/254/254 257/257/257 256/256/256
f 258/258/258 260/260/260 259/259/259
f 258/258/258 261/261/261 260/260/260
f 262/262/262 264/264/264 263/263/263
f 262/262/262 265/265/265 264/264/264
f 266/266/266 268/268/268 267/267/267
f 266/266/266 269/269/269 268/268/268
f 270/270/270 272/272/272 271/271/271
f 270/270/270 273/273/273 272/272/272
f 274/274/274 276/276/276 275/275/275
f 277/277/277 279/279/279 278/278/278
f 280/280/280 282/282/282 281/281/281
f 280/280/280 283/283/283 282/282/282
f 284/284/284 286/286/286 285/285/285
f 284/284/284 287/287/287 286/286/286
f 288/288/288 290/290/290 289/289/289
f 288/288/288 291/291/291 290/290/290
f 292/292/292 291/291/291 288/288/288
f 292/292/292 293/293/293 291/291/291
f 294/294/294 296/296/296 295/295/295
f 294/294/294 297/297/297 296/296/296
f 298/298/298 300/300/300 299/299/299
f 298/298/298 301/301/301 300/300/300
