#SM_Env_Sidewalk_Gutter_01_336_1.obj

v 2.007172 -0.2620838 -0.2291336
v 2.071625 -0.263588 -0.2912064
v 2.246796 -0.2638038 -0.3001175
v 2.250061 -0.2622996 -0.2380447
v 2.246796 -0.2658248 -0.3835144
v 2.270447 -0.2664559 -0.4095535
v 2.059875 -0.2659235 -0.3875809
v 1.995422 -0.2661179 -0.395607
v 2.294113 -0.2638038 -0.3001175
v 2.475281 -0.2638038 -0.3001175
v 2.498932 -0.2622996 -0.2380447
v 2.483353 -0.2658248 -0.3835144
v 2.507019 -0.2664559 -0.4095535
v 2.294113 -0.2658248 -0.3835144
v 2.522598 -0.2638038 -0.3001175
v 2.723969 -0.2638391 -0.3015671
v 2.763992 -0.2622996 -0.2380447
v 2.71994 -0.2658248 -0.3835144
v 2.743591 -0.2664559 -0.4095535
v 2.53067 -0.2658248 -0.3835144
v 2.771301 -0.2638391 -0.3015671
v 2.961609 -0.2639385 -0.3056717
v 3.026062 -0.2624342 -0.2435989
v 2.956497 -0.2658248 -0.3835144
v 3.020935 -0.2660192 -0.3915329
v 2.767242 -0.2658248 -0.3835144
v 2.71994 -0.2670868 -0.4355927
v 2.53067 -0.2670868 -0.4355927
v 2.71994 -0.2691078 -0.5189819
v 2.743591 -0.2697388 -0.5450287
v 2.525284 -0.269251 -0.5248947
v 2.501617 -0.269882 -0.5509338
v 2.477966 -0.269251 -0.5248947
v 2.483353 -0.2670868 -0.4355927
v 2.294113 -0.2670868 -0.4355927
v 2.291702 -0.2690333 -0.5159149
v 2.268036 -0.2696643 -0.5419464
v 2.244385 -0.2690333 -0.5159149
v 2.246796 -0.2670868 -0.4355927
v 2.059875 -0.2671854 -0.4396591
v 2.057556 -0.2691078 -0.5189819
v 1.993103 -0.2697388 -0.5450287
v 2.244385 -0.2702954 -0.5679932
v 2.057556 -0.2703699 -0.5710602
v 2.246796 -0.2723908 -0.6544571
v 2.270447 -0.2730218 -0.6804962
v 2.057541 -0.2719943 -0.6380997
v 1.993103 -0.273062 -0.6821594
v 2.291702 -0.2702954 -0.5679932
v 2.477966 -0.270513 -0.576973
v 2.483353 -0.2723908 -0.6544571
v 2.507019 -0.2730218 -0.6804962
v 2.294113 -0.2723908 -0.6544571
v 2.525284 -0.270513 -0.576973
v 2.71994 -0.2703699 -0.5710602
v 2.717529 -0.2725672 -0.6617432
v 2.74118 -0.2731982 -0.6877823
v 2.53067 -0.2723908 -0.6544571
v 2.767242 -0.2703699 -0.5710602
v 2.956497 -0.2703699 -0.5710602
v 3.020935 -0.2697388 -0.5450287
v 2.767242 -0.2691078 -0.5189819
v 2.956497 -0.2691078 -0.5189819
v 2.956497 -0.2670868 -0.4355927
v 2.767242 -0.2670868 -0.4355927
v 2.956497 -0.2723908 -0.6544571
v 3.020935 -0.2734584 -0.6985168
v 2.764847 -0.2725672 -0.6617432
v 2.956497 -0.2736528 -0.7065353
v 2.764847 -0.2738292 -0.7138214
v 2.956497 -0.2756737 -0.7899323
v 3.020935 -0.277178 -0.852005
v 2.767242 -0.2756737 -0.7899323
v 2.763992 -0.277178 -0.852005
v 2.71994 -0.2756737 -0.7899323
v 2.717529 -0.2738292 -0.7138214
v 2.53067 -0.2736528 -0.7065353
v 2.53067 -0.2756737 -0.7899323
v 2.507019 -0.277178 -0.852005
v 2.483353 -0.2756737 -0.7899323
v 2.483353 -0.2736528 -0.7065353
v 2.294113 -0.2736528 -0.7065353
v 2.294113 -0.2756737 -0.7899323
v 2.250061 -0.277178 -0.852005
v 2.246796 -0.2756737 -0.7899323
v 2.246796 -0.2736528 -0.7065353
v 2.057541 -0.2732563 -0.6901779
v 2.057556 -0.2756737 -0.7899323
v 1.993103 -0.277178 -0.852005
v 2.071625 -0.263588 -0.2912064
v 2.089783 -0.3231878 -0.3004761
v 2.226044 -0.3233557 -0.3074036
v 2.246796 -0.2638038 -0.3001175
v 2.246796 -0.2638038 -0.3001175
v 2.226044 -0.3233557 -0.3074036
v 2.226044 -0.3249278 -0.3722763
v 2.246796 -0.2658248 -0.3835144
v 2.246796 -0.2658248 -0.3835144
v 2.226044 -0.3249278 -0.3722763
v 2.080627 -0.3250045 -0.3754425
v 2.059875 -0.2659235 -0.3875809
v 2.059875 -0.2659235 -0.3875809
v 2.080627 -0.3250045 -0.3754425
v 2.089783 -0.3231878 -0.3004761
v 2.071625 -0.263588 -0.2912064
v 2.294113 -0.2638038 -0.3001175
v 2.317886 -0.3233981 -0.3091507
v 2.453537 -0.3233981 -0.3091507
v 2.475281 -0.2638038 -0.3001175
v 2.475281 -0.2638038 -0.3001175
v 2.453537 -0.3233981 -0.3091507
v 2.459595 -0.3249114 -0.3715973
v 2.483353 -0.2658248 -0.3835144
v 2.483353 -0.2658248 -0.3835144
v 2.459595 -0.3249114 -0.3715973
v 2.317886 -0.3249114 -0.3715973
v 2.294113 -0.2658248 -0.3835144
v 2.294113 -0.2658248 -0.3835144
v 2.317886 -0.3249114 -0.3715973
v 2.317886 -0.3233981 -0.3091507
v 2.294113 -0.2638038 -0.3001175
v 2.522598 -0.2638038 -0.3001175
v 2.558014 -0.3234996 -0.3133392
v 2.688568 -0.3235224 -0.3142853
v 2.723969 -0.2638391 -0.3015671
v 2.723969 -0.2638391 -0.3015671
v 2.688568 -0.3235224 -0.3142853
v 2.685944 -0.3248098 -0.3674088
v 2.71994 -0.2658248 -0.3835144
v 2.71994 -0.2658248 -0.3835144
v 2.685944 -0.3248098 -0.3674088
v 2.563232 -0.3248098 -0.3674088
v 2.53067 -0.2658248 -0.3835144
v 2.53067 -0.2658248 -0.3835144
v 2.563232 -0.3248098 -0.3674088
v 2.558014 -0.3234996 -0.3133392
v 2.522598 -0.2638038 -0.3001175
v 2.771301 -0.2638391 -0.3015671
v 2.798584 -0.3234704 -0.3121338
v 2.933136 -0.3235407 -0.315033
v 2.961609 -0.2639385 -0.3056717
v 2.961609 -0.2639385 -0.3056717
v 2.933136 -0.3235407 -0.315033
v 2.92952 -0.3248743 -0.3700638
v 2.956497 -0.2658248 -0.3835144
v 2.956497 -0.2658248 -0.3835144
v 2.92952 -0.3248743 -0.3700638
v 2.795731 -0.3248743 -0.3700638
v 2.767242 -0.2658248 -0.3835144
v 2.767242 -0.2658248 -0.3835144
v 2.795731 -0.3248743 -0.3700638
v 2.798584 -0.3234704 -0.3121338
v 2.771301 -0.2638391 -0.3015671
v 2.059875 -0.2671854 -0.4396591
v 2.087311 -0.3267971 -0.4494095
v 2.218658 -0.3267277 -0.4465485
v 2.246796 -0.2670868 -0.4355927
v 2.246796 -0.2670868 -0.4355927
v 2.218658 -0.3267277 -0.4465485
v 2.216965 -0.3280954 -0.5029907
v 2.244385 -0.2690333 -0.5159149
v 2.244385 -0.2690333 -0.5159149
v 2.216965 -0.3280954 -0.5029907
v 2.085693 -0.3281477 -0.5051498
v 2.057556 -0.2691078 -0.5189819
v 2.057556 -0.2691078 -0.5189819
v 2.085693 -0.3281477 -0.5051498
v 2.087311 -0.3267971 -0.4494095
v 2.059875 -0.2671854 -0.4396591
v 2.294113 -0.2670868 -0.4355927
v 2.318726 -0.3267124 -0.4459229
v 2.458099 -0.3267124 -0.4459229
v 2.483353 -0.2670868 -0.4355927
v 2.483353 -0.2670868 -0.4355927
v 2.458099 -0.3267124 -0.4459229
v 2.454132 -0.3283062 -0.5116882
v 2.477966 -0.269251 -0.5248947
v 2.477966 -0.269251 -0.5248947
v 2.454132 -0.3283062 -0.5116882
v 2.316956 -0.3281459 -0.5050735
v 2.291702 -0.2690333 -0.5159149
v 2.291702 -0.2690333 -0.5159149
v 2.316956 -0.3281459 -0.5050735
v 2.318726 -0.3267124 -0.4459229
v 2.294113 -0.2670868 -0.4355927
v 2.53067 -0.2670868 -0.4355927
v 2.553375 -0.3266946 -0.4451828
v 2.695892 -0.3266946 -0.4451828
v 2.71994 -0.2670868 -0.4355927
v 2.71994 -0.2670868 -0.4355927
v 2.695892 -0.3266946 -0.4451828
v 2.695892 -0.3282163 -0.5079803
v 2.71994 -0.2691078 -0.5189819
v 2.71994 -0.2691078 -0.5189819
v 2.695892 -0.3282163 -0.5079803
v 2.549316 -0.3283241 -0.5124283
v 2.525284 -0.269251 -0.5248947
v 2.525284 -0.269251 -0.5248947
v 2.549316 -0.3283241 -0.5124283
v 2.553375 -0.3266946 -0.4451828
v 2.53067 -0.2670868 -0.4355927
v 2.767242 -0.2670868 -0.4355927
v 2.797379 -0.3267489 -0.4474258
v 2.926376 -0.3267489 -0.4474258
v 2.956497 -0.2670868 -0.4355927
v 2.956497 -0.2670868 -0.4355927
v 2.926376 -0.3267489 -0.4474258
v 2.926376 -0.3281265 -0.5042725
v 2.956497 -0.2691078 -0.5189819
v 2.956497 -0.2691078 -0.5189819
v 2.926376 -0.3281265 -0.5042725
v 2.797379 -0.3281265 -0.5042725
v 2.767242 -0.2691078 -0.5189819
v 2.767242 -0.2691078 -0.5189819
v 2.797379 -0.3281265 -0.5042725
v 2.797379 -0.3267489 -0.4474258
v 2.767242 -0.2670868 -0.4355927
v 2.057556 -0.2703699 -0.5710602
v 2.077362 -0.3299138 -0.5780258
v 2.225098 -0.3298549 -0.575592
v 2.244385 -0.2702954 -0.5679932
v 2.244385 -0.2702954 -0.5679932
v 2.225098 -0.3298549 -0.575592
v 2.227005 -0.3315121 -0.6439819
v 2.246796 -0.2723908 -0.6544571
v 2.246796 -0.2723908 -0.6544571
v 2.227005 -0.3315121 -0.6439819
v 2.077332 -0.3311985 -0.6310425
v 2.057541 -0.2719943 -0.6380997
v 2.057541 -0.2719943 -0.6380997
v 2.077332 -0.3311985 -0.6310425
v 2.077362 -0.3299138 -0.5780258
v 2.057556 -0.2703699 -0.5710602
v 2.291702 -0.2702954 -0.5679932
v 2.318817 -0.3299323 -0.5787888
v 2.452362 -0.3300884 -0.585228
v 2.477966 -0.270513 -0.576973
v 2.477966 -0.270513 -0.576973
v 2.452362 -0.3300884 -0.585228
v 2.456238 -0.3314347 -0.6407852
v 2.483353 -0.2723908 -0.6544571
v 2.483353 -0.2723908 -0.6544571
v 2.456238 -0.3314347 -0.6407852
v 2.320557 -0.3314347 -0.6407852
v 2.294113 -0.2723908 -0.6544571
v 2.294113 -0.2723908 -0.6544571
v 2.320557 -0.3314347 -0.6407852
v 2.318817 -0.3299323 -0.5787888
v 2.291702 -0.2702954 -0.5679932
v 2.525284 -0.270513 -0.576973
v 2.563934 -0.3302328 -0.5911865
v 2.681305 -0.3301465 -0.5876236
v 2.71994 -0.2703699 -0.5710602
v 2.71994 -0.2703699 -0.5710602
v 2.681305 -0.3301465 -0.5876236
v 2.67984 -0.3314714 -0.6423035
v 2.717529 -0.2725672 -0.6617432
v 2.717529 -0.2725672 -0.6617432
v 2.67984 -0.3314714 -0.6423035
v 2.567169 -0.3313651 -0.6379089
v 2.53067 -0.2723908 -0.6544571
v 2.53067 -0.2723908 -0.6544571
v 2.567169 -0.3313651 -0.6379089
v 2.563934 -0.3302328 -0.5911865
v 2.525284 -0.270513 -0.576973
v 2.767242 -0.2703699 -0.5710602
v 2.789673 -0.329974 -0.580513
v 2.933502 -0.329974 -0.580513
v 2.956497 -0.2703699 -0.5710602
v 2.956497 -0.2703699 -0.5710602
v 2.933502 -0.329974 -0.580513
v 2.933502 -0.3315098 -0.6438828
v 2.956497 -0.2723908 -0.6544571
v 2.956497 -0.2723908 -0.6544571
v 2.933502 -0.3315098 -0.6438828
v 2.787857 -0.3316439 -0.6494141
v 2.764847 -0.2725672 -0.6617432
v 2.764847 -0.2725672 -0.6617432
v 2.787857 -0.3316439 -0.6494141
v 2.789673 -0.329974 -0.580513
v 2.767242 -0.2703699 -0.5710602
v 2.057541 -0.2732563 -0.6901779
v 2.085419 -0.3329529 -0.7034378
v 2.218918 -0.3332326 -0.7149734
v 2.246796 -0.2736528 -0.7065353
v 2.246796 -0.2736528 -0.7065353
v 2.218918 -0.3332326 -0.7149734
v 2.218918 -0.3346581 -0.7738037
v 2.246796 -0.2756737 -0.7899323
v 2.246796 -0.2756737 -0.7899323
v 2.218918 -0.3346581 -0.7738037
v 2.085434 -0.3346581 -0.7738037
v 2.057556 -0.2756737 -0.7899323
v 2.057556 -0.2756737 -0.7899323
v 2.085434 -0.3346581 -0.7738037
v 2.085419 -0.3329529 -0.7034378
v 2.057541 -0.2732563 -0.6901779
v 2.294113 -0.2736528 -0.7065353
v 2.315918 -0.3332262 -0.7147141
v 2.461548 -0.3332262 -0.7147141
v 2.483353 -0.2736528 -0.7065353
v 2.483353 -0.2736528 -0.7065353
v 2.461548 -0.3332262 -0.7147141
v 2.461548 -0.3347813 -0.7788849
v 2.483353 -0.2756737 -0.7899323
v 2.483353 -0.2756737 -0.7899323
v 2.461548 -0.3347813 -0.7788849
v 2.315918 -0.3347813 -0.7788849
v 2.294113 -0.2756737 -0.7899323
v 2.294113 -0.2756737 -0.7899323
v 2.315918 -0.3347813 -0.7788849
v 2.315918 -0.3332262 -0.7147141
v 2.294113 -0.2736528 -0.7065353
v 2.53067 -0.2736528 -0.7065353
v 2.555573 -0.3332592 -0.7160721
v 2.693268 -0.3333892 -0.7214355
v 2.717529 -0.2738292 -0.7138214
v 2.717529 -0.2738292 -0.7138214
v 2.693268 -0.3333892 -0.7214355
v 2.695038 -0.3347483 -0.7775269
v 2.71994 -0.2756737 -0.7899323
v 2.71994 -0.2756737 -0.7899323
v 2.695038 -0.3347483 -0.7775269
v 2.555573 -0.3347483 -0.7775269
v 2.53067 -0.2756737 -0.7899323
v 2.53067 -0.2756737 -0.7899323
v 2.555573 -0.3347483 -0.7775269
v 2.555573 -0.3332592 -0.7160721
v 2.53067 -0.2736528 -0.7065353
v 2.764847 -0.2738292 -0.7138214
v 2.794434 -0.3334271 -0.7230072
v 2.926926 -0.3333051 -0.7179718
v 2.956497 -0.2736528 -0.7065353
v 2.956497 -0.2736528 -0.7065353
v 2.926926 -0.3333051 -0.7179718
v 2.926926 -0.3347023 -0.7756271
v 2.956497 -0.2756737 -0.7899323
v 2.956497 -0.2756737 -0.7899323
v 2.926926 -0.3347023 -0.7756271
v 2.796082 -0.3347023 -0.7756271
v 2.767242 -0.2756737 -0.7899323
v 2.767242 -0.2756737 -0.7899323
v 2.796082 -0.3347023 -0.7756271
v 2.794434 -0.3334271 -0.7230072
v 2.764847 -0.2738292 -0.7138214
v 2.007172 -0.2620838 -0.2291336
v 1.976074 -0.320625 -0.1947174
v 1.963593 -0.3250863 -0.3788147
v 1.995422 -0.2661179 -0.395607
v 1.961151 -0.3290907 -0.5440598
v 1.993103 -0.2697388 -0.5450287
v 1.961121 -0.3327657 -0.6957092
v 1.993103 -0.273062 -0.6821594
v 1.961151 -0.3373176 -0.8835449
v 1.993103 -0.277178 -0.852005
v 3.020935 -0.2660192 -0.3915329
v 3.052582 -0.3249772 -0.3743134
v 3.058014 -0.3210126 -0.2107086
v 3.026062 -0.2624342 -0.2435989
v 3.020935 -0.2697388 -0.5450287
v 3.052582 -0.3290907 -0.5440598
v 3.020935 -0.2734584 -0.6985168
v 3.052582 -0.3332042 -0.7138062
v 3.020935 -0.277178 -0.852005
v 3.052582 -0.3373176 -0.8835449
v 1.993103 -0.277178 -0.852005
v 1.961151 -0.3373176 -0.8835449
v 2.233994 -0.3373176 -0.8835449
v 2.250061 -0.277178 -0.852005
v 2.506851 -0.3373176 -0.8835449
v 2.507019 -0.277178 -0.852005
v 2.779739 -0.3373176 -0.8835449
v 2.763992 -0.277178 -0.852005
v 3.052582 -0.3373176 -0.8835449
v 3.020935 -0.277178 -0.852005
v 2.250061 -0.2622996 -0.2380447
v 2.233994 -0.3208637 -0.204567
v 1.976074 -0.320625 -0.1947174
v 2.007172 -0.2620838 -0.2291336
v 2.498932 -0.2622996 -0.2380447
v 2.498291 -0.3208637 -0.204567
v 2.763992 -0.2622996 -0.2380447
v 2.779739 -0.3208637 -0.204567
v 3.026062 -0.2624342 -0.2435989
v 3.058014 -0.3210126 -0.2107086
v 2.469925 0 0
v 1.642181 3.72529E-09 0
v 1.829697 -0.05417278 -0.1048126
v 2.485138 -0.05417278 -0.1171494
v 3.331711 3.72529E-09 0
v 3.165649 -0.05417278 -0.1046143
v 1.896408 0.06969655 -1.032303
v 1.898041 0.06969655 -1.032234
v 1.89679 0.06969654 -1.031006
v 1.772858 0.06969655 -0.9084396
v 1.994186 0.06969655 -0.8263168
v 1.74144 0.06969655 -0.6967392
v 2.378891 0.06969655 -1.011337
v 2.515686 0.06969655 -0.8444901
v 3.041061 0.06969655 -0.8260193
v 2.987122 0.06969655 -1.0289
v 3.281067 0.06969655 -0.6965485
v 3.192139 0.06969655 -0.9152069
v 1.917282 0 -1.083588
v 1.898041 0.06969655 -1.032234
v 1.896408 0.06969655 -1.032303
v 0.03359985 0 -3.146576
v 0.03359985 0.02436665 -3.199997
v 2.387024 0 -3.176178
v 2.359589 0.01080331 -3.105591
v 1.86673 -0.7780125 -0.4105682
v 2.369476 -0.779096 -0.4250412
v 2.457794 -0.6055679 -0.2969589
v 1.854706 -0.6028199 -0.2768402
v 1.854706 -0.6028199 -0.2768402
v 2.457794 -0.6055679 -0.2969589
v 2.492783 -0.2306571 -0.2318726
v 2.012589 -0.250616 -0.2210999
v 2.991074 -0.2505919 -0.2209244
v 3.126251 -0.602775 -0.2765121
v 2.387024 0 -3.176178
v 0.03359985 0.02436665 -3.199997
v 0.03359985 0 -4.999992
v 2.43985 0 -4.999992
v 0.03359985 0 -3.146576
v 2.359589 0.01080331 -3.105591
v 2.43985 0 -1.091492
v 1.917282 0 -1.083588
v 0.05514526 0 -1.067894
v 5 3.72529E-09 0
v 4.973602 -0.05417278 -0.08034515
v 5 -0.05417279 -0.08035278
v 3.365417 -0.136359 -0.2164078
v 3.331711 3.72529E-09 0
v 3.165649 -0.05417278 -0.1046143
v 4.973602 -0.08353826 -0.2570724
v 5 -0.08353826 -0.2654266
v 5 -0.05417279 -0.08035278
v 4.973602 -0.05417278 -0.08034515
v 4.963531 -0.2302948 -0.5815582
v 5 -0.2302948 -0.5874481
v 5 -0.08353826 -0.2654266
v 4.973602 -0.08353826 -0.2570724
v 4.973602 0.06969655 -0.6678925
v 5 0.06969652 -0.6737823
v 5 -0.2302948 -0.5874481
v 4.963531 -0.2302948 -0.5815582
v 4.973602 0.06969655 -1.017174
v 5 0.06969652 -1.023064
v 5 0.06969652 -0.6737823
v 4.973602 0.06969655 -0.6678925
v 4.973602 0.0191935 -1.090286
v 5 -7.450581E-09 -1.073784
v 5 0.06969652 -1.023064
v 4.973602 0.06969655 -1.017174
v 4.923431 0 -3.123878
v 5 0 -3.173286
v 5 -7.450581E-09 -1.073784
v 4.973602 0.0191935 -1.090286
v 4.934174 0 -3.216881
v 5 0 -3.173286
v 4.923431 0 -3.123878
v 4.973602 0 -4.999992
v 5 0 -4.999992
v 2.43985 0 -1.091492
v 2.5 0 -1.091492
v 2.378891 0.06969655 -1.011337
v 2.359589 0.01080331 -3.105591
v 2.447189 0 -3.122757
v 2.5 0 -1.091492
v 2.43985 0 -1.091492
v 2.387024 0 -3.176178
v 2.4646 0.03420928 -3.180946
v 2.447189 0 -3.122757
v 2.43985 0 -4.999992
v 2.5 0 -4.999992
v 2.4646 0.03420928 -3.180946
v 2.387024 0 -3.176178
v 2.4646 0.03420928 -3.180946
v 2.5 0 -4.999992
v 4.973602 0 -4.999992
v 4.934174 0 -3.216881
v 4.923431 0 -3.123878
v 2.447189 0 -3.122757
v 2.4646 0.03420928 -3.180946
v 4.934174 0 -3.216881
v 4.973602 0.0191935 -1.090286
v 3.039795 0.006537661 -1.09108
v 4.923431 0 -3.123878
v 2.447189 0 -3.122757
v 2.5 0 -1.091492
v 3.192139 0.06969655 -0.9152069
v 2.987122 0.06969655 -1.0289
v 3.039795 0.006537661 -1.09108
v 3.192139 0.06969655 -0.9152069
v 4.973602 0.06969655 -1.017174
v 4.973602 0.06969655 -0.6678925
v 3.281067 0.06969655 -0.6965485
v 3.281067 0.06969655 -0.6965485
v 4.973602 0.06969655 -0.6678925
v 4.963531 -0.2302948 -0.5815582
v 3.28566 -0.2677841 -0.6143036
v 3.28566 -0.2677841 -0.6143036
v 4.963531 -0.2302948 -0.5815582
v 4.973602 -0.08353826 -0.2570724
v 3.300629 -0.1939055 -0.2934036
v 4.973602 -0.05417278 -0.08034515
v 3.365417 -0.136359 -0.2164078
v 0 0 -3.173286
v 0 0 -4.999992
v 0.03359985 0 -4.999992
v 0.03359985 0.02436665 -3.199997
v 0 0 -3.173286
v 0.03359985 0.02436665 -3.199997
v 0.03359985 0 -3.146576
v 0 -7.450581E-09 -1.073784
v 0 0 -3.173286
v 0.03359985 0 -3.146576
v 0.05514526 0 -1.067894
v 0 0.06969652 -1.023064
v 0 -7.450581E-09 -1.073784
v 0.05514526 0 -1.067894
v 0.08164978 0.06969655 -1.028175
v 0 0.06969652 -0.6737823
v 0 0.06969652 -1.023064
v 0.08164978 0.06969655 -1.028175
v 0.03359985 0.06969655 -0.6678925
v 0 -0.2302948 -0.5874481
v 0 0.06969652 -0.6737823
v 0.03359985 0.06969655 -0.6678925
v 0.03359985 -0.2302948 -0.5815582
v 0 -0.08353826 -0.2654266
v 0 -0.2302948 -0.5874481
v 0.03359985 -0.2302948 -0.5815582
v 0.03359985 -0.08353826 -0.2570724
v 0 -0.05417279 -0.08035278
v 0 -0.08353826 -0.2654266
v 0.03359985 -0.08353826 -0.2570724
v 0.03359985 -0.05417278 -0.08034515
v 0 3.72529E-09 0
v 0 -0.05417279 -0.08035278
v 0.03359985 -0.05417278 -0.08034515
v 1.642181 3.72529E-09 0
v 1.630249 -0.136359 -0.2165451
v 1.829697 -0.05417278 -0.1048126
v 2.387024 0 -3.176178
v 2.447189 0 -3.122757
v 2.359589 0.01080331 -3.105591
v 0.05514526 0 -1.067894
v 1.917282 0 -1.083588
v 1.896408 0.06969655 -1.032303
v 1.896408 0.06969655 -1.032303
v 0.08164978 0.06969655 -1.028175
v 0.05514526 0 -1.067894
v 1.896408 0.06969655 -1.032303
v 1.772858 0.06969655 -0.9084396
v 0.08164978 0.06969655 -1.028175
v 1.74144 0.06969655 -0.6967392
v 1.994186 0.06969655 -0.8263168
v 1.985687 -0.2817854 -0.6226654
v 1.735687 -0.2678266 -0.6144562
v 1.735687 -0.2678266 -0.6144562
v 1.985687 -0.2817854 -0.6226654
v 1.962967 -0.2622313 -0.3027878
v 1.692368 -0.1938445 -0.2936554
v 1.692368 -0.1938445 -0.2936554
v 1.962967 -0.2622313 -0.3027878
v 1.829697 -0.05417278 -0.1048126
v 1.630249 -0.136359 -0.2165451
v 2.5 0 -1.091492
v 3.039795 0.006537661 -1.09108
v 2.987122 0.06969655 -1.0289
v 2.378891 0.06969655 -1.011337
v 1.917282 0 -1.083588
v 2.43985 0 -1.091492
v 1.898041 0.06969655 -1.032234
v 2.369476 -0.779096 -0.4250412
v 2.875305 -0.7105358 -0.4103317
v 3.126251 -0.602775 -0.2765121
v 2.457794 -0.6055679 -0.2969589
v 3.020264 -0.95612 -0.5823746
v 2.514954 -0.95612 -0.5956726
v 1.86673 -0.7780125 -0.4105682
v 2.013367 -0.95612 -0.5825882
v 1.985687 -0.2817854 -0.6226654
v 1.86673 -0.7780125 -0.4105682
v 1.854706 -0.6028199 -0.2768402
v 1.962967 -0.2622313 -0.3027878
v 1.962967 -0.2622313 -0.3027878
v 2.012589 -0.250616 -0.2210999
v 1.829697 -0.05417278 -0.1048126
v 1.829697 -0.05417278 -0.1048126
v 2.012589 -0.250616 -0.2210999
v 2.492783 -0.2306571 -0.2318726
v 2.485138 -0.05417278 -0.1171494
v 2.991074 -0.2505919 -0.2209244
v 3.165649 -0.05417278 -0.1046143
v 3.028641 -0.2622313 -0.3024139
v 3.126251 -0.602775 -0.2765121
v 2.875305 -0.7105358 -0.4103317
v 3.047852 -0.2817854 -0.6224213
v 2.991074 -0.2505919 -0.2209244
v 3.126251 -0.602775 -0.2765121
v 3.028641 -0.2622313 -0.3024139
v 1.994186 0.06969655 -0.8263168
v 2.032562 0.02674285 -0.8155594
v 1.985687 -0.2817854 -0.6226654
v 2.515686 0.06969655 -0.8444901
v 2.515839 0.02674285 -0.8303986
v 2.032562 0.02674285 -0.8155594
v 1.994186 0.06969655 -0.8263168
v 3.041061 0.06969655 -0.8260193
v 3.002686 0.02674285 -0.8153152
v 3.047852 -0.2817854 -0.6224213
v 3.002686 0.02674285 -0.8153152
v 3.041061 0.06969655 -0.8260193
v 1.946411 -0.956992 -0.6226654
v 1.985687 -0.2817854 -0.6226654
v 2.032562 0.02674285 -0.8155594
v 2.058319 -0.01742422 -0.8298187
v 2.013367 -0.95612 -0.5825882
v 1.86673 -0.7780125 -0.4105682
v 2.515839 0.02674285 -0.8303986
v 2.515869 -0.0170834 -0.8445892
v 2.058319 -0.01742422 -0.8298187
v 2.032562 0.02674285 -0.8155594
v 3.002686 0.02674285 -0.8153152
v 2.976929 -0.0174298 -0.8295822
v 1.946411 -0.956992 -0.6226654
v 1.946411 -1.130347 -1.149979
v 2.013367 -0.95612 -0.5825882
v 1.946411 -1.130347 -1.149979
v 2.515518 -1.130705 -1.163452
v 2.514954 -0.95612 -0.5956726
v 2.013367 -0.95612 -0.5825882
v 3.020264 -0.95612 -0.5823746
v 3.180405 -1.13034 -1.075043
v 3.020264 -0.95612 -0.5823746
v 3.180405 -1.13034 -1.075043
v 3.088837 -0.95699 -0.6224213
v 2.022873 -0.1340199 -1.149315
v 2.514771 -0.1277943 -1.162788
v 2.515518 -1.130705 -1.163452
v 1.946411 -1.130347 -1.149979
v 2.514771 -0.1277943 -1.162788
v 3.012375 -0.1341219 -1.149094
v 3.180405 -1.13034 -1.075043
v 2.515518 -1.130705 -1.163452
v 2.875305 -0.7105358 -0.4103317
v 3.020264 -0.95612 -0.5823746
v 3.088837 -0.95699 -0.6224213
v 3.047852 -0.2817854 -0.6224213
v 3.012375 -0.1341219 -1.149094
v 2.976929 -0.0174298 -0.8295822
v 3.088837 -0.95699 -0.6224213
v 3.180405 -1.13034 -1.075043
v 3.165649 -0.05417278 -0.1046143
v 2.991074 -0.2505919 -0.2209244
v 3.028641 -0.2622313 -0.3024139
v 1.962967 -0.2622313 -0.3027878
v 1.854706 -0.6028199 -0.2768402
v 2.012589 -0.250616 -0.2210999
v 0.08164978 0.06969655 -1.028175
v 1.772858 0.06969655 -0.9084396
v 1.74144 0.06969655 -0.6967392
v 0.03359985 0.06969655 -0.6678925
v 0.03359985 0.06969655 -0.6678925
v 1.74144 0.06969655 -0.6967392
v 1.735687 -0.2678266 -0.6144562
v 0.03359985 -0.2302948 -0.5815582
v 0.03359985 -0.2302948 -0.5815582
v 1.735687 -0.2678266 -0.6144562
v 1.692368 -0.1938445 -0.2936554
v 0.03359985 -0.08353826 -0.2570724
v 1.630249 -0.136359 -0.2165451
v 0.03359985 -0.05417278 -0.08034515
v 3.041061 0.06969655 -0.8260193
v 3.281067 0.06969655 -0.6965485
v 3.28566 -0.2677841 -0.6143036
v 3.047852 -0.2817854 -0.6224213
v 3.047852 -0.2817854 -0.6224213
v 3.28566 -0.2677841 -0.6143036
v 3.300629 -0.1939055 -0.2934036
v 3.028641 -0.2622313 -0.3024139
v 3.028641 -0.2622313 -0.3024139
v 3.300629 -0.1939055 -0.2934036
v 3.365417 -0.136359 -0.2164078
v 3.165649 -0.05417278 -0.1046143
v 2.515869 -0.0170834 -0.8445892
v 2.514771 -0.1277943 -1.162788
v 2.022873 -0.1340199 -1.149315
v 2.058319 -0.01742422 -0.8298187
v 2.976929 -0.0174298 -0.8295822
v 3.012375 -0.1341219 -1.149094
v 2.022873 -0.1340199 -1.149315
v 1.946411 -1.130347 -1.149979
v 1.946411 -0.956992 -0.6226654
v 2.058319 -0.01742422 -0.8298187
v 2.976929 -0.0174298 -0.8295822
v 3.002686 0.02674285 -0.8153152
v 3.047852 -0.2817854 -0.6224213
v 3.088837 -0.95699 -0.6224213
v 3.192139 0.06969655 -0.9152069
v 3.039795 0.006537661 -1.09108
v 4.973602 0.0191935 -1.090286
v 4.973602 0.06969655 -1.017174

vn 0 0.9995117 -0.02423096
vn 0 0.9995117 -0.02423096
vn 0 0.9995117 -0.02423096
vn 0 0.9995117 -0.02423096
vn 0 0.9995117 -0.02423096
vn 0 0.9995117 -0.02423096
vn 0 0.9995117 -0.02423096
vn 0 0.9995117 -0.02423096
vn 0 0.9995117 -0.02423096
vn 0 0.9995117 -0.02423096
vn 0 0.9995117 -0.02423096
vn 0 0.9995117 -0.02423096
vn 0 0.9995117 -0.02423096
vn 0 0.9995117 -0.02423096
vn 0 0.9995117 -0.02423096
vn 0 0.9995117 -0.02423096
vn 0 0.9995117 -0.02423096
vn 0 0.9995117 -0.02423096
vn 0 0.9995117 -0.02423096
vn 0 0.9995117 -0.02423096
vn 0 0.9995117 -0.02423096
vn 0 0.9995117 -0.02423096
vn 0 0.9995117 -0.02423096
vn 0 0.9995117 -0.02423096
vn 0 0.9995117 -0.02423096
vn 0 0.9995117 -0.02423096
vn 0 0.9995117 -0.02423096
vn 0 0.9995117 -0.02423096
vn 0 0.9995117 -0.02423096
vn 0 0.9995117 -0.02423096
vn 0 0.9995117 -0.02423096
vn 0 0.9995117 -0.02423096
vn 0 0.9995117 -0.02423096
vn 0 0.9995117 -0.02423096
vn 0 0.9995117 -0.02423096
vn 0 0.9995117 -0.02423096
vn 0 0.9995117 -0.02423096
vn 0 0.9995117 -0.02423096
vn 0 0.9995117 -0.02423096
vn 0 0.9995117 -0.02423096
vn 0 0.9995117 -0.02423096
vn 0 0.9995117 -0.02423096
vn 0 0.9995117 -0.02423096
vn 0 0.9995117 -0.02423096
vn 0 0.9995117 -0.02423096
vn 0 0.9995117 -0.02423096
vn 0 0.9995117 -0.02423096
vn 0 0.9995117 -0.02423096
vn 0 0.9995117 -0.02423096
vn 0 0.9995117 -0.02423096
vn 0 0.9995117 -0.02423096
vn 0 0.9995117 -0.02423096
vn 0 0.9995117 -0.02423096
vn 0 0.9995117 -0.02423096
vn 0 0.9995117 -0.02423096
vn 0 0.9995117 -0.02423096
vn 0 0.9995117 -0.02423096
vn 0 0.9995117 -0.02423096
vn 0 0.9995117 -0.02423096
vn 0 0.9995117 -0.02423096
vn 0 0.9995117 -0.02423096
vn 0 0.9995117 -0.0242157
vn 0 0.9995117 -0.0242157
vn 0 0.9995117 -0.02423096
vn 0 0.9995117 -0.02423096
vn 0 0.9995117 -0.02423096
vn 0 0.9995117 -0.02423096
vn 0 0.9995117 -0.02423096
vn 0 0.9995117 -0.02423096
vn 0 0.9995117 -0.02423096
vn 0 0.9995117 -0.02423096
vn 0 0.9995117 -0.02423096
vn 0 0.9995117 -0.02423096
vn 0 0.9995117 -0.02423096
vn 0 0.9995117 -0.02423096
vn 0 0.9995117 -0.02423096
vn 0 0.9995117 -0.02423096
vn 0 0.9995117 -0.02423096
vn 0 0.9995117 -0.02423096
vn 0 0.9995117 -0.02423096
vn 0 0.9995117 -0.02423096
vn 0 0.9995117 -0.02423096
vn 0 0.9995117 -0.02423096
vn 0 0.9995117 -0.02423096
vn 0 0.9995117 -0.02423096
vn 0 0.9995117 -0.02423096
vn 0 0.9995117 -0.02423096
vn 0 0.9995117 -0.02423096
vn 0 0.9995117 -0.02423096
vn -0.05014038 0.1385498 -0.9892578
vn -0.05014038 0.1385498 -0.9892578
vn -0.05014038 0.1385498 -0.9892578
vn -0.05014038 0.1385498 -0.9892578
vn -0.9438477 0.329834 -0.007995605
vn -0.9438477 0.329834 -0.007995605
vn -0.9438477 0.329834 -0.007995605
vn -0.9438477 0.329834 -0.007995605
vn -0.02145386 0.1939697 0.980957
vn -0.02145386 0.1939697 0.980957
vn -0.02145386 0.1939697 0.980957
vn -0.02145386 0.1939697 0.980957
vn 0.9438477 0.3063965 -0.1226196
vn 0.9438477 0.3063965 -0.1226196
vn 0.9438477 0.3063965 -0.1226196
vn 0.9438477 0.3063965 -0.1226196
vn 0 0.1499023 -0.9887695
vn 0 0.1499023 -0.9887695
vn 0 0.1499023 -0.9887695
vn 0 0.1499023 -0.9887695
vn -0.9301758 0.354248 -0.09869385
vn -0.9301758 0.354248 -0.09869385
vn -0.9301758 0.354248 -0.09869385
vn -0.9301758 0.354248 -0.09869385
vn 0 0.1977539 0.9804688
vn 0 0.1977539 0.9804688
vn 0 0.1977539 0.9804688
vn 0 0.1977539 0.9804688
vn 0.9282227 0.371582 -0.009010315
vn 0.9282227 0.371582 -0.009010315
vn 0.9282227 0.371582 -0.009010315
vn 0.9282227 0.371582 -0.009010315
vn -0.007015228 0.2122803 -0.9770508
vn -0.007015228 0.2122803 -0.9770508
vn -0.007015228 0.2122803 -0.9770508
vn -0.007015228 0.2122803 -0.9770508
vn -0.8623047 0.5053711 0.03024292
vn -0.8623047 0.5053711 0.03024292
vn -0.8623047 0.5053711 0.03024292
vn -0.8623047 0.5053711 0.03024292
vn 0 0.2634277 0.9648438
vn 0 0.2634277 0.9648438
vn 0 0.2634277 0.9648438
vn 0 0.2634277 0.9648438
vn 0.8647461 0.4970703 0.0715332
vn 0.8647461 0.4970703 0.0715332
vn 0.8647461 0.4970703 0.0715332
vn 0.8647461 0.4970703 0.0715332
vn -0.0211792 0.1650391 -0.9858398
vn -0.0211792 0.1650391 -0.9858398
vn -0.0211792 0.1650391 -0.9858398
vn -0.0211792 0.1650391 -0.9858398
vn -0.9042969 0.4243164 0.04910278
vn -0.9042969 0.4243164 0.04910278
vn -0.9042969 0.4243164 0.04910278
vn -0.9042969 0.4243164 0.04910278
vn 0 0.2220459 0.9750977
vn 0 0.2220459 0.9750977
vn 0 0.2220459 0.9750977
vn 0 0.2220459 0.9750977
vn 0.9042969 0.423584 -0.05493164
vn 0.9042969 0.423584 -0.05493164
vn 0.9042969 0.423584 -0.05493164
vn 0.9042969 0.423584 -0.05493164
vn 0.02134705 0.1708984 -0.9848633
vn 0.02134705 0.1708984 -0.9848633
vn 0.02134705 0.1708984 -0.9848633
vn 0.02134705 0.1708984 -0.9848633
vn -0.9052734 0.4240723 0.01689148
vn -0.9052734 0.4240723 0.01689148
vn -0.9052734 0.4240723 0.01689148
vn -0.9052734 0.4240723 0.01689148
vn -0.01611328 0.2208252 0.9750977
vn -0.01611328 0.2208252 0.9750977
vn -0.01611328 0.2208252 0.9750977
vn -0.01611328 0.2208252 0.9750977
vn 0.9052734 0.4228516 -0.03665161
vn 0.9052734 0.4228516 -0.03665161
vn 0.9052734 0.4228516 -0.03665161
vn 0.9052734 0.4228516 -0.03665161
vn 0 0.1706543 -0.9853516
vn 0 0.1706543 -0.9853516
vn 0 0.1706543 -0.9853516
vn 0 0.1706543 -0.9853516
vn -0.9228516 0.3828125 0.04638672
vn -0.9228516 0.3828125 0.04638672
vn -0.9228516 0.3828125 0.04638672
vn -0.9228516 0.3828125 0.04638672
vn 0.04742432 0.199707 0.9785156
vn 0.04742432 0.199707 0.9785156
vn 0.04742432 0.199707 0.9785156
vn 0.04742432 0.199707 0.9785156
vn 0.9213867 0.3867188 -0.0369873
vn 0.9213867 0.3867188 -0.0369873
vn 0.9213867 0.3867188 -0.0369873
vn 0.9213867 0.3867188 -0.0369873
vn 0 0.1588135 -0.9873047
vn 0 0.1588135 -0.9873047
vn 0 0.1588135 -0.9873047
vn 0 0.1588135 -0.9873047
vn -0.9267578 0.3754883 -0.009094238
vn -0.9267578 0.3754883 -0.009094238
vn -0.9267578 0.3754883 -0.009094238
vn -0.9267578 0.3754883 -0.009094238
vn -0.02990723 0.1947021 0.9804688
vn -0.02990723 0.1947021 0.9804688
vn -0.02990723 0.1947021 0.9804688
vn -0.02990723 0.1947021 0.9804688
vn 0.9291992 0.3642578 -0.06488037
vn 0.9291992 0.3642578 -0.06488037
vn 0.9291992 0.3642578 -0.06488037
vn 0.9291992 0.3642578 -0.06488037
vn 0 0.1945801 -0.980957
vn 0 0.1945801 -0.980957
vn 0 0.1945801 -0.980957
vn 0 0.1945801 -0.980957
vn -0.8916016 0.4523926 -0.01096344
vn -0.8916016 0.4523926 -0.01096344
vn -0.8916016 0.4523926 -0.01096344
vn -0.8916016 0.4523926 -0.01096344
vn 0 0.2418213 0.9702148
vn 0 0.2418213 0.9702148
vn 0 0.2418213 0.9702148
vn 0 0.2418213 0.9702148
vn 0.8916016 0.4526367 -0.01097107
vn 0.8916016 0.4526367 -0.01097107
vn 0.8916016 0.4526367 -0.01097107
vn 0.8916016 0.4526367 -0.01097107
vn 0.01626587 0.12146 -0.9926758
vn 0.01626587 0.12146 -0.9926758
vn 0.01626587 0.12146 -0.9926758
vn 0.01626587 0.12146 -0.9926758
vn -0.949707 0.3117676 -0.0340271
vn -0.949707 0.3117676 -0.0340271
vn -0.949707 0.3117676 -0.0340271
vn -0.949707 0.3117676 -0.0340271
vn 0.08551025 0.1459961 0.9853516
vn 0.08551025 0.1459961 0.9853516
vn 0.08551025 0.1459961 0.9853516
vn 0.08551025 0.1459961 0.9853516
vn 0.9487305 0.3164063 -0.008026123
vn 0.9487305 0.3164063 -0.008026123
vn 0.9487305 0.3164063 -0.008026123
vn 0.9487305 0.3164063 -0.008026123
vn -0.04736328 0.1569824 -0.9863281
vn -0.04736328 0.1569824 -0.9863281
vn -0.04736328 0.1569824 -0.9863281
vn -0.04736328 0.1569824 -0.9863281
vn -0.9125977 0.4023438 -0.07330322
vn -0.9125977 0.4023438 -0.07330322
vn -0.9125977 0.4023438 -0.07330322
vn -0.9125977 0.4023438 -0.07330322
vn 0 0.2255859 0.9741211
vn 0 0.2255859 0.9741211
vn 0 0.2255859 0.9741211
vn 0 0.2255859 0.9741211
vn 0.9111328 0.4116211 0.01550293
vn 0.9111328 0.4116211 0.01550293
vn 0.9111328 0.4116211 0.01550293
vn 0.9111328 0.4116211 0.01550293
vn 0.02920532 0.2492676 -0.9677734
vn 0.02920532 0.2492676 -0.9677734
vn 0.02920532 0.2492676 -0.9677734
vn 0.02920532 0.2492676 -0.9677734
vn -0.8408203 0.5410156 0.009307861
vn -0.8408203 0.5410156 0.009307861
vn -0.8408203 0.5410156 0.009307861
vn -0.8408203 0.5410156 0.009307861
vn 0.03753662 0.2915039 0.9560547
vn 0.03753662 0.2915039 0.9560547
vn 0.03753662 0.2915039 0.9560547
vn 0.03753662 0.2915039 0.9560547
vn 0.84375 0.5351563 0.04559326
vn 0.84375 0.5351563 0.04559326
vn 0.84375 0.5351563 0.04559326
vn 0.84375 0.5351563 0.04559326
vn 0 0.1566162 -0.987793
vn 0 0.1566162 -0.987793
vn 0 0.1566162 -0.987793
vn 0 0.1566162 -0.987793
vn -0.9326172 0.361084 -0.008750916
vn -0.9326172 0.361084 -0.008750916
vn -0.9326172 0.361084 -0.008750916
vn -0.9326172 0.361084 -0.008750916
vn -0.03744507 0.1900635 0.980957
vn -0.03744507 0.1900635 0.980957
vn -0.03744507 0.1900635 0.980957
vn -0.03744507 0.1900635 0.980957
vn 0.9335938 0.3566895 -0.03329468
vn 0.9335938 0.3566895 -0.03329468
vn 0.9335938 0.3566895 -0.03329468
vn 0.9335938 0.3566895 -0.03329468
vn -0.08435059 0.1783447 -0.9804688
vn -0.08435059 0.1783447 -0.9804688
vn -0.08435059 0.1783447 -0.9804688
vn -0.08435059 0.1783447 -0.9804688
vn -0.9052734 0.4250488 -0.01029968
vn -0.9052734 0.4250488 -0.01029968
vn -0.9052734 0.4250488 -0.01029968
vn -0.9052734 0.4250488 -0.01029968
vn 0 0.2636719 0.9643555
vn 0 0.2636719 0.9643555
vn 0 0.2636719 0.9643555
vn 0 0.2636719 0.9643555
vn 0.9052734 0.4250488 -0.01013947
vn 0.9052734 0.4250488 -0.01013947
vn 0.9052734 0.4250488 -0.01013947
vn 0.9052734 0.4250488 -0.01013947
vn 0 0.1359863 -0.9907227
vn 0 0.1359863 -0.9907227
vn 0 0.1359863 -0.9907227
vn 0 0.1359863 -0.9907227
vn -0.9384766 0.3447266 -0.008354187
vn -0.9384766 0.3447266 -0.008354187
vn -0.9384766 0.3447266 -0.008354187
vn -0.9384766 0.3447266 -0.008354187
vn 0 0.1837158 0.9829102
vn 0 0.1837158 0.9829102
vn 0 0.1837158 0.9829102
vn 0 0.1837158 0.9829102
vn 0.9384766 0.3447266 -0.008354187
vn 0.9384766 0.3447266 -0.008354187
vn 0.9384766 0.3447266 -0.008354187
vn 0.9384766 0.3447266 -0.008354187
vn -0.03842163 0.1420898 -0.9892578
vn -0.03842163 0.1420898 -0.9892578
vn -0.03842163 0.1420898 -0.9892578
vn -0.03842163 0.1420898 -0.9892578
vn -0.9238281 0.3813477 -0.03845215
vn -0.9238281 0.3813477 -0.03845215
vn -0.9238281 0.3813477 -0.03845215
vn -0.9238281 0.3813477 -0.03845215
vn 0 0.2055664 0.9785156
vn 0 0.2055664 0.9785156
vn 0 0.2055664 0.9785156
vn 0 0.2055664 0.9785156
vn 0.9223633 0.3867188 -0.009368896
vn 0.9223633 0.3867188 -0.009368896
vn 0.9223633 0.3867188 -0.009368896
vn 0.9223633 0.3867188 -0.009368896
vn 0.03726196 0.1702881 -0.9848633
vn 0.03726196 0.1702881 -0.9848633
vn 0.03726196 0.1702881 -0.9848633
vn 0.03726196 0.1702881 -0.9848633
vn -0.8950195 0.4458008 -0.01080322
vn -0.8950195 0.4458008 -0.01080322
vn -0.8950195 0.4458008 -0.01080322
vn -0.8950195 0.4458008 -0.01080322
vn 0 0.2354736 0.9716797
vn 0 0.2354736 0.9716797
vn 0 0.2354736 0.9716797
vn 0 0.2354736 0.9716797
vn 0.8964844 0.4423828 0.0174408
vn 0.8964844 0.4423828 0.0174408
vn 0.8964844 0.4423828 0.0174408
vn 0.8964844 0.4423828 0.0174408
vn -0.871582 0.487793 0.0484314
vn -0.871582 0.487793 0.0484314
vn -0.8759766 0.4814453 0.02513123
vn -0.8759766 0.4814453 0.02513123
vn -0.8803711 0.4743652 -0.00479126
vn -0.8803711 0.4743652 -0.00479126
vn -0.8803711 0.4741211 -0.01148224
vn -0.8803711 0.4741211 -0.01148224
vn -0.8803711 0.4741211 -0.01156616
vn -0.8803711 0.4741211 -0.01156616
vn 0.8842773 0.4660645 -0.02630615
vn 0.8842773 0.4660645 -0.02630615
vn 0.8862305 0.4619141 -0.04122925
vn 0.8862305 0.4619141 -0.04122925
vn 0.8823242 0.4702148 -0.01139832
vn 0.8823242 0.4702148 -0.01139832
vn 0.8823242 0.4702148 -0.01139832
vn 0.8823242 0.4702148 -0.01139832
vn 0.8823242 0.4702148 -0.01139832
vn 0.8823242 0.4702148 -0.01139832
vn 0 0.4643555 -0.8857422
vn 0 0.4643555 -0.8857422
vn 0 0.4643555 -0.8857422
vn 0 0.4643555 -0.8857422
vn 0 0.4643555 -0.8857422
vn 0 0.4643555 -0.8857422
vn 0 0.4643555 -0.8857422
vn 0 0.4643555 -0.8857422
vn 0 0.4643555 -0.8857422
vn 0 0.4643555 -0.8857422
vn 0.01652527 0.4938965 0.8696289
vn 0.01652527 0.4938965 0.8696289
vn 0.03305054 0.4912109 0.8706055
vn 0.03305054 0.4912109 0.8706055
vn 0 0.4963379 0.8681641
vn 0 0.4963379 0.8681641
vn 0.009506226 0.4975586 0.8671875
vn 0.009506226 0.4975586 0.8671875
vn 0.01901245 0.4987793 0.8666992
vn 0.01901245 0.4987793 0.8666992
vn -4.36902E-05 0.8974609 -0.4411621
vn -0.003671646 0.8974609 -0.4414063
vn -0.003671646 0.8974609 -0.4414063
vn -4.36902E-05 0.8974609 -0.4411621
vn 0.003583908 0.8974609 -0.440918
vn 0.003583908 0.8974609 -0.440918
vn 0 1 0
vn 0 1 0
vn 0 1 0
vn 0 1 0
vn 0 1 0
vn 0 1 0
vn 0 1 0
vn 0 1 0
vn 0 1 0
vn 0 1 0
vn 0 1 0
vn 0 1 0
vn -0.003398895 0.5952148 -0.8037109
vn 0 0.5991211 -0.8007813
vn -0.003398895 0.5952148 -0.8037109
vn 0.001371384 0.9941406 0.1090088
vn 0.001371384 0.9941406 0.1090088
vn 0.001371384 0.9941406 0.1090088
vn 0.001371384 0.9941406 0.1090088
vn -0.02284241 0.6035156 -0.796875
vn -0.02163696 0.6123047 -0.7905273
vn -0.02284241 0.6035156 -0.796875
vn -0.02284241 0.6035156 -0.796875
vn -0.0308075 0.1717529 -0.9848633
vn -0.0009155273 0.1697998 -0.9853516
vn -0.0009155273 0.1697998 -0.9853516
vn -0.0308075 0.1717529 -0.9848633
vn 0.02897644 0.1676025 -0.9853516
vn 0.02897644 0.1676025 -0.9853516
vn 0.005153656 1 -0.006649017
vn 0.005153656 1 -0.006649017
vn 0.005153656 1 -0.006649017
vn 0.005153656 1 -0.006649017
vn -0.001281738 1 0.00150013
vn 0.03457642 0.9995117 0.002384186
vn 0.03457642 0.9995117 0.002384186
vn -0.001922607 1 0.002250671
vn 0 1 0
vn 0.0006637573 0.8354492 -0.5498047
vn 0.0006637573 0.8354492 -0.5498047
vn 0 0.8291016 -0.559082
vn 0.02799988 0.8452148 -0.5332031
vn 0.02799988 0.8452148 -0.5332031
vn 0.05465698 0.8486328 -0.5263672
vn -0.02537537 0.9868164 -0.1601563
vn -0.02537537 0.9868164 -0.1601563
vn -0.02537537 0.9868164 -0.1601563
vn -0.02537537 0.9868164 -0.1601563
vn -0.09295654 0.9072266 -0.4104004
vn -0.09295654 0.9072266 -0.4104004
vn -0.09295654 0.9072266 -0.4104004
vn -0.09295654 0.9072266 -0.4104004
vn 0.1773682 0.2695313 0.9467773
vn 0.1773682 0.2695313 0.9467773
vn 0.1773682 0.2695313 0.9467773
vn 0.1773682 0.2695313 0.9467773
vn 0 1 0
vn 0 1 0
vn 0 1 0
vn 0 1 0
vn 0.3720703 0.6660156 -0.6464844
vn 0.3720703 0.6660156 -0.6464844
vn 0.3720703 0.6660156 -0.6464844
vn 0.3720703 0.6660156 -0.6464844
vn 0.1811523 0.9833984 -0.006767273
vn 0.1811523 0.9833984 -0.006767273
vn 0.1811523 0.9833984 -0.006767273
vn 0.1811523 0.9833984 -0.006767273
vn 0.002283096 1 -0.003118515
vn 0 1 0
vn -0.002902985 1 -0.003955841
vn 0.003425598 1 -0.004676819
vn 0 1 0
vn 0.004695892 0.7226563 -0.6914063
vn -0.007225037 0.7387695 -0.6743164
vn -0.001688957 0.7226563 -0.6914063
vn 0.03457642 0.9995117 0.002384186
vn 0.03543091 0.9995117 -0.001161575
vn 0.03543091 0.9995117 -0.001161575
vn 0.03457642 0.9995117 0.002384186
vn -0.3503418 0.8496094 0.3945313
vn -0.3503418 0.8496094 0.3945313
vn -0.3503418 0.8496094 0.3945313
vn -0.2415771 0.9702148 -0.01496124
vn -0.2415771 0.9702148 -0.01496124
vn -0.2415771 0.9702148 -0.01496124
vn -0.2415771 0.9702148 -0.01496124
vn 0.006851196 1 -0.009353638
vn 0.006851196 1 -0.009353638
vn 0.003425598 1 -0.004676819
vn 0.002283096 1 -0.003118515
vn 0.008407593 0.9750977 0.222168
vn 0.008407593 0.9750977 0.222168
vn 0.008407593 0.9750977 0.222168
vn 0.008407593 0.9750977 0.222168
vn -0.006538391 1 -0.009277344
vn -0.00435257 1 -0.005931854
vn -0.002902985 1 -0.003955841
vn 0.03543091 0.9995117 -0.001161575
vn 0.03543091 0.9995117 -0.001161575
vn 0.3007813 0.784668 -0.5419922
vn 0.3007813 0.784668 -0.5419922
vn 0.3007813 0.784668 -0.5419922
vn 0 1 0
vn 0 1 0
vn 0 1 0
vn 0 1 0
vn -0.02044678 0.2558594 0.9663086
vn -0.02044678 0.2558594 0.9663086
vn -0.02044678 0.2558594 0.9663086
vn -0.02044678 0.2558594 0.9663086
vn -0.03509521 0.9462891 -0.3220215
vn -0.03509521 0.9462891 -0.3220215
vn -0.03710938 0.9472656 -0.3183594
vn -0.03710938 0.9472656 -0.3183594
vn -0.03912354 0.9482422 -0.3149414
vn -0.03912354 0.9482422 -0.3149414
vn -0.3430176 0.9394531 -0.006309509
vn -0.3430176 0.9394531 -0.006309509
vn -0.3430176 0.9394531 -0.006309509
vn -0.3430176 0.9394531 -0.006309509
vn -0.3132324 0.8642578 0.394043
vn -0.3132324 0.8642578 0.394043
vn -0.3132324 0.8642578 0.394043
vn 0 1 0
vn 0 1 0
vn -0.001281738 1 0.00150013
vn 0 1 0
vn 0.004776001 0.543457 -0.8393555
vn 0.004776001 0.543457 -0.8393555
vn -0.00133419 0.5439453 -0.8388672
vn 0.001399994 0.5200195 -0.8540039
vn 0 1 0
vn 0 1 0
vn 0 1 0
vn 0 1 0
vn -0.1661377 0.2727051 0.9477539
vn -0.1661377 0.2727051 0.9477539
vn -0.1661377 0.2727051 0.9477539
vn -0.1661377 0.2727051 0.9477539
vn 0.08728027 0.9072266 -0.4118652
vn 0.08728027 0.9072266 -0.4118652
vn 0.08728027 0.9072266 -0.4118652
vn 0.08728027 0.9072266 -0.4118652
vn 0.01992798 0.9868164 -0.1601563
vn 0.01992798 0.9868164 -0.1601563
vn 0.01992798 0.9868164 -0.1601563
vn 0.01992798 0.9868164 -0.1601563
vn -0.0006804466 0.8354492 -0.5498047
vn 0 0.8291016 -0.559082
vn -0.0006804466 0.8354492 -0.5498047
vn -0.02658081 0.8442383 -0.5351563
vn -0.02658081 0.8442383 -0.5351563
vn -0.05178833 0.8461914 -0.5302734
vn 0.09985352 0.9887695 -0.1124878
vn 0.09985352 0.9887695 -0.1124878
vn 0.09985352 0.9887695 -0.1124878
vn -0.001010895 0.5678711 -0.8232422
vn -0.003398895 0.5952148 -0.8037109
vn -0.003398895 0.5952148 -0.8037109
vn -0.001976013 0.4956055 -0.8686523
vn 0.001399994 0.5200195 -0.8540039
vn 0.001399994 0.5200195 -0.8540039
vn 0 1 0
vn 0 1 0
vn 0 1 0
vn 0.2553711 0.3659668 0.8950195
vn 0.2553711 0.3659668 0.8950195
vn 0.2553711 0.3659668 0.8950195
vn 0.2553711 0.3659668 0.8950195
vn 0.1507568 0.9804688 -0.1275635
vn 0.1507568 0.9804688 -0.1275635
vn 0.1507568 0.9804688 -0.1275635
vn 0.1507568 0.9804688 -0.1275635
vn 0.1185913 0.7553711 -0.6445313
vn 0.1185913 0.7553711 -0.6445313
vn 0.1185913 0.7553711 -0.6445313
vn 0.1185913 0.7553711 -0.6445313
vn -0.007225037 0.7387695 -0.6743164
vn -0.01444244 0.722168 -0.6914063
vn -0.01444244 0.722168 -0.6914063
vn -0.001688957 0.7226563 -0.6914063
vn 0.009384155 0.6889648 -0.7246094
vn 0.004695892 0.7226563 -0.6914063
vn 0.009384155 0.6889648 -0.7246094
vn -0.02012634 0.6679688 -0.7441406
vn -0.02056885 0.6586914 -0.7519531
vn -0.02067566 0.6943359 -0.7192383
vn -0.02067566 0.6943359 -0.7192383
vn -0.02041626 0.6210938 -0.7832031
vn -0.01983643 0.6542969 -0.7558594
vn -0.01921082 0.6860352 -0.7275391
vn -0.01921082 0.6860352 -0.7275391
vn 0.9624023 -0.2142334 0.1657715
vn 0.9624023 -0.2142334 0.1657715
vn 0.9624023 -0.2142334 0.1657715
vn 0.9624023 -0.2142334 0.1657715
vn 0.5244141 0.7387695 -0.423584
vn 0.5244141 0.7387695 -0.423584
vn 0.5244141 0.7387695 -0.423584
vn -0.02648926 0.5166016 -0.855957
vn -0.02648926 0.5166016 -0.855957
vn -0.0003509521 0.5175781 -0.8554688
vn -0.0003509521 0.5175781 -0.8554688
vn 0.02578735 0.5180664 -0.8549805
vn 0.02578735 0.5180664 -0.8549805
vn -0.8935547 0.2099609 0.3972168
vn -0.8935547 0.2099609 0.3972168
vn -0.8935547 0.2099609 0.3972168
vn -0.8935547 0.2099609 0.3972168
vn -0.8857422 -0.2819824 -0.3681641
vn -0.8857422 -0.2819824 -0.3681641
vn -0.8857422 -0.2819824 -0.3681641
vn 0.2973633 0.4733887 0.8291016
vn 0.2973633 0.4733887 0.8291016
vn 0.2973633 0.4733887 0.8291016
vn -0.0001429319 0.2905273 0.9570313
vn -0.0001429319 0.2905273 0.9570313
vn 0.03143311 0.2907715 0.9560547
vn 0.03143311 0.2907715 0.9560547
vn -0.03170776 0.2902832 0.956543
vn -0.03170776 0.2902832 0.956543
vn -0.2995605 0.473877 0.828125
vn -0.2995605 0.473877 0.828125
vn -0.2995605 0.473877 0.828125
vn 0.9516602 0.01670837 0.3061523
vn 0.9516602 0.01670837 0.3061523
vn 0.9526367 -0.02391052 0.3034668
vn 0.9526367 -0.02391052 0.3034668
vn 0.949707 0.05731201 0.3083496
vn 0.949707 0.05731201 0.3083496
vn -0.0001300573 -0.2995605 0.9541016
vn -0.0001300573 -0.2995605 0.9541016
vn 0.03012085 -0.2995605 0.9536133
vn 0.03012085 -0.2995605 0.9536133
vn -0.03038025 -0.2995605 0.9536133
vn -0.03038025 -0.2995605 0.9536133
vn 0.1719971 0.9360352 -0.3076172
vn 0.1719971 0.9360352 -0.3076172
vn 0.1719971 0.9360352 -0.3076172
vn -0.006958008 0.9560547 -0.293457
vn 0.009788513 0.9536133 -0.3010254
vn 0.009788513 0.9536133 -0.3010254
vn -0.006958008 0.9560547 -0.293457
vn 0.02653503 0.9506836 -0.3085938
vn 0.02653503 0.9506836 -0.3085938
vn -0.2145996 0.8969727 -0.3869629
vn -0.2145996 0.8969727 -0.3869629
vn -0.2145996 0.8969727 -0.3869629
vn 0.02540588 -0.001626015 0.9995117
vn 0.02540588 -0.001626015 0.9995117
vn 0.02540588 -0.001626015 0.9995117
vn 0.02540588 -0.001626015 0.9995117
vn -0.08728027 0.02919006 0.9956055
vn -0.08728027 0.02919006 0.9956055
vn -0.08728027 0.02919006 0.9956055
vn -0.08728027 0.02919006 0.9956055
vn -0.7119141 -0.01257324 -0.7021484
vn -0.7119141 -0.01257324 -0.7021484
vn -0.7119141 -0.01257324 -0.7021484
vn -0.7119141 -0.01257324 -0.7021484
vn -0.9824219 -0.1569824 -0.1026001
vn -0.9824219 -0.1569824 -0.1026001
vn -0.9824219 -0.1569824 -0.1026001
vn -0.9824219 -0.1569824 -0.1026001
vn -0.5751953 0.7299805 -0.3693848
vn -0.5751953 0.7299805 -0.3693848
vn -0.5751953 0.7299805 -0.3693848
vn 0.8334961 -0.300293 -0.463623
vn 0.8334961 -0.300293 -0.463623
vn 0.8334961 -0.300293 -0.463623
vn 0 1 0
vn 0 1 0
vn 0 1 0
vn 0 1 0
vn 0.02030945 0.2553711 0.9667969
vn 0.02030945 0.2553711 0.9667969
vn 0.02030945 0.2553711 0.9667969
vn 0.02030945 0.2553711 0.9667969
vn 0.03497314 0.9462891 -0.3212891
vn 0.03497314 0.9462891 -0.3212891
vn 0.03717041 0.9472656 -0.3181152
vn 0.03717041 0.9472656 -0.3181152
vn 0.03936768 0.9482422 -0.3149414
vn 0.03936768 0.9482422 -0.3149414
vn -0.267334 0.3654785 0.8916016
vn -0.267334 0.3654785 0.8916016
vn -0.267334 0.3654785 0.8916016
vn -0.267334 0.3654785 0.8916016
vn -0.1530762 0.9775391 -0.1435547
vn -0.1530762 0.9775391 -0.1435547
vn -0.1530762 0.9775391 -0.1435547
vn -0.1530762 0.9775391 -0.1435547
vn -0.118103 0.7558594 -0.644043
vn -0.118103 0.7558594 -0.644043
vn -0.118103 0.7558594 -0.644043
vn -0.118103 0.7558594 -0.644043
vn -5.584955E-05 -0.9423828 0.3349609
vn -5.584955E-05 -0.9423828 0.3349609
vn 0.01647949 -0.9418945 0.3349609
vn 0.01647949 -0.9418945 0.3349609
vn -0.0165863 -0.9418945 0.3349609
vn -0.0165863 -0.9418945 0.3349609
vn 0.9951172 -0.09771729 -0.008201599
vn 0.9951172 -0.09771729 -0.008201599
vn 0.9951172 -0.09771729 -0.008201599
vn 0.9951172 -0.09771729 -0.008201599
vn -0.9555664 -0.02606201 0.2939453
vn -0.9555664 -0.02606201 0.2939453
vn -0.9555664 -0.02606201 0.2939453
vn -0.9555664 -0.02606201 0.2939453
vn -0.01422119 0.9130859 -0.407959
vn -0.01422119 0.9130859 -0.407959
vn -0.01422119 0.9130859 -0.407959
vn -0.01422119 0.9130859 -0.407959

vt 0.451416 0.4199219
vt 0.451416 0.4199219
vt 0.451416 0.4199219
vt 0.451416 0.4199219
vt 0.451416 0.4199219
vt 0.451416 0.4199219
vt 0.451416 0.4199219
vt 0.451416 0.4199219
vt 0.451416 0.4199219
vt 0.451416 0.4199219
vt 0.451416 0.4199219
vt 0.451416 0.4199219
vt 0.451416 0.4199219
vt 0.451416 0.4199219
vt 0.451416 0.4199219
vt 0.451416 0.4199219
vt 0.451416 0.4199219
vt 0.451416 0.4199219
vt 0.451416 0.4199219
vt 0.451416 0.4199219
vt 0.451416 0.4199219
vt 0.451416 0.4199219
vt 0.451416 0.4199219
vt 0.451416 0.4199219
vt 0.451416 0.4199219
vt 0.451416 0.4199219
vt 0.451416 0.4199219
vt 0.451416 0.4199219
vt 0.451416 0.4199219
vt 0.451416 0.4199219
vt 0.451416 0.4199219
vt 0.451416 0.4199219
vt 0.451416 0.4199219
vt 0.451416 0.4199219
vt 0.451416 0.4199219
vt 0.451416 0.4199219
vt 0.451416 0.4199219
vt 0.451416 0.4199219
vt 0.451416 0.4199219
vt 0.451416 0.4199219
vt 0.451416 0.4199219
vt 0.451416 0.4199219
vt 0.451416 0.4199219
vt 0.451416 0.4199219
vt 0.451416 0.4199219
vt 0.451416 0.4199219
vt 0.451416 0.4199219
vt 0.451416 0.4199219
vt 0.451416 0.4199219
vt 0.451416 0.4199219
vt 0.451416 0.4199219
vt 0.451416 0.4199219
vt 0.451416 0.4199219
vt 0.451416 0.4199219
vt 0.451416 0.4199219
vt 0.451416 0.4199219
vt 0.451416 0.4199219
vt 0.451416 0.4199219
vt 0.451416 0.4199219
vt 0.451416 0.4199219
vt 0.451416 0.4199219
vt 0.451416 0.4199219
vt 0.451416 0.4199219
vt 0.451416 0.4199219
vt 0.451416 0.4199219
vt 0.451416 0.4199219
vt 0.451416 0.4199219
vt 0.451416 0.4199219
vt 0.451416 0.4199219
vt 0.451416 0.4199219
vt 0.451416 0.4199219
vt 0.451416 0.4199219
vt 0.451416 0.4199219
vt 0.451416 0.4199219
vt 0.451416 0.4199219
vt 0.451416 0.4199219
vt 0.451416 0.4199219
vt 0.451416 0.4199219
vt 0.451416 0.4199219
vt 0.451416 0.4199219
vt 0.451416 0.4199219
vt 0.451416 0.4199219
vt 0.451416 0.4199219
vt 0.451416 0.4199219
vt 0.451416 0.4199219
vt 0.451416 0.4199219
vt 0.451416 0.4199219
vt 0.451416 0.4199219
vt 0.451416 0.4199219
vt 0.451416 0.4199219
vt 0.451416 0.4199219
vt 0.451416 0.4199219
vt 0.451416 0.4199219
vt 0.451416 0.4199219
vt 0.451416 0.4199219
vt 0.451416 0.4199219
vt 0.451416 0.4199219
vt 0.451416 0.4199219
vt 0.451416 0.4199219
vt 0.451416 0.4199219
vt 0.451416 0.4199219
vt 0.451416 0.4199219
vt 0.451416 0.4199219
vt 0.451416 0.4199219
vt 0.451416 0.4199219
vt 0.451416 0.4199219
vt 0.451416 0.4199219
vt 0.451416 0.4199219
vt 0.451416 0.4199219
vt 0.451416 0.4199219
vt 0.451416 0.4199219
vt 0.451416 0.4199219
vt 0.451416 0.4199219
vt 0.451416 0.4199219
vt 0.451416 0.4199219
vt 0.451416 0.4199219
vt 0.451416 0.4199219
vt 0.451416 0.4199219
vt 0.451416 0.4199219
vt 0.451416 0.4199219
vt 0.451416 0.4199219
vt 0.451416 0.4199219
vt 0.451416 0.4199219
vt 0.451416 0.4199219
vt 0.451416 0.4199219
vt 0.451416 0.4199219
vt 0.451416 0.4199219
vt 0.451416 0.4199219
vt 0.451416 0.4199219
vt 0.451416 0.4199219
vt 0.451416 0.4199219
vt 0.451416 0.4199219
vt 0.451416 0.4199219
vt 0.451416 0.4199219
vt 0.451416 0.4199219
vt 0.451416 0.4199219
vt 0.451416 0.4199219
vt 0.451416 0.4199219
vt 0.451416 0.4199219
vt 0.451416 0.4199219
vt 0.451416 0.4199219
vt 0.451416 0.4199219
vt 0.451416 0.4199219
vt 0.451416 0.4199219
vt 0.451416 0.4199219
vt 0.451416 0.4199219
vt 0.451416 0.4199219
vt 0.451416 0.4199219
vt 0.451416 0.4199219
vt 0.451416 0.4199219
vt 0.451416 0.4199219
vt 0.451416 0.4199219
vt 0.451416 0.4199219
vt 0.451416 0.4199219
vt 0.451416 0.4199219
vt 0.451416 0.4199219
vt 0.451416 0.4199219
vt 0.451416 0.4199219
vt 0.451416 0.4199219
vt 0.451416 0.4199219
vt 0.451416 0.4199219
vt 0.451416 0.4199219
vt 0.451416 0.4199219
vt 0.451416 0.4199219
vt 0.451416 0.4199219
vt 0.451416 0.4199219
vt 0.451416 0.4199219
vt 0.451416 0.4199219
vt 0.451416 0.4199219
vt 0.451416 0.4199219
vt 0.451416 0.4199219
vt 0.451416 0.4199219
vt 0.451416 0.4199219
vt 0.451416 0.4199219
vt 0.451416 0.4199219
vt 0.451416 0.4199219
vt 0.451416 0.4199219
vt 0.451416 0.4199219
vt 0.451416 0.4199219
vt 0.451416 0.4199219
vt 0.451416 0.4199219
vt 0.451416 0.4199219
vt 0.451416 0.4199219
vt 0.451416 0.4199219
vt 0.451416 0.4199219
vt 0.451416 0.4199219
vt 0.451416 0.4199219
vt 0.451416 0.4199219
vt 0.451416 0.4199219
vt 0.451416 0.4199219
vt 0.451416 0.4199219
vt 0.451416 0.4199219
vt 0.451416 0.4199219
vt 0.451416 0.4199219
vt 0.451416 0.4199219
vt 0.451416 0.4199219
vt 0.451416 0.4199219
vt 0.451416 0.4199219
vt 0.451416 0.4199219
vt 0.451416 0.4199219
vt 0.451416 0.4199219
vt 0.451416 0.4199219
vt 0.451416 0.4199219
vt 0.451416 0.4199219
vt 0.451416 0.4199219
vt 0.451416 0.4199219
vt 0.451416 0.4199219
vt 0.451416 0.4199219
vt 0.451416 0.4199219
vt 0.451416 0.4199219
vt 0.451416 0.4199219
vt 0.451416 0.4199219
vt 0.451416 0.4199219
vt 0.451416 0.4199219
vt 0.451416 0.4199219
vt 0.451416 0.4199219
vt 0.451416 0.4199219
vt 0.451416 0.4199219
vt 0.451416 0.4199219
vt 0.451416 0.4199219
vt 0.451416 0.4199219
vt 0.451416 0.4199219
vt 0.451416 0.4199219
vt 0.451416 0.4199219
vt 0.451416 0.4199219
vt 0.451416 0.4199219
vt 0.451416 0.4199219
vt 0.451416 0.4199219
vt 0.451416 0.4199219
vt 0.451416 0.4199219
vt 0.451416 0.4199219
vt 0.451416 0.4199219
vt 0.451416 0.4199219
vt 0.451416 0.4199219
vt 0.451416 0.4199219
vt 0.451416 0.4199219
vt 0.451416 0.4199219
vt 0.451416 0.4199219
vt 0.451416 0.4199219
vt 0.451416 0.4199219
vt 0.451416 0.4199219
vt 0.451416 0.4199219
vt 0.451416 0.4199219
vt 0.451416 0.4199219
vt 0.451416 0.4199219
vt 0.451416 0.4199219
vt 0.451416 0.4199219
vt 0.451416 0.4199219
vt 0.451416 0.4199219
vt 0.451416 0.4199219
vt 0.451416 0.4199219
vt 0.451416 0.4199219
vt 0.451416 0.4199219
vt 0.451416 0.4199219
vt 0.451416 0.4199219
vt 0.451416 0.4199219
vt 0.451416 0.4199219
vt 0.451416 0.4199219
vt 0.451416 0.4199219
vt 0.451416 0.4199219
vt 0.451416 0.4199219
vt 0.451416 0.4199219
vt 0.451416 0.4199219
vt 0.451416 0.4199219
vt 0.451416 0.4199219
vt 0.451416 0.4199219
vt 0.451416 0.4199219
vt 0.451416 0.4199219
vt 0.451416 0.4199219
vt 0.451416 0.4199219
vt 0.451416 0.4199219
vt 0.451416 0.4199219
vt 0.451416 0.4199219
vt 0.451416 0.4199219
vt 0.451416 0.4199219
vt 0.451416 0.4199219
vt 0.451416 0.4199219
vt 0.451416 0.4199219
vt 0.451416 0.4199219
vt 0.451416 0.4199219
vt 0.451416 0.4199219
vt 0.451416 0.4199219
vt 0.451416 0.4199219
vt 0.451416 0.4199219
vt 0.451416 0.4199219
vt 0.451416 0.4199219
vt 0.451416 0.4199219
vt 0.451416 0.4199219
vt 0.451416 0.4199219
vt 0.451416 0.4199219
vt 0.451416 0.4199219
vt 0.451416 0.4199219
vt 0.451416 0.4199219
vt 0.451416 0.4199219
vt 0.451416 0.4199219
vt 0.451416 0.4199219
vt 0.451416 0.4199219
vt 0.451416 0.4199219
vt 0.451416 0.4199219
vt 0.451416 0.4199219
vt 0.451416 0.4199219
vt 0.451416 0.4199219
vt 0.451416 0.4199219
vt 0.451416 0.4199219
vt 0.451416 0.4199219
vt 0.451416 0.4199219
vt 0.451416 0.4199219
vt 0.451416 0.4199219
vt 0.451416 0.4199219
vt 0.451416 0.4199219
vt 0.451416 0.4199219
vt 0.451416 0.4199219
vt 0.451416 0.4199219
vt 0.451416 0.4199219
vt 0.451416 0.4199219
vt 0.451416 0.4199219
vt 0.451416 0.4199219
vt 0.451416 0.4199219
vt 0.451416 0.4199219
vt 0.451416 0.4199219
vt 0.451416 0.4199219
vt 0.451416 0.4199219
vt 0.451416 0.4199219
vt 0.451416 0.4199219
vt 0.451416 0.4199219
vt 0.451416 0.4199219
vt 0.451416 0.4199219
vt 0.451416 0.4199219
vt 0.451416 0.4199219
vt 0.451416 0.4199219
vt 0.451416 0.4199219
vt 0.451416 0.4199219
vt 0.451416 0.4199219
vt 0.451416 0.4199219
vt 0.451416 0.4199219
vt 0.451416 0.4199219
vt 0.451416 0.4199219
vt 0.451416 0.4199219
vt 0.451416 0.4199219
vt 0.451416 0.4199219
vt 0.451416 0.4199219
vt 0.451416 0.4199219
vt 0.451416 0.4199219
vt 0.451416 0.4199219
vt 0.451416 0.4199219
vt 0.451416 0.4199219
vt 0.451416 0.4199219
vt 0.451416 0.4199219
vt 0.451416 0.4199219
vt 0.451416 0.4199219
vt 0.451416 0.4199219
vt 0.451416 0.4199219
vt 0.451416 0.4199219
vt 0.451416 0.4199219
vt 0.451416 0.4199219
vt 0.451416 0.4199219
vt 0.451416 0.4199219
vt 0.451416 0.4199219
vt 0.451416 0.4199219
vt 0.451416 0.4199219
vt 0.451416 0.4199219
vt 0.451416 0.4199219
vt 0.451416 0.4199219
vt 0.451416 0.4199219
vt 0.451416 0.4199219
vt 0.451416 0.4199219
vt 0.451416 0.4199219
vt 0.451416 0.4199219
vt 0.451416 0.4199219
vt 0.451416 0.4199219
vt 0.451416 0.4199219
vt 0.451416 0.4199219
vt 0.451416 0.4199219
vt 0.451416 0.4199219
vt 0.451416 0.4199219
vt 0.451416 0.4199219
vt 0.451416 0.4199219
vt 0.451416 0.4199219
vt 0.451416 0.4199219
vt 0.451416 0.4199219
vt 0.451416 0.4199219
vt 0.451416 0.4199219
vt 0.451416 0.4199219
vt 0.451416 0.4199219
vt 0.451416 0.4199219
vt 0.06530762 0.2111816
vt 0.06530762 0.2111816
vt 0.06530762 0.2111816
vt 0.06530762 0.2111816
vt 0.06530762 0.2111816
vt 0.06530762 0.2111816
vt 0.1027222 0.355957
vt 0.1027222 0.355957
vt 0.1027222 0.355957
vt 0.1027222 0.355957
vt 0.1027222 0.355957
vt 0.1027222 0.355957
vt 0.1027222 0.355957
vt 0.1027222 0.355957
vt 0.1027222 0.355957
vt 0.1027222 0.355957
vt 0.1027222 0.355957
vt 0.1027222 0.355957
vt 0.1027222 0.355957
vt 0.1027222 0.355957
vt 0.1027222 0.355957
vt 0.1027222 0.2993164
vt 0.1027222 0.2993164
vt 0.1027222 0.2993164
vt 0.1027222 0.2993164
vt 0.1027222 0.355957
vt 0.1027222 0.355957
vt 0.1027222 0.355957
vt 0.1027222 0.355957
vt 0.1027222 0.355957
vt 0.1027222 0.355957
vt 0.1027222 0.355957
vt 0.1027222 0.355957
vt 0.1027222 0.355957
vt 0.1027222 0.355957
vt 0.1022949 0.3276367
vt 0.1022949 0.3276367
vt 0.1022949 0.3276367
vt 0.1022949 0.3276367
vt 0.1022949 0.3276367
vt 0.1022949 0.3276367
vt 0.1022949 0.3276367
vt 0.1022949 0.3276367
vt 0.1022949 0.3276367
vt 0.06530762 0.2111816
vt 0.06530762 0.2111816
vt 0.06530762 0.2111816
vt 0.06530762 0.2111816
vt 0.06530762 0.2111816
vt 0.06530762 0.2111816
vt 0.102478 0.2792969
vt 0.102478 0.2792969
vt 0.102478 0.2792969
vt 0.102478 0.2792969
vt 0.102478 0.2792969
vt 0.102478 0.2792969
vt 0.102478 0.2792969
vt 0.102478 0.2792969
vt 0.102478 0.2792969
vt 0.102478 0.2792969
vt 0.102478 0.2792969
vt 0.102478 0.2792969
vt 0.102478 0.2792969
vt 0.102478 0.2792969
vt 0.102478 0.2792969
vt 0.102478 0.2792969
vt 0.102478 0.2792969
vt 0.102478 0.2792969
vt 0.102478 0.2792969
vt 0.102478 0.2792969
vt 0.1027222 0.2993164
vt 0.1027222 0.2993164
vt 0.1027222 0.2993164
vt 0.1027222 0.2993164
vt 0.1027222 0.2993164
vt 0.1027222 0.2993164
vt 0.1027222 0.2993164
vt 0.1027222 0.2993164
vt 0.1027222 0.2993164
vt 0.1030884 0.3500977
vt 0.1030884 0.3500977
vt 0.1030884 0.3500977
vt 0.1027222 0.2993164
vt 0.1027222 0.2993164
vt 0.1027222 0.2993164
vt 0.1027222 0.2993164
vt 0.1027222 0.2993164
vt 0.1027222 0.2993164
vt 0.1027222 0.2993164
vt 0.1027222 0.2993164
vt 0.1027222 0.2993164
vt 0.1027222 0.2993164
vt 0.1027222 0.2993164
vt 0.1022949 0.3276367
vt 0.1022949 0.3276367
vt 0.1022949 0.3276367
vt 0.1022949 0.3276367
vt 0.1027222 0.2993164
vt 0.1027222 0.2993164
vt 0.1027222 0.2993164
vt 0.1027222 0.2993164
vt 0.1022949 0.3276367
vt 0.1022949 0.3276367
vt 0.1022949 0.3276367
vt 0.1022949 0.3276367
vt 0.1022949 0.3276367
vt 0.1032715 0.3010254
vt 0.1032715 0.3010254
vt 0.1032715 0.3010254
vt 0.1021729 0.3076172
vt 0.1021729 0.3076172
vt 0.1021729 0.3076172
vt 0.1021729 0.3076172
vt 0.1021729 0.3076172
vt 0.1021729 0.3076172
vt 0.1021729 0.3076172
vt 0.1021729 0.3076172
vt 0.1021729 0.3076172
vt 0.1021729 0.3076172
vt 0.1021729 0.3076172
vt 0.1021729 0.3076172
vt 0.1021729 0.3076172
vt 0.1021729 0.3076172
vt 0.1027222 0.2993164
vt 0.1027222 0.2993164
vt 0.1027222 0.2993164
vt 0.1027222 0.2993164
vt 0.1027222 0.2993164
vt 0.1027222 0.2993164
vt 0.1027222 0.2993164
vt 0.1027222 0.2993164
vt 0.1027222 0.2993164
vt 0.1027222 0.2993164
vt 0.1027222 0.2993164
vt 0.102478 0.2792969
vt 0.102478 0.2792969
vt 0.102478 0.2792969
vt 0.102478 0.2792969
vt 0.102478 0.2792969
vt 0.102478 0.2792969
vt 0.102478 0.2792969
vt 0.102478 0.2792969
vt 0.102478 0.2792969
vt 0.102478 0.2792969
vt 0.102478 0.2792969
vt 0.102478 0.2792969
vt 0.102478 0.2792969
vt 0.102478 0.2792969
vt 0.102478 0.2792969
vt 0.102478 0.2792969
vt 0.102478 0.2792969
vt 0.102478 0.2792969
vt 0.102478 0.2792969
vt 0.102478 0.2792969
vt 0.06530762 0.2111816
vt 0.06530762 0.2111816
vt 0.06530762 0.2111816
vt 0.06530762 0.2111816
vt 0.06530762 0.2111816
vt 0.06530762 0.2111816
vt 0.1027222 0.2993164
vt 0.1027222 0.2993164
vt 0.1027222 0.2993164
vt 0.1032715 0.3010254
vt 0.1032715 0.3010254
vt 0.1032715 0.3010254
vt 0.1032715 0.3010254
vt 0.1032715 0.3010254
vt 0.1032715 0.3010254
vt 0.1032715 0.3010254
vt 0.1032715 0.3010254
vt 0.1032715 0.3010254
vt 0.1027222 0.355957
vt 0.1027222 0.355957
vt 0.1027222 0.355957
vt 0.1027222 0.355957
vt 0.1027222 0.355957
vt 0.1027222 0.355957
vt 0.1027222 0.355957
vt 0.1027222 0.355957
vt 0.1027222 0.355957
vt 0.1027222 0.355957
vt 0.1027222 0.355957
vt 0.1027222 0.355957
vt 0.1027222 0.355957
vt 0.1027222 0.355957
vt 0.1027222 0.355957
vt 0.1027222 0.355957
vt 0.1027222 0.355957
vt 0.1027222 0.355957
vt 0.1027222 0.355957
vt 0.1027222 0.355957
vt 0.1027222 0.355957
vt 0.1027222 0.355957
vt 0.1027222 0.355957
vt 0.1027222 0.355957
vt 0.1027222 0.355957
vt 0.1027222 0.355957
vt 0.1027222 0.355957
vt 0.1027222 0.355957
vt 0.1027222 0.355957
vt 0.1027222 0.355957
vt 0.1027222 0.355957
vt 0.1027222 0.355957
vt 0.1027222 0.355957
vt 0.1027222 0.355957
vt 0.1027222 0.355957
vt 0.1027222 0.355957
vt 0.1027222 0.355957
vt 0.1027222 0.355957
vt 0.1027222 0.355957
vt 0.1027222 0.355957
vt 0.1027222 0.355957
vt 0.1027222 0.355957
vt 0.1027222 0.355957
vt 0.1027222 0.355957
vt 0.1027222 0.355957
vt 0.1027222 0.355957
vt 0.1027222 0.355957
vt 0.1027222 0.355957
vt 0.1027222 0.355957
vt 0.1027222 0.355957
vt 0.1027222 0.355957
vt 0.1027222 0.355957
vt 0.1027222 0.355957
vt 0.1027222 0.355957
vt 0.1027222 0.355957
vt 0.1027222 0.355957
vt 0.1027222 0.355957
vt 0.1027222 0.355957
vt 0.1027222 0.355957
vt 0.1027222 0.355957
vt 0.1027222 0.355957
vt 0.1027222 0.355957
vt 0.1027222 0.355957
vt 0.1027222 0.355957
vt 0.1027222 0.355957
vt 0.1027222 0.355957
vt 0.1027222 0.355957
vt 0.1027222 0.355957
vt 0.1027222 0.355957
vt 0.1027222 0.355957
vt 0.1027222 0.355957
vt 0.1027222 0.355957
vt 0.1027222 0.355957
vt 0.1027222 0.355957
vt 0.1027222 0.355957
vt 0.1027222 0.355957
vt 0.1027222 0.355957
vt 0.1027222 0.355957
vt 0.1027222 0.355957
vt 0.1027222 0.355957
vt 0.1027222 0.355957
vt 0.1027222 0.355957
vt 0.1027222 0.355957
vt 0.1027222 0.355957
vt 0.1027222 0.355957
vt 0.1027222 0.355957
vt 0.1027222 0.355957
vt 0.1027222 0.355957
vt 0.1027222 0.355957
vt 0.1027222 0.355957
vt 0.1027222 0.355957
vt 0.1027222 0.355957
vt 0.1027222 0.355957
vt 0.1027222 0.355957
vt 0.1027222 0.355957
vt 0.1027222 0.355957
vt 0.1027222 0.355957
vt 0.1027222 0.355957
vt 0.1027222 0.355957
vt 0.1027222 0.355957
vt 0.1027222 0.355957
vt 0.1027222 0.355957
vt 0.1027222 0.355957
vt 0.1027222 0.355957
vt 0.1027222 0.355957
vt 0.1021118 0.3000488
vt 0.1021118 0.3000488
vt 0.1021118 0.3000488
vt 0.1021118 0.3000488
vt 0.1021118 0.3000488
vt 0.1021118 0.3000488
vt 0.1021118 0.3000488
vt 0.1021118 0.3000488
vt 0.1021118 0.3000488
vt 0.1021118 0.3000488
vt 0.1021118 0.3000488
vt 0.1021118 0.3000488
vt 0.1021118 0.3000488
vt 0.1021118 0.3000488
vt 0.1027222 0.355957
vt 0.1027222 0.355957
vt 0.1027222 0.355957
vt 0.1027222 0.355957
vt 0.1027222 0.355957
vt 0.1027222 0.355957
vt 0.1027222 0.355957
vt 0.1027222 0.355957
vt 0.1027222 0.355957
vt 0.1027222 0.355957
vt 0.1027222 0.355957
vt 0.1027222 0.355957
vt 0.1027222 0.355957
vt 0.1027222 0.355957
vt 0.1027222 0.355957
vt 0.1027222 0.355957
vt 0.1027222 0.355957
vt 0.1027222 0.355957
vt 0.1027222 0.355957
vt 0.1027222 0.355957
vt 0.1027222 0.355957
vt 0.1027222 0.355957
vt 0.1027222 0.355957
vt 0.1027222 0.355957
vt 0.1027222 0.355957
vt 0.1027222 0.355957
vt 0.1032715 0.3010254
vt 0.1032715 0.3010254
vt 0.1032715 0.3010254
vt 0.1032715 0.3010254

g SM_Env_Sidewalk_Gutter_01_336_1
usemtl SM_Env_Sidewalk_Gutter_01_336_1
usemap SM_Env_Sidewalk_Gutter_01_336_1
f 1/1/1 3/3/3 2/2/2
f 1/1/1 4/4/4 3/3/3
f 4/4/4 5/5/5 3/3/3
f 4/4/4 6/6/6 5/5/5
f 6/6/6 7/7/7 5/5/5
f 6/6/6 8/8/8 7/7/7
f 8/8/8 2/2/2 7/7/7
f 8/8/8 1/1/1 2/2/2
f 6/6/6 4/4/4 9/9/9
f 4/4/4 10/10/10 9/9/9
f 4/4/4 11/11/11 10/10/10
f 11/11/11 12/12/12 10/10/10
f 11/11/11 13/13/13 12/12/12
f 13/13/13 14/14/14 12/12/12
f 13/13/13 6/6/6 14/14/14
f 6/6/6 9/9/9 14/14/14
f 13/13/13 11/11/11 15/15/15
f 11/11/11 16/16/16 15/15/15
f 11/11/11 17/17/17 16/16/16
f 17/17/17 18/18/18 16/16/16
f 17/17/17 19/19/19 18/18/18
f 19/19/19 20/20/20 18/18/18
f 19/19/19 13/13/13 20/20/20
f 13/13/13 15/15/15 20/20/20
f 19/19/19 17/17/17 21/21/21
f 17/17/17 22/22/22 21/21/21
f 17/17/17 23/23/23 22/22/22
f 23/23/23 24/24/24 22/22/22
f 23/23/23 25/25/25 24/24/24
f 25/25/25 26/26/26 24/24/24
f 25/25/25 19/19/19 26/26/26
f 19/19/19 21/21/21 26/26/26
f 13/13/13 19/19/19 27/27/27
f 13/13/13 27/27/27 28/28/28
f 19/19/19 29/29/29 27/27/27
f 19/19/19 30/30/30 29/29/29
f 30/30/30 31/31/31 29/29/29
f 30/30/30 32/32/32 31/31/31
f 32/32/32 28/28/28 31/31/31
f 32/32/32 13/13/13 28/28/28
f 13/13/13 32/32/32 33/33/33
f 13/13/13 33/33/33 34/34/34
f 6/6/6 13/13/13 34/34/34
f 6/6/6 34/34/34 35/35/35
f 32/32/32 36/36/36 33/33/33
f 32/32/32 37/37/37 36/36/36
f 37/37/37 35/35/35 36/36/36
f 37/37/37 6/6/6 35/35/35
f 6/6/6 37/37/37 38/38/38
f 6/6/6 38/38/38 39/39/39
f 8/8/8 6/6/6 39/39/39
f 8/8/8 39/39/39 40/40/40
f 37/37/37 41/41/41 38/38/38
f 37/37/37 42/42/42 41/41/41
f 42/42/42 40/40/40 41/41/41
f 42/42/42 8/8/8 40/40/40
f 42/42/42 37/37/37 43/43/43
f 42/42/42 43/43/43 44/44/44
f 37/37/37 45/45/45 43/43/43
f 37/37/37 46/46/46 45/45/45
f 46/46/46 47/47/47 45/45/45
f 46/46/46 48/48/48 47/47/47
f 48/48/48 44/44/44 47/47/47
f 48/48/48 42/42/42 44/44/44
f 46/46/46 37/37/37 49/49/49
f 37/37/37 50/50/50 49/49/49
f 37/37/37 32/32/32 50/50/50
f 32/32/32 51/51/51 50/50/50
f 32/32/32 52/52/52 51/51/51
f 52/52/52 53/53/53 51/51/51
f 52/52/52 46/46/46 53/53/53
f 46/46/46 49/49/49 53/53/53
f 52/52/52 32/32/32 54/54/54
f 32/32/32 55/55/55 54/54/54
f 32/32/32 30/30/30 55/55/55
f 30/30/30 56/56/56 55/55/55
f 30/30/30 57/57/57 56/56/56
f 57/57/57 58/58/58 56/56/56
f 57/57/57 52/52/52 58/58/58
f 52/52/52 54/54/54 58/58/58
f 57/57/57 30/30/30 59/59/59
f 30/30/30 60/60/60 59/59/59
f 30/30/30 61/61/61 60/60/60
f 61/61/61 30/30/30 62/62/62
f 61/61/61 62/62/62 63/63/63
f 25/25/25 61/61/61 63/63/63
f 25/25/25 63/63/63 64/64/64
f 19/19/19 25/25/25 64/64/64
f 19/19/19 64/64/64 65/65/65
f 30/30/30 65/65/65 62/62/62
f 30/30/30 19/19/19 65/65/65
f 61/61/61 66/66/66 60/60/60
f 61/61/61 67/67/67 66/66/66
f 67/67/67 68/68/68 66/66/66
f 67/67/67 57/57/57 68/68/68
f 57/57/57 59/59/59 68/68/68
f 57/57/57 67/67/67 69/69/69
f 57/57/57 69/69/69 70/70/70
f 67/67/67 71/71/71 69/69/69
f 67/67/67 72/72/72 71/71/71
f 72/72/72 73/73/73 71/71/71
f 72/72/72 74/74/74 73/73/73
f 74/74/74 70/70/70 73/73/73
f 74/74/74 57/57/57 70/70/70
f 57/57/57 74/74/74 75/75/75
f 57/57/57 75/75/75 76/76/76
f 52/52/52 57/57/57 76/76/76
f 52/52/52 76/76/76 77/77/77
f 74/74/74 78/78/78 75/75/75
f 74/74/74 79/79/79 78/78/78
f 79/79/79 77/77/77 78/78/78
f 79/79/79 52/52/52 77/77/77
f 52/52/52 79/79/79 80/80/80
f 52/52/52 80/80/80 81/81/81
f 46/46/46 52/52/52 81/81/81
f 46/46/46 81/81/81 82/82/82
f 79/79/79 83/83/83 80/80/80
f 79/79/79 84/84/84 83/83/83
f 84/84/84 82/82/82 83/83/83
f 84/84/84 46/46/46 82/82/82
f 46/46/46 84/84/84 85/85/85
f 46/46/46 85/85/85 86/86/86
f 48/48/48 46/46/46 86/86/86
f 48/48/48 86/86/86 87/87/87
f 84/84/84 88/88/88 85/85/85
f 84/84/84 89/89/89 88/88/88
f 89/89/89 87/87/87 88/88/88
f 89/89/89 48/48/48 87/87/87
f 90/90/90 92/92/92 91/91/91
f 90/90/90 93/93/93 92/92/92
f 94/94/94 96/96/96 95/95/95
f 94/94/94 97/97/97 96/96/96
f 98/98/98 100/100/100 99/99/99
f 98/98/98 101/101/101 100/100/100
f 102/102/102 104/104/104 103/103/103
f 102/102/102 105/105/105 104/104/104
f 106/106/106 108/108/108 107/107/107
f 106/106/106 109/109/109 108/108/108
f 110/110/110 112/112/112 111/111/111
f 110/110/110 113/113/113 112/112/112
f 114/114/114 116/116/116 115/115/115
f 114/114/114 117/117/117 116/116/116
f 118/118/118 120/120/120 119/119/119
f 118/118/118 121/121/121 120/120/120
f 122/122/122 124/124/124 123/123/123
f 122/122/122 125/125/125 124/124/124
f 126/126/126 128/128/128 127/127/127
f 126/126/126 129/129/129 128/128/128
f 130/130/130 132/132/132 131/131/131
f 130/130/130 133/133/133 132/132/132
f 134/134/134 136/136/136 135/135/135
f 134/134/134 137/137/137 136/136/136
f 138/138/138 140/140/140 139/139/139
f 138/138/138 141/141/141 140/140/140
f 142/142/142 144/144/144 143/143/143
f 142/142/142 145/145/145 144/144/144
f 146/146/146 148/148/148 147/147/147
f 146/146/146 149/149/149 148/148/148
f 150/150/150 152/152/152 151/151/151
f 150/150/150 153/153/153 152/152/152
f 154/154/154 156/156/156 155/155/155
f 154/154/154 157/157/157 156/156/156
f 158/158/158 160/160/160 159/159/159
f 158/158/158 161/161/161 160/160/160
f 162/162/162 164/164/164 163/163/163
f 162/162/162 165/165/165 164/164/164
f 166/166/166 168/168/168 167/167/167
f 166/166/166 169/169/169 168/168/168
f 170/170/170 172/172/172 171/171/171
f 170/170/170 173/173/173 172/172/172
f 174/174/174 176/176/176 175/175/175
f 174/174/174 177/177/177 176/176/176
f 178/178/178 180/180/180 179/179/179
f 178/178/178 181/181/181 180/180/180
f 182/182/182 184/184/184 183/183/183
f 182/182/182 185/185/185 184/184/184
f 186/186/186 188/188/188 187/187/187
f 186/186/186 189/189/189 188/188/188
f 190/190/190 192/192/192 191/191/191
f 190/190/190 193/193/193 192/192/192
f 194/194/194 196/196/196 195/195/195
f 194/194/194 197/197/197 196/196/196
f 198/198/198 200/200/200 199/199/199
f 198/198/198 201/201/201 200/200/200
f 202/202/202 204/204/204 203/203/203
f 202/202/202 205/205/205 204/204/204
f 206/206/206 208/208/208 207/207/207
f 206/206/206 209/209/209 208/208/208
f 210/210/210 212/212/212 211/211/211
f 210/210/210 213/213/213 212/212/212
f 214/214/214 216/216/216 215/215/215
f 214/214/214 217/217/217 216/216/216
f 218/218/218 220/220/220 219/219/219
f 218/218/218 221/221/221 220/220/220
f 222/222/222 224/224/224 223/223/223
f 222/222/222 225/225/225 224/224/224
f 226/226/226 228/228/228 227/227/227
f 226/226/226 229/229/229 228/228/228
f 230/230/230 232/232/232 231/231/231
f 230/230/230 233/233/233 232/232/232
f 234/234/234 236/236/236 235/235/235
f 234/234/234 237/237/237 236/236/236
f 238/238/238 240/240/240 239/239/239
f 238/238/238 241/241/241 240/240/240
f 242/242/242 244/244/244 243/243/243
f 242/242/242 245/245/245 244/244/244
f 246/246/246 248/248/248 247/247/247
f 246/246/246 249/249/249 248/248/248
f 250/250/250 252/252/252 251/251/251
f 250/250/250 253/253/253 252/252/252
f 254/254/254 256/256/256 255/255/255
f 254/254/254 257/257/257 256/256/256
f 258/258/258 260/260/260 259/259/259
f 258/258/258 261/261/261 260/260/260
f 262/262/262 264/264/264 263/263/263
f 262/262/262 265/265/265 264/264/264
f 266/266/266 268/268/268 267/267/267
f 266/266/266 269/269/269 268/268/268
f 270/270/270 272/272/272 271/271/271
f 270/270/270 273/273/273 272/272/272
f 274/274/274 276/276/276 275/275/275
f 274/274/274 277/277/277 276/276/276
f 278/278/278 280/280/280 279/279/279
f 278/278/278 281/281/281 280/280/280
f 282/282/282 284/284/284 283/283/283
f 282/282/282 285/285/285 284/284/284
f 286/286/286 288/288/288 287/287/287
f 286/286/286 289/289/289 288/288/288
f 290/290/290 292/292/292 291/291/291
f 290/290/290 293/293/293 292/292/292
f 294/294/294 296/296/296 295/295/295
f 294/294/294 297/297/297 296/296/296
f 298/298/298 300/300/300 299/299/299
f 298/298/298 301/301/301 300/300/300
f 302/302/302 304/304/304 303/303/303
f 302/302/302 305/305/305 304/304/304
f 306/306/306 308/308/308 307/307/307
f 306/306/306 309/309/309 308/308/308
f 310/310/310 312/312/312 311/311/311
f 310/310/310 313/313/313 312/312/312
f 314/314/314 316/316/316 315/315/315
f 314/314/314 317/317/317 316/316/316
f 318/318/318 320/320/320 319/319/319
f 318/318/318 321/321/321 320/320/320
f 322/322/322 324/324/324 323/323/323
f 322/322/322 325/325/325 324/324/324
f 326/326/326 328/328/328 327/327/327
f 326/326/326 329/329/329 328/328/328
f 330/330/330 332/332/332 331/331/331
f 330/330/330 333/333/333 332/332/332
f 334/334/334 336/336/336 335/335/335
f 334/334/334 337/337/337 336/336/336
f 338/338/338 340/340/340 339/339/339
f 338/338/338 341/341/341 340/340/340
f 342/342/342 344/344/344 343/343/343
f 342/342/342 345/345/345 344/344/344
f 346/346/346 348/348/348 347/347/347
f 346/346/346 349/349/349 348/348/348
f 349/349/349 350/350/350 348/348/348
f 349/349/349 351/351/351 350/350/350
f 351/351/351 352/352/352 350/350/350
f 351/351/351 353/353/353 352/352/352
f 353/353/353 354/354/354 352/352/352
f 353/353/353 355/355/355 354/354/354
f 356/356/356 358/358/358 357/357/357
f 356/356/356 359/359/359 358/358/358
f 360/360/360 356/356/356 357/357/357
f 360/360/360 357/357/357 361/361/361
f 362/362/362 360/360/360 361/361/361
f 362/362/362 361/361/361 363/363/363
f 364/364/364 362/362/362 363/363/363
f 364/364/364 363/363/363 365/365/365
f 366/366/366 368/368/368 367/367/367
f 366/366/366 369/369/369 368/368/368
f 369/369/369 370/370/370 368/368/368
f 369/369/369 371/371/371 370/370/370
f 371/371/371 372/372/372 370/370/370
f 371/371/371 373/373/373 372/372/372
f 373/373/373 374/374/374 372/372/372
f 373/373/373 375/375/375 374/374/374
f 376/376/376 378/378/378 377/377/377
f 376/376/376 379/379/379 378/378/378
f 380/380/380 376/376/376 377/377/377
f 380/380/380 377/377/377 381/381/381
f 382/382/382 380/380/380 381/381/381
f 382/382/382 381/381/381 383/383/383
f 384/384/384 382/382/382 383/383/383
f 384/384/384 383/383/383 385/385/385
f 386/386/386 388/388/388 387/387/387
f 386/386/386 389/389/389 388/388/388
f 390/390/390 389/389/389 386/386/386
f 390/390/390 391/391/391 389/389/389
f 392/392/392 394/394/394 393/393/393
f 395/395/395 394/394/394 392/392/392
f 395/395/395 396/396/396 394/394/394
f 395/395/395 397/397/397 396/396/396
f 394/394/394 398/398/398 393/393/393
f 398/398/398 394/394/394 396/396/396
f 398/398/398 396/396/396 399/399/399
f 398/398/398 399/399/399 400/400/400
f 398/398/398 400/400/400 401/401/401
f 401/401/401 400/400/400 402/402/402
f 401/401/401 402/402/402 403/403/403
f 404/404/404 406/406/406 405/405/405
f 407/407/407 409/409/409 408/408/408
f 407/407/407 410/410/410 409/409/409
f 411/411/411 413/413/413 412/412/412
f 411/411/411 414/414/414 413/413/413
f 415/415/415 417/417/417 416/416/416
f 415/415/415 418/418/418 417/417/417
f 416/416/416 417/417/417 419/419/419
f 416/416/416 419/419/419 420/420/420
f 421/421/421 423/423/423 422/422/422
f 421/421/421 424/424/424 423/423/423
f 425/425/425 427/427/427 426/426/426
f 425/425/425 428/428/428 427/427/427
f 428/428/428 425/425/425 429/429/429
f 430/430/430 432/432/432 431/431/431
f 430/430/430 431/431/431 433/433/433
f 430/430/430 433/433/433 434/434/434
f 434/434/434 433/433/433 435/435/435
f 436/436/436 438/438/438 437/437/437
f 436/436/436 439/439/439 438/438/438
f 440/440/440 442/442/442 441/441/441
f 440/440/440 443/443/443 442/442/442
f 444/444/444 446/446/446 445/445/445
f 444/444/444 447/447/447 446/446/446
f 448/448/448 450/450/450 449/449/449
f 448/448/448 451/451/451 450/450/450
f 452/452/452 454/454/454 453/453/453
f 452/452/452 455/455/455 454/454/454
f 456/456/456 458/458/458 457/457/457
f 456/456/456 459/459/459 458/458/458
f 460/460/460 462/462/462 461/461/461
f 463/463/463 460/460/460 461/461/461
f 463/463/463 461/461/461 464/464/464
f 465/465/465 467/467/467 466/466/466
f 468/468/468 470/470/470 469/469/469
f 468/468/468 471/471/471 470/470/470
f 472/472/472 474/474/474 473/473/473
f 475/475/475 477/477/477 476/476/476
f 475/475/475 478/478/478 477/477/477
f 479/479/479 481/481/481 480/480/480
f 479/479/479 482/482/482 481/481/481
f 483/483/483 485/485/485 484/484/484
f 483/483/483 486/486/486 485/485/485
f 487/487/487 489/489/489 488/488/488
f 490/490/490 488/488/488 489/489/489
f 490/490/490 491/491/491 488/488/488
f 492/492/492 494/494/494 493/493/493
f 495/495/495 497/497/497 496/496/496
f 495/495/495 498/498/498 497/497/497
f 499/499/499 501/501/501 500/500/500
f 499/499/499 502/502/502 501/501/501
f 503/503/503 505/505/505 504/504/504
f 503/503/503 506/506/506 505/505/505
f 506/506/506 507/507/507 505/505/505
f 506/506/506 508/508/508 507/507/507
f 509/509/509 511/511/511 510/510/510
f 509/509/509 512/512/512 511/511/511
f 513/513/513 515/515/515 514/514/514
f 516/516/516 518/518/518 517/517/517
f 516/516/516 519/519/519 518/518/518
f 520/520/520 522/522/522 521/521/521
f 520/520/520 523/523/523 522/522/522
f 524/524/524 526/526/526 525/525/525
f 524/524/524 527/527/527 526/526/526
f 528/528/528 530/530/530 529/529/529
f 528/528/528 531/531/531 530/530/530
f 532/532/532 534/534/534 533/533/533
f 532/532/532 535/535/535 534/534/534
f 536/536/536 538/538/538 537/537/537
f 536/536/536 539/539/539 538/538/538
f 540/540/540 542/542/542 541/541/541
f 543/543/543 542/542/542 540/540/540
f 543/543/543 544/544/544 542/542/542
f 543/543/543 545/545/545 544/544/544
f 546/546/546 548/548/548 547/547/547
f 549/549/549 551/551/551 550/550/550
f 552/552/552 554/554/554 553/553/553
f 555/555/555 557/557/557 556/556/556
f 558/558/558 560/560/560 559/559/559
f 558/558/558 561/561/561 560/560/560
f 562/562/562 564/564/564 563/563/563
f 562/562/562 565/565/565 564/564/564
f 566/566/566 568/568/568 567/567/567
f 566/566/566 569/569/569 568/568/568
f 570/570/570 572/572/572 571/571/571
f 570/570/570 573/573/573 572/572/572
f 574/574/574 573/573/573 575/575/575
f 574/574/574 576/576/576 573/573/573
f 577/577/577 579/579/579 578/578/578
f 577/577/577 580/580/580 579/579/579
f 577/577/577 578/578/578 581/581/581
f 577/577/577 581/581/581 582/582/582
f 583/583/583 577/577/577 582/582/582
f 583/583/583 582/582/582 584/584/584
f 585/585/585 587/587/587 586/586/586
f 585/585/585 588/588/588 587/587/587
f 589/589/589 591/591/591 590/590/590
f 592/592/592 594/594/594 593/593/593
f 592/592/592 595/595/595 594/594/594
f 595/595/595 596/596/596 594/594/594
f 595/595/595 597/597/597 596/596/596
f 598/598/598 600/600/600 599/599/599
f 598/598/598 601/601/601 600/600/600
f 602/602/602 604/604/604 603/603/603
f 605/605/605 607/607/607 606/606/606
f 608/608/608 610/610/610 609/609/609
f 608/608/608 611/611/611 610/610/610
f 612/612/612 608/608/608 609/609/609
f 612/612/612 609/609/609 613/613/613
f 614/614/614 616/616/616 615/615/615
f 617/617/617 619/619/619 618/618/618
f 617/617/617 620/620/620 619/619/619
f 618/618/618 621/621/621 617/617/617
f 618/618/618 622/622/622 621/621/621
f 623/623/623 625/625/625 624/624/624
f 623/623/623 626/626/626 625/625/625
f 627/627/627 623/623/623 624/624/624
f 627/627/627 624/624/624 628/628/628
f 629/629/629 631/631/631 630/630/630
f 632/632/632 634/634/634 633/633/633
f 632/632/632 635/635/635 634/634/634
f 633/633/633 634/634/634 636/636/636
f 633/633/633 636/636/636 637/637/637
f 638/638/638 640/640/640 639/639/639
f 641/641/641 643/643/643 642/642/642
f 641/641/641 644/644/644 643/643/643
f 645/645/645 647/647/647 646/646/646
f 645/645/645 648/648/648 647/647/647
f 649/649/649 651/651/651 650/650/650
f 649/649/649 652/652/652 651/651/651
f 653/653/653 655/655/655 654/654/654
f 653/653/653 656/656/656 655/655/655
f 657/657/657 659/659/659 658/658/658
f 660/660/660 662/662/662 661/661/661
f 663/663/663 665/665/665 664/664/664
f 663/663/663 666/666/666 665/665/665
f 667/667/667 669/669/669 668/668/668
f 667/667/667 670/670/670 669/669/669
f 671/671/671 673/673/673 672/672/672
f 671/671/671 674/674/674 673/673/673
f 674/674/674 675/675/675 673/673/673
f 674/674/674 676/676/676 675/675/675
f 677/677/677 679/679/679 678/678/678
f 677/677/677 680/680/680 679/679/679
f 681/681/681 683/683/683 682/682/682
f 681/681/681 684/684/684 683/683/683
f 685/685/685 687/687/687 686/686/686
f 685/685/685 688/688/688 687/687/687
f 689/689/689 691/691/691 690/690/690
f 689/689/689 692/692/692 691/691/691
f 693/693/693 689/689/689 690/690/690
f 693/693/693 690/690/690 694/694/694
f 695/695/695 697/697/697 696/696/696
f 695/695/695 698/698/698 697/697/697
f 699/699/699 701/701/701 700/700/700
f 699/699/699 702/702/702 701/701/701
f 703/703/703 705/705/705 704/704/704
f 703/703/703 706/706/706 705/705/705
