#SM_Env_Sidewalk_Grate_01_330_21.obj

v 2.469925 0 0
v 1.234955 3.72529E-09 0
v 1.259003 -0.05417278 -0.09875488
v 2.484421 -0.05417278 -0.117157
v 0.03359985 -0.05417278 -0.08035278
v 0 3.72529E-09 0
v 0 -0.05417279 -0.08035278
v 3.734955 3.72529E-09 0
v 3.729004 -0.05417278 -0.09875488
v 5 3.72529E-09 0
v 4.973602 -0.05417278 -0.08035278
v 5 -0.05417279 -0.08035278
v 1.23027 0.06969655 -0.9991913
v 2.378891 0.06969655 -0.9678955
v 2.514542 0.06969655 -0.7244263
v 1.274078 0.06969655 -0.6973114
v 0.08164978 0.06969655 -1.030487
v 0.03359985 0.06969655 -0.6701965
v 3.744064 0.06969655 -0.6973114
v 3.676239 0.06969655 -0.9936829
v 4.973602 0.06969655 -0.6701965
v 4.973602 0.06969655 -1.019485
v 1.247498 0 -1.082001
v 2.43985 0 -1.093811
v 2.378891 0.06969655 -0.9678955
v 1.23027 0.06969655 -0.9991913
v 2.5 0 -1.093811
v 3.676239 0.06969655 -0.9936829
v 3.736801 0.00959675 -1.093201
v 4.973602 0.06969655 -1.019485
v 4.973602 0.0191935 -1.09259
v 1.274078 0.06969655 -0.6973114
v 2.514542 0.06969655 -0.7244263
v 2.514542 -0.2302948 -0.638092
v 1.274078 -0.2302948 -0.6109772
v 0.03359985 0.06969655 -0.6701965
v 0.03359985 -0.2302948 -0.5838623
v 3.744064 -0.2302948 -0.6109772
v 3.744064 0.06969655 -0.6973114
v 4.973602 -0.2302948 -0.5838623
v 4.973602 0.06969655 -0.6701965
v 1.274078 -0.2302948 -0.6109772
v 2.514542 -0.2302948 -0.638092
v 2.186096 -0.08353825 -0.3273773
v 1.109848 -0.08353825 -0.2929993
v 0.03359985 -0.2302948 -0.5838623
v 0.03359985 -0.08353825 -0.2586212
v 3.579849 -0.08353825 -0.2929993
v 3.744064 -0.2302948 -0.6109772
v 4.973602 -0.08353825 -0.2586212
v 4.973602 -0.2302948 -0.5838623
v 1.109848 -0.08353825 -0.2929993
v 2.186096 -0.08353825 -0.3273773
v 2.484421 -0.05417278 -0.117157
v 1.259003 -0.05417278 -0.09875488
v 0.03359985 -0.08353825 -0.2586212
v 0.03359985 -0.05417278 -0.08035278
v 3.729004 -0.05417278 -0.09875488
v 3.579849 -0.08353825 -0.2929993
v 4.973602 -0.05417278 -0.08035278
v 4.973602 -0.08353825 -0.2586212
v 0.03359985 0 -5
v 2.43985 0 -5
v 2.413437 0 -4.750153
v 1.395432 0.006091662 -4.720367
v 0.03359985 0.02436665 -3.199997
v 1.340454 0.01218332 -3.18808
v 2.067017 -0.05382597 -4.089447
v 2.439468 -0.05399576 -4.084961
v 2.446243 -0.05340463 -3.718323
v 2.072723 -0.05340427 -3.718338
v 2.83815 -0.05354965 -3.720093
v 2.832397 -0.05380905 -4.091125
v 2.449692 -0.05380905 -4.478958
v 2.073181 -0.05363871 -4.480957
v 2.840317 -0.05380926 -4.483215
v 4.973602 -0.08353825 -0.2586212
v 5 -0.08353826 -0.2654266
v 5 -0.05417279 -0.08035278
v 4.973602 -0.05417278 -0.08035278
v 4.973602 -0.2302948 -0.5838623
v 5 -0.2302948 -0.5874481
v 5 -0.08353826 -0.2654266
v 4.973602 -0.08353825 -0.2586212
v 4.973602 0.06969655 -0.6701965
v 5 0.06969652 -0.6737823
v 5 -0.2302948 -0.5874481
v 4.973602 -0.2302948 -0.5838623
v 4.973602 0.06969655 -1.019485
v 5 0.06969652 -1.023071
v 5 0.06969652 -0.6737823
v 4.973602 0.06969655 -0.6701965
v 4.973602 0.0191935 -1.09259
v 5 -7.450581E-09 -1.073792
v 5 0.06969652 -1.023071
v 4.973602 0.06969655 -1.019485
v 5 -7.450581E-09 -1.073792
v 4.973602 0.0191935 -1.09259
v 4.923431 0 -3.123871
v 5 0 -3.173279
v 4.934174 0 -3.216888
v 5 0 -3.173279
v 4.923431 0 -3.123871
v 4.973602 0 -5
v 5 0 -5
v 2.43985 0 -1.093811
v 2.5 0 -1.093811
v 2.378891 0.06969655 -0.9678955
v 2.43985 0 -5
v 2.5 0 -5
v 2.4823 0.01710464 -4.752548
v 2.413437 0 -4.750153
v 4.973602 0 -5
v 4.934174 0 -3.216888
v 3.481964 0.01710464 -3.20282
v 3.490341 0.00855232 -4.725769
v 2.5 0 -5
v 2.4823 0.01710464 -4.752548
v 3.481964 0.01710464 -3.20282
v 4.934174 0 -3.216888
v 4.923431 0 -3.123871
v 3.492249 0 -3.123322
v 3.492249 0 -3.123322
v 4.923431 0 -3.123871
v 4.973602 0.0191935 -1.09259
v 3.483292 0.004798375 -2.935547
v 3.736801 0.00959675 -1.093201
v 2.5 0 -1.093811
v 2.473602 0 -2.832336
v 0.03359985 0 -5
v 0.03359985 0.02436665 -3.199997
v 0 0 -3.173279
v 0 0 -5
v 0 0 -3.173279
v 0.03359985 0.02436665 -3.199997
v 0.03359985 0 -3.146576
v 0.03359985 0 -3.146576
v 0.05514526 0 -1.070206
v 0 -7.450581E-09 -1.073792
v 0 0 -3.173279
v 0 0.06969652 -1.023071
v 0 -7.450581E-09 -1.073792
v 0.05514526 0 -1.070206
v 0.08164978 0.06969655 -1.030487
v 0 0.06969652 -0.6737823
v 0 0.06969652 -1.023071
v 0.08164978 0.06969655 -1.030487
v 0.03359985 0.06969655 -0.6701965
v 0 -0.2302948 -0.5874481
v 0 0.06969652 -0.6737823
v 0.03359985 0.06969655 -0.6701965
v 0.03359985 -0.2302948 -0.5838623
v 0 -0.08353826 -0.2654266
v 0 -0.2302948 -0.5874481
v 0.03359985 -0.2302948 -0.5838623
v 0.03359985 -0.08353825 -0.2586212
v 0 -0.05417279 -0.08035278
v 0 -0.08353826 -0.2654266
v 0.03359985 -0.08353825 -0.2586212
v 0.03359985 -0.05417278 -0.08035278
v 0.03359985 0.02436665 -3.199997
v 1.340454 0.01218332 -3.18808
v 1.349701 0.005401656 -3.12233
v 0.03359985 0 -3.146576
v 0.05514526 0 -1.070206
v 0.03359985 0 -3.146576
v 1.349701 0.005401656 -3.12233
v 1.393951 0.002700828 -2.931335
v 1.247498 0 -1.082001
v 2.399719 0.005401656 -2.823746
v 2.43985 0 -1.093811
v 0.05514526 0 -1.070206
v 1.247498 0 -1.082001
v 1.23027 0.06969655 -0.9991913
v 0.08164978 0.06969655 -1.030487
v 2.473602 0 -2.832336
v 2.5 0 -1.093811
v 2.43985 0 -1.093811
v 2.399719 0.005401656 -2.823746
v 1.340454 0.01218332 -3.18808
v 1.415421 0.02935033 -3.158508
v 1.349701 0.005401656 -3.12233
v 1.474548 0.02365614 -2.983612
v 1.393951 0.002700828 -2.931335
v 1.393951 0.002700828 -2.931335
v 1.474548 0.02365614 -2.983612
v 2.438004 0.02365614 -2.880325
v 2.399719 0.005401656 -2.823746
v 2.399719 0.005401656 -2.823746
v 2.438004 0.02365614 -2.880325
v 2.473602 0 -2.832336
v 3.401489 0.02561682 -2.987579
v 3.483292 0.004798375 -2.935547
v 3.492249 0 -3.123322
v 3.418701 0.02912582 -3.162323
v 3.481964 0.01710464 -3.20282
v 3.483292 0.004798375 -2.935547
v 3.401489 0.02561682 -2.987579
v 3.418701 0.02912582 -3.162323
v 3.492249 0 -3.123322
v 3.481964 0.01710464 -3.20282
v 3.408081 0.02912582 -4.673248
v 3.490341 0.00855232 -4.725769
v 2.413437 0 -4.750153
v 2.448486 0.0371201 -4.699402
v 1.475937 0.02682571 -4.668152
v 1.395432 0.006091662 -4.720367
v 1.395432 0.006091662 -4.720367
v 1.475937 0.02682571 -4.668152
v 1.415421 0.02935033 -3.158508
v 1.340454 0.01218332 -3.18808
v 2.4823 0.01710464 -4.752548
v 2.448486 0.0371201 -4.699402
v 2.413437 0 -4.750153
v 3.490341 0.00855232 -4.725769
v 3.408081 0.02912582 -4.673248
v 2.448486 0.0371201 -4.699402
v 2.4823 0.01710464 -4.752548
v 3.074615 -0.03145039 -3.937592
v 2.832397 -0.05380905 -4.091125
v 2.840317 -0.05380926 -4.483215
v 3.019409 -0.02764855 -4.543152
v 2.95697 -0.04406076 -3.572052
v 2.832397 -0.05380905 -4.091125
v 2.83815 -0.05354965 -3.720093
v 2.444427 -0.03635301 -3.532898
v 2.446243 -0.05340463 -3.718323
v 2.83815 -0.05354965 -3.720093
v 2.95697 -0.04406076 -3.572052
v 1.9823 -0.04175504 -3.607269
v 2.072723 -0.05340427 -3.718338
v 1.821716 -0.03451168 -3.930756
v 2.067017 -0.05382597 -4.089447
v 2.072723 -0.05340427 -3.718338
v 1.9823 -0.04175504 -3.607269
v 1.917404 -0.03265054 -4.529785
v 2.073181 -0.05363871 -4.480957
v 2.448959 0.002163392 -4.614655
v 2.449692 -0.05380905 -4.478958
v 2.073181 -0.05363871 -4.480957
v 1.917404 -0.03265054 -4.529785
v 3.019409 -0.02764855 -4.543152
v 2.840317 -0.05380926 -4.483215
v 1.475937 0.02682571 -4.668152
v 1.917404 -0.03265054 -4.529785
v 1.821716 -0.03451168 -3.930756
v 1.415421 0.02935033 -3.158508
v 1.9823 -0.04175504 -3.607269
v 1.474548 0.02365614 -2.983612
v 1.474548 0.02365614 -2.983612
v 1.9823 -0.04175504 -3.607269
v 2.444427 -0.03635301 -3.532898
v 2.438004 0.02365614 -2.880325
v 2.95697 -0.04406076 -3.572052
v 3.401489 0.02561682 -2.987579
v 3.401489 0.02561682 -2.987579
v 2.95697 -0.04406076 -3.572052
v 3.074615 -0.03145039 -3.937592
v 3.418701 0.02912582 -3.162323
v 3.019409 -0.02764855 -4.543152
v 3.408081 0.02912582 -4.673248
v 3.408081 0.02912582 -4.673248
v 3.019409 -0.02764855 -4.543152
v 2.448959 0.002163392 -4.614655
v 2.448486 0.0371201 -4.699402
v 1.917404 -0.03265054 -4.529785
v 1.475937 0.02682571 -4.668152
v 2.074463 -0.03736522 -3.714478
v 2.12384 -0.03809581 -3.811081
v 2.310745 -0.03804467 -3.804321
v 2.349518 -0.03754043 -3.73764
v 2.30835 -0.03905383 -3.937744
v 2.332016 -0.03938097 -3.981018
v 2.121521 -0.03909247 -3.942871
v 2.072159 -0.0394196 -3.986115
v 2.358078 -0.03804467 -3.804321
v 2.547302 -0.03804467 -3.804321
v 2.586044 -0.03754043 -3.73764
v 2.541901 -0.03916668 -3.952667
v 2.565582 -0.03949385 -3.995941
v 2.355652 -0.03905383 -3.937744
v 2.594635 -0.03804467 -3.804321
v 2.783875 -0.03804467 -3.804321
v 2.822632 -0.03754043 -3.73764
v 2.783875 -0.03909247 -3.942871
v 2.822632 -0.0394196 -3.986115
v 2.589264 -0.03916668 -3.952667
v 2.30835 -0.03970813 -4.024261
v 2.121521 -0.03974675 -4.029388
v 2.072144 -0.04114249 -4.213928
v 2.121506 -0.04058897 -4.140747
v 2.334427 -0.04112166 -4.211182
v 2.310745 -0.04079452 -4.167923
v 2.541901 -0.03982098 -4.039185
v 2.355652 -0.03970813 -4.024261
v 2.358078 -0.04079452 -4.167923
v 2.570953 -0.04112166 -4.211182
v 2.547302 -0.04079452 -4.167923
v 2.783875 -0.03974675 -4.029388
v 2.589264 -0.03982098 -4.039185
v 2.594635 -0.04079452 -4.167923
v 2.820251 -0.04121315 -4.223267
v 2.781494 -0.04088597 -4.180023
v 2.547302 -0.04144881 -4.25444
v 2.358078 -0.04144881 -4.25444
v 2.547302 -0.04249657 -4.392975
v 2.586044 -0.04309936 -4.472687
v 2.358078 -0.04249657 -4.392975
v 2.329102 -0.04309936 -4.472687
v 2.310745 -0.04249657 -4.392975
v 2.310745 -0.04144881 -4.25444
v 2.121506 -0.04124326 -4.227264
v 2.121521 -0.04249657 -4.392975
v 2.072159 -0.04309936 -4.472687
v 2.781494 -0.04154028 -4.266541
v 2.594635 -0.04144881 -4.25444
v 2.783875 -0.04249657 -4.392975
v 2.843018 -0.04309936 -4.472687
v 2.594635 -0.04249657 -4.392975
v 2.12384 -0.03809581 -3.811081
v 2.151276 -0.06393716 -3.829468
v 2.282623 -0.06390122 -3.824722
v 2.310745 -0.03804467 -3.804321
v 2.310745 -0.03804467 -3.804321
v 2.282623 -0.06390122 -3.824722
v 2.280914 -0.06461027 -3.918488
v 2.30835 -0.03905383 -3.937744
v 2.30835 -0.03905383 -3.937744
v 2.280914 -0.06461027 -3.918488
v 2.149658 -0.06463742 -3.922058
v 2.121521 -0.03909247 -3.942871
v 2.121521 -0.03909247 -3.942871
v 2.149658 -0.06463742 -3.922058
v 2.151276 -0.06393716 -3.829468
v 2.12384 -0.03809581 -3.811081
v 2.358078 -0.03804467 -3.804321
v 2.38269 -0.06389328 -3.823669
v 2.522034 -0.06389328 -3.823669
v 2.547302 -0.03804467 -3.804321
v 2.547302 -0.03804467 -3.804321
v 2.522034 -0.06389328 -3.823669
v 2.518097 -0.06471958 -3.932922
v 2.541901 -0.03916668 -3.952667
v 2.541901 -0.03916668 -3.952667
v 2.518097 -0.06471958 -3.932922
v 2.38092 -0.06463647 -3.921936
v 2.355652 -0.03905383 -3.937744
v 2.355652 -0.03905383 -3.937744
v 2.38092 -0.06463647 -3.921936
v 2.38269 -0.06389328 -3.823669
v 2.358078 -0.03804467 -3.804321
v 2.594635 -0.03804467 -3.804321
v 2.617355 -0.06388402 -3.822449
v 2.759857 -0.06388402 -3.822449
v 2.783875 -0.03804467 -3.804321
v 2.783875 -0.03804467 -3.804321
v 2.759857 -0.06388402 -3.822449
v 2.759857 -0.06467296 -3.926758
v 2.783875 -0.03909247 -3.942871
v 2.783875 -0.03909247 -3.942871
v 2.759857 -0.06467296 -3.926758
v 2.613266 -0.06472886 -3.934158
v 2.589264 -0.03916668 -3.952667
v 2.589264 -0.03916668 -3.952667
v 2.613266 -0.06472886 -3.934158
v 2.617355 -0.06388402 -3.822449
v 2.594635 -0.03804467 -3.804321
v 2.121521 -0.03974675 -4.029388
v 2.141296 -0.06555304 -4.043137
v 2.289063 -0.06552249 -4.039093
v 2.30835 -0.03970813 -4.024261
v 2.30835 -0.03970813 -4.024261
v 2.289063 -0.06552249 -4.039093
v 2.290955 -0.06638166 -4.15271
v 2.310745 -0.04079452 -4.167923
v 2.310745 -0.04079452 -4.167923
v 2.290955 -0.06638166 -4.15271
v 2.141296 -0.0662191 -4.13121
v 2.121506 -0.04058897 -4.140747
v 2.121506 -0.04058897 -4.140747
v 2.141296 -0.0662191 -4.13121
v 2.141296 -0.06555304 -4.043137
v 2.121521 -0.03974675 -4.029388
v 2.355652 -0.03970813 -4.024261
v 2.382797 -0.06556262 -4.044403
v 2.516327 -0.06564355 -4.055115
v 2.541901 -0.03982098 -4.039185
v 2.541901 -0.03982098 -4.039185
v 2.516327 -0.06564355 -4.055115
v 2.520172 -0.06634152 -4.1474
v 2.547302 -0.04079452 -4.167923
v 2.547302 -0.04079452 -4.167923
v 2.520172 -0.06634152 -4.1474
v 2.384521 -0.06634152 -4.1474
v 2.358078 -0.04079452 -4.167923
v 2.358078 -0.04079452 -4.167923
v 2.384521 -0.06634152 -4.1474
v 2.382797 -0.06556262 -4.044403
v 2.355652 -0.03970813 -4.024261
v 2.589264 -0.03982098 -4.039185
v 2.627899 -0.06571842 -4.065002
v 2.74527 -0.06567365 -4.059082
v 2.783875 -0.03974675 -4.029388
v 2.783875 -0.03974675 -4.029388
v 2.74527 -0.06567365 -4.059082
v 2.743805 -0.06636061 -4.149918
v 2.781494 -0.04088597 -4.180023
v 2.781494 -0.04088597 -4.180023
v 2.743805 -0.06636061 -4.149918
v 2.631104 -0.06630546 -4.142639
v 2.594635 -0.04079452 -4.167923
v 2.594635 -0.04079452 -4.167923
v 2.631104 -0.06630546 -4.142639
v 2.627899 -0.06571842 -4.065002
v 2.589264 -0.03982098 -4.039185
v 2.121506 -0.04124326 -4.227264
v 2.149384 -0.06712864 -4.25148
v 2.282867 -0.06727364 -4.27066
v 2.310745 -0.04144881 -4.25444
v 2.310745 -0.04144881 -4.25444
v 2.282867 -0.06727364 -4.27066
v 2.282867 -0.06801271 -4.368378
v 2.310745 -0.04249657 -4.392975
v 2.310745 -0.04249657 -4.392975
v 2.282867 -0.06801271 -4.368378
v 2.149384 -0.06801271 -4.368378
v 2.121521 -0.04249657 -4.392975
v 2.121521 -0.04249657 -4.392975
v 2.149384 -0.06801271 -4.368378
v 2.149384 -0.06712864 -4.25148
v 2.121506 -0.04124326 -4.227264
v 2.358078 -0.04144881 -4.25444
v 2.379883 -0.06727032 -4.270203
v 2.525513 -0.06727032 -4.270203
v 2.547302 -0.04144881 -4.25444
v 2.547302 -0.04144881 -4.25444
v 2.525513 -0.06727032 -4.270203
v 2.525513 -0.06807659 -4.376831
v 2.547302 -0.04249657 -4.392975
v 2.547302 -0.04249657 -4.392975
v 2.525513 -0.06807659 -4.376831
v 2.379883 -0.06807659 -4.376831
v 2.358078 -0.04249657 -4.392975
v 2.358078 -0.04249657 -4.392975
v 2.379883 -0.06807659 -4.376831
v 2.379883 -0.06727032 -4.270203
v 2.358078 -0.04144881 -4.25444
v 2.594635 -0.04144881 -4.25444
v 2.619537 -0.06728745 -4.272476
v 2.757217 -0.06735485 -4.281387
v 2.781494 -0.04154028 -4.266541
v 2.781494 -0.04154028 -4.266541
v 2.757217 -0.06735485 -4.281387
v 2.759003 -0.06805948 -4.374557
v 2.783875 -0.04249657 -4.392975
v 2.783875 -0.04249657 -4.392975
v 2.759003 -0.06805948 -4.374557
v 2.619537 -0.06805948 -4.374557
v 2.594635 -0.04249657 -4.392975
v 2.594635 -0.04249657 -4.392975
v 2.619537 -0.06805948 -4.374557
v 2.619537 -0.06728745 -4.272476
v 2.594635 -0.04144881 -4.25444
v 2.349518 -0.03754043 -3.73764
v 2.336945 -0.06287263 -3.688721
v 2.029938 -0.06267342 -3.662369
v 2.074463 -0.03736522 -3.714478
v 2.586044 -0.03754043 -3.73764
v 2.600983 -0.06287263 -3.688721
v 2.822632 -0.03754043 -3.73764
v 2.865051 -0.06287263 -3.688721
v 2.074463 -0.03736522 -3.714478
v 2.029938 -0.06267342 -3.662369
v 2.027374 -0.06498484 -3.968002
v 2.072159 -0.0394196 -3.986115
v 2.027344 -0.06694361 -4.22702
v 2.072144 -0.04114249 -4.213928
v 2.027374 -0.06919266 -4.524399
v 2.072159 -0.04309936 -4.472687
v 2.822632 -0.0394196 -3.986115
v 2.865051 -0.06498484 -3.968002
v 2.865051 -0.06287263 -3.688721
v 2.822632 -0.03754043 -3.73764
v 2.820251 -0.04121315 -4.223267
v 2.862381 -0.06702394 -4.23764
v 2.843018 -0.04309936 -4.472687
v 2.887817 -0.06919266 -4.524399
v 2.072159 -0.04309936 -4.472687
v 2.027374 -0.06919266 -4.524399
v 2.314178 -0.06919266 -4.524399
v 2.329102 -0.04309936 -4.472687
v 2.600983 -0.06919266 -4.524399
v 2.586044 -0.04309936 -4.472687
v 2.887817 -0.06919266 -4.524399
v 2.843018 -0.04309936 -4.472687

vn -3.504753E-05 0.8935547 -0.4487305
vn -0.003620148 0.875 -0.4841309
vn -0.003620148 0.875 -0.4841309
vn -3.504753E-05 0.8935547 -0.4487305
vn -0.001939774 0.8422852 -0.5390625
vn -0.001939774 0.8422852 -0.5390625
vn 0 0.8291016 -0.559082
vn 0.003545761 0.8754883 -0.4836426
vn 0.003545761 0.8754883 -0.4836426
vn 0.001899719 0.8422852 -0.5385742
vn 0.001899719 0.8422852 -0.5385742
vn 0 0.8291016 -0.559082
vn 0 1 0
vn 0 1 0
vn 0 1 0
vn 0 1 0
vn 0 1 0
vn 0 1 0
vn 0 1 0
vn 0 1 0
vn 0 1 0
vn 0 1 0
vn 0.004611969 0.8325195 -0.5541992
vn 0.002307892 0.8544922 -0.5195313
vn -0.00122261 0.8574219 -0.5146484
vn 0.004611969 0.8325195 -0.5541992
vn -0.004138947 0.8691406 -0.4941406
vn -0.008422852 0.8525391 -0.5229492
vn -0.008422852 0.8525391 -0.5229492
vn -0.00856781 0.8408203 -0.5415039
vn -0.00856781 0.8408203 -0.5415039
vn 0.02099609 0.2766113 0.9609375
vn -9.340048E-05 0.2766113 0.9609375
vn -9.340048E-05 0.2766113 0.9609375
vn 0.02099609 0.2766113 0.9609375
vn 0.02099609 0.2766113 0.9609375
vn 0.02099609 0.2766113 0.9609375
vn -0.02119446 0.2766113 0.9609375
vn -0.02119446 0.2766113 0.9609375
vn -0.02119446 0.2766113 0.9609375
vn -0.02119446 0.2766113 0.9609375
vn -0.01125336 0.9057617 -0.4238281
vn -0.0008273125 0.9057617 -0.423584
vn -0.0008273125 0.9057617 -0.423584
vn -0.01125336 0.9057617 -0.4238281
vn 0.02633667 0.9091797 -0.4150391
vn 0.02633667 0.9091797 -0.4150391
vn 0.009727478 0.909668 -0.4147949
vn 0.009727478 0.909668 -0.4147949
vn -0.03570557 0.9101563 -0.4128418
vn -0.03570557 0.9101563 -0.4128418
vn -0.003377914 0.9892578 -0.1473389
vn -0.000138402 0.9897461 -0.1435547
vn -0.000138402 0.9897461 -0.1435547
vn -0.003377914 0.9892578 -0.1473389
vn 0.006309509 0.987793 -0.1569824
vn 0.006309509 0.987793 -0.1569824
vn 0.003038406 0.9882813 -0.1519775
vn 0.003038406 0.9882813 -0.1519775
vn -0.008712769 0.9873047 -0.1582031
vn -0.008712769 0.9873047 -0.1582031
vn 0.002458572 1 -0.01236725
vn 0.001642227 1 -0.01564026
vn 0.001642227 1 -0.01564026
vn 0.002458572 1 -0.01236725
vn 0.003274918 1 -0.009086609
vn 0.003274918 1 -0.009086609
vn 0.02813721 0.9995117 -0.003715515
vn 9.667873E-05 1 -0.0004527569
vn 0.001811981 0.9990234 -0.04486084
vn 0.02871704 0.9990234 -0.03582764
vn -0.02851868 0.9990234 -0.02645874
vn -0.03024292 0.9995117 0.0006861687
vn 0.0001075268 1 0.0003585815
vn 0.0004498959 1 0.0004854202
vn -0.0002349615 1 0.0002318621
vn -0.008712769 0.9873047 -0.1582031
vn -0.02056885 0.9868164 -0.1595459
vn -0.02056885 0.9868164 -0.1595459
vn -0.008712769 0.9873047 -0.1582031
vn -0.03570557 0.9101563 -0.4128418
vn -0.08099365 0.9077148 -0.4116211
vn -0.08099365 0.9077148 -0.4116211
vn -0.03570557 0.9101563 -0.4128418
vn 0.1293945 0.2741699 0.953125
vn 0.1293945 0.2741699 0.953125
vn 0.1293945 0.2741699 0.953125
vn 0.1293945 0.2741699 0.953125
vn 0 1 0
vn 0 1 0
vn 0 1 0
vn 0 1 0
vn 0.4191895 0.6513672 -0.6323242
vn 0.4191895 0.6513672 -0.6323242
vn 0.4191895 0.6513672 -0.6323242
vn 0.4191895 0.6513672 -0.6323242
vn 0.1812744 0.9833984 -0.006771088
vn 0.1812744 0.9833984 -0.006771088
vn 0.1812744 0.9833984 -0.006771088
vn 0.1812744 0.9833984 -0.006771088
vn 0.002832413 1 -0.0008211136
vn 0 1 0
vn 0 1 -0.004722595
vn 0.003757477 1 -0.01454926
vn 0 1 0
vn 0.002307892 0.8544922 -0.5195313
vn -0.004138947 0.8691406 -0.4941406
vn -0.00122261 0.8574219 -0.5146484
vn -0.1320801 0.9902344 -0.04577637
vn -0.1320801 0.9902344 -0.04577637
vn -0.1320801 0.9902344 -0.04577637
vn -0.1320801 0.9902344 -0.04577637
vn 0.003757477 1 -0.01454926
vn 0.002832413 1 -0.0008211136
vn 0.008499146 1 -0.002464294
vn 0.005634308 0.9995117 -0.02182007
vn 0.002771378 0.9990234 -0.04116821
vn 0.002771378 0.9990234 -0.04116821
vn 0.006404877 0.9951172 0.09869385
vn 0.006404877 0.9951172 0.09869385
vn 0.006404877 0.9951172 0.09869385
vn 0.006404877 0.9951172 0.09869385
vn 0.01035309 1 -0.01699829
vn 0 1 -0.004722595
vn 0.004314423 1 -0.01184845
vn 0.002168655 1 -0.008979797
vn -0.007102966 1 -0.001186371
vn 0.01693726 1 -2.670288E-05
vn 0.01693726 1 -2.670288E-05
vn -0.3430176 0.9394531 -0.006309509
vn -0.3430176 0.9394531 -0.006309509
vn -0.3430176 0.9394531 -0.006309509
vn -0.3430176 0.9394531 -0.006309509
vn -0.3132324 0.8642578 0.394043
vn -0.3132324 0.8642578 0.394043
vn -0.3132324 0.8642578 0.394043
vn -0.002052307 1 2.127886E-05
vn 0.002313614 1 0.003137589
vn 0 1 0
vn 0 1 0
vn -0.02342224 0.5473633 -0.8364258
vn -0.02342224 0.5473633 -0.8364258
vn -0.02342224 0.5473633 -0.8364258
vn -0.02342224 0.5473633 -0.8364258
vn 0 1 0
vn 0 1 0
vn 0 1 0
vn 0 1 0
vn -0.1020508 0.2751465 0.9560547
vn -0.1020508 0.2751465 0.9560547
vn -0.1020508 0.2751465 0.9560547
vn -0.1020508 0.2751465 0.9560547
vn 0.0637207 0.9086914 -0.4121094
vn 0.0637207 0.9086914 -0.4121094
vn 0.02633667 0.9091797 -0.4150391
vn 0.02633667 0.9091797 -0.4150391
vn 0.01615906 0.9868164 -0.1595459
vn 0.01615906 0.9868164 -0.1595459
vn 0.006309509 0.987793 -0.1569824
vn 0.006309509 0.987793 -0.1569824
vn -0.0009860992 0.9672852 0.2529297
vn -0.0009860992 0.9672852 0.2529297
vn -0.0009860992 0.9672852 0.2529297
vn -0.0009860992 0.9672852 0.2529297
vn 0.002313614 1 0.003137589
vn -0.002052307 1 2.127886E-05
vn 0.004619598 1 0.00554657
vn 0.004009247 1 0.004909515
vn -0.0006556511 1 0.001842499
vn 0.01950073 1 0.001503944
vn 0.01950073 1 0.001503944
vn 0.006259918 0.6601563 -0.7514648
vn 0.006259918 0.6601563 -0.7514648
vn 0.006259918 0.6601563 -0.7514648
vn 0.006259918 0.6601563 -0.7514648
vn 0.01693726 1 -2.670288E-05
vn 0.01693726 1 -2.670288E-05
vn 0.01950073 1 0.001503944
vn 0.01950073 1 0.001503944
vn -0.2719727 0.9526367 0.1364746
vn -0.2570801 0.9599609 0.1135254
vn -0.2570801 0.9599609 0.1135254
vn -0.2418213 0.9663086 0.0904541
vn -0.2418213 0.9663086 0.0904541
vn -0.0340271 0.9516602 0.3056641
vn -0.0340271 0.9516602 0.3056641
vn -0.0340271 0.9516602 0.3056641
vn -0.0340271 0.9516602 0.3056641
vn 0.1106567 0.9213867 0.3720703
vn 0.07354736 0.9257813 0.3713379
vn 0.07354736 0.9257813 0.3713379
vn 0.03631592 0.9282227 0.3701172
vn 0.03631592 0.9282227 0.3701172
vn 0.2856445 0.9438477 0.1661377
vn 0.2856445 0.9438477 0.1661377
vn 0.2856445 0.9438477 0.1661377
vn 0.2963867 0.9550781 0.01800537
vn 0.2963867 0.9550781 0.01800537
vn 0.2568359 0.9663086 0.007553101
vn 0.2963867 0.9550781 0.01800537
vn 0.2167969 0.9760742 -0.002912521
vn 0.2167969 0.9760742 -0.002912521
vn 0.2167969 0.9760742 -0.002912521
vn -0.01644897 0.8793945 -0.4755859
vn -0.01644897 0.8793945 -0.4755859
vn -0.01644897 0.8793945 -0.4755859
vn -0.01644897 0.8793945 -0.4755859
vn -0.2310791 0.9726563 -0.01152802
vn -0.2310791 0.9726563 -0.01152802
vn -0.2310791 0.9726563 -0.01152802
vn -0.2310791 0.9726563 -0.01152802
vn -0.2283936 0.8540039 -0.467041
vn -0.2283936 0.8540039 -0.467041
vn -0.2283936 0.8540039 -0.467041
vn 0.0171051 0.9394531 -0.342041
vn 0.0171051 0.9394531 -0.342041
vn 0.0171051 0.9394531 -0.342041
vn 0.0171051 0.9394531 -0.342041
vn -0.130249 0.9916992 0.002820969
vn -0.1033936 0.9946289 0.006141663
vn -0.1164551 0.9931641 0.009300232
vn -0.1402588 0.9902344 0.008087158
vn -0.1200562 0.9926758 -0.002450943
vn -0.05184937 0.9985352 0.002843857
vn -0.04525757 0.9990234 0.0009131432
vn 0.00220871 0.9956055 -0.09338379
vn 0.001811981 0.9990234 -0.04486084
vn 0.002462387 0.9990234 -0.0411377
vn -0.0006332397 0.9956055 -0.09155273
vn 0.005050659 0.9956055 -0.09515381
vn 0.001162529 0.9990234 -0.04858398
vn 0.1116943 0.9936523 -0.002056122
vn 0.04699707 0.9990234 0.0003890991
vn 0.04199219 0.9990234 -0.005817413
vn 0.09564209 0.9951172 -0.01593018
vn 0.1276855 0.9916992 0.01182556
vn 0.1033936 0.9946289 0.01268768
vn 0.0003683567 0.921875 0.387207
vn 0.0007123947 0.9223633 0.3867188
vn 0 0.9228516 0.3850098
vn 0.001073837 0.9228516 0.385498
vn -0.0003373623 0.9213867 0.388916
vn 0.001424789 0.9213867 0.3881836
vn 0.1519775 0.9882813 0.01094818
vn 0.1276855 0.9916992 0.01182556
vn 0.1116943 0.9936523 -0.002056122
vn 0.1297607 0.9916992 -0.005336761
vn 0.09564209 0.9951172 -0.01593018
vn 0.1075439 0.9941406 -0.0216217
vn 0.008018494 0.9956055 -0.09460449
vn 0.005050659 0.9956055 -0.09515381
vn 0.00220871 0.9956055 -0.09338379
vn 0.0008826256 0.9951172 -0.09832764
vn -0.0006332397 0.9956055 -0.09155273
vn -0.006252289 0.9946289 -0.1020508
vn -0.1497803 0.9887695 -0.007873535
vn -0.1200562 0.9926758 -0.002450943
vn -0.130249 0.9916992 0.002820969
vn -0.1568604 0.987793 -0.000500679
vn -0.1402588 0.9902344 0.008087158
vn -0.1640625 0.9863281 0.006874084
vn -0.002099991 0.9208984 0.3894043
vn -0.0003373623 0.9213867 0.388916
vn 0.0003683567 0.921875 0.387207
vn 2.461672E-05 0.921875 0.3876953
vn 0.001073837 0.9228516 0.385498
vn 0.002147675 0.9223633 0.3862305
vn 0 1 -0.00756073
vn 0 1 -0.00756073
vn 0 1 -0.00756073
vn 0 1 -0.00756073
vn 0 1 -0.00756073
vn 0 1 -0.00756073
vn 0 1 -0.00756073
vn 0 1 -0.00756073
vn 0 1 -0.00756073
vn 0 1 -0.00756073
vn 0 1 -0.00756073
vn 0 1 -0.00756073
vn 0 1 -0.00756073
vn 0 1 -0.00756073
vn 0 1 -0.00756073
vn 0 1 -0.00756073
vn 0 1 -0.00756073
vn 0 1 -0.00756073
vn 0 1 -0.00756073
vn 0 1 -0.00756073
vn 0 1 -0.00756073
vn 0 1 -0.00756073
vn 0 1 -0.00756073
vn 0 1 -0.007564545
vn 0 1 -0.00756073
vn 0 1 -0.007564545
vn 0 1 -0.007564545
vn 0 1 -0.007564545
vn 0 1 -0.00756073
vn 0 1 -0.00756073
vn 0 1 -0.00756073
vn 0 1 -0.00756073
vn 0 1 -0.00756073
vn 0 1 -0.007564545
vn 0 1 -0.00756073
vn 0 1 -0.007564545
vn 0 1 -0.00756073
vn 0 1 -0.00756073
vn 0 1 -0.00756073
vn 0 1 -0.00756073
vn 0 1 -0.00756073
vn 0 1 -0.00756073
vn 0 1 -0.00756073
vn 0 1 -0.00756073
vn 0 1 -0.00756073
vn 0 1 -0.00756073
vn 0 1 -0.00756073
vn 0 1 -0.00756073
vn 0 1 -0.00756073
vn 0 1 -0.00756073
vn 0 1 -0.00756073
vn 0 1 -0.00756073
vn 0.02874756 0.5996094 -0.7998047
vn 0.02874756 0.5996094 -0.7998047
vn 0.02874756 0.5996094 -0.7998047
vn 0.02874756 0.5996094 -0.7998047
vn -0.6791992 0.7338867 0.006721497
vn -0.6791992 0.7338867 0.006721497
vn -0.6791992 0.7338867 0.006721497
vn -0.6791992 0.7338867 0.006721497
vn -0.02163696 0.6166992 0.7871094
vn -0.02163696 0.6166992 0.7871094
vn -0.02163696 0.6166992 0.7871094
vn -0.02163696 0.6166992 0.7871094
vn 0.6791992 0.7338867 -0.01747131
vn 0.6791992 0.7338867 -0.01747131
vn 0.6791992 0.7338867 -0.01747131
vn 0.6791992 0.7338867 -0.01747131
vn 0 0.5991211 -0.8007813
vn 0 0.5991211 -0.8007813
vn 0 0.5991211 -0.8007813
vn 0 0.5991211 -0.8007813
vn -0.7231445 0.6904297 0.02099609
vn -0.7231445 0.6904297 0.02099609
vn -0.7231445 0.6904297 0.02099609
vn -0.7231445 0.6904297 0.02099609
vn 0.06591797 0.5708008 0.8183594
vn 0.06591797 0.5708008 0.8183594
vn 0.06591797 0.5708008 0.8183594
vn 0.06591797 0.5708008 0.8183594
vn 0.7172852 0.6967773 -0.01824951
vn 0.7172852 0.6967773 -0.01824951
vn 0.7172852 0.6967773 -0.01824951
vn 0.7172852 0.6967773 -0.01824951
vn 0 0.5742188 -0.8188477
vn 0 0.5742188 -0.8188477
vn 0 0.5742188 -0.8188477
vn 0 0.5742188 -0.8188477
vn -0.7304688 0.6826172 -0.0051651
vn -0.7304688 0.6826172 -0.0051651
vn -0.7304688 0.6826172 -0.0051651
vn -0.7304688 0.6826172 -0.0051651
vn -0.04190063 0.5600586 0.8271484
vn -0.04190063 0.5600586 0.8271484
vn -0.04190063 0.5600586 0.8271484
vn -0.04190063 0.5600586 0.8271484
vn 0.7397461 0.6723633 -0.03198242
vn 0.7397461 0.6723633 -0.03198242
vn 0.7397461 0.6723633 -0.03198242
vn 0.7397461 0.6723633 -0.03198242
vn 0.02386475 0.484375 -0.8745117
vn 0.02386475 0.484375 -0.8745117
vn 0.02386475 0.484375 -0.8745117
vn 0.02386475 0.484375 -0.8745117
vn -0.7958984 0.6049805 -0.01783752
vn -0.7958984 0.6049805 -0.01783752
vn -0.7958984 0.6049805 -0.01783752
vn -0.7958984 0.6049805 -0.01783752
vn 0.1286621 0.4313965 0.8930664
vn 0.1286621 0.4313965 0.8930664
vn 0.1286621 0.4313965 0.8930664
vn 0.1286621 0.4313965 0.8930664
vn 0.7924805 0.6098633 -0.004673004
vn 0.7924805 0.6098633 -0.004673004
vn 0.7924805 0.6098633 -0.004673004
vn 0.7924805 0.6098633 -0.004673004
vn -0.06530762 0.5698242 -0.8193359
vn -0.06530762 0.5698242 -0.8193359
vn -0.06530762 0.5698242 -0.8193359
vn -0.06530762 0.5698242 -0.8193359
vn -0.6992188 0.7143555 -0.03463745
vn -0.6992188 0.7143555 -0.03463745
vn -0.6992188 0.7143555 -0.03463745
vn -0.6992188 0.7143555 -0.03463745
vn 0 0.6264648 0.7797852
vn 0 0.6264648 0.7797852
vn 0 0.6264648 0.7797852
vn 0 0.6264648 0.7797852
vn 0.6923828 0.7216797 0.006191254
vn 0.6923828 0.7216797 0.006191254
vn 0.6923828 0.7216797 0.006191254
vn 0.6923828 0.7216797 0.006191254
vn 0.03408813 0.7304688 -0.6821289
vn 0.03408813 0.7304688 -0.6821289
vn 0.03408813 0.7304688 -0.6821289
vn 0.03408813 0.7304688 -0.6821289
vn -0.5585938 0.8291016 0.002624512
vn -0.5585938 0.8291016 0.002624512
vn -0.5585938 0.8291016 0.002624512
vn -0.5585938 0.8291016 0.002624512
vn 0.04415894 0.734375 0.6772461
vn 0.04415894 0.734375 0.6772461
vn 0.04415894 0.734375 0.6772461
vn 0.04415894 0.734375 0.6772461
vn 0.5649414 0.8251953 0.01722717
vn 0.5649414 0.8251953 0.01722717
vn 0.5649414 0.8251953 0.01722717
vn 0.5649414 0.8251953 0.01722717
vn -0.1117554 0.6123047 -0.7827148
vn -0.1117554 0.6123047 -0.7827148
vn -0.1117554 0.6123047 -0.7827148
vn -0.1117554 0.6123047 -0.7827148
vn -0.6777344 0.7353516 -0.005561829
vn -0.6777344 0.7353516 -0.005561829
vn -0.6777344 0.7353516 -0.005561829
vn -0.6777344 0.7353516 -0.005561829
vn 0 0.6938477 0.7197266
vn 0 0.6938477 0.7197266
vn 0 0.6938477 0.7197266
vn 0 0.6938477 0.7197266
vn 0.6777344 0.7353516 -0.005523682
vn 0.6777344 0.7353516 -0.005523682
vn 0.6777344 0.7353516 -0.005523682
vn 0.6777344 0.7353516 -0.005523682
vn 0 0.5209961 -0.8535156
vn 0 0.5209961 -0.8535156
vn 0 0.5209961 -0.8535156
vn 0 0.5209961 -0.8535156
vn -0.7626953 0.6464844 -0.004890442
vn -0.7626953 0.6464844 -0.004890442
vn -0.7626953 0.6464844 -0.004890442
vn -0.7626953 0.6464844 -0.004890442
vn 0 0.5336914 0.8457031
vn 0 0.5336914 0.8457031
vn 0 0.5336914 0.8457031
vn 0 0.5336914 0.8457031
vn 0.7626953 0.6469727 -0.004890442
vn 0.7626953 0.6469727 -0.004890442
vn 0.7626953 0.6469727 -0.004890442
vn 0.7626953 0.6469727 -0.004890442
vn -0.05429077 0.5356445 -0.8427734
vn -0.05429077 0.5356445 -0.8427734
vn -0.05429077 0.5356445 -0.8427734
vn -0.05429077 0.5356445 -0.8427734
vn -0.7231445 0.6904297 -0.01893616
vn -0.7231445 0.6904297 -0.01893616
vn -0.7231445 0.6904297 -0.01893616
vn -0.7231445 0.6904297 -0.01893616
vn 0 0.5844727 0.8115234
vn 0 0.5844727 0.8115234
vn 0 0.5844727 0.8115234
vn 0 0.5844727 0.8115234
vn 0.7182617 0.6958008 -0.005264282
vn 0.7182617 0.6958008 -0.005264282
vn 0.7182617 0.6958008 -0.005264282
vn 0.7182617 0.6958008 -0.005264282
vn 0.02009583 0.8862305 0.4628906
vn 0.02009583 0.8862305 0.4628906
vn 0.04019165 0.8837891 0.4658203
vn 0.04019165 0.8837891 0.4658203
vn 0 0.8881836 0.4597168
vn 0 0.8881836 0.4597168
vn 0 0.8881836 0.4597168
vn 0 0.8881836 0.4597168
vn -0.4963379 0.8681641 -0.002380371
vn -0.4963379 0.8681641 -0.002380371
vn -0.4970703 0.8676758 -0.004447937
vn -0.4970703 0.8676758 -0.004447937
vn -0.4975586 0.8671875 -0.006557465
vn -0.4975586 0.8671875 -0.006557465
vn -0.4975586 0.8671875 -0.006599426
vn -0.4975586 0.8671875 -0.006599426
vn 0.519043 0.8549805 -0.009056091
vn 0.519043 0.8549805 -0.009056091
vn 0.5180664 0.8554688 -0.006469727
vn 0.5180664 0.8554688 -0.006469727
vn 0.527832 0.8491211 0.01506042
vn 0.527832 0.8491211 0.01506042
vn 0.5356445 0.84375 0.04174805
vn 0.5356445 0.84375 0.04174805
vn 0 0.8925781 -0.4504395
vn 0 0.8925781 -0.4504395
vn 0 0.8925781 -0.4504395
vn 0 0.8925781 -0.4504395
vn 0 0.8925781 -0.4504395
vn 0 0.8925781 -0.4504395
vn 0 0.8925781 -0.4504395
vn 0 0.8925781 -0.4504395

vt 0.06530762 0.2111816
vt 0.06530762 0.2111816
vt 0.06530762 0.2111816
vt 0.06530762 0.2111816
vt 0.06530762 0.2111816
vt 0.06530762 0.2111816
vt 0.06530762 0.2111816
vt 0.06530762 0.2111816
vt 0.06530762 0.2111816
vt 0.06530762 0.2111816
vt 0.06530762 0.2111816
vt 0.06530762 0.2111816
vt 0.1021729 0.3076172
vt 0.1021729 0.3076172
vt 0.1021729 0.3076172
vt 0.1021729 0.3076172
vt 0.1021729 0.3076172
vt 0.1021729 0.3076172
vt 0.1021729 0.3076172
vt 0.1021729 0.3076172
vt 0.1021729 0.3076172
vt 0.1021729 0.3076172
vt 0.1021729 0.3076172
vt 0.1021729 0.3076172
vt 0.1021729 0.3076172
vt 0.1021729 0.3076172
vt 0.1021729 0.3076172
vt 0.1021729 0.3076172
vt 0.1021729 0.3076172
vt 0.1021729 0.3076172
vt 0.1021729 0.3076172
vt 0.1021729 0.3076172
vt 0.1021729 0.3076172
vt 0.1021729 0.3076172
vt 0.1021729 0.3076172
vt 0.1021729 0.3076172
vt 0.1021729 0.3076172
vt 0.1021729 0.3076172
vt 0.1021729 0.3076172
vt 0.1021729 0.3076172
vt 0.1021729 0.3076172
vt 0.1021729 0.3076172
vt 0.1021729 0.3076172
vt 0.1021729 0.3076172
vt 0.1021729 0.3076172
vt 0.1021729 0.3076172
vt 0.1021729 0.3076172
vt 0.1021729 0.3076172
vt 0.1021729 0.3076172
vt 0.1021729 0.3076172
vt 0.1021729 0.3076172
vt 0.1021729 0.3076172
vt 0.1021729 0.3076172
vt 0.1021729 0.3076172
vt 0.1021729 0.3076172
vt 0.1021729 0.3076172
vt 0.1021729 0.3076172
vt 0.1021729 0.3076172
vt 0.1021729 0.3076172
vt 0.1021729 0.3076172
vt 0.1021729 0.3076172
vt 0.1022949 0.3276367
vt 0.1022949 0.3276367
vt 0.1022949 0.3276367
vt 0.1022949 0.3276367
vt 0.1022949 0.3276367
vt 0.1022949 0.3276367
vt 0.07318115 0.0120697
vt 0.07318115 0.0120697
vt 0.07318115 0.0120697
vt 0.07318115 0.0120697
vt 0.07318115 0.0120697
vt 0.07318115 0.0120697
vt 0.07318115 0.0120697
vt 0.07318115 0.0120697
vt 0.07318115 0.0120697
vt 0.102478 0.2792969
vt 0.102478 0.2792969
vt 0.102478 0.2792969
vt 0.102478 0.2792969
vt 0.102478 0.2792969
vt 0.102478 0.2792969
vt 0.102478 0.2792969
vt 0.102478 0.2792969
vt 0.102478 0.2792969
vt 0.102478 0.2792969
vt 0.102478 0.2792969
vt 0.102478 0.2792969
vt 0.102478 0.2792969
vt 0.102478 0.2792969
vt 0.102478 0.2792969
vt 0.102478 0.2792969
vt 0.102478 0.2792969
vt 0.102478 0.2792969
vt 0.102478 0.2792969
vt 0.102478 0.2792969
vt 0.1027222 0.2993164
vt 0.1027222 0.2993164
vt 0.1027222 0.2993164
vt 0.1027222 0.2993164
vt 0.1027222 0.2993164
vt 0.1027222 0.2993164
vt 0.1027222 0.2993164
vt 0.1027222 0.2993164
vt 0.1027222 0.2993164
vt 0.102478 0.3017578
vt 0.102478 0.3017578
vt 0.102478 0.3017578
vt 0.1027222 0.2993164
vt 0.1027222 0.2993164
vt 0.1027222 0.2993164
vt 0.1027222 0.2993164
vt 0.1022949 0.3276367
vt 0.1022949 0.3276367
vt 0.1022949 0.3276367
vt 0.1022949 0.3276367
vt 0.1022949 0.3276367
vt 0.1022949 0.3276367
vt 0.1027222 0.2993164
vt 0.1027222 0.2993164
vt 0.1027222 0.2993164
vt 0.1027222 0.2993164
vt 0.1022949 0.3276367
vt 0.1022949 0.3276367
vt 0.1022949 0.3276367
vt 0.1022949 0.3276367
vt 0.1022949 0.3276367
vt 0.1022949 0.3276367
vt 0.1022949 0.3276367
vt 0.1027222 0.2993164
vt 0.1027222 0.2993164
vt 0.1027222 0.2993164
vt 0.1027222 0.2993164
vt 0.1027222 0.2993164
vt 0.1027222 0.2993164
vt 0.1027222 0.2993164
vt 0.1027222 0.2993164
vt 0.1027222 0.2993164
vt 0.1027222 0.2993164
vt 0.1027222 0.2993164
vt 0.102478 0.2792969
vt 0.102478 0.2792969
vt 0.102478 0.2792969
vt 0.102478 0.2792969
vt 0.102478 0.2792969
vt 0.102478 0.2792969
vt 0.102478 0.2792969
vt 0.102478 0.2792969
vt 0.102478 0.2792969
vt 0.102478 0.2792969
vt 0.102478 0.2792969
vt 0.102478 0.2792969
vt 0.102478 0.2792969
vt 0.102478 0.2792969
vt 0.102478 0.2792969
vt 0.102478 0.2792969
vt 0.102478 0.2792969
vt 0.102478 0.2792969
vt 0.102478 0.2792969
vt 0.102478 0.2792969
vt 0.1027222 0.2993164
vt 0.1027222 0.2993164
vt 0.1027222 0.2993164
vt 0.1027222 0.2993164
vt 0.1022949 0.3276367
vt 0.1022949 0.3276367
vt 0.1022949 0.3276367
vt 0.1022949 0.3276367
vt 0.1022949 0.3276367
vt 0.1022949 0.3276367
vt 0.1022949 0.3276367
vt 0.1021729 0.3076172
vt 0.1021729 0.3076172
vt 0.1021729 0.3076172
vt 0.1021729 0.3076172
vt 0.1027222 0.2993164
vt 0.1027222 0.2993164
vt 0.1027222 0.2993164
vt 0.1027222 0.2993164
vt 0.1018677 0.3037109
vt 0.1018677 0.3037109
vt 0.1018677 0.3037109
vt 0.1018677 0.3037109
vt 0.1018677 0.3037109
vt 0.1018677 0.3037109
vt 0.1018677 0.3037109
vt 0.1018677 0.3037109
vt 0.1019287 0.3037109
vt 0.1019287 0.3037109
vt 0.1018677 0.3037109
vt 0.1018677 0.3037109
vt 0.1018677 0.3037109
vt 0.1018677 0.3037109
vt 0.1018677 0.3037109
vt 0.1018677 0.3037109
vt 0.1018677 0.3037109
vt 0.1018677 0.3037109
vt 0.1018677 0.3037109
vt 0.1018677 0.3037109
vt 0.1018677 0.3037109
vt 0.1018677 0.3037109
vt 0.1018677 0.3037109
vt 0.1018677 0.3037109
vt 0.1018677 0.3037109
vt 0.1018677 0.3037109
vt 0.1018677 0.3037109
vt 0.1018677 0.3037109
vt 0.1018677 0.3037109
vt 0.1018677 0.3037109
vt 0.1018677 0.3037109
vt 0.1018677 0.3037109
vt 0.1018677 0.3037109
vt 0.1018677 0.3037109
vt 0.1018677 0.3037109
vt 0.1018677 0.3037109
vt 0.1018677 0.3037109
vt 0.1018677 0.3037109
vt 0.1018677 0.3037109
vt 0.09924316 0.277832
vt 0.09924316 0.277832
vt 0.09918213 0.277832
vt 0.09924316 0.277832
vt 0.09924316 0.277832
vt 0.09924316 0.277832
vt 0.09924316 0.277832
vt 0.09924316 0.277832
vt 0.09924316 0.277832
vt 0.09924316 0.277832
vt 0.09924316 0.277832
vt 0.09924316 0.277832
vt 0.09924316 0.277832
vt 0.09924316 0.277832
vt 0.09924316 0.277832
vt 0.09924316 0.277832
vt 0.09924316 0.277832
vt 0.09924316 0.277832
vt 0.09924316 0.277832
vt 0.09924316 0.277832
vt 0.09924316 0.277832
vt 0.09924316 0.277832
vt 0.09924316 0.277832
vt 0.09924316 0.277832
vt 0.09918213 0.277832
vt 0.1018677 0.3037109
vt 0.1018677 0.3037109
vt 0.1018677 0.3037109
vt 0.1018677 0.3037109
vt 0.1018677 0.3037109
vt 0.1018677 0.3037109
vt 0.1018677 0.3037109
vt 0.1018677 0.3037109
vt 0.1018677 0.3037109
vt 0.1018677 0.3037109
vt 0.1018677 0.3037109
vt 0.1018677 0.3037109
vt 0.1018677 0.3037109
vt 0.1018677 0.3037109
vt 0.1018677 0.3037109
vt 0.1018677 0.3037109
vt 0.1018677 0.3037109
vt 0.1018677 0.3037109
vt 0.1018677 0.3037109
vt 0.1018677 0.3037109
vt 0.1018677 0.3037109
vt 0.1018677 0.3037109
vt 0.1018677 0.3037109
vt 0.1018677 0.3037109
vt 0.07897949 0.2480469
vt 0.07897949 0.2480469
vt 0.07897949 0.2480469
vt 0.07897949 0.2480469
vt 0.07897949 0.2480469
vt 0.07897949 0.2480469
vt 0.07897949 0.2480469
vt 0.07897949 0.2480469
vt 0.07897949 0.2480469
vt 0.07897949 0.2480469
vt 0.07897949 0.2480469
vt 0.07897949 0.2480469
vt 0.07897949 0.2480469
vt 0.07897949 0.2480469
vt 0.07897949 0.2480469
vt 0.07897949 0.2480469
vt 0.07897949 0.2480469
vt 0.07897949 0.2480469
vt 0.07897949 0.2480469
vt 0.07897949 0.2480469
vt 0.07897949 0.2480469
vt 0.07897949 0.2480469
vt 0.07897949 0.2480469
vt 0.07897949 0.2480469
vt 0.07897949 0.2480469
vt 0.07897949 0.2480469
vt 0.07897949 0.2480469
vt 0.07897949 0.2480469
vt 0.07897949 0.2480469
vt 0.07897949 0.2480469
vt 0.07897949 0.2480469
vt 0.07897949 0.2480469
vt 0.07897949 0.2480469
vt 0.07897949 0.2480469
vt 0.07897949 0.2480469
vt 0.07897949 0.2480469
vt 0.07897949 0.2480469
vt 0.07897949 0.2480469
vt 0.07897949 0.2480469
vt 0.07897949 0.2480469
vt 0.07897949 0.2480469
vt 0.07897949 0.2480469
vt 0.07897949 0.2480469
vt 0.07897949 0.2480469
vt 0.07897949 0.2480469
vt 0.07897949 0.2480469
vt 0.07897949 0.2480469
vt 0.07897949 0.2480469
vt 0.07897949 0.2480469
vt 0.07897949 0.2480469
vt 0.07897949 0.2480469
vt 0.07897949 0.2480469
vt 0.07897949 0.2480469
vt 0.07897949 0.2480469
vt 0.07897949 0.2480469
vt 0.07897949 0.2480469
vt 0.07897949 0.2480469
vt 0.07897949 0.2480469
vt 0.07897949 0.2480469
vt 0.07897949 0.2480469
vt 0.07897949 0.2480469
vt 0.07897949 0.2480469
vt 0.07897949 0.2480469
vt 0.07897949 0.2480469
vt 0.07897949 0.2480469
vt 0.07897949 0.2480469
vt 0.07897949 0.2480469
vt 0.07897949 0.2480469
vt 0.07897949 0.2480469
vt 0.07897949 0.2480469
vt 0.07897949 0.2480469
vt 0.07897949 0.2480469
vt 0.07897949 0.2480469
vt 0.07897949 0.2480469
vt 0.07897949 0.2480469
vt 0.07897949 0.2480469
vt 0.07897949 0.2480469
vt 0.07897949 0.2480469
vt 0.07897949 0.2480469
vt 0.07897949 0.2480469
vt 0.07897949 0.2480469
vt 0.07897949 0.2480469
vt 0.07897949 0.2480469
vt 0.07897949 0.2480469
vt 0.07897949 0.2480469
vt 0.07897949 0.2480469
vt 0.07897949 0.2480469
vt 0.07897949 0.2480469
vt 0.07897949 0.2480469
vt 0.07897949 0.2480469
vt 0.07897949 0.2480469
vt 0.07897949 0.2480469
vt 0.07897949 0.2480469
vt 0.07897949 0.2480469
vt 0.07897949 0.2480469
vt 0.07897949 0.2480469
vt 0.07897949 0.2480469
vt 0.07897949 0.2480469
vt 0.07897949 0.2480469
vt 0.07897949 0.2480469
vt 0.07897949 0.2480469
vt 0.07897949 0.2480469
vt 0.07897949 0.2480469
vt 0.07897949 0.2480469
vt 0.07897949 0.2480469
vt 0.07897949 0.2480469
vt 0.07897949 0.2480469
vt 0.07897949 0.2480469
vt 0.07897949 0.2480469
vt 0.07897949 0.2480469
vt 0.07897949 0.2480469
vt 0.07897949 0.2480469
vt 0.07897949 0.2480469
vt 0.07897949 0.2480469
vt 0.07897949 0.2480469
vt 0.07897949 0.2480469
vt 0.07897949 0.2480469
vt 0.07897949 0.2480469
vt 0.07897949 0.2480469
vt 0.07897949 0.2480469
vt 0.07897949 0.2480469
vt 0.07897949 0.2480469
vt 0.07897949 0.2480469
vt 0.07897949 0.2480469
vt 0.07897949 0.2480469
vt 0.07897949 0.2480469
vt 0.07897949 0.2480469
vt 0.07897949 0.2480469
vt 0.07897949 0.2480469
vt 0.07897949 0.2480469
vt 0.07897949 0.2480469
vt 0.07897949 0.2480469
vt 0.07897949 0.2480469
vt 0.07897949 0.2480469
vt 0.07897949 0.2480469
vt 0.07897949 0.2480469
vt 0.07897949 0.2480469
vt 0.07897949 0.2480469
vt 0.07897949 0.2480469
vt 0.07897949 0.2480469
vt 0.07897949 0.2480469
vt 0.07897949 0.2480469
vt 0.07897949 0.2480469
vt 0.07897949 0.2480469
vt 0.07897949 0.2480469
vt 0.07897949 0.2480469
vt 0.07897949 0.2480469
vt 0.07897949 0.2480469
vt 0.07897949 0.2480469
vt 0.07897949 0.2480469
vt 0.07897949 0.2480469
vt 0.07897949 0.2480469
vt 0.07897949 0.2480469
vt 0.07897949 0.2480469
vt 0.07897949 0.2480469
vt 0.07897949 0.2480469
vt 0.07897949 0.2480469
vt 0.07897949 0.2480469
vt 0.07897949 0.2480469
vt 0.07897949 0.2480469
vt 0.07897949 0.2480469
vt 0.07897949 0.2480469
vt 0.07897949 0.2480469
vt 0.07897949 0.2480469
vt 0.07897949 0.2480469
vt 0.07897949 0.2480469
vt 0.07897949 0.2480469
vt 0.07897949 0.2480469
vt 0.07897949 0.2480469
vt 0.07897949 0.2480469
vt 0.07897949 0.2480469
vt 0.07897949 0.2480469
vt 0.07897949 0.2480469
vt 0.07897949 0.2480469
vt 0.07897949 0.2480469
vt 0.07897949 0.2480469
vt 0.07897949 0.2480469
vt 0.07897949 0.2480469
vt 0.07897949 0.2480469
vt 0.07897949 0.2480469
vt 0.07897949 0.2480469
vt 0.07897949 0.2480469
vt 0.07897949 0.2480469
vt 0.07897949 0.2480469
vt 0.07897949 0.2480469
vt 0.07897949 0.2480469
vt 0.07897949 0.2480469
vt 0.07897949 0.2480469
vt 0.07897949 0.2480469
vt 0.07897949 0.2480469
vt 0.07897949 0.2480469
vt 0.07897949 0.2480469
vt 0.07897949 0.2480469
vt 0.07897949 0.2480469
vt 0.07897949 0.2480469
vt 0.07897949 0.2480469
vt 0.08197021 0.2486572
vt 0.08197021 0.2486572
vt 0.08197021 0.2486572
vt 0.08197021 0.2486572
vt 0.08197021 0.2486572
vt 0.08197021 0.2486572
vt 0.08197021 0.2486572
vt 0.08197021 0.2486572
vt 0.08197021 0.2486572
vt 0.08197021 0.2486572
vt 0.08197021 0.2486572
vt 0.08197021 0.2486572
vt 0.08197021 0.2486572
vt 0.08197021 0.2486572
vt 0.08197021 0.2486572
vt 0.08197021 0.2486572
vt 0.08197021 0.2486572
vt 0.08197021 0.2486572
vt 0.08197021 0.2486572
vt 0.08197021 0.2486572
vt 0.08197021 0.2486572
vt 0.08197021 0.2486572
vt 0.08197021 0.2486572
vt 0.08197021 0.2486572
vt 0.08197021 0.2486572
vt 0.08197021 0.2486572
vt 0.08197021 0.2486572
vt 0.08197021 0.2486572
vt 0.08197021 0.2486572
vt 0.08197021 0.2486572
vt 0.08197021 0.2486572
vt 0.08197021 0.2486572

g SM_Env_Sidewalk_Grate_01_330_21
usemtl SM_Env_Sidewalk_Grate_01_330_21
usemap SM_Env_Sidewalk_Grate_01_330_21
f 1/1/1 3/3/3 2/2/2
f 1/1/1 4/4/4 3/3/3
f 2/2/2 3/3/3 5/5/5
f 2/2/2 5/5/5 6/6/6
f 6/6/6 5/5/5 7/7/7
f 8/8/8 4/4/4 1/1/1
f 8/8/8 9/9/9 4/4/4
f 10/10/10 9/9/9 8/8/8
f 10/10/10 11/11/11 9/9/9
f 10/10/10 12/12/12 11/11/11
f 13/13/13 15/15/15 14/14/14
f 13/13/13 16/16/16 15/15/15
f 17/17/17 16/16/16 13/13/13
f 17/17/17 18/18/18 16/16/16
f 14/14/14 15/15/15 19/19/19
f 14/14/14 19/19/19 20/20/20
f 20/20/20 19/19/19 21/21/21
f 20/20/20 21/21/21 22/22/22
f 23/23/23 25/25/25 24/24/24
f 23/23/23 26/26/26 25/25/25
f 27/27/27 25/25/25 28/28/28
f 27/27/27 28/28/28 29/29/29
f 29/29/29 28/28/28 30/30/30
f 29/29/29 30/30/30 31/31/31
f 32/32/32 34/34/34 33/33/33
f 32/32/32 35/35/35 34/34/34
f 36/36/36 35/35/35 32/32/32
f 36/36/36 37/37/37 35/35/35
f 33/33/33 34/34/34 38/38/38
f 33/33/33 38/38/38 39/39/39
f 39/39/39 38/38/38 40/40/40
f 39/39/39 40/40/40 41/41/41
f 42/42/42 44/44/44 43/43/43
f 42/42/42 45/45/45 44/44/44
f 46/46/46 45/45/45 42/42/42
f 46/46/46 47/47/47 45/45/45
f 43/43/43 44/44/44 48/48/48
f 43/43/43 48/48/48 49/49/49
f 49/49/49 48/48/48 50/50/50
f 49/49/49 50/50/50 51/51/51
f 52/52/52 54/54/54 53/53/53
f 52/52/52 55/55/55 54/54/54
f 56/56/56 55/55/55 52/52/52
f 56/56/56 57/57/57 55/55/55
f 53/53/53 54/54/54 58/58/58
f 53/53/53 58/58/58 59/59/59
f 59/59/59 58/58/58 60/60/60
f 59/59/59 60/60/60 61/61/61
f 62/62/62 64/64/64 63/63/63
f 62/62/62 65/65/65 64/64/64
f 65/65/65 62/62/62 66/66/66
f 65/65/65 66/66/66 67/67/67
f 68/68/68 70/70/70 69/69/69
f 68/68/68 71/71/71 70/70/70
f 69/69/69 70/70/70 72/72/72
f 69/69/69 72/72/72 73/73/73
f 74/74/74 68/68/68 69/69/69
f 74/74/74 75/75/75 68/68/68
f 76/76/76 69/69/69 73/73/73
f 76/76/76 74/74/74 69/69/69
f 77/77/77 79/79/79 78/78/78
f 77/77/77 80/80/80 79/79/79
f 81/81/81 83/83/83 82/82/82
f 81/81/81 84/84/84 83/83/83
f 85/85/85 87/87/87 86/86/86
f 85/85/85 88/88/88 87/87/87
f 89/89/89 91/91/91 90/90/90
f 89/89/89 92/92/92 91/91/91
f 93/93/93 95/95/95 94/94/94
f 93/93/93 96/96/96 95/95/95
f 97/97/97 99/99/99 98/98/98
f 97/97/97 100/100/100 99/99/99
f 101/101/101 103/103/103 102/102/102
f 102/102/102 104/104/104 101/101/101
f 102/102/102 105/105/105 104/104/104
f 106/106/106 108/108/108 107/107/107
f 109/109/109 111/111/111 110/110/110
f 109/109/109 112/112/112 111/111/111
f 113/113/113 115/115/115 114/114/114
f 113/113/113 116/116/116 115/115/115
f 117/117/117 116/116/116 113/113/113
f 117/117/117 118/118/118 116/116/116
f 119/119/119 121/121/121 120/120/120
f 119/119/119 122/122/122 121/121/121
f 123/123/123 125/125/125 124/124/124
f 125/125/125 123/123/123 126/126/126
f 125/125/125 126/126/126 127/127/127
f 126/126/126 128/128/128 127/127/127
f 126/126/126 129/129/129 128/128/128
f 130/130/130 132/132/132 131/131/131
f 130/130/130 133/133/133 132/132/132
f 134/134/134 136/136/136 135/135/135
f 137/137/137 139/139/139 138/138/138
f 137/137/137 140/140/140 139/139/139
f 141/141/141 143/143/143 142/142/142
f 141/141/141 144/144/144 143/143/143
f 145/145/145 147/147/147 146/146/146
f 145/145/145 148/148/148 147/147/147
f 149/149/149 151/151/151 150/150/150
f 149/149/149 152/152/152 151/151/151
f 153/153/153 155/155/155 154/154/154
f 153/153/153 156/156/156 155/155/155
f 157/157/157 159/159/159 158/158/158
f 157/157/157 160/160/160 159/159/159
f 161/161/161 163/163/163 162/162/162
f 161/161/161 164/164/164 163/163/163
f 165/165/165 167/167/167 166/166/166
f 167/167/167 165/165/165 168/168/168
f 168/168/168 165/165/165 169/169/169
f 170/170/170 168/168/168 169/169/169
f 170/170/170 169/169/169 171/171/171
f 172/172/172 174/174/174 173/173/173
f 172/172/172 175/175/175 174/174/174
f 176/176/176 178/178/178 177/177/177
f 176/176/176 179/179/179 178/178/178
f 180/180/180 182/182/182 181/181/181
f 182/182/182 183/183/183 181/181/181
f 182/182/182 184/184/184 183/183/183
f 185/185/185 187/187/187 186/186/186
f 185/185/185 188/188/188 187/187/187
f 189/189/189 191/191/191 190/190/190
f 191/191/191 192/192/192 190/190/190
f 191/191/191 193/193/193 192/192/192
f 194/194/194 196/196/196 195/195/195
f 197/197/197 199/199/199 198/198/198
f 197/197/197 200/200/200 199/199/199
f 201/201/201 202/202/202 199/199/199
f 201/201/201 203/203/203 202/202/202
f 204/204/204 206/206/206 205/205/205
f 204/204/204 207/207/207 206/206/206
f 208/208/208 210/210/210 209/209/209
f 208/208/208 211/211/211 210/210/210
f 212/212/212 214/214/214 213/213/213
f 215/215/215 217/217/217 216/216/216
f 215/215/215 218/218/218 217/217/217
f 219/219/219 221/221/221 220/220/220
f 219/219/219 222/222/222 221/221/221
f 223/223/223 219/219/219 224/224/224
f 223/223/223 224/224/224 225/225/225
f 226/226/226 228/228/228 227/227/227
f 226/226/226 229/229/229 228/228/228
f 230/230/230 226/226/226 227/227/227
f 230/230/230 227/227/227 231/231/231
f 232/232/232 234/234/234 233/233/233
f 232/232/232 235/235/235 234/234/234
f 236/236/236 232/232/232 233/233/233
f 236/236/236 233/233/233 237/237/237
f 238/238/238 240/240/240 239/239/239
f 238/238/238 241/241/241 240/240/240
f 242/242/242 238/238/238 239/239/239
f 242/242/242 239/239/239 243/243/243
f 244/244/244 246/246/246 245/245/245
f 244/244/244 247/247/247 246/246/246
f 247/247/247 248/248/248 246/246/246
f 247/247/247 249/249/249 248/248/248
f 250/250/250 252/252/252 251/251/251
f 250/250/250 253/253/253 252/252/252
f 253/253/253 254/254/254 252/252/252
f 253/253/253 255/255/255 254/254/254
f 256/256/256 258/258/258 257/257/257
f 256/256/256 259/259/259 258/258/258
f 259/259/259 260/260/260 258/258/258
f 259/259/259 261/261/261 260/260/260
f 262/262/262 264/264/264 263/263/263
f 262/262/262 265/265/265 264/264/264
f 265/265/265 266/266/266 264/264/264
f 265/265/265 267/267/267 266/266/266
f 268/268/268 270/270/270 269/269/269
f 268/268/268 271/271/271 270/270/270
f 271/271/271 272/272/272 270/270/270
f 271/271/271 273/273/273 272/272/272
f 273/273/273 274/274/274 272/272/272
f 273/273/273 275/275/275 274/274/274
f 275/275/275 269/269/269 274/274/274
f 275/275/275 268/268/268 269/269/269
f 273/273/273 271/271/271 276/276/276
f 271/271/271 277/277/277 276/276/276
f 271/271/271 278/278/278 277/277/277
f 278/278/278 279/279/279 277/277/277
f 278/278/278 280/280/280 279/279/279
f 280/280/280 281/281/281 279/279/279
f 280/280/280 273/273/273 281/281/281
f 273/273/273 276/276/276 281/281/281
f 280/280/280 278/278/278 282/282/282
f 278/278/278 283/283/283 282/282/282
f 278/278/278 284/284/284 283/283/283
f 284/284/284 285/285/285 283/283/283
f 284/284/284 286/286/286 285/285/285
f 286/286/286 287/287/287 285/285/285
f 286/286/286 280/280/280 287/287/287
f 280/280/280 282/282/282 287/287/287
f 275/275/275 273/273/273 288/288/288
f 275/275/275 288/288/288 289/289/289
f 290/290/290 275/275/275 289/289/289
f 290/290/290 289/289/289 291/291/291
f 292/292/292 290/290/290 291/291/291
f 292/292/292 291/291/291 293/293/293
f 273/273/273 293/293/293 288/288/288
f 273/273/273 292/292/292 293/293/293
f 273/273/273 280/280/280 294/294/294
f 273/273/273 294/294/294 295/295/295
f 292/292/292 273/273/273 295/295/295
f 292/292/292 295/295/295 296/296/296
f 297/297/297 292/292/292 296/296/296
f 297/297/297 296/296/296 298/298/298
f 280/280/280 298/298/298 294/294/294
f 280/280/280 297/297/297 298/298/298
f 280/280/280 286/286/286 299/299/299
f 280/280/280 299/299/299 300/300/300
f 297/297/297 280/280/280 300/300/300
f 297/297/297 300/300/300 301/301/301
f 302/302/302 297/297/297 301/301/301
f 302/302/302 301/301/301 303/303/303
f 286/286/286 303/303/303 299/299/299
f 286/286/286 302/302/302 303/303/303
f 292/292/292 297/297/297 304/304/304
f 292/292/292 304/304/304 305/305/305
f 297/297/297 306/306/306 304/304/304
f 297/297/297 307/307/307 306/306/306
f 307/307/307 308/308/308 306/306/306
f 307/307/307 309/309/309 308/308/308
f 309/309/309 305/305/305 308/308/308
f 309/309/309 292/292/292 305/305/305
f 292/292/292 309/309/309 310/310/310
f 292/292/292 310/310/310 311/311/311
f 290/290/290 292/292/292 311/311/311
f 290/290/290 311/311/311 312/312/312
f 309/309/309 313/313/313 310/310/310
f 309/309/309 314/314/314 313/313/313
f 314/314/314 312/312/312 313/313/313
f 314/314/314 290/290/290 312/312/312
f 297/297/297 302/302/302 315/315/315
f 297/297/297 315/315/315 316/316/316
f 307/307/307 297/297/297 316/316/316
f 302/302/302 317/317/317 315/315/315
f 302/302/302 318/318/318 317/317/317
f 318/318/318 319/319/319 317/317/317
f 318/318/318 307/307/307 319/319/319
f 307/307/307 316/316/316 319/319/319
f 320/320/320 322/322/322 321/321/321
f 320/320/320 323/323/323 322/322/322
f 324/324/324 326/326/326 325/325/325
f 324/324/324 327/327/327 326/326/326
f 328/328/328 330/330/330 329/329/329
f 328/328/328 331/331/331 330/330/330
f 332/332/332 334/334/334 333/333/333
f 332/332/332 335/335/335 334/334/334
f 336/336/336 338/338/338 337/337/337
f 336/336/336 339/339/339 338/338/338
f 340/340/340 342/342/342 341/341/341
f 340/340/340 343/343/343 342/342/342
f 344/344/344 346/346/346 345/345/345
f 344/344/344 347/347/347 346/346/346
f 348/348/348 350/350/350 349/349/349
f 348/348/348 351/351/351 350/350/350
f 352/352/352 354/354/354 353/353/353
f 352/352/352 355/355/355 354/354/354
f 356/356/356 358/358/358 357/357/357
f 356/356/356 359/359/359 358/358/358
f 360/360/360 362/362/362 361/361/361
f 360/360/360 363/363/363 362/362/362
f 364/364/364 366/366/366 365/365/365
f 364/364/364 367/367/367 366/366/366
f 368/368/368 370/370/370 369/369/369
f 368/368/368 371/371/371 370/370/370
f 372/372/372 374/374/374 373/373/373
f 372/372/372 375/375/375 374/374/374
f 376/376/376 378/378/378 377/377/377
f 376/376/376 379/379/379 378/378/378
f 380/380/380 382/382/382 381/381/381
f 380/380/380 383/383/383 382/382/382
f 384/384/384 386/386/386 385/385/385
f 384/384/384 387/387/387 386/386/386
f 388/388/388 390/390/390 389/389/389
f 388/388/388 391/391/391 390/390/390
f 392/392/392 394/394/394 393/393/393
f 392/392/392 395/395/395 394/394/394
f 396/396/396 398/398/398 397/397/397
f 396/396/396 399/399/399 398/398/398
f 400/400/400 402/402/402 401/401/401
f 400/400/400 403/403/403 402/402/402
f 404/404/404 406/406/406 405/405/405
f 404/404/404 407/407/407 406/406/406
f 408/408/408 410/410/410 409/409/409
f 408/408/408 411/411/411 410/410/410
f 412/412/412 414/414/414 413/413/413
f 412/412/412 415/415/415 414/414/414
f 416/416/416 418/418/418 417/417/417
f 416/416/416 419/419/419 418/418/418
f 420/420/420 422/422/422 421/421/421
f 420/420/420 423/423/423 422/422/422
f 424/424/424 426/426/426 425/425/425
f 424/424/424 427/427/427 426/426/426
f 428/428/428 430/430/430 429/429/429
f 428/428/428 431/431/431 430/430/430
f 432/432/432 434/434/434 433/433/433
f 432/432/432 435/435/435 434/434/434
f 436/436/436 438/438/438 437/437/437
f 436/436/436 439/439/439 438/438/438
f 440/440/440 442/442/442 441/441/441
f 440/440/440 443/443/443 442/442/442
f 444/444/444 446/446/446 445/445/445
f 444/444/444 447/447/447 446/446/446
f 448/448/448 450/450/450 449/449/449
f 448/448/448 451/451/451 450/450/450
f 452/452/452 454/454/454 453/453/453
f 452/452/452 455/455/455 454/454/454
f 456/456/456 458/458/458 457/457/457
f 456/456/456 459/459/459 458/458/458
f 460/460/460 462/462/462 461/461/461
f 460/460/460 463/463/463 462/462/462
f 464/464/464 466/466/466 465/465/465
f 464/464/464 467/467/467 466/466/466
f 468/468/468 464/464/464 465/465/465
f 468/468/468 465/465/465 469/469/469
f 470/470/470 468/468/468 469/469/469
f 470/470/470 469/469/469 471/471/471
f 472/472/472 474/474/474 473/473/473
f 472/472/472 475/475/475 474/474/474
f 475/475/475 476/476/476 474/474/474
f 475/475/475 477/477/477 476/476/476
f 477/477/477 478/478/478 476/476/476
f 477/477/477 479/479/479 478/478/478
f 480/480/480 482/482/482 481/481/481
f 480/480/480 483/483/483 482/482/482
f 484/484/484 480/480/480 481/481/481
f 484/484/484 481/481/481 485/485/485
f 486/486/486 484/484/484 485/485/485
f 486/486/486 485/485/485 487/487/487
f 488/488/488 490/490/490 489/489/489
f 488/488/488 491/491/491 490/490/490
f 491/491/491 492/492/492 490/490/490
f 491/491/491 493/493/493 492/492/492
f 493/493/493 494/494/494 492/492/492
f 493/493/493 495/495/495 494/494/494
