#SM_Prop_Mailbox_01_337_2.obj

v -0.08667755 1.07596 0.06965256
v -0.0827179 1.082699 0.07929134
v -0.08272934 1.058855 0.0959692
v -0.08668518 1.052116 0.08633041
v -0.06986237 1.087003 0.08544064
v 0.0648613 1.091205 0.09145355
v 0.06486511 1.067361 0.1081314
v -0.06985855 1.063159 0.1021185
v 0.07774734 1.086901 0.08529854
v 0.08169174 1.080162 0.07566452
v 0.08169556 1.056318 0.09234238
v 0.0777359 1.063057 0.1019764
v 0.06487656 1.080162 0.07566071
v -0.06984711 1.07596 0.06965542
v -0.06985474 1.052116 0.08633327
v 0.06488037 1.056318 0.09233856
v -0.06985474 1.052116 0.08633327
v -0.06985855 1.063159 0.1021185
v 0.06486511 1.067361 0.1081314
v 0.06488037 1.056318 0.09233856
v -0.08272934 1.058855 0.0959692
v -0.08668518 1.052116 0.08633041
v 0.08169556 1.056318 0.09234238
v 0.0777359 1.063057 0.1019764
v -0.08667755 1.029598 0.054142
v -0.06984711 1.029598 0.05413723
v 0.06487274 1.029598 0.05413818
v 0.08170319 1.029598 0.054142
v 0.06487656 1.080162 0.07566071
v 0.0648613 1.091205 0.09145355
v -0.06986237 1.087003 0.08544064
v -0.06984711 1.07596 0.06965542
v -0.08667755 1.07596 0.06965256
v -0.0827179 1.082699 0.07929134
v 0.07774734 1.086901 0.08529854
v 0.08169174 1.080162 0.07566452
v -0.06985092 1.053442 0.03745937
v -0.08668137 1.053442 0.03746414
v 0.08169937 1.053442 0.03746414
v 0.06486893 1.053442 0.03746033
v -0.06985855 1.063159 0.1021185
v -0.08272934 1.058855 0.0959692
v -0.0827179 1.082699 0.07929134
v -0.06986237 1.087003 0.08544064
v 0.0648613 1.091205 0.09145355
v 0.07774734 1.086901 0.08529854
v 0.0777359 1.063057 0.1019764
v 0.06486511 1.067361 0.1081314
v -0.06984711 1.07596 0.06965542
v -0.06985092 1.053442 0.03745937
v -0.06984711 1.029598 0.05413723
v -0.06985474 1.052116 0.08633327
v -0.08668518 1.052116 0.08633041
v -0.08667755 1.029598 0.054142
v -0.08668137 1.053442 0.03746414
v -0.08667755 1.07596 0.06965256
v 0.06488037 1.056318 0.09233856
v 0.06487274 1.029598 0.05413818
v 0.06486893 1.053442 0.03746033
v 0.06487656 1.080162 0.07566071
v 0.08169174 1.080162 0.07566452
v 0.08169937 1.053442 0.03746414
v 0.08170319 1.029598 0.054142
v 0.08169556 1.056318 0.09234238
v 0.009254456 0.6997935 0.2499542
v 0.00485611 0.7075154 0.2574167
v 0.0110817 0.7234936 0.2574158
v 0.0190506 0.7249669 0.2499552
v 0.0190506 0.7249669 0.2499552
v 0.0110817 0.7234936 0.2574158
v -0.002193451 0.7343516 0.2574158
v -0.001853943 0.7420737 0.2499552
v -0.001853943 0.7420737 0.2499552
v -0.002193451 0.7343516 0.2574158
v -0.01662827 0.7250841 0.2574148
v -0.02458954 0.7274727 0.2499533
v -0.02458954 0.7274727 0.2499533
v -0.01662827 0.7250841 0.2574148
v -0.01226425 0.7084984 0.2574129
v -0.01772308 0.701342 0.2499533
v -0.01772308 0.701342 0.2499533
v -0.01226425 0.7084984 0.2574129
v 0.00485611 0.7075154 0.2574167
v 0.009254456 0.6997935 0.2499542
v 0.00485611 0.7075154 0.2574167
v -0.003017426 0.7197886 0.2574139
v 0.0110817 0.7234936 0.2574158
v -0.002193451 0.7343516 0.2574158
v -0.01662827 0.7250841 0.2574148
v -0.01226425 0.7084984 0.2574129
v -0.2897415 0.988382 -0.2458353
v -0.2897453 1.149387 -0.1732264
v -0.2897453 1.124032 -0.1421061
v -0.2897415 0.988382 -0.2144938
v -0.2897491 0.3091286 -0.2100458
v -0.2897415 0.3091286 -0.2458353
v -0.3024902 0.02883172 -0.2324495
v -0.3024902 0.02883172 -0.2676058
v -0.2897453 1.19239 0.005034447
v -0.2897339 1.216077 0.0020504
v -0.2897415 1.128395 0.1609488
v -0.2897377 1.149387 0.1773443
v -0.289753 0.988382 0.2079077
v -0.289753 0.988382 0.2499609
v -0.289753 0.3091286 0.2499609
v -0.2897491 0.3091286 0.2192755
v -0.3067322 0.02883172 0.2140665
v -0.3067131 0.02883172 0.2461786
v -0.2385483 1.149387 0.1773424
v -0.2385483 0.988382 0.249959
v -0.289753 0.988382 0.2499609
v -0.2897377 1.149387 0.1773443
v -0.2897339 1.216077 0.0020504
v -0.2385559 1.187051 0.07834339
v -0.2385483 1.149387 0.1773424
v -0.2897377 1.149387 0.1773443
v -0.1410484 1.216077 -0.0129652
v -0.1074524 1.193165 0.07834339
v 0.2322083 1.187051 0.07834911
v 0.2833862 1.216077 0.002054214
v 0.2322006 1.149387 0.1773481
v 0.2833977 1.149387 0.1773462
v -0.2385445 1.154648 0.07760334
v -0.2385483 1.149387 0.1773424
v -0.2385559 1.187051 0.07834339
v -0.2385521 1.106068 0.002209663
v -0.2385483 0.988382 0.249959
v -0.2385559 0.988382 0.1082354
v -0.289753 0.3091286 0.2499609
v -0.289753 0.988382 0.2499609
v -0.2385483 0.838532 0.249959
v -0.231739 0.6025862 0.249959
v -0.2349434 0.3091286 0.2499571
v -0.2519035 0.02883172 0.2461748
v -0.3067131 0.02883172 0.2461786
v -0.2385483 0.988382 0.249959
v -0.1164169 0.988382 0.249959
v -0.1083298 0.8489116 0.2499542
v 0.2322006 0.838532 0.2499571
v 0.2322006 0.988382 0.2499571
v 0.2833977 0.988382 0.2499552
v 0.2833977 0.3091286 0.2499552
v 0.2399406 0.47851 0.2499599
v 0.2285881 0.3091286 0.249959
v 0.2481728 0.02883172 0.2667446
v 0.3029823 0.02883172 0.2667408
v -0.2897415 0.988382 -0.2458353
v -0.2897415 0.3091286 -0.2458353
v -0.2348251 0.3091286 -0.2458344
v -0.3024902 0.02883172 -0.2676058
v -0.2475739 0.02883172 -0.2676125
v 0.1351089 0.3261041 -0.2458344
v -0.1410446 0.988382 -0.2458372
v 0.2833939 0.988382 -0.245841
v 0.2284622 0.3091286 -0.2458344
v 0.2833939 0.3091286 -0.245841
v 0.3066559 0.02883172 -0.2630939
v 0.2517242 0.02883172 -0.2630949
v -0.3327751 0.02883172 0.272481
v -0.3327751 -1.384995E-16 0.272481
v -0.3322639 -1.384995E-16 0.1735125
v -0.3322639 0.02883172 0.1735125
v -0.2519035 0.02883172 0.2695284
v -0.2519035 -1.384995E-16 0.2695284
v -0.3327751 -1.384995E-16 0.272481
v -0.3327751 0.02883172 0.272481
v -0.3285484 0.02883172 -0.293046
v -0.3285484 -1.384995E-16 -0.293046
v -0.2475548 -1.384995E-16 -0.2917671
v -0.2475548 0.02883172 -0.2917671
v -0.3280334 0.02883172 -0.1990747
v -0.3280334 -1.384995E-16 -0.1990757
v -0.3285484 -1.384995E-16 -0.293046
v -0.3285484 0.02883172 -0.293046
v -0.3067131 0.02883172 0.2461786
v -0.3327751 0.02883172 0.272481
v -0.3322639 0.02883172 0.1735125
v -0.3067322 0.02883172 0.2140665
v -0.2519035 0.02883172 0.2461748
v -0.2519035 0.02883172 0.2695284
v -0.2867432 0.02883172 0.2140675
v -0.2867622 0.02883172 0.1735096
v -0.2519035 -1.384995E-16 0.2695284
v -0.2519035 0.02883172 0.2695284
v -0.2519035 0.02883172 0.2461748
v -0.2592659 -1.384995E-16 0.1735115
v -0.2519035 0.02883172 0.2461748
v -0.2592659 0.02883172 0.1735115
v -0.2349434 0.3091286 0.2499571
v -0.2422752 0.3091286 0.1772938
v -0.3024902 0.02883172 -0.2676058
v -0.3285484 0.02883172 -0.293046
v -0.2475548 0.02883172 -0.2917671
v -0.2475739 0.02883172 -0.2676125
v -0.3280334 0.02883172 -0.1990747
v -0.3024902 0.02883172 -0.2324495
v -0.2825165 0.02883172 -0.19907
v -0.2825165 0.02883172 -0.2324486
v -0.2475739 0.02883172 -0.2676125
v -0.2475548 0.02883172 -0.2917671
v -0.2475548 -1.384995E-16 -0.2917671
v -0.2475548 -1.384995E-16 -0.2917671
v -0.3285484 -1.384995E-16 -0.293046
v -0.3280334 -1.384995E-16 -0.1990757
v -0.2550201 -1.384995E-16 -0.1990757
v -0.2475548 -1.384995E-16 -0.2917671
v -0.2550201 -1.384995E-16 -0.1990757
v -0.2550201 0.02883172 -0.1990757
v -0.2475739 0.02883172 -0.2676125
v -0.2422867 0.3091286 -0.1772976
v -0.2348251 0.3091286 -0.2458344
v -0.2422867 0.3091286 -0.1772976
v 0.1351089 0.3261041 -0.2458344
v -0.2348251 0.3091286 -0.2458344
v -0.269783 0.3091286 -0.1772995
v -0.2422752 0.3091286 0.1772938
v -0.2697716 0.3091286 0.1772919
v 0.2359352 0.3091286 0.1772976
v 0.2359238 0.3091286 -0.1773014
v 0.2634201 0.3091286 -0.1772995
v 0.2634315 0.3091286 0.1772919
v -0.2300529 0.3091286 0.2458315
v -0.2349434 0.3091286 0.2499571
v -0.2260933 0.3091286 0.2499533
v -0.1182213 0.3091286 0.1772966
v 0.219738 0.3091286 0.2499552
v 0.2237129 0.3091286 0.2458296
v 0.2285881 0.3091286 0.249959
v -0.269783 0.3091286 -0.1772995
v -0.2825165 0.02883172 -0.19907
v -0.2825165 0.02883172 -0.2324486
v -0.2697754 0.3091286 -0.2100449
v -0.2697792 0.988382 -0.1951141
v -0.2697639 0.4809128 -0.1181641
v -0.2697716 0.7200072 -0.1198349
v -0.2697754 0.4948978 0.1130295
v -0.2697716 0.3091286 0.1772919
v -0.2697792 0.7200072 0.1224518
v -0.2697639 0.988382 0.2079086
v -0.2697678 1.128395 0.1609497
v -0.2697716 1.124032 -0.1421051
v -0.2697754 1.185489 0.01023865
v -0.2697754 0.3091286 0.2192764
v -0.2867432 0.02883172 0.2140675
v -0.2867622 0.02883172 0.1735096
v -0.2897491 0.3091286 -0.2100458
v -0.2697754 0.3091286 -0.2100449
v -0.2825165 0.02883172 -0.2324486
v -0.3024902 0.02883172 -0.2324495
v -0.289753 0.988382 0.2079077
v -0.2697639 0.988382 0.2079086
v -0.2697678 1.128395 0.1609497
v -0.2897415 1.128395 0.1609488
v -0.2897415 1.128395 0.1609488
v -0.2697678 1.128395 0.1609497
v -0.2697754 1.185489 0.01023865
v -0.2897453 1.19239 0.005034447
v -0.2897453 1.19239 0.005034447
v -0.2697754 1.185489 0.01023865
v -0.2697716 1.124032 -0.1421051
v -0.2897453 1.124032 -0.1421061
v -0.2897453 1.124032 -0.1421061
v -0.2697716 1.124032 -0.1421051
v -0.2697792 0.988382 -0.1951141
v -0.2897415 0.988382 -0.2144938
v -0.2897415 0.988382 -0.2144938
v -0.2697792 0.988382 -0.1951141
v -0.2697754 0.3091286 -0.2100449
v -0.2897491 0.3091286 -0.2100458
v -0.2897491 0.3091286 0.2192755
v -0.2697754 0.3091286 0.2192764
v -0.2697639 0.988382 0.2079086
v -0.289753 0.988382 0.2079077
v -0.3067322 0.02883172 0.2140665
v -0.2867432 0.02883172 0.2140675
v -0.2226143 0.6070274 0.2499561
v -0.1120186 0.4634199 0.249959
v -0.1104317 0.3542312 0.249959
v -0.2260933 0.3091286 0.2499533
v -0.1039352 0.8386757 0.2499542
v -0.2294235 0.8282961 0.2499561
v 0.219738 0.3091286 0.2499552
v 0.2308159 0.4829513 0.2499552
v 0.2230911 0.8282961 0.2499523
v -0.2385483 0.838532 0.249959
v -0.2335205 0.8328906 0.2458305
v -0.226696 0.6050339 0.2458305
v -0.231739 0.6025862 0.249959
v -0.2300529 0.3091286 0.2458315
v -0.2349434 0.3091286 0.2499571
v -0.226696 0.6050339 0.2458305
v -0.2226143 0.6070274 0.2499561
v -0.2260933 0.3091286 0.2499533
v -0.2300529 0.3091286 0.2458315
v -0.2335205 0.8328906 0.2458305
v -0.2294235 0.8282961 0.2499561
v -0.3280334 0.02883172 -0.1990747
v -0.2825165 0.02883172 -0.19907
v -0.3280334 -1.384995E-16 -0.1990757
v -0.2550201 -1.384995E-16 -0.1990757
v -0.2550201 0.02883172 -0.1990757
v -0.269783 0.3091286 -0.1772995
v -0.2422867 0.3091286 -0.1772976
v -0.3327751 -1.384995E-16 0.272481
v -0.2519035 -1.384995E-16 0.2695284
v -0.2592659 -1.384995E-16 0.1735115
v -0.3322639 -1.384995E-16 0.1735125
v -0.2592659 -1.384995E-16 0.1735115
v -0.2867622 0.02883172 0.1735096
v -0.3322639 0.02883172 0.1735125
v -0.3322639 -1.384995E-16 0.1735125
v -0.2592659 0.02883172 0.1735115
v -0.2422752 0.3091286 0.1772938
v -0.2697716 0.3091286 0.1772919
v 0.2359238 0.3091286 -0.1773014
v 0.1351089 0.3261041 -0.2458344
v -0.2422867 0.3091286 -0.1772976
v -0.2422752 0.3091286 0.1772938
v -0.1182213 0.3091286 0.1772966
v 0.2359352 0.3091286 0.1772976
v -0.2697639 0.6967341 -0.0845871
v -0.2697716 0.6967341 0.08501434
v -0.269783 0.5792366 0.07841492
v -0.2697716 0.571937 -0.0834198
v -0.2294197 0.8164213 0.2499561
v -0.2294197 0.8256773 0.2499561
v -0.2294388 0.8256773 0.2674732
v -0.2294273 0.8164213 0.261797
v -0.229435 0.8067596 0.2725391
v -0.2294235 0.8148172 0.2787189
v -0.1051598 0.824919 0.2617922
v 0.2230873 0.8164213 0.2617931
v 0.2230797 0.8164213 0.2499599
v -0.1051521 0.824919 0.249959
v -0.2294273 0.8164213 0.261797
v -0.2294197 0.8164213 0.2499561
v -0.1051674 0.8152573 0.272542
v 0.2230797 0.8067596 0.272543
v 0.2230873 0.8164213 0.2617931
v -0.1051598 0.824919 0.2617922
v -0.229435 0.8067596 0.2725391
v -0.2294273 0.8164213 0.261797
v 0.2833939 0.988382 -0.245841
v 0.28339 0.988382 -0.2052984
v 0.2834053 1.124032 -0.1421041
v 0.2834053 1.149387 -0.1732244
v 0.2834015 0.3091286 -0.2100439
v 0.2833939 0.3091286 -0.245841
v 0.3066559 0.02883172 -0.2279377
v 0.3066559 0.02883172 -0.2630939
v 0.2834015 1.192145 -0.002371788
v 0.2833862 1.216077 0.002054214
v 0.2833862 1.132909 0.1643457
v 0.2833977 1.149387 0.1773462
v 0.2833977 0.988382 0.2079096
v 0.2833977 0.988382 0.2499552
v 0.2833977 0.3091286 0.2499552
v 0.2834015 0.3091286 0.2192774
v 0.3029938 0.02883172 0.2346363
v 0.3029823 0.02883172 0.2667408
v 0.2322006 1.149387 0.1773481
v 0.2833977 1.149387 0.1773462
v 0.2833977 0.988382 0.2499552
v 0.2322006 0.988382 0.2499571
v 0.2322044 1.154648 0.07760143
v 0.2322083 1.187051 0.07834911
v 0.2322006 1.149387 0.1773481
v 0.2321968 1.106068 0.002207756
v 0.2322006 0.988382 0.2499571
v 0.2322083 0.988382 0.1082335
v -0.2897339 1.216077 0.0020504
v -0.2897453 1.149387 -0.1732264
v -0.1410522 1.139286 -0.1935911
v -0.1410484 1.216077 -0.0129652
v 0.2833862 1.216077 0.002054214
v 0.2834053 1.149387 -0.1732244
v -0.2385445 1.154648 0.07760334
v -0.2385559 1.187051 0.07834339
v -0.1074524 1.193165 0.07834339
v -0.1074562 1.160763 0.07760334
v 0.2322044 1.154648 0.07760143
v 0.2322083 1.187051 0.07834911
v -0.2385521 1.106068 0.002209663
v -0.2385445 1.154648 0.07760334
v -0.1074562 1.160763 0.07760334
v -0.1164207 1.106068 0.002209663
v 0.2321968 1.106068 0.002207756
v 0.2322044 1.154648 0.07760143
v -0.2385559 0.988382 0.1082354
v -0.2385521 1.106068 0.002209663
v -0.1164207 1.106068 0.002209663
v -0.1164246 0.988382 0.1082354
v 0.2322083 0.988382 0.1082335
v 0.2321968 1.106068 0.002207756
v -0.2385483 0.988382 0.249959
v -0.2385559 0.988382 0.1082354
v -0.1164246 0.988382 0.1082354
v -0.1164169 0.988382 0.249959
v 0.2322006 0.988382 0.2499571
v 0.2322083 0.988382 0.1082335
v -0.2897453 1.149387 -0.1732264
v -0.2897415 0.988382 -0.2458353
v -0.1410446 0.988382 -0.2458372
v -0.1410522 1.139286 -0.1935911
v 0.2834053 1.149387 -0.1732244
v 0.2833939 0.988382 -0.245841
v 0.3291168 0.02883172 0.293045
v 0.3285942 0.02883172 0.1940842
v 0.3285942 -1.384995E-16 0.1940842
v 0.3291168 -1.384995E-16 0.293045
v 0.2481728 0.02883172 0.2900982
v 0.3291168 0.02883172 0.293045
v 0.3291168 -1.384995E-16 0.293045
v 0.2481728 -1.384995E-16 0.2900982
v 0.3327789 0.02883172 -0.2885399
v 0.2517281 0.02883172 -0.2872572
v 0.2517281 -1.384995E-16 -0.2872572
v 0.3327789 -1.384995E-16 -0.2885399
v 0.3322601 0.02883172 -0.194561
v 0.3327789 0.02883172 -0.2885399
v 0.3327789 -1.384995E-16 -0.2885399
v 0.3322601 -1.384995E-16 -0.1945601
v 0.3029823 0.02883172 0.2667408
v 0.3029938 0.02883172 0.2346363
v 0.3285942 0.02883172 0.1940842
v 0.3291168 0.02883172 0.293045
v 0.2481728 0.02883172 0.2667446
v 0.2481728 0.02883172 0.2900982
v 0.28302 0.02883172 0.2346354
v 0.2830162 0.02883172 0.1940775
v 0.2481728 -1.384995E-16 0.2900982
v 0.2481728 0.02883172 0.2667446
v 0.2481728 0.02883172 0.2900982
v 0.2555199 -1.384995E-16 0.1940756
v 0.2481728 0.02883172 0.2667446
v 0.2555199 0.02883172 0.1940756
v 0.2285881 0.3091286 0.249959
v 0.2359352 0.3091286 0.1772976
v 0.3066559 0.02883172 -0.2630939
v 0.2517242 0.02883172 -0.2630949
v 0.2517281 0.02883172 -0.2872572
v 0.3327789 0.02883172 -0.2885399
v 0.3322601 0.02883172 -0.194561
v 0.3066559 0.02883172 -0.2279377
v 0.2866821 0.02883172 -0.1945601
v 0.2866821 0.02883172 -0.2279387
v 0.2517242 0.02883172 -0.2630949
v 0.2517281 -1.384995E-16 -0.2872572
v 0.2517281 0.02883172 -0.2872572
v 0.2517281 -1.384995E-16 -0.2872572
v 0.3322601 -1.384995E-16 -0.1945601
v 0.3327789 -1.384995E-16 -0.2885399
v 0.2591858 -1.384995E-16 -0.194562
v 0.2517281 -1.384995E-16 -0.2872572
v 0.2517242 0.02883172 -0.2630949
v 0.2591858 0.02883172 -0.194562
v 0.2591858 -1.384995E-16 -0.194562
v 0.2359238 0.3091286 -0.1773014
v 0.2284622 0.3091286 -0.2458344
v 0.2359238 0.3091286 -0.1773014
v 0.2284622 0.3091286 -0.2458344
v 0.1351089 0.3261041 -0.2458344
v 0.2634201 0.3091286 -0.1772995
v 0.2634277 0.3091286 -0.2100449
v 0.2866821 0.02883172 -0.2279387
v 0.2866821 0.02883172 -0.1945601
v 0.2634315 0.988382 -0.2052917
v 0.2634163 0.7200072 -0.1198349
v 0.2634239 0.7200072 0.1224518
v 0.2634239 0.988382 0.2079086
v 0.2634163 1.124032 -0.1421051
v 0.2634239 1.121548 0.1517334
v 0.2634239 1.16852 0.001083374
v 0.2634201 0.5010356 0.1050262
v 0.2634315 0.3091286 0.1772919
v 0.2634277 0.3091286 0.2192764
v 0.28302 0.02883172 0.2346354
v 0.2830162 0.02883172 0.1940775
v 0.2634239 0.4809128 -0.1181641
v 0.2834015 0.3091286 -0.2100439
v 0.3066559 0.02883172 -0.2279377
v 0.2866821 0.02883172 -0.2279387
v 0.2634277 0.3091286 -0.2100449
v 0.28339 0.988382 -0.2052984
v 0.2634315 0.988382 -0.2052917
v 0.2833977 0.988382 0.2079096
v 0.2833862 1.132909 0.1643457
v 0.2634239 1.121548 0.1517334
v 0.2634239 0.988382 0.2079086
v 0.2833862 1.132909 0.1643457
v 0.2834015 1.192145 -0.002371788
v 0.2634239 1.16852 0.001083374
v 0.2634239 1.121548 0.1517334
v 0.2834015 1.192145 -0.002371788
v 0.2834053 1.124032 -0.1421041
v 0.2634163 1.124032 -0.1421051
v 0.2634239 1.16852 0.001083374
v 0.2834053 1.124032 -0.1421041
v 0.28339 0.988382 -0.2052984
v 0.2634315 0.988382 -0.2052917
v 0.2634163 1.124032 -0.1421051
v 0.2834015 0.3091286 0.2192774
v 0.2833977 0.988382 0.2079096
v 0.2634239 0.988382 0.2079086
v 0.2634277 0.3091286 0.2192764
v 0.3029938 0.02883172 0.2346363
v 0.28302 0.02883172 0.2346354
v -0.2335205 0.8328906 0.2458305
v -0.2385483 0.838532 0.249959
v -0.1083298 0.8489116 0.2499542
v -0.1059113 0.8432702 0.2458258
v 0.2271729 0.8328906 0.2458305
v 0.2322006 0.838532 0.2499571
v 0.2322006 0.838532 0.2499571
v 0.2399406 0.47851 0.2499599
v 0.2349129 0.4809577 0.2458334
v 0.2271729 0.8328906 0.2458305
v 0.2237129 0.3091286 0.2458296
v 0.2285881 0.3091286 0.249959
v 0.2349129 0.4809577 0.2458334
v 0.2237129 0.3091286 0.2458296
v 0.219738 0.3091286 0.2499552
v 0.2308159 0.4829513 0.2499552
v 0.2271729 0.8328906 0.2458305
v 0.2230911 0.8282961 0.2499523
v -0.2294235 0.8282961 0.2499561
v -0.2335205 0.8328906 0.2458305
v -0.1059113 0.8432702 0.2458258
v -0.1039352 0.8386757 0.2499542
v 0.2230911 0.8282961 0.2499523
v 0.2271729 0.8328906 0.2458305
v -0.2260933 0.3091286 0.2499533
v -0.1104317 0.3542312 0.249959
v -0.1182213 0.3091286 0.1772966
v 0.3322601 0.02883172 -0.194561
v 0.3322601 -1.384995E-16 -0.1945601
v 0.2866821 0.02883172 -0.1945601
v 0.2591858 -1.384995E-16 -0.194562
v 0.2591858 0.02883172 -0.194562
v 0.2634201 0.3091286 -0.1772995
v 0.2359238 0.3091286 -0.1773014
v 0.3291168 -1.384995E-16 0.293045
v 0.3285942 -1.384995E-16 0.1940842
v 0.2555199 -1.384995E-16 0.1940756
v 0.2481728 -1.384995E-16 0.2900982
v 0.2555199 -1.384995E-16 0.1940756
v 0.3285942 -1.384995E-16 0.1940842
v 0.3285942 0.02883172 0.1940842
v 0.2830162 0.02883172 0.1940775
v 0.2555199 0.02883172 0.1940756
v 0.2359352 0.3091286 0.1772976
v 0.2634315 0.3091286 0.1772919
v 0.2634277 0.6978869 -0.08538818
v 0.2634239 0.5730898 -0.08421326
v 0.2634201 0.5835931 0.07202148
v 0.2634239 0.6978869 0.08421326
v 0.2230797 0.8164213 0.2499599
v 0.2230873 0.8164213 0.2617931
v 0.2230759 0.8256773 0.267477
v 0.2230797 0.8256773 0.2499599
v 0.2230797 0.8067596 0.272543
v 0.2230911 0.8148172 0.2787151
v -0.1051559 0.8341751 0.2674761
v -0.1051521 0.8341751 0.249959
v 0.2230797 0.8256773 0.2499599
v 0.2230759 0.8256773 0.267477
v -0.2294388 0.8256773 0.2674732
v -0.2294197 0.8256773 0.2499561
v -0.1051674 0.8152573 0.272542
v -0.1051559 0.823315 0.2787218
v 0.2230911 0.8148172 0.2787151
v 0.2230797 0.8067596 0.272543
v -0.229435 0.8067596 0.2725391
v -0.2294235 0.8148172 0.2787189
v -0.1051559 0.823315 0.2787218
v -0.1051559 0.8341751 0.2674761
v 0.2230759 0.8256773 0.267477
v 0.2230911 0.8148172 0.2787151
v -0.2294235 0.8148172 0.2787189
v -0.2294388 0.8256773 0.2674732
v -0.2697716 0.7200072 -0.1198349
v -0.2697639 0.6967341 -0.0845871
v -0.2697716 0.571937 -0.0834198
v -0.2697639 0.4809128 -0.1181641
v -0.269783 0.5792366 0.07841492
v -0.2697754 0.4948978 0.1130295
v -0.2697716 0.6967341 0.08501434
v -0.2697792 0.7200072 0.1224518
v 0.2634163 0.7200072 -0.1198349
v 0.2634277 0.6978869 -0.08538818
v 0.2634239 0.6978869 0.08421326
v 0.2634239 0.7200072 0.1224518
v 0.2634201 0.5835931 0.07202148
v 0.2634201 0.5010356 0.1050262
v 0.2634239 0.5730898 -0.08421326
v 0.2634239 0.4809128 -0.1181641
v -0.1182213 0.3091286 0.1772966
v -0.1104317 0.3542312 0.249959
v 0.219738 0.3091286 0.2499552

vn -0.9477539 0.1831055 0.2612305
vn -0.9477539 0.1831055 0.2612305
vn -0.9477539 0.1831055 0.2612305
vn -0.9477539 0.1831055 0.2612305
vn -0.05438232 0.5722656 0.8183594
vn -0.05438232 0.5722656 0.8183594
vn -0.05438232 0.5722656 0.8183594
vn -0.05438232 0.5722656 0.8183594
vn 0.9477539 0.1824951 0.2612305
vn 0.9477539 0.1824951 0.2612305
vn 0.9477539 0.1824951 0.2612305
vn 0.9477539 0.1824951 0.2612305
vn 0.05432129 -0.5722656 -0.8183594
vn 0.05432129 -0.5722656 -0.8183594
vn 0.05432129 -0.5722656 -0.8183594
vn 0.05432129 -0.5722656 -0.8183594
vn 0 -0.8193359 0.5732422
vn 0 -0.8193359 0.5732422
vn 0 -0.8193359 0.5732422
vn 0 -0.8193359 0.5732422
vn 0 -0.8193359 0.5732422
vn 0 -0.8193359 0.5732422
vn 0 -0.8193359 0.5732422
vn 0 -0.8193359 0.5732422
vn 0 -0.8193359 0.5732422
vn 0 -0.8193359 0.5732422
vn 0 -0.8193359 0.5732422
vn 0 -0.8193359 0.5732422
vn 0 0.8193359 -0.5732422
vn 0 0.8193359 -0.5732422
vn 0 0.8193359 -0.5732422
vn 0 0.8193359 -0.5732422
vn 0 0.8193359 -0.5732422
vn 0 0.8193359 -0.5732422
vn 0 0.8193359 -0.5732422
vn 0 0.8193359 -0.5732422
vn 0 0.8193359 -0.5732422
vn 0 0.8193359 -0.5732422
vn 0 0.8193359 -0.5732422
vn 0 0.8193359 -0.5732422
vn -0.5039063 0.4951172 0.7075195
vn -0.5039063 0.4951172 0.7075195
vn -0.5039063 0.4951172 0.7075195
vn -0.5039063 0.4951172 0.7075195
vn 0.5039063 0.4951172 0.7080078
vn 0.5039063 0.4951172 0.7080078
vn 0.5039063 0.4951172 0.7080078
vn 0.5039063 0.4951172 0.7080078
vn 1 0 0
vn 1 0 0
vn 1 0 0
vn 1 0 0
vn -1 0 0
vn -1 0 0
vn -1 0 0
vn -1 0 0
vn -1 0 0
vn -1 0 0
vn -1 0 0
vn -1 0 0
vn 1 0 0
vn 1 0 0
vn 1 0 0
vn 1 0 0
vn 0.6845703 -0.2663574 0.6787109
vn 0.6845703 -0.2663574 0.6787109
vn 0.6845703 -0.2663574 0.6787109
vn 0.6845703 -0.2663574 0.6787109
vn 0.4873047 0.5957031 0.6386719
vn 0.4873047 0.5957031 0.6386719
vn 0.4873047 0.5957031 0.6386719
vn 0.4873047 0.5957031 0.6386719
vn -0.4125977 0.6425781 0.6459961
vn -0.4125977 0.6425781 0.6459961
vn -0.4125977 0.6425781 0.6459961
vn -0.4125977 0.6425781 0.6459961
vn -0.7006836 -0.1843262 0.6889648
vn -0.7006836 -0.1843262 0.6889648
vn -0.7006836 -0.1843262 0.6889648
vn -0.7006836 -0.1843262 0.6889648
vn -0.0406189 -0.7060547 0.7070313
vn -0.0406189 -0.7060547 0.7070313
vn -0.0406189 -0.7060547 0.7070313
vn -0.0406189 -0.7060547 0.7070313
vn 0 0 1
vn 0 0 1
vn 0 0 1
vn 0 0 1
vn 0 0 1
vn 0 0 1
vn -1 0 0
vn -1 0 0
vn -1 0 0
vn -1 0 0
vn -0.9995117 0.02272034 0
vn -0.9995117 0.02272034 0
vn -0.9990234 0.04544067 0
vn -0.9990234 0.04544067 0
vn -1 0 0
vn -1 0 0
vn -1 0 0
vn -1 0 0
vn -1 0 0
vn -1 0 0
vn -0.9995117 0.03022766 0
vn -0.9995117 0.03022766 0
vn -0.9980469 0.0604248 0
vn -0.9980469 0.0604248 0
vn 0 0.4111328 0.9116211
vn 0 0.4111328 0.9116211
vn 0 0.4111328 0.9116211
vn 0 0.4111328 0.9116211
vn -0.002428055 0.9448242 0.3271484
vn -0.002428055 0.9448242 0.3271484
vn 0 0.9345703 0.3554688
vn 0 0.9345703 0.3554688
vn -0.001517296 0.9545898 0.2971191
vn -0.001517296 0.9545898 0.2971191
vn 0.0009102821 0.9453125 0.3259277
vn 0.0009102821 0.9453125 0.3259277
vn 0 0.9345703 0.3554688
vn 0 0.9345703 0.3554688
vn 1 0 0
vn 1 0 0
vn 1 0 0
vn 1 0 0
vn 1 0 0
vn 1 0 0
vn 0 -0.004497528 1
vn 0 0 1
vn 0 0 1
vn 0 0 1
vn 0 -0.006748199 1
vn 0 -0.0134964 1
vn 0 -0.0134964 1
vn 0 0 1
vn 0 0 1
vn 0 0 1
vn 0 0 1
vn 0 0 1
vn 0 0 1
vn 0 0.01992798 1
vn 0 0 1
vn 0 0.02990723 0.9995117
vn 0 0.05978394 0.9980469
vn 0 0.05978394 0.9980469
vn 0 0 -1
vn 0 0.03875732 -0.9990234
vn 0 0.02583313 -0.9995117
vn 0 0.07745361 -0.9970703
vn 0 0.07745361 -0.9970703
vn 0 0 -1
vn 0 0 -1
vn 0 0 -1
vn 0 0.02049255 -1
vn 0 0.0307312 -0.9995117
vn 0 0.06143188 -0.9980469
vn 0 0.06143188 -0.9980469
vn -1 0 -0.0051651
vn -1 0 -0.0051651
vn -1 0 -0.0051651
vn -1 0 -0.0051651
vn 0.03649902 0 0.9995117
vn 0.03649902 0 0.9995117
vn 0.03649902 0 0.9995117
vn 0.03649902 0 0.9995117
vn 0.01579285 0 -1
vn 0.01579285 0 -1
vn 0.01579285 0 -1
vn 0.01579285 0 -1
vn -1 0 0.00548172
vn -1 0 0.00548172
vn -1 0 0.00548172
vn -1 0 0.00548172
vn 0 1 0
vn 0 1 0
vn 0 1 0
vn 0 1 0
vn 0 1 0
vn 0 1 0
vn 0 1 0
vn 0 1 0
vn 0.9990234 -0.0176239 -0.04348755
vn 1 0 0
vn 0.9990234 -0.0176239 -0.04348755
vn 0.9956055 -0.03518677 -0.08691406
vn 0.9946289 -0.04699707 -0.09368896
vn 0.9946289 -0.04699707 -0.09368896
vn 0.9931641 -0.05880737 -0.1004028
vn 0.9931641 -0.05880737 -0.1004028
vn 0 1 0
vn 0 1 0
vn 0 1 0
vn 0 1 0
vn 0 1 0
vn 0 1 0
vn 0 1 0
vn 0 1 0
vn 1 0 0
vn 1 0 0
vn 1 0 0
vn 0 -1 0
vn 0 -1 0
vn 0 -1 0
vn 0 -1 0
vn 0.9951172 -0.03820801 0.09204102
vn 0.9951172 -0.03820801 0.09204102
vn 0.9941406 -0.04586792 0.09997559
vn 0.9941406 -0.04586792 0.09997559
vn 0.9926758 -0.05352783 0.1079712
vn 0.9926758 -0.05352783 0.1079712
vn 0.01145935 -1 0.001247406
vn 0.0458374 -0.9990234 0.004989624
vn 0.0458374 -0.9990234 0.004989624
vn 0 -1 0
vn 0 -1 0
vn 0 -1 0
vn 0 -1 0
vn 0 -1 0
vn 0 -1 0
vn 0 -1 0
vn 0 -1 0
vn 0 -1 0
vn 0 -1 0
vn 0 -1 0
vn 0 -1 0
vn 0 -1 0
vn 0 -1 0
vn -1 0.01135254 4.971027E-05
vn -0.9990234 0.04541016 0
vn -0.9990234 0.04541016 0
vn -0.9995117 0.02270508 0
vn -1 0 3.97563E-05
vn -1 0 4.965067E-05
vn -1 0 4.965067E-05
vn -1 0 0
vn -1 0.01512146 0
vn -1 0 0
vn -1 0 0
vn -1 0 0
vn -1 0 0
vn -1 0 0
vn -0.9995117 0.03024292 0
vn -0.9980469 0.06045532 0
vn -0.9980469 0.06045532 0
vn 0 -0.07965088 0.996582
vn 0 -0.07965088 0.996582
vn 0 -0.07965088 0.996582
vn 0 -0.07965088 0.996582
vn 0 -0.3178711 -0.9482422
vn 0 -0.3178711 -0.9482422
vn 0 -0.3178711 -0.9482422
vn 0 -0.3178711 -0.9482422
vn -0.1121216 -0.9243164 -0.3649902
vn -0.1121216 -0.9243164 -0.3649902
vn -0.1121216 -0.9243164 -0.3649902
vn -0.1121216 -0.9243164 -0.3649902
vn -0.2058105 -0.8979492 0.3891602
vn -0.2058105 -0.8979492 0.3891602
vn -0.2058105 -0.8979492 0.3891602
vn -0.2058105 -0.8979492 0.3891602
vn -0.4030762 -0.3840332 0.8305664
vn -0.4030762 -0.3840332 0.8305664
vn -0.4030762 -0.3840332 0.8305664
vn -0.4030762 -0.3840332 0.8305664
vn -0.4365234 -0.006938934 0.8994141
vn -0.4365234 -0.006938934 0.8994141
vn -0.4365234 -0.006938934 0.8994141
vn -0.4365234 -0.006938934 0.8994141
vn 0 0.0009222031 -1
vn 0 0.0009222031 -1
vn 0 -0.01673889 -1
vn 0 -0.01673889 -1
vn 0 0.01858521 -1
vn 0 0.01858521 -1
vn 0 0 1
vn 0 0 1
vn 0 0 1
vn 0 0 1
vn 0 0 1
vn 0 0 1
vn 0 0 1
vn 0 0 1
vn 0 0 1
vn 0.6376953 0.01873779 0.7700195
vn 0.6376953 0.01873779 0.7700195
vn 0.6386719 0.005805969 0.7695313
vn 0.6386719 0.005805969 0.7695313
vn 0.6401367 -0.007125854 0.7680664
vn 0.6401367 -0.007125854 0.7680664
vn -0.715332 -0.006702423 0.6987305
vn -0.715332 -0.006702423 0.6987305
vn -0.7167969 0.008255005 0.6972656
vn -0.7167969 0.008255005 0.6972656
vn -0.7133789 -0.02165222 0.7001953
vn -0.7133789 -0.02165222 0.7001953
vn 0 0 1
vn 0 -0.02583313 0.9995117
vn 0 0 1
vn 0 0 1
vn 0 -0.03875732 0.9990234
vn 0 -0.07745361 0.9970703
vn 0 -0.07745361 0.9970703
vn 0 -1 0
vn 0 -1 0
vn 0 -1 0
vn 0 -1 0
vn 0 0 -1
vn 0 0.004497528 -1
vn 0 0 -1
vn 0 0 -1
vn 0 0.006744385 -1
vn 0 0.01348877 -1
vn 0 0.01348877 -1
vn 0 -0.9707031 -0.2404785
vn 0 -0.9707031 -0.2404785
vn 0 -0.9707031 -0.2404785
vn 0 1 0
vn 0 1 0
vn 0 1 0
vn -1 0 0
vn -1 0 0
vn -1 0 0
vn -1 0 0
vn -1 0 0
vn -1 0 0
vn -1 0 0
vn -1 0 0
vn -1 0 0
vn -1 0 0
vn 0.02119446 -1 0
vn -0.02587891 -0.9995117 0
vn -0.02587891 -0.9995117 0
vn 0.02119446 -1 0
vn 0.0682373 -0.9975586 0
vn 0.0682373 -0.9975586 0
vn 0.01577759 -0.7436523 -0.668457
vn -0.01924133 -0.7436523 -0.668457
vn -0.01924133 -0.7436523 -0.668457
vn 0.01577759 -0.7436523 -0.668457
vn 0.05078125 -0.7426758 -0.6674805
vn 0.05078125 -0.7426758 -0.6674805
vn 1 0 0
vn 1 0 0
vn 1 0 0
vn 1 0 0
vn 0.9990234 0.04138184 0
vn 0.9990234 0.04138184 0
vn 0.996582 0.08270264 0
vn 0.996582 0.08270264 0
vn 1 0 0
vn 1 0 0
vn 1 0 0
vn 1 0 0
vn 1 0 0
vn 1 0 0
vn 0.9995117 0.03488159 0
vn 0.9995117 0.03488159 0
vn 0.9975586 0.06970215 0
vn 0.9975586 0.06970215 0
vn 0 0.4111328 0.9116211
vn 0 0.4111328 0.9116211
vn 0 0.4111328 0.9116211
vn 0 0.4111328 0.9116211
vn -1 0 0
vn -1 0 0
vn -1 0 0
vn -1 0 0
vn -1 0 0
vn -1 0 0
vn -0.0129776 0.9272461 -0.3737793
vn -0.0129776 0.9272461 -0.3737793
vn -0.00421524 0.9272461 -0.3740234
vn -0.00421524 0.9272461 -0.3740234
vn 0.004550934 0.9272461 -0.3737793
vn 0.004550934 0.9272461 -0.3737793
vn 0 -0.02282715 0.9995117
vn 0 -0.02282715 0.9995117
vn 0 -0.02288818 0.9995117
vn 0 -0.02288818 0.9995117
vn 0 -0.02294922 0.9995117
vn 0 -0.02294922 0.9995117
vn 0.01992798 -0.8251953 0.5639648
vn 0.01992798 -0.8251953 0.5639648
vn 0.006305695 -0.8251953 0.5649414
vn 0.006305695 -0.8251953 0.5649414
vn -0.007324219 -0.824707 0.5654297
vn -0.007324219 -0.824707 0.5654297
vn 0 0.6694336 0.7431641
vn 0 0.6694336 0.7431641
vn 0 0.6694336 0.7431641
vn 0 0.6694336 0.7431641
vn 0 0.6694336 0.7431641
vn 0 0.6694336 0.7431641
vn 0 1 0
vn 0 1 0
vn 0 1 0
vn 0 1 0
vn 0 1 0
vn 0 1 0
vn -0.05090332 0.3710938 -0.9272461
vn -0.05090332 0.3710938 -0.9272461
vn -0.01654053 0.371582 -0.9282227
vn -0.01654053 0.371582 -0.9282227
vn 0.01783752 0.371582 -0.9282227
vn 0.01783752 0.371582 -0.9282227
vn 1 0 -0.005279541
vn 1 0 -0.005279541
vn 1 0 -0.005279541
vn 1 0 -0.005279541
vn -0.03637695 0 0.9995117
vn -0.03637695 0 0.9995117
vn -0.03637695 0 0.9995117
vn -0.03637695 0 0.9995117
vn -0.01582336 0 -1
vn -0.01582336 0 -1
vn -0.01582336 0 -1
vn -0.01582336 0 -1
vn 1 0 0.005519867
vn 1 0 0.005519867
vn 1 0 0.005519867
vn 1 0 0.005519867
vn 0 1 0
vn 0 1 0
vn 0 1 0
vn 0 1 0
vn 0 1 0
vn 0 1 0
vn 0 1 0
vn 0 1 0
vn -0.9990234 -0.01757813 -0.043396
vn -0.9990234 -0.01757813 -0.043396
vn -1 0 0
vn -0.9956055 -0.03512573 -0.08673096
vn -0.9941406 -0.05523682 -0.09356689
vn -0.9941406 -0.05523682 -0.09356689
vn -0.9921875 -0.07531738 -0.1002808
vn -0.9921875 -0.07531738 -0.1002808
vn 0 1 0
vn 0 1 0
vn 0 1 0
vn 0 1 0
vn 0 1 0
vn 0 1 0
vn 0 1 0
vn 0 1 0
vn -1 0 0
vn -1 0 0
vn -1 0 0
vn 0 -1 0
vn 0 -1 0
vn 0 -1 0
vn 0 -1 0
vn -0.9951172 -0.03863525 0.09210205
vn -0.9931641 -0.06378174 0.09997559
vn -0.9931641 -0.06378174 0.09997559
vn -0.9951172 -0.03863525 0.09210205
vn -0.9902344 -0.08880615 0.1077881
vn -0.9902344 -0.08880615 0.1077881
vn -0.178833 -0.9838867 0.01947021
vn -0.178833 -0.9838867 0.01947021
vn -0.178833 -0.9838867 0.01947021
vn 1 0.02069092 0
vn 0.9990234 0.04138184 0
vn 0.996582 0.08270264 0
vn 0.996582 0.08270264 0
vn 1 0 0
vn 1 0 0
vn 1 0 0
vn 1 0 0
vn 1 0 0
vn 1 0 0
vn 1 0 0
vn 1 0 0
vn 1 0.0174408 0
vn 0.9995117 0.03488159 0
vn 0.9975586 0.06970215 0
vn 0.9975586 0.06970215 0
vn 1 0 0
vn 0 -0.03536987 0.9995117
vn 0 -0.0637207 0.9980469
vn 0 -0.0637207 0.9980469
vn 0 -0.03536987 0.9995117
vn 0 -0.00699234 1
vn 0 -0.00699234 1
vn 0.3662109 -0.3144531 -0.8759766
vn 0.3662109 -0.3144531 -0.8759766
vn 0.3662109 -0.3144531 -0.8759766
vn 0.3662109 -0.3144531 -0.8759766
vn 0.6704102 -0.7036133 -0.2354736
vn 0.6704102 -0.7036133 -0.2354736
vn 0.6704102 -0.7036133 -0.2354736
vn 0.6704102 -0.7036133 -0.2354736
vn 0.5024414 -0.8032227 0.3198242
vn 0.5024414 -0.8032227 0.3198242
vn 0.5024414 -0.8032227 0.3198242
vn 0.5024414 -0.8032227 0.3198242
vn 0 -0.4223633 0.90625
vn 0 -0.4223633 0.90625
vn 0 -0.4223633 0.90625
vn 0 -0.4223633 0.90625
vn 0 -0.03573608 -0.9995117
vn 0 -0.01673889 -1
vn 0 -0.01673889 -1
vn 0 -0.03573608 -0.9995117
vn 0 -0.05471802 -0.9985352
vn 0 -0.05471802 -0.9985352
vn 0.04592896 -0.5698242 0.8203125
vn 0.04592896 -0.5698242 0.8203125
vn 0.01390839 -0.5791016 0.8149414
vn 0.01390839 -0.5791016 0.8149414
vn -0.01811218 -0.5878906 0.809082
vn -0.01811218 -0.5878906 0.809082
vn -0.6318359 -0.01373291 0.7749023
vn -0.6328125 0.01407623 0.7739258
vn -0.6328125 0.01407623 0.7739258
vn -0.6318359 -0.01373291 0.7749023
vn -0.6337891 0.04187012 0.7724609
vn -0.6337891 0.04187012 0.7724609
vn 0.7080078 -0.01499176 0.7060547
vn 0.7084961 -0.0456543 0.7045898
vn 0.7084961 -0.0456543 0.7045898
vn 0.7080078 -0.01499176 0.7060547
vn 0.7075195 0.01568604 0.706543
vn 0.7075195 0.01568604 0.706543
vn -0.05310059 0.6474609 0.7602539
vn -0.05310059 0.6474609 0.7602539
vn -0.01609802 0.6567383 0.7539063
vn -0.01609802 0.6567383 0.7539063
vn 0.0209198 0.6650391 0.7460938
vn 0.0209198 0.6650391 0.7460938
vn 0.3198242 -0.8198242 0.4746094
vn 0.3198242 -0.8198242 0.4746094
vn 0.3198242 -0.8198242 0.4746094
vn 0 0 1
vn 0 0 1
vn 0 -0.02049255 1
vn 0 0 1
vn 0 -0.03074646 0.9995117
vn 0 -0.0614624 0.9980469
vn 0 -0.0614624 0.9980469
vn 0 -1 0
vn 0 -1 0
vn 0 -1 0
vn 0 -1 0
vn 0 0 -1
vn 0 0 -1
vn 0 0 -1
vn 0 -0.01992798 -1
vn 0 -0.02989197 -0.9995117
vn 0 -0.05978394 -0.9980469
vn 0 -0.05978394 -0.9980469
vn 1 0 0
vn 1 0 0
vn 1 0 0
vn 1 0 0
vn 1 0 0
vn 1 0 0
vn 1 0 0
vn 1 0 0
vn 1 0 0
vn 1 0 0
vn -0.02119446 1 0
vn -0.02119446 1 0
vn 0.02587891 0.9995117 0
vn 0.02587891 0.9995117 0
vn -0.0682373 0.9975586 0
vn -0.0682373 0.9975586 0
vn 0.01291656 -0.6083984 0.793457
vn 0.01291656 -0.6083984 0.793457
vn -0.01574707 -0.6083984 0.793457
vn -0.01574707 -0.6083984 0.793457
vn 0.04156494 -0.6079102 0.7929688
vn 0.04156494 -0.6079102 0.7929688
vn -0.01526642 0.7192383 0.6948242
vn -0.01526642 0.7192383 0.6948242
vn 0.01861572 0.7192383 0.6948242
vn 0.01861572 0.7192383 0.6948242
vn -0.0491333 0.7182617 0.6938477
vn -0.0491333 0.7182617 0.6938477
vn -1 0 4.965067E-05
vn -1 0 0
vn -1 0 0
vn -1 0 4.965067E-05
vn -1 0 0
vn -1 0 0
vn -1 0 0
vn -1 0 0
vn 1 0 0
vn 1 0 0
vn 1 0 0
vn 1 0 0
vn 1 0 0
vn 1 0 0
vn 1 0 0
vn 1 0 0
vn -0.114563 -0.8383789 0.5327148
vn -0.114563 -0.8383789 0.5327148
vn -0.114563 -0.8383789 0.5327148

vt 0.3500977 0.4199219
vt 0.3500977 0.4199219
vt 0.3500977 0.4199219
vt 0.3500977 0.4199219
vt 0.3500977 0.4199219
vt 0.3500977 0.4199219
vt 0.3500977 0.4199219
vt 0.3500977 0.4199219
vt 0.3500977 0.4199219
vt 0.3500977 0.4199219
vt 0.3500977 0.4199219
vt 0.3500977 0.4199219
vt 0.3500977 0.4199219
vt 0.3500977 0.4199219
vt 0.3500977 0.4199219
vt 0.3500977 0.4199219
vt 0.3500977 0.4199219
vt 0.3500977 0.4199219
vt 0.3500977 0.4199219
vt 0.3500977 0.4199219
vt 0.3500977 0.4199219
vt 0.3500977 0.4199219
vt 0.3500977 0.4199219
vt 0.3500977 0.4199219
vt 0.3500977 0.4199219
vt 0.3500977 0.4199219
vt 0.3500977 0.4199219
vt 0.3500977 0.4199219
vt 0.3500977 0.4199219
vt 0.3500977 0.4199219
vt 0.3500977 0.4199219
vt 0.3500977 0.4199219
vt 0.3500977 0.4199219
vt 0.3500977 0.4199219
vt 0.3500977 0.4199219
vt 0.3500977 0.4199219
vt 0.3500977 0.4199219
vt 0.3500977 0.4199219
vt 0.3500977 0.4199219
vt 0.3500977 0.4199219
vt 0.3500977 0.4199219
vt 0.3500977 0.4199219
vt 0.3500977 0.4199219
vt 0.3500977 0.4199219
vt 0.3500977 0.4199219
vt 0.3500977 0.4199219
vt 0.3500977 0.4199219
vt 0.3500977 0.4199219
vt 0.3500977 0.4199219
vt 0.3500977 0.4199219
vt 0.3500977 0.4199219
vt 0.3500977 0.4199219
vt 0.3500977 0.4199219
vt 0.3500977 0.4199219
vt 0.3500977 0.4199219
vt 0.3500977 0.4199219
vt 0.3500977 0.4199219
vt 0.3500977 0.4199219
vt 0.3500977 0.4199219
vt 0.3500977 0.4199219
vt 0.3500977 0.4199219
vt 0.3500977 0.4199219
vt 0.3500977 0.4199219
vt 0.3500977 0.4199219
vt 0.08898926 0.3261719
vt 0.08898926 0.3261719
vt 0.08898926 0.3261719
vt 0.08898926 0.3261719
vt 0.08898926 0.3261719
vt 0.08898926 0.3261719
vt 0.08898926 0.3261719
vt 0.08898926 0.3261719
vt 0.08898926 0.3261719
vt 0.08898926 0.3261719
vt 0.08898926 0.3261719
vt 0.08898926 0.3261719
vt 0.08898926 0.3261719
vt 0.08898926 0.3261719
vt 0.08898926 0.3261719
vt 0.08898926 0.3261719
vt 0.08898926 0.3261719
vt 0.08898926 0.3261719
vt 0.08898926 0.3261719
vt 0.08898926 0.3261719
vt 0.08898926 0.3261719
vt 0.08898926 0.3261719
vt 0.08898926 0.3261719
vt 0.08898926 0.3261719
vt 0.08898926 0.3261719
vt 0.08898926 0.3261719
vt 0.3500977 0.4199219
vt 0.3500977 0.4199219
vt 0.3500977 0.4199219
vt 0.3500977 0.4199219
vt 0.3500977 0.4199219
vt 0.3500977 0.4199219
vt 0.3500977 0.4199219
vt 0.3500977 0.4199219
vt 0.3500977 0.4199219
vt 0.3500977 0.4199219
vt 0.3500977 0.4199219
vt 0.3500977 0.4199219
vt 0.3500977 0.4199219
vt 0.3500977 0.4199219
vt 0.3500977 0.4199219
vt 0.3500977 0.4199219
vt 0.3500977 0.4199219
vt 0.3500977 0.4199219
vt 0.3500977 0.4199219
vt 0.3500977 0.4199219
vt 0.3500977 0.4199219
vt 0.3500977 0.4199219
vt 0.3500977 0.4199219
vt 0.3500977 0.4199219
vt 0.3500977 0.4199219
vt 0.3500977 0.4199219
vt 0.3500977 0.4199219
vt 0.3500977 0.4199219
vt 0.3500977 0.4199219
vt 0.3500977 0.4199219
vt 0.3500977 0.4199219
vt 0.3500977 0.4199219
vt 0.3500977 0.4199219
vt 0.3500977 0.4199219
vt 0.3500977 0.4199219
vt 0.3500977 0.4199219
vt 0.3500977 0.4199219
vt 0.3500977 0.4199219
vt 0.3500977 0.4199219
vt 0.3500977 0.4199219
vt 0.3500977 0.4199219
vt 0.3500977 0.4199219
vt 0.3500977 0.4199219
vt 0.3500977 0.4199219
vt 0.3500977 0.4199219
vt 0.3500977 0.4199219
vt 0.3500977 0.4199219
vt 0.3500977 0.4199219
vt 0.3500977 0.4199219
vt 0.3500977 0.4199219
vt 0.3500977 0.4199219
vt 0.3500977 0.4199219
vt 0.3500977 0.4199219
vt 0.3500977 0.4199219
vt 0.3500977 0.4199219
vt 0.3500977 0.4199219
vt 0.3500977 0.4199219
vt 0.3500977 0.4199219
vt 0.3500977 0.4199219
vt 0.3500977 0.4199219
vt 0.3500977 0.4199219
vt 0.3500977 0.4199219
vt 0.3500977 0.4199219
vt 0.3500977 0.4199219
vt 0.3500977 0.4199219
vt 0.3500977 0.4199219
vt 0.3500977 0.4199219
vt 0.3500977 0.4199219
vt 0.3500977 0.4199219
vt 0.3500977 0.4199219
vt 0.3500977 0.4199219
vt 0.3500977 0.4199219
vt 0.3500977 0.4199219
vt 0.3500977 0.4199219
vt 0.3500977 0.4199219
vt 0.3500977 0.4199219
vt 0.3500977 0.4199219
vt 0.3500977 0.4199219
vt 0.3500977 0.4199219
vt 0.3500977 0.4199219
vt 0.3500977 0.4199219
vt 0.3500977 0.4199219
vt 0.3500977 0.4199219
vt 0.3500977 0.4199219
vt 0.3500977 0.4199219
vt 0.3500977 0.4199219
vt 0.3500977 0.4199219
vt 0.3500977 0.4199219
vt 0.3500977 0.4199219
vt 0.3500977 0.4199219
vt 0.3500977 0.4199219
vt 0.3500977 0.4199219
vt 0.3500977 0.4199219
vt 0.3500977 0.4199219
vt 0.3500977 0.4199219
vt 0.3500977 0.4199219
vt 0.3500977 0.4199219
vt 0.3500977 0.4199219
vt 0.3500977 0.4199219
vt 0.3500977 0.4199219
vt 0.3500977 0.4199219
vt 0.3500977 0.4199219
vt 0.3500977 0.4199219
vt 0.3500977 0.4199219
vt 0.3500977 0.4199219
vt 0.3500977 0.4199219
vt 0.3500977 0.4199219
vt 0.3500977 0.4199219
vt 0.3500977 0.4199219
vt 0.3500977 0.4199219
vt 0.3500977 0.4199219
vt 0.3500977 0.4199219
vt 0.3500977 0.4199219
vt 0.3500977 0.4199219
vt 0.3500977 0.4199219
vt 0.3500977 0.4199219
vt 0.3500977 0.4199219
vt 0.3500977 0.4199219
vt 0.3500977 0.4199219
vt 0.3500977 0.4199219
vt 0.3500977 0.4199219
vt 0.3500977 0.4199219
vt 0.3500977 0.4199219
vt 0.3500977 0.4199219
vt 0.3500977 0.4199219
vt 0.3500977 0.4199219
vt 0.3500977 0.4199219
vt 0.3500977 0.4199219
vt 0.3500977 0.4199219
vt 0.3500977 0.4199219
vt 0.3500977 0.4199219
vt 0.3500977 0.4199219
vt 0.3500977 0.4199219
vt 0.3500977 0.4199219
vt 0.3500977 0.4199219
vt 0.3500977 0.4199219
vt 0.3500977 0.4199219
vt 0.3500977 0.4199219
vt 0.3500977 0.4199219
vt 0.3500977 0.4199219
vt 0.3500977 0.4199219
vt 0.3500977 0.4199219
vt 0.3500977 0.4199219
vt 0.3500977 0.4199219
vt 0.3500977 0.4199219
vt 0.3500977 0.4199219
vt 0.3500977 0.4199219
vt 0.3500977 0.4199219
vt 0.3500977 0.4199219
vt 0.3500977 0.4199219
vt 0.3500977 0.4199219
vt 0.3500977 0.4199219
vt 0.3500977 0.4199219
vt 0.3500977 0.4199219
vt 0.3500977 0.4199219
vt 0.3500977 0.4199219
vt 0.3500977 0.4199219
vt 0.3500977 0.4199219
vt 0.3500977 0.4199219
vt 0.3500977 0.4199219
vt 0.3500977 0.4199219
vt 0.3500977 0.4199219
vt 0.3500977 0.4199219
vt 0.3500977 0.4199219
vt 0.3500977 0.4199219
vt 0.3500977 0.4199219
vt 0.3500977 0.4199219
vt 0.3500977 0.4199219
vt 0.3500977 0.4199219
vt 0.3500977 0.4199219
vt 0.3500977 0.4199219
vt 0.3500977 0.4199219
vt 0.3500977 0.4199219
vt 0.3500977 0.4199219
vt 0.3500977 0.4199219
vt 0.3500977 0.4199219
vt 0.3500977 0.4199219
vt 0.3500977 0.4199219
vt 0.3500977 0.4199219
vt 0.3500977 0.4199219
vt 0.3500977 0.4199219
vt 0.3500977 0.4199219
vt 0.3500977 0.4199219
vt 0.3500977 0.4199219
vt 0.3500977 0.4199219
vt 0.3500977 0.4199219
vt 0.3500977 0.4199219
vt 0.3500977 0.4199219
vt 0.3500977 0.4199219
vt 0.3500977 0.4199219
vt 0.3500977 0.4199219
vt 0.3500977 0.4199219
vt 0.3500977 0.4199219
vt 0.3500977 0.4199219
vt 0.3500977 0.4199219
vt 0.3500977 0.4199219
vt 0.3500977 0.4199219
vt 0.3500977 0.4199219
vt 0.3500977 0.4199219
vt 0.3500977 0.4199219
vt 0.3500977 0.4199219
vt 0.3500977 0.4199219
vt 0.3500977 0.4199219
vt 0.3500977 0.4199219
vt 0.3500977 0.4199219
vt 0.3500977 0.4199219
vt 0.3500977 0.4199219
vt 0.3500977 0.4199219
vt 0.3500977 0.4199219
vt 0.3500977 0.4199219
vt 0.3500977 0.4199219
vt 0.3500977 0.4199219
vt 0.3500977 0.4199219
vt 0.3500977 0.4199219
vt 0.3500977 0.4199219
vt 0.3500977 0.4199219
vt 0.3500977 0.4199219
vt 0.3500977 0.4199219
vt 0.3500977 0.4199219
vt 0.3500977 0.4199219
vt 0.3500977 0.4199219
vt 0.3500977 0.4199219
vt 0.3500977 0.4199219
vt 0.3500977 0.4199219
vt 0.3500977 0.4199219
vt 0.3500977 0.4199219
vt 0.3500977 0.4199219
vt 0.3500977 0.4199219
vt 0.3500977 0.4199219
vt 0.3500977 0.4199219
vt 0.3481445 0.4035645
vt 0.3481445 0.4035645
vt 0.3481445 0.4035645
vt 0.3481445 0.4035645
vt 0.3500977 0.4199219
vt 0.3500977 0.4199219
vt 0.3500977 0.4199219
vt 0.3500977 0.4199219
vt 0.3500977 0.4199219
vt 0.3500977 0.4199219
vt 0.3500977 0.4199219
vt 0.3500977 0.4199219
vt 0.3500977 0.4199219
vt 0.3500977 0.4199219
vt 0.3500977 0.4199219
vt 0.3500977 0.4199219
vt 0.3500977 0.4199219
vt 0.3500977 0.4199219
vt 0.3500977 0.4199219
vt 0.3500977 0.4199219
vt 0.3500977 0.4199219
vt 0.3500977 0.4199219
vt 0.3500977 0.4199219
vt 0.3500977 0.4199219
vt 0.3500977 0.4199219
vt 0.3500977 0.4199219
vt 0.3500977 0.4199219
vt 0.3500977 0.4199219
vt 0.3500977 0.4199219
vt 0.3500977 0.4199219
vt 0.3500977 0.4199219
vt 0.3500977 0.4199219
vt 0.3500977 0.4199219
vt 0.3500977 0.4199219
vt 0.3500977 0.4199219
vt 0.3500977 0.4199219
vt 0.3500977 0.4199219
vt 0.3500977 0.4199219
vt 0.3500977 0.4199219
vt 0.3500977 0.4199219
vt 0.3500977 0.4199219
vt 0.3500977 0.4199219
vt 0.3500977 0.4199219
vt 0.3500977 0.4199219
vt 0.3500977 0.4199219
vt 0.3500977 0.4199219
vt 0.3500977 0.4199219
vt 0.3500977 0.4199219
vt 0.3500977 0.4199219
vt 0.3500977 0.4199219
vt 0.3500977 0.4199219
vt 0.3500977 0.4199219
vt 0.3500977 0.4199219
vt 0.3500977 0.4199219
vt 0.3500977 0.4199219
vt 0.3500977 0.4199219
vt 0.3500977 0.4199219
vt 0.3500977 0.4199219
vt 0.3500977 0.4199219
vt 0.3500977 0.4199219
vt 0.3500977 0.4199219
vt 0.3500977 0.4199219
vt 0.3500977 0.4199219
vt 0.3500977 0.4199219
vt 0.3500977 0.4199219
vt 0.3500977 0.4199219
vt 0.3500977 0.4199219
vt 0.3500977 0.4199219
vt 0.3500977 0.4199219
vt 0.3500977 0.4199219
vt 0.3500977 0.4199219
vt 0.3500977 0.4199219
vt 0.3500977 0.4199219
vt 0.3500977 0.4199219
vt 0.3500977 0.4199219
vt 0.3500977 0.4199219
vt 0.3500977 0.4199219
vt 0.3500977 0.4199219
vt 0.3500977 0.4199219
vt 0.3500977 0.4199219
vt 0.3500977 0.4199219
vt 0.3500977 0.4199219
vt 0.3500977 0.4199219
vt 0.3500977 0.4199219
vt 0.3500977 0.4199219
vt 0.3500977 0.4199219
vt 0.3500977 0.4199219
vt 0.3500977 0.4199219
vt 0.3500977 0.4199219
vt 0.3500977 0.4199219
vt 0.3500977 0.4199219
vt 0.3500977 0.4199219
vt 0.3500977 0.4199219
vt 0.3500977 0.4199219
vt 0.3500977 0.4199219
vt 0.3500977 0.4199219
vt 0.3500977 0.4199219
vt 0.3500977 0.4199219
vt 0.3500977 0.4199219
vt 0.3500977 0.4199219
vt 0.3500977 0.4199219
vt 0.3500977 0.4199219
vt 0.3500977 0.4199219
vt 0.3500977 0.4199219
vt 0.3500977 0.4199219
vt 0.3500977 0.4199219
vt 0.3500977 0.4199219
vt 0.3500977 0.4199219
vt 0.3500977 0.4199219
vt 0.3500977 0.4199219
vt 0.3500977 0.4199219
vt 0.3500977 0.4199219
vt 0.3500977 0.4199219
vt 0.3500977 0.4199219
vt 0.3500977 0.4199219
vt 0.3500977 0.4199219
vt 0.3500977 0.4199219
vt 0.3500977 0.4199219
vt 0.3500977 0.4199219
vt 0.3500977 0.4199219
vt 0.3500977 0.4199219
vt 0.3500977 0.4199219
vt 0.3500977 0.4199219
vt 0.3500977 0.4199219
vt 0.3500977 0.4199219
vt 0.3500977 0.4199219
vt 0.3500977 0.4199219
vt 0.3500977 0.4199219
vt 0.3500977 0.4199219
vt 0.3500977 0.4199219
vt 0.3500977 0.4199219
vt 0.3500977 0.4199219
vt 0.3500977 0.4199219
vt 0.3500977 0.4199219
vt 0.3500977 0.4199219
vt 0.3500977 0.4199219
vt 0.3500977 0.4199219
vt 0.3500977 0.4199219
vt 0.3500977 0.4199219
vt 0.3500977 0.4199219
vt 0.3500977 0.4199219
vt 0.3500977 0.4199219
vt 0.3500977 0.4199219
vt 0.3500977 0.4199219
vt 0.3500977 0.4199219
vt 0.3500977 0.4199219
vt 0.3500977 0.4199219
vt 0.3500977 0.4199219
vt 0.3500977 0.4199219
vt 0.3500977 0.4199219
vt 0.3500977 0.4199219
vt 0.3500977 0.4199219
vt 0.3500977 0.4199219
vt 0.3500977 0.4199219
vt 0.3500977 0.4199219
vt 0.3500977 0.4199219
vt 0.3500977 0.4199219
vt 0.3500977 0.4199219
vt 0.3500977 0.4199219
vt 0.3500977 0.4199219
vt 0.3500977 0.4199219
vt 0.3500977 0.4199219
vt 0.3500977 0.4199219
vt 0.3500977 0.4199219
vt 0.3500977 0.4199219
vt 0.3500977 0.4199219
vt 0.3500977 0.4199219
vt 0.3500977 0.4199219
vt 0.3500977 0.4199219
vt 0.3500977 0.4199219
vt 0.3500977 0.4199219
vt 0.3500977 0.4199219
vt 0.3500977 0.4199219
vt 0.3500977 0.4199219
vt 0.3500977 0.4199219
vt 0.3500977 0.4199219
vt 0.3500977 0.4199219
vt 0.3500977 0.4199219
vt 0.3500977 0.4199219
vt 0.3500977 0.4199219
vt 0.3500977 0.4199219
vt 0.3500977 0.4199219
vt 0.3500977 0.4199219
vt 0.3500977 0.4199219
vt 0.3500977 0.4199219
vt 0.3500977 0.4199219
vt 0.3500977 0.4199219
vt 0.3500977 0.4199219
vt 0.3500977 0.4199219
vt 0.3500977 0.4199219
vt 0.3500977 0.4199219
vt 0.3500977 0.4199219
vt 0.3500977 0.4199219
vt 0.3500977 0.4199219
vt 0.3500977 0.4199219
vt 0.3500977 0.4199219
vt 0.3500977 0.4199219
vt 0.3500977 0.4199219
vt 0.3500977 0.4199219
vt 0.3500977 0.4199219
vt 0.3500977 0.4199219
vt 0.3500977 0.4199219
vt 0.3500977 0.4199219
vt 0.3500977 0.4199219
vt 0.3500977 0.4199219
vt 0.3500977 0.4199219
vt 0.3500977 0.4199219
vt 0.3500977 0.4199219
vt 0.3500977 0.4199219
vt 0.3500977 0.4199219
vt 0.3500977 0.4199219
vt 0.3500977 0.4199219
vt 0.3500977 0.4199219
vt 0.3500977 0.4199219
vt 0.3500977 0.4199219
vt 0.3500977 0.4199219
vt 0.3500977 0.4199219
vt 0.3500977 0.4199219
vt 0.3500977 0.4199219
vt 0.3500977 0.4199219
vt 0.3500977 0.4199219
vt 0.3500977 0.4199219
vt 0.3500977 0.4199219
vt 0.3500977 0.4199219
vt 0.3500977 0.4199219
vt 0.3500977 0.4199219
vt 0.3500977 0.4199219
vt 0.3500977 0.4199219
vt 0.3500977 0.4199219
vt 0.3500977 0.4199219
vt 0.3500977 0.4199219
vt 0.3500977 0.4199219
vt 0.3481445 0.4035645
vt 0.3481445 0.4035645
vt 0.3481445 0.4035645
vt 0.3481445 0.4035645
vt 0.3500977 0.4199219
vt 0.3500977 0.4199219
vt 0.3500977 0.4199219
vt 0.3500977 0.4199219
vt 0.3500977 0.4199219
vt 0.3500977 0.4199219
vt 0.3500977 0.4199219
vt 0.3500977 0.4199219
vt 0.3500977 0.4199219
vt 0.3500977 0.4199219
vt 0.3500977 0.4199219
vt 0.3500977 0.4199219
vt 0.3500977 0.4199219
vt 0.3500977 0.4199219
vt 0.3500977 0.4199219
vt 0.3500977 0.4199219
vt 0.3500977 0.4199219
vt 0.3500977 0.4199219
vt 0.3500977 0.4199219
vt 0.3500977 0.4199219
vt 0.3500977 0.4199219
vt 0.3500977 0.4199219
vt 0.3500977 0.4199219
vt 0.3500977 0.4199219
vt 0.1333008 0.3513184
vt 0.1333008 0.3513184
vt 0.1333008 0.3513184
vt 0.1333008 0.3513184
vt 0.1333008 0.3513184
vt 0.1333008 0.3513184
vt 0.1333008 0.3513184
vt 0.1333008 0.3513184
vt 0.1333008 0.3513184
vt 0.1333008 0.3513184
vt 0.1333008 0.3513184
vt 0.1333008 0.3513184
vt 0.1333008 0.3513184
vt 0.1333008 0.3513184
vt 0.1333008 0.3513184
vt 0.1333008 0.3513184
vt 0.3500977 0.4199219
vt 0.3500977 0.4199219
vt 0.3500977 0.4199219

g SM_Prop_Mailbox_01_337_2
usemtl SM_Prop_Mailbox_01_337_2
usemap SM_Prop_Mailbox_01_337_2
f 1/1/1 3/3/3 2/2/2
f 1/1/1 4/4/4 3/3/3
f 5/5/5 7/7/7 6/6/6
f 5/5/5 8/8/8 7/7/7
f 9/9/9 11/11/11 10/10/10
f 9/9/9 12/12/12 11/11/11
f 13/13/13 15/15/15 14/14/14
f 13/13/13 16/16/16 15/15/15
f 17/17/17 19/19/19 18/18/18
f 17/17/17 20/20/20 19/19/19
f 17/17/17 18/18/18 21/21/21
f 17/17/17 21/21/21 22/22/22
f 19/19/19 20/20/20 23/23/23
f 19/19/19 23/23/23 24/24/24
f 17/17/17 22/22/22 25/25/25
f 17/17/17 25/25/25 26/26/26
f 23/23/23 20/20/20 27/27/27
f 23/23/23 27/27/27 28/28/28
f 29/29/29 31/31/31 30/30/30
f 29/29/29 32/32/32 31/31/31
f 31/31/31 32/32/32 33/33/33
f 31/31/31 33/33/33 34/34/34
f 29/29/29 30/30/30 35/35/35
f 29/29/29 35/35/35 36/36/36
f 33/33/33 32/32/32 37/37/37
f 33/33/33 37/37/37 38/38/38
f 29/29/29 36/36/36 39/39/39
f 29/29/29 39/39/39 40/40/40
f 41/41/41 43/43/43 42/42/42
f 41/41/41 44/44/44 43/43/43
f 45/45/45 47/47/47 46/46/46
f 45/45/45 48/48/48 47/47/47
f 49/49/49 51/51/51 50/50/50
f 49/49/49 52/52/52 51/51/51
f 53/53/53 55/55/55 54/54/54
f 53/53/53 56/56/56 55/55/55
f 57/57/57 59/59/59 58/58/58
f 57/57/57 60/60/60 59/59/59
f 61/61/61 63/63/63 62/62/62
f 61/61/61 64/64/64 63/63/63
f 65/65/65 67/67/67 66/66/66
f 65/65/65 68/68/68 67/67/67
f 69/69/69 71/71/71 70/70/70
f 69/69/69 72/72/72 71/71/71
f 73/73/73 75/75/75 74/74/74
f 73/73/73 76/76/76 75/75/75
f 77/77/77 79/79/79 78/78/78
f 77/77/77 80/80/80 79/79/79
f 81/81/81 83/83/83 82/82/82
f 81/81/81 84/84/84 83/83/83
f 85/85/85 87/87/87 86/86/86
f 87/87/87 88/88/88 86/86/86
f 88/88/88 89/89/89 86/86/86
f 89/89/89 90/90/90 86/86/86
f 90/90/90 85/85/85 86/86/86
f 91/91/91 93/93/93 92/92/92
f 91/91/91 94/94/94 93/93/93
f 91/91/91 95/95/95 94/94/94
f 91/91/91 96/96/96 95/95/95
f 97/97/97 95/95/95 96/96/96
f 97/97/97 96/96/96 98/98/98
f 92/92/92 93/93/93 99/99/99
f 92/92/92 99/99/99 100/100/100
f 100/100/100 99/99/99 101/101/101
f 100/100/100 101/101/101 102/102/102
f 102/102/102 101/101/101 103/103/103
f 102/102/102 103/103/103 104/104/104
f 103/103/103 105/105/105 104/104/104
f 103/103/103 106/106/106 105/105/105
f 105/105/105 106/106/106 107/107/107
f 105/105/105 107/107/107 108/108/108
f 109/109/109 111/111/111 110/110/110
f 109/109/109 112/112/112 111/111/111
f 113/113/113 115/115/115 114/114/114
f 113/113/113 116/116/116 115/115/115
f 114/114/114 117/117/117 113/113/113
f 114/114/114 118/118/118 117/117/117
f 117/117/117 118/118/118 119/119/119
f 117/117/117 119/119/119 120/120/120
f 120/120/120 119/119/119 121/121/121
f 120/120/120 121/121/121 122/122/122
f 123/123/123 125/125/125 124/124/124
f 123/123/123 124/124/124 126/126/126
f 126/126/126 124/124/124 127/127/127
f 126/126/126 127/127/127 128/128/128
f 129/129/129 131/131/131 130/130/130
f 129/129/129 132/132/132 131/131/131
f 133/133/133 132/132/132 129/129/129
f 129/129/129 134/134/134 133/133/133
f 129/129/129 135/135/135 134/134/134
f 130/130/130 131/131/131 136/136/136
f 131/131/131 137/137/137 136/136/136
f 131/131/131 138/138/138 137/137/137
f 137/137/137 138/138/138 139/139/139
f 137/137/137 139/139/139 140/140/140
f 141/141/141 140/140/140 139/139/139
f 142/142/142 141/141/141 139/139/139
f 142/142/142 139/139/139 143/143/143
f 144/144/144 142/142/142 143/143/143
f 142/142/142 144/144/144 145/145/145
f 142/142/142 145/145/145 146/146/146
f 147/147/147 149/149/149 148/148/148
f 149/149/149 150/150/150 148/148/148
f 149/149/149 151/151/151 150/150/150
f 147/147/147 152/152/152 149/149/149
f 147/147/147 153/153/153 152/152/152
f 152/152/152 153/153/153 154/154/154
f 152/152/152 154/154/154 155/155/155
f 154/154/154 156/156/156 155/155/155
f 155/155/155 156/156/156 157/157/157
f 155/155/155 157/157/157 158/158/158
f 159/159/159 161/161/161 160/160/160
f 159/159/159 162/162/162 161/161/161
f 163/163/163 165/165/165 164/164/164
f 163/163/163 166/166/166 165/165/165
f 167/167/167 169/169/169 168/168/168
f 167/167/167 170/170/170 169/169/169
f 171/171/171 173/173/173 172/172/172
f 171/171/171 174/174/174 173/173/173
f 175/175/175 177/177/177 176/176/176
f 175/175/175 178/178/178 177/177/177
f 179/179/179 175/175/175 176/176/176
f 179/179/179 176/176/176 180/180/180
f 177/177/177 178/178/178 181/181/181
f 177/177/177 181/181/181 182/182/182
f 183/183/183 185/185/185 184/184/184
f 186/186/186 187/187/187 183/183/183
f 186/186/186 188/188/188 187/187/187
f 189/189/189 187/187/187 188/188/188
f 189/189/189 188/188/188 190/190/190
f 191/191/191 193/193/193 192/192/192
f 191/191/191 194/194/194 193/193/193
f 195/195/195 191/191/191 192/192/192
f 195/195/195 196/196/196 191/191/191
f 196/196/196 195/195/195 197/197/197
f 196/196/196 197/197/197 198/198/198
f 199/199/199 201/201/201 200/200/200
f 202/202/202 204/204/204 203/203/203
f 205/205/205 204/204/204 202/202/202
f 206/206/206 208/208/208 207/207/207
f 206/206/206 209/209/209 208/208/208
f 210/210/210 208/208/208 209/209/209
f 210/210/210 209/209/209 211/211/211
f 212/212/212 214/214/214 213/213/213
f 215/215/215 212/212/212 216/216/216
f 215/215/215 216/216/216 217/217/217
f 212/212/212 218/218/218 216/216/216
f 212/212/212 219/219/219 218/218/218
f 220/220/220 218/218/218 219/219/219
f 220/220/220 221/221/221 218/218/218
f 222/222/222 223/223/223 216/216/216
f 224/224/224 222/222/222 216/216/216
f 216/216/216 225/225/225 224/224/224
f 225/225/225 218/218/218 226/226/226
f 226/226/226 218/218/218 227/227/227
f 227/227/227 218/218/218 228/228/228
f 229/229/229 231/231/231 230/230/230
f 229/229/229 232/232/232 231/231/231
f 233/233/233 232/232/232 229/229/229
f 233/233/233 229/229/229 234/234/234
f 233/233/233 234/234/234 235/235/235
f 229/229/229 236/236/236 234/234/234
f 229/229/229 237/237/237 236/236/236
f 237/237/237 238/238/238 236/236/236
f 237/237/237 239/239/239 238/238/238
f 239/239/239 235/235/235 238/238/238
f 239/239/239 233/233/233 235/235/235
f 240/240/240 233/233/233 239/239/239
f 233/233/233 240/240/240 241/241/241
f 241/241/241 240/240/240 242/242/242
f 239/239/239 237/237/237 243/243/243
f 244/244/244 243/243/243 237/237/237
f 244/244/244 237/237/237 245/245/245
f 246/246/246 248/248/248 247/247/247
f 246/246/246 249/249/249 248/248/248
f 250/250/250 252/252/252 251/251/251
f 250/250/250 253/253/253 252/252/252
f 254/254/254 256/256/256 255/255/255
f 254/254/254 257/257/257 256/256/256
f 258/258/258 260/260/260 259/259/259
f 258/258/258 261/261/261 260/260/260
f 262/262/262 264/264/264 263/263/263
f 262/262/262 265/265/265 264/264/264
f 266/266/266 268/268/268 267/267/267
f 266/266/266 269/269/269 268/268/268
f 270/270/270 272/272/272 271/271/271
f 270/270/270 273/273/273 272/272/272
f 274/274/274 270/270/270 271/271/271
f 274/274/274 271/271/271 275/275/275
f 276/276/276 278/278/278 277/277/277
f 276/276/276 279/279/279 278/278/278
f 276/276/276 277/277/277 280/280/280
f 276/276/276 280/280/280 281/281/281
f 277/277/277 278/278/278 282/282/282
f 277/277/277 282/282/282 283/283/283
f 280/280/280 277/277/277 283/283/283
f 280/280/280 283/283/283 284/284/284
f 285/285/285 287/287/287 286/286/286
f 285/285/285 288/288/288 287/287/287
f 288/288/288 289/289/289 287/287/287
f 288/288/288 290/290/290 289/289/289
f 291/291/291 293/293/293 292/292/292
f 291/291/291 294/294/294 293/293/293
f 295/295/295 291/291/291 292/292/292
f 295/295/295 292/292/292 296/296/296
f 297/297/297 299/299/299 298/298/298
f 298/298/298 299/299/299 300/300/300
f 298/298/298 300/300/300 301/301/301
f 302/302/302 298/298/298 301/301/301
f 302/302/302 301/301/301 303/303/303
f 304/304/304 306/306/306 305/305/305
f 304/304/304 307/307/307 306/306/306
f 308/308/308 310/310/310 309/309/309
f 308/308/308 311/311/311 310/310/310
f 308/308/308 309/309/309 312/312/312
f 309/309/309 313/313/313 312/312/312
f 309/309/309 314/314/314 313/313/313
f 315/315/315 317/317/317 316/316/316
f 318/318/318 320/320/320 319/319/319
f 321/321/321 323/323/323 322/322/322
f 321/321/321 324/324/324 323/323/323
f 325/325/325 327/327/327 326/326/326
f 325/325/325 328/328/328 327/327/327
f 327/327/327 328/328/328 329/329/329
f 327/327/327 329/329/329 330/330/330
f 331/331/331 333/333/333 332/332/332
f 331/331/331 334/334/334 333/333/333
f 335/335/335 334/334/334 331/331/331
f 335/335/335 336/336/336 334/334/334
f 337/337/337 339/339/339 338/338/338
f 337/337/337 340/340/340 339/339/339
f 341/341/341 340/340/340 337/337/337
f 341/341/341 342/342/342 340/340/340
f 343/343/343 345/345/345 344/344/344
f 343/343/343 346/346/346 345/345/345
f 343/343/343 344/344/344 347/347/347
f 343/343/343 347/347/347 348/348/348
f 349/349/349 348/348/348 347/347/347
f 349/349/349 350/350/350 348/348/348
f 346/346/346 351/351/351 345/345/345
f 346/346/346 352/352/352 351/351/351
f 352/352/352 353/353/353 351/351/351
f 352/352/352 354/354/354 353/353/353
f 354/354/354 355/355/355 353/353/353
f 354/354/354 356/356/356 355/355/355
f 355/355/355 356/356/356 357/357/357
f 355/355/355 357/357/357 358/358/358
f 357/357/357 359/359/359 358/358/358
f 357/357/357 360/360/360 359/359/359
f 361/361/361 363/363/363 362/362/362
f 361/361/361 364/364/364 363/363/363
f 365/365/365 367/367/367 366/366/366
f 365/365/365 368/368/368 367/367/367
f 368/368/368 369/369/369 367/367/367
f 368/368/368 370/370/370 369/369/369
f 371/371/371 373/373/373 372/372/372
f 371/371/371 374/374/374 373/373/373
f 373/373/373 374/374/374 375/375/375
f 373/373/373 375/375/375 376/376/376
f 377/377/377 379/379/379 378/378/378
f 377/377/377 380/380/380 379/379/379
f 379/379/379 380/380/380 381/381/381
f 379/379/379 381/381/381 382/382/382
f 383/383/383 385/385/385 384/384/384
f 383/383/383 386/386/386 385/385/385
f 385/385/385 386/386/386 387/387/387
f 385/385/385 387/387/387 388/388/388
f 389/389/389 391/391/391 390/390/390
f 389/389/389 392/392/392 391/391/391
f 391/391/391 392/392/392 393/393/393
f 391/391/391 393/393/393 394/394/394
f 395/395/395 397/397/397 396/396/396
f 395/395/395 398/398/398 397/397/397
f 397/397/397 398/398/398 399/399/399
f 397/397/397 399/399/399 400/400/400
f 401/401/401 403/403/403 402/402/402
f 401/401/401 404/404/404 403/403/403
f 403/403/403 404/404/404 405/405/405
f 403/403/403 405/405/405 406/406/406
f 407/407/407 409/409/409 408/408/408
f 407/407/407 410/410/410 409/409/409
f 411/411/411 413/413/413 412/412/412
f 411/411/411 414/414/414 413/413/413
f 415/415/415 417/417/417 416/416/416
f 415/415/415 418/418/418 417/417/417
f 419/419/419 421/421/421 420/420/420
f 419/419/419 422/422/422 421/421/421
f 423/423/423 425/425/425 424/424/424
f 423/423/423 426/426/426 425/425/425
f 427/427/427 426/426/426 423/423/423
f 427/427/427 428/428/428 426/426/426
f 425/425/425 429/429/429 424/424/424
f 425/425/425 430/430/430 429/429/429
f 431/431/431 433/433/433 432/432/432
f 434/434/434 431/431/431 435/435/435
f 434/434/434 435/435/435 436/436/436
f 437/437/437 436/436/436 435/435/435
f 437/437/437 438/438/438 436/436/436
f 439/439/439 441/441/441 440/440/440
f 439/439/439 442/442/442 441/441/441
f 443/443/443 442/442/442 439/439/439
f 443/443/443 439/439/439 444/444/444
f 444/444/444 445/445/445 443/443/443
f 444/444/444 446/446/446 445/445/445
f 447/447/447 449/449/449 448/448/448
f 450/450/450 452/452/452 451/451/451
f 453/453/453 450/450/450 451/451/451
f 454/454/454 456/456/456 455/455/455
f 454/454/454 457/457/457 456/456/456
f 458/458/458 455/455/455 456/456/456
f 458/458/458 459/459/459 455/455/455
f 460/460/460 462/462/462 461/461/461
f 463/463/463 465/465/465 464/464/464
f 463/463/463 466/466/466 465/465/465
f 467/467/467 463/463/463 464/464/464
f 463/463/463 467/467/467 468/468/468
f 467/467/467 469/469/469 468/468/468
f 467/467/467 470/470/470 469/469/469
f 471/471/471 470/470/470 467/467/467
f 470/470/470 471/471/471 472/472/472
f 472/472/472 471/471/471 473/473/473
f 470/470/470 474/474/474 469/469/469
f 470/470/470 475/475/475 474/474/474
f 470/470/470 476/476/476 475/475/475
f 477/477/477 475/475/475 476/476/476
f 477/477/477 478/478/478 475/475/475
f 475/475/475 479/479/479 474/474/474
f 475/475/475 463/463/463 479/479/479
f 463/463/463 468/468/468 479/479/479
f 480/480/480 482/482/482 481/481/481
f 480/480/480 483/483/483 482/482/482
f 484/484/484 483/483/483 480/480/480
f 484/484/484 485/485/485 483/483/483
f 486/486/486 488/488/488 487/487/487
f 486/486/486 489/489/489 488/488/488
f 490/490/490 492/492/492 491/491/491
f 490/490/490 493/493/493 492/492/492
f 494/494/494 496/496/496 495/495/495
f 494/494/494 497/497/497 496/496/496
f 498/498/498 500/500/500 499/499/499
f 498/498/498 501/501/501 500/500/500
f 502/502/502 504/504/504 503/503/503
f 502/502/502 505/505/505 504/504/504
f 506/506/506 505/505/505 502/502/502
f 506/506/506 507/507/507 505/505/505
f 508/508/508 510/510/510 509/509/509
f 508/508/508 511/511/511 510/510/510
f 510/510/510 511/511/511 512/512/512
f 510/510/510 512/512/512 513/513/513
f 514/514/514 516/516/516 515/515/515
f 514/514/514 517/517/517 516/516/516
f 515/515/515 516/516/516 518/518/518
f 515/515/515 518/518/518 519/519/519
f 520/520/520 522/522/522 521/521/521
f 520/520/520 523/523/523 522/522/522
f 524/524/524 523/523/523 520/520/520
f 524/524/524 525/525/525 523/523/523
f 526/526/526 528/528/528 527/527/527
f 526/526/526 529/529/529 528/528/528
f 528/528/528 529/529/529 530/530/530
f 528/528/528 530/530/530 531/531/531
f 532/532/532 534/534/534 533/533/533
f 535/535/535 537/537/537 536/536/536
f 537/537/537 538/538/538 536/536/536
f 537/537/537 539/539/539 538/538/538
f 540/540/540 539/539/539 537/537/537
f 540/540/540 541/541/541 539/539/539
f 542/542/542 544/544/544 543/543/543
f 542/542/542 545/545/545 544/544/544
f 546/546/546 548/548/548 547/547/547
f 546/546/546 549/549/549 548/548/548
f 546/546/546 550/550/550 549/549/549
f 549/549/549 550/550/550 551/551/551
f 549/549/549 551/551/551 552/552/552
f 553/553/553 555/555/555 554/554/554
f 553/553/553 556/556/556 555/555/555
f 557/557/557 559/559/559 558/558/558
f 557/557/557 560/560/560 559/559/559
f 559/559/559 561/561/561 558/558/558
f 559/559/559 562/562/562 561/561/561
f 563/563/563 565/565/565 564/564/564
f 563/563/563 566/566/566 565/565/565
f 567/567/567 563/563/563 564/564/564
f 567/567/567 564/564/564 568/568/568
f 569/569/569 571/571/571 570/570/570
f 569/569/569 572/572/572 571/571/571
f 573/573/573 569/569/569 570/570/570
f 573/573/573 570/570/570 574/574/574
f 575/575/575 577/577/577 576/576/576
f 575/575/575 578/578/578 577/577/577
f 579/579/579 575/575/575 576/576/576
f 579/579/579 576/576/576 580/580/580
f 581/581/581 583/583/583 582/582/582
f 581/581/581 584/584/584 583/583/583
f 584/584/584 585/585/585 583/583/583
f 584/584/584 586/586/586 585/585/585
f 586/586/586 587/587/587 585/585/585
f 586/586/586 588/588/588 587/587/587
f 588/588/588 582/582/582 587/587/587
f 588/588/588 581/581/581 582/582/582
f 589/589/589 591/591/591 590/590/590
f 589/589/589 592/592/592 591/591/591
f 592/592/592 593/593/593 591/591/591
f 592/592/592 594/594/594 593/593/593
f 594/594/594 595/595/595 593/593/593
f 594/594/594 596/596/596 595/595/595
f 596/596/596 590/590/590 595/595/595
f 596/596/596 589/589/589 590/590/590
f 597/597/597 599/599/599 598/598/598
