#SM_Prop_TrashBag_01_(1)_323_13.obj

v 0.1834259 0.1107152 -0.3178629
v 0.2161297 0.3092148 -0.2796733
v -4.6017E-05 0.3092148 -0.3953134
v -4.586372E-05 0.06069604 -0.4145277
v -4.591619E-05 0.5809332 -0.3454131
v 0.1791836 0.5214862 -0.2631447
v -4.586372E-05 0.06069604 -0.4145277
v -4.6017E-05 0.3092148 -0.3953134
v -0.2162363 0.3092148 -0.2796738
v -0.1889039 0.06069604 -0.3135059
v -0.1889039 0.06069604 -0.3135059
v -0.2162363 0.3092148 -0.2796738
v -0.3057745 0.3092148 -0.0005112383
v -0.2828215 0.1127071 0.03407307
v -0.2828215 0.1127071 0.03407307
v -0.3057745 0.3092148 -0.0005112383
v -0.2158546 0.3057065 0.2798799
v -0.1889036 0.06069604 0.3007883
v -0.1889036 0.06069604 0.3007883
v -0.2158546 0.3057065 0.2798799
v 0.001694057 0.292821 0.3999977
v 0.009261829 0.126487 0.4145278
v 0.009261829 0.126487 0.4145278
v 0.001694057 0.292821 0.3999977
v 0.2121469 0.3426058 0.2753174
v 0.1888122 0.06069604 0.300788
v 0.1965333 0.4854312 0.252517
v 0.005645725 0.5274957 0.3629757
v 0.1888122 0.06069604 0.300788
v 0.2121469 0.3426058 0.2753174
v 0.3057748 0.3082529 -0.0001755376
v 0.2670285 0.06069604 -0.0005112956
v 0.2670285 0.06069604 -0.0005112956
v 0.3057748 0.3082529 -0.0001755376
v 0.2161297 0.3092148 -0.2796733
v 0.1834259 0.1107152 -0.3178629
v -4.58049E-05 0 -0.3186595
v -4.561542E-05 0 -0.0008546137
v 0.1471485 0 -0.2446139
v -0.147255 0 -0.244614
v -0.2082253 0 -0.0008546402
v -0.1472552 0 0.2319033
v -4.562821E-05 0 0.3059487
v 0.1471483 0 0.2319034
v 0.2081337 0 -0.0008542868
v -4.586372E-05 0.06069604 -0.4145277
v -4.58049E-05 0 -0.3186595
v 0.1471485 0 -0.2446139
v 0.1834259 0.1107152 -0.3178629
v -0.1889039 0.06069604 -0.3135059
v -0.147255 0 -0.244614
v -4.58049E-05 0 -0.3186595
v -4.586372E-05 0.06069604 -0.4145277
v -0.2828215 0.1127071 0.03407307
v -0.2082253 0 -0.0008546402
v -0.147255 0 -0.244614
v -0.1889039 0.06069604 -0.3135059
v -0.1889036 0.06069604 0.3007883
v -0.1472552 0 0.2319033
v -0.2082253 0 -0.0008546402
v -0.2828215 0.1127071 0.03407307
v 0.009261829 0.126487 0.4145278
v -4.562821E-05 0 0.3059487
v -0.1472552 0 0.2319033
v -0.1889036 0.06069604 0.3007883
v 0.1888122 0.06069604 0.300788
v 0.1471483 0 0.2319034
v -4.562821E-05 0 0.3059487
v 0.009261829 0.126487 0.4145278
v 0.2670285 0.06069604 -0.0005112956
v 0.2081337 0 -0.0008542868
v 0.1471483 0 0.2319034
v 0.1888122 0.06069604 0.300788
v 0.1834259 0.1107152 -0.3178629
v 0.1471485 0 -0.2446139
v 0.2081337 0 -0.0008542868
v 0.2670285 0.06069604 -0.0005112956
v 0.1791836 0.5214862 -0.2631447
v 0.1451913 0.6818473 -0.1878455
v -4.584033E-05 0.6823227 -0.2656837
v -4.591619E-05 0.5809332 -0.3454131
v -4.591619E-05 0.5809332 -0.3454131
v -4.584033E-05 0.6823227 -0.2656837
v -0.1452519 0.6823227 -0.1880134
v -0.1926573 0.5362481 -0.2419425
v -0.1926573 0.5362481 -0.2419425
v -0.1452519 0.6823227 -0.1880134
v -0.2050444 0.6790401 0.0006331473
v -0.2671203 0.5808197 -0.000472876
v -0.2671203 0.5808197 -0.000472876
v -0.2050444 0.6790401 0.0006331473
v -0.1172216 0.691568 0.1907372
v -0.1863252 0.556604 0.2518378
v -0.1863252 0.556604 0.2518378
v -0.1172216 0.691568 0.1907372
v 0.005645649 0.6288853 0.2832463
v 0.005645725 0.5274957 0.3629757
v 0.005645725 0.5274957 0.3629757
v 0.005645649 0.6288853 0.2832463
v 0.1508371 0.6288853 0.2055768
v 0.1965333 0.4854312 0.252517
v 0.1965333 0.4854312 0.252517
v 0.1508371 0.6288853 0.2055768
v 0.2081877 0.6550598 0.008972415
v 0.2689513 0.5629062 0.005760306
v 0.2689513 0.5629062 0.005760306
v 0.2081877 0.6550598 0.008972415
v 0.1451913 0.6818473 -0.1878455
v 0.1791836 0.5214862 -0.2631447
v 0.02500151 0.7523309 -0.03317131
v 0.06799284 0.8867376 -0.09068042
v -0.002777228 0.8892046 -0.1292455
v -0.004364219 0.7568824 -0.05019465
v -0.004364219 0.7568824 -0.05019465
v -0.002777228 0.8892046 -0.1292455
v -0.04432413 0.8673198 -0.05190121
v -0.03328712 0.7574902 -0.03496414
v -0.1021501 0.8863674 0.0004807363
v -0.04492968 0.7544188 0.003387162
v -0.04492968 0.7544188 0.003387162
v -0.1021501 0.8863674 0.0004807363
v -0.03426854 0.8706278 0.07312962
v -0.03226494 0.7477514 0.04299019
v -0.0006256409 0.8690526 0.1352343
v -0.002807642 0.7422611 0.06034205
v -0.002807642 0.7422611 0.06034205
v -0.0006256409 0.8690526 0.1352343
v 0.07003751 0.8675537 0.09804994
v 0.02623728 0.7405514 0.04549273
v 0.02623728 0.7405514 0.04549273
v 0.07003751 0.8675537 0.09804994
v 0.05735805 0.8591446 0.005469666
v 0.03771176 0.7452213 0.006583915
v 0.06799284 0.8867376 -0.09068042
v 0.02500151 0.7523309 -0.03317131
v 0.06799284 0.8867376 -0.09068042
v 0.04917488 0.9022213 -0.06950489
v -0.005264407 0.9047452 -0.09936833
v -0.002777228 0.8892046 -0.1292455
v -0.002777228 0.8892046 -0.1292455
v -0.005264407 0.9047452 -0.09936833
v -0.02719989 0.8873494 -0.02438598
v -0.04432413 0.8673198 -0.05190121
v -0.04432413 0.8673198 -0.05190121
v -0.02719989 0.8873494 -0.02438598
v -0.08163478 0.9024184 0.0003966579
v -0.1021501 0.8863674 0.0004807363
v -0.1021501 0.8863674 0.0004807363
v -0.08163478 0.9024184 0.0003966579
v -0.02256117 0.8909498 0.04895616
v -0.03426854 0.8706278 0.07312962
v -0.03426854 0.8706278 0.07312962
v -0.02256117 0.8909498 0.04895616
v -0.003753509 0.8906724 0.1034348
v -0.0006256409 0.8690526 0.1352343
v -0.0006256409 0.8690526 0.1352343
v -0.003753509 0.8906724 0.1034348
v 0.05059444 0.8889774 0.07503588
v 0.07003751 0.8675537 0.09804994
v 0.07003751 0.8675537 0.09804994
v 0.05059444 0.8889774 0.07503588
v 0.03853625 0.8809659 0.004157439
v 0.05735805 0.8591446 0.005469666
v 0.05735805 0.8591446 0.005469666
v 0.03853625 0.8809659 0.004157439
v 0.04917488 0.9022213 -0.06950489
v 0.06799284 0.8867376 -0.09068042
v 0.04917488 0.9022213 -0.06950489
v -0.003677092 0.7657615 0.00476081
v -0.005264407 0.9047452 -0.09936833
v -0.005264407 0.9047452 -0.09936833
v -0.003677092 0.7657615 0.00476081
v -0.02719989 0.8873494 -0.02438598
v -0.02719989 0.8873494 -0.02438598
v -0.003677092 0.7657615 0.00476081
v -0.08163478 0.9024184 0.0003966579
v -0.08163478 0.9024184 0.0003966579
v -0.003677092 0.7657615 0.00476081
v -0.02256117 0.8909498 0.04895616
v -0.02256117 0.8909498 0.04895616
v -0.003677092 0.7657615 0.00476081
v -0.003753509 0.8906724 0.1034348
v -0.003753509 0.8906724 0.1034348
v -0.003677092 0.7657615 0.00476081
v 0.05059444 0.8889774 0.07503588
v 0.05059444 0.8889774 0.07503588
v -0.003677092 0.7657615 0.00476081
v 0.03853625 0.8809659 0.004157439
v 0.03853625 0.8809659 0.004157439
v -0.003677092 0.7657615 0.00476081
v 0.04917488 0.9022213 -0.06950489
v 0.1508371 0.6288853 0.2055768
v 0.02623728 0.7405514 0.04549273
v 0.03771176 0.7452213 0.006583915
v 0.2081877 0.6550598 0.008972415
v 0.005645649 0.6288853 0.2832463
v -0.002807642 0.7422611 0.06034205
v 0.02623728 0.7405514 0.04549273
v 0.1508371 0.6288853 0.2055768
v -0.1172216 0.691568 0.1907372
v -0.03226494 0.7477514 0.04299019
v -0.002807642 0.7422611 0.06034205
v 0.005645649 0.6288853 0.2832463
v -0.2050444 0.6790401 0.0006331473
v -0.04492968 0.7544188 0.003387162
v -0.03226494 0.7477514 0.04299019
v -0.1172216 0.691568 0.1907372
v -0.1452519 0.6823227 -0.1880134
v -0.03328712 0.7574902 -0.03496414
v -0.04492968 0.7544188 0.003387162
v -0.2050444 0.6790401 0.0006331473
v -4.584033E-05 0.6823227 -0.2656837
v -0.004364219 0.7568824 -0.05019465
v -0.03328712 0.7574902 -0.03496414
v -0.1452519 0.6823227 -0.1880134
v 0.1451913 0.6818473 -0.1878455
v 0.02500151 0.7523309 -0.03317131
v -0.004364219 0.7568824 -0.05019465
v -4.584033E-05 0.6823227 -0.2656837
v 0.2081877 0.6550598 0.008972415
v 0.03771176 0.7452213 0.006583915
v 0.02500151 0.7523309 -0.03317131
v 0.1451913 0.6818473 -0.1878455
v 0.2121469 0.3426058 0.2753174
v 0.1965333 0.4854312 0.252517
v 0.2689513 0.5629062 0.005760306
v 0.3057748 0.3082529 -0.0001755376
v -0.2158546 0.3057065 0.2798799
v -0.1863252 0.556604 0.2518378
v 0.005645725 0.5274957 0.3629757
v 0.001694057 0.292821 0.3999977
v -0.3057745 0.3092148 -0.0005112383
v -0.2671203 0.5808197 -0.000472876
v -0.1863252 0.556604 0.2518378
v -0.2158546 0.3057065 0.2798799
v -0.2162363 0.3092148 -0.2796738
v -0.1926573 0.5362481 -0.2419425
v -0.2671203 0.5808197 -0.000472876
v -0.3057745 0.3092148 -0.0005112383
v -4.6017E-05 0.3092148 -0.3953134
v -4.591619E-05 0.5809332 -0.3454131
v -0.1926573 0.5362481 -0.2419425
v -0.2162363 0.3092148 -0.2796738
v 0.3057748 0.3082529 -0.0001755376
v 0.2689513 0.5629062 0.005760306
v 0.1791836 0.5214862 -0.2631447
v 0.2161297 0.3092148 -0.2796733

vn -0.3969727 0.07995605 -0.9145508
vn -0.3930664 0.1176147 -0.9121094
vn -0.3930664 0.1176147 -0.9121094
vn -0.3969727 0.07995605 -0.9145508
vn -0.3881836 0.1551514 -0.9082031
vn -0.3881836 0.1551514 -0.9082031
vn -0.9794922 0.06799316 -0.1889648
vn -0.9794922 0.06799316 -0.1889648
vn -0.9794922 0.06799316 -0.1889648
vn -0.9794922 0.06799316 -0.1889648
vn -0.8129883 -0.1085205 0.5717773
vn -0.8129883 -0.1085205 0.5717773
vn -0.8129883 -0.1085205 0.5717773
vn -0.8129883 -0.1085205 0.5717773
vn -0.3552246 -0.06799316 0.9321289
vn -0.3552246 -0.06799316 0.9321289
vn -0.3552246 -0.06799316 0.9321289
vn -0.3552246 -0.06799316 0.9321289
vn 0.3642578 0.0335083 0.9306641
vn 0.3642578 0.0335083 0.9306641
vn 0.3642578 0.0335083 0.9306641
vn 0.3642578 0.0335083 0.9306641
vn 0.9897461 0.05755615 0.1303711
vn 0.984375 0.104248 0.1412354
vn 0.984375 0.104248 0.1412354
vn 0.9897461 0.05755615 0.1303711
vn 0.9770508 0.1507568 0.1518555
vn 0.9770508 0.1507568 0.1518555
vn 0.824707 -0.09790039 -0.5571289
vn 0.824707 -0.09790039 -0.5571289
vn 0.824707 -0.09790039 -0.5571289
vn 0.824707 -0.09790039 -0.5571289
vn 0.3757324 -0.1273193 -0.9179688
vn 0.3757324 -0.1273193 -0.9179688
vn 0.3757324 -0.1273193 -0.9179688
vn 0.3757324 -0.1273193 -0.9179688
vn 0 -1 0
vn 0 -1 0
vn 0 -1 0
vn 0 -1 0
vn 0 -1 0
vn 0 -1 0
vn 0 -1 0
vn 0 -1 0
vn 0 -1 0
vn -0.2069092 -0.6821289 -0.7011719
vn -0.2069092 -0.6821289 -0.7011719
vn -0.2069092 -0.6821289 -0.7011719
vn -0.2069092 -0.6821289 -0.7011719
vn -0.5795898 -0.8061523 -0.1184082
vn -0.5795898 -0.8061523 -0.1184082
vn -0.5795898 -0.8061523 -0.1184082
vn -0.5795898 -0.8061523 -0.1184082
vn -0.6318359 -0.5712891 0.5239258
vn -0.6318359 -0.5712891 0.5239258
vn -0.6318359 -0.5712891 0.5239258
vn -0.6318359 -0.5712891 0.5239258
vn -0.3483887 -0.6181641 0.7045898
vn -0.3483887 -0.6181641 0.7045898
vn -0.3483887 -0.6181641 0.7045898
vn -0.3483887 -0.6181641 0.7045898
vn 0.3793945 -0.6894531 0.6171875
vn 0.3793945 -0.6894531 0.6171875
vn 0.3793945 -0.6894531 0.6171875
vn 0.3793945 -0.6894531 0.6171875
vn 0.6738281 -0.7011719 0.2327881
vn 0.6738281 -0.7011719 0.2327881
vn 0.6738281 -0.7011719 0.2327881
vn 0.6738281 -0.7011719 0.2327881
vn 0.5854492 -0.6870117 -0.4304199
vn 0.5854492 -0.6870117 -0.4304199
vn 0.5854492 -0.6870117 -0.4304199
vn 0.5854492 -0.6870117 -0.4304199
vn 0.3041992 -0.5498047 -0.777832
vn 0.3041992 -0.5498047 -0.777832
vn 0.3041992 -0.5498047 -0.777832
vn 0.3041992 -0.5498047 -0.777832
vn -0.2861328 0.496582 -0.8193359
vn -0.2861328 0.496582 -0.8193359
vn -0.2861328 0.496582 -0.8193359
vn -0.2861328 0.496582 -0.8193359
vn -0.8657227 0.4882813 -0.1080933
vn -0.8657227 0.4882813 -0.1080933
vn -0.8657227 0.4882813 -0.1080933
vn -0.8657227 0.4882813 -0.1080933
vn -0.7670898 0.4458008 0.4609375
vn -0.7670898 0.4458008 0.4609375
vn -0.7670898 0.4458008 0.4609375
vn -0.7670898 0.4458008 0.4609375
vn -0.2531738 0.5253906 0.8120117
vn -0.2531738 0.5253906 0.8120117
vn -0.2531738 0.5253906 0.8120117
vn -0.2531738 0.5253906 0.8120117
vn 0.3833008 0.5527344 0.7402344
vn 0.3833008 0.5527344 0.7402344
vn 0.3833008 0.5527344 0.7402344
vn 0.3833008 0.5527344 0.7402344
vn 0.8754883 0.4726563 0.09912109
vn 0.8754883 0.4726563 0.09912109
vn 0.8754883 0.4726563 0.09912109
vn 0.8754883 0.4726563 0.09912109
vn 0.7910156 0.4389648 -0.4265137
vn 0.7910156 0.4389648 -0.4265137
vn 0.7910156 0.4389648 -0.4265137
vn 0.7910156 0.4389648 -0.4265137
vn 0.3129883 0.4147949 -0.8544922
vn 0.3129883 0.4147949 -0.8544922
vn 0.3129883 0.4147949 -0.8544922
vn 0.3129883 0.4147949 -0.8544922
vn -0.355957 -0.4694824 -0.8081055
vn -0.355957 -0.4694824 -0.8081055
vn -0.355957 -0.4694824 -0.8081055
vn -0.355957 -0.4694824 -0.8081055
vn -0.9448242 -0.2749023 0.1779785
vn -0.9448242 -0.2749023 0.1779785
vn -0.9370117 -0.2717285 0.2197266
vn -0.9370117 -0.2717285 0.2197266
vn -0.9272461 -0.2678223 0.2612305
vn -0.9272461 -0.2678223 0.2612305
vn -0.0970459 -0.2452393 0.9648438
vn -0.0970459 -0.2452393 0.9648438
vn -0.06225586 -0.2463379 0.9672852
vn -0.06225586 -0.2463379 0.9672852
vn -0.02740479 -0.2471924 0.96875
vn -0.02740479 -0.2471924 0.96875
vn 0.8632813 -0.4682617 0.189209
vn 0.8632813 -0.4682617 0.189209
vn 0.8632813 -0.4682617 0.189209
vn 0.8632813 -0.4682617 0.189209
vn 0.6079102 -0.2543945 -0.7519531
vn 0.6079102 -0.2543945 -0.7519531
vn 0.5756836 -0.2583008 -0.7758789
vn 0.5756836 -0.2583008 -0.7758789
vn 0.5424805 -0.2617188 -0.7983398
vn 0.5424805 -0.2617188 -0.7983398
vn -0.1589355 0.8691406 -0.4680176
vn -0.1589355 0.8691406 -0.4680176
vn -0.1589355 0.8691406 -0.4680176
vn -0.1589355 0.8691406 -0.4680176
vn -0.6259766 0.5986328 0.4992676
vn -0.6259766 0.5986328 0.4992676
vn -0.6259766 0.5986328 0.4992676
vn -0.6259766 0.5986328 0.4992676
vn -0.6450195 0.7275391 -0.2341309
vn -0.6450195 0.7275391 -0.2341309
vn -0.6450195 0.7275391 -0.2341309
vn -0.6450195 0.7275391 -0.2341309
vn 0.1975098 0.7241211 0.6606445
vn 0.1975098 0.7241211 0.6606445
vn 0.1975098 0.7241211 0.6606445
vn 0.1975098 0.7241211 0.6606445
vn -0.1967773 0.5981445 0.7768555
vn -0.1967773 0.5981445 0.7768555
vn -0.1967773 0.5981445 0.7768555
vn -0.1967773 0.5981445 0.7768555
vn 0.5820313 0.8071289 0.09851074
vn 0.5820313 0.8071289 0.09851074
vn 0.5820313 0.8071289 0.09851074
vn 0.5820313 0.8071289 0.09851074
vn 0.3557129 0.59375 -0.7216797
vn 0.3557129 0.59375 -0.7216797
vn 0.3557129 0.59375 -0.7216797
vn 0.3557129 0.59375 -0.7216797
vn 0.6787109 0.609375 -0.4099121
vn 0.6787109 0.609375 -0.4099121
vn 0.6787109 0.609375 -0.4099121
vn 0.6787109 0.609375 -0.4099121
vn 0.3356934 0.5512695 0.7636719
vn 0.3356934 0.5512695 0.7636719
vn 0.3356934 0.5512695 0.7636719
vn 0.8266602 0.2541504 -0.5019531
vn 0.8266602 0.2541504 -0.5019531
vn 0.8266602 0.2541504 -0.5019531
vn 0.9418945 0.2902832 0.1694336
vn 0.9418945 0.2902832 0.1694336
vn 0.9418945 0.2902832 0.1694336
vn -0.1374512 0.3405762 -0.9301758
vn -0.1374512 0.3405762 -0.9301758
vn -0.1374512 0.3405762 -0.9301758
vn 0.3325195 0.2492676 -0.909668
vn 0.3325195 0.2492676 -0.909668
vn 0.3325195 0.2492676 -0.909668
vn -0.796875 0.5771484 -0.1779785
vn -0.796875 0.5771484 -0.1779785
vn -0.796875 0.5771484 -0.1779785
vn -0.4941406 0.342041 0.7993164
vn -0.4941406 0.342041 0.7993164
vn -0.4941406 0.342041 0.7993164
vn -0.6196289 0.34375 0.7055664
vn -0.6196289 0.34375 0.7055664
vn -0.6196289 0.34375 0.7055664
vn 0.4746094 0.8579102 -0.1970215
vn 0.4746094 0.8579102 -0.1970215
vn 0.4746094 0.8579102 -0.1970215
vn 0.4746094 0.8579102 -0.1970215
vn 0.4829102 0.871582 0.08691406
vn 0.4829102 0.871582 0.08691406
vn 0.4829102 0.871582 0.08691406
vn 0.4829102 0.871582 0.08691406
vn 0.3918457 0.8984375 0.1994629
vn 0.3918457 0.8984375 0.1994629
vn 0.3918457 0.8984375 0.1994629
vn 0.3918457 0.8984375 0.1994629
vn -0.1331787 0.9052734 0.4030762
vn -0.1331787 0.9052734 0.4030762
vn -0.1331787 0.9052734 0.4030762
vn -0.1331787 0.9052734 0.4030762
vn -0.3581543 0.8950195 0.2653809
vn -0.3581543 0.8950195 0.2653809
vn -0.3581543 0.8950195 0.2653809
vn -0.3581543 0.8950195 0.2653809
vn -0.3623047 0.9291992 -0.07318115
vn -0.3623047 0.9291992 -0.07318115
vn -0.3623047 0.9291992 -0.07318115
vn -0.3623047 0.9291992 -0.07318115
vn -0.1140747 0.934082 -0.3383789
vn -0.1140747 0.934082 -0.3383789
vn -0.1140747 0.934082 -0.3383789
vn -0.1140747 0.934082 -0.3383789
vn 0.2785645 0.8803711 -0.3835449
vn 0.2785645 0.8803711 -0.3835449
vn 0.2785645 0.8803711 -0.3835449
vn 0.2785645 0.8803711 -0.3835449
vn 0.8334961 0.137207 -0.534668
vn 0.8334961 0.137207 -0.534668
vn 0.8334961 0.137207 -0.534668
vn 0.8334961 0.137207 -0.534668
vn 0.3745117 0.1489258 0.9150391
vn 0.3745117 0.1489258 0.9150391
vn 0.3745117 0.1489258 0.9150391
vn 0.3745117 0.1489258 0.9150391
vn -0.3530273 0.1392822 0.925293
vn -0.3530273 0.1392822 0.925293
vn -0.3530273 0.1392822 0.925293
vn -0.3530273 0.1392822 0.925293
vn -0.8320313 0.1407471 0.5361328
vn -0.8320313 0.1407471 0.5361328
vn -0.8320313 0.1407471 0.5361328
vn -0.8320313 0.1407471 0.5361328
vn -0.9702148 0.1738281 -0.1691895
vn -0.9702148 0.1738281 -0.1691895
vn -0.9702148 0.1738281 -0.1691895
vn -0.9702148 0.1738281 -0.1691895
vn 0.342041 0.1628418 -0.925293
vn 0.342041 0.1628418 -0.925293
vn 0.342041 0.1628418 -0.925293
vn 0.342041 0.1628418 -0.925293

vt 0.07922363 0.2788086
vt 0.07922363 0.2788086
vt 0.07922363 0.2788086
vt 0.07922363 0.2788086
vt 0.07922363 0.2788086
vt 0.07922363 0.2788086
vt 0.07922363 0.2788086
vt 0.07922363 0.2788086
vt 0.07922363 0.2788086
vt 0.07922363 0.2788086
vt 0.07922363 0.2788086
vt 0.07922363 0.2788086
vt 0.07922363 0.2788086
vt 0.07922363 0.2788086
vt 0.07922363 0.2788086
vt 0.07922363 0.2788086
vt 0.07922363 0.2788086
vt 0.07922363 0.2788086
vt 0.07922363 0.2788086
vt 0.07922363 0.2788086
vt 0.07922363 0.2788086
vt 0.07922363 0.2788086
vt 0.07922363 0.2788086
vt 0.07922363 0.2788086
vt 0.07922363 0.2788086
vt 0.07922363 0.2788086
vt 0.07922363 0.2788086
vt 0.07922363 0.2788086
vt 0.07922363 0.2788086
vt 0.07922363 0.2788086
vt 0.07922363 0.2788086
vt 0.07922363 0.2788086
vt 0.07922363 0.2788086
vt 0.07922363 0.2788086
vt 0.07922363 0.2788086
vt 0.07922363 0.2788086
vt 0.07922363 0.2788086
vt 0.07922363 0.2788086
vt 0.07922363 0.2788086
vt 0.07922363 0.2788086
vt 0.07922363 0.2788086
vt 0.07922363 0.2788086
vt 0.07922363 0.2788086
vt 0.07922363 0.2788086
vt 0.07922363 0.2788086
vt 0.07922363 0.2788086
vt 0.07922363 0.2788086
vt 0.07922363 0.2788086
vt 0.07922363 0.2788086
vt 0.07922363 0.2788086
vt 0.07922363 0.2788086
vt 0.07922363 0.2788086
vt 0.07922363 0.2788086
vt 0.07922363 0.2788086
vt 0.07922363 0.2788086
vt 0.07922363 0.2788086
vt 0.07922363 0.2788086
vt 0.07922363 0.2788086
vt 0.07922363 0.2788086
vt 0.07922363 0.2788086
vt 0.07922363 0.2788086
vt 0.07922363 0.2788086
vt 0.07922363 0.2788086
vt 0.07922363 0.2788086
vt 0.07922363 0.2788086
vt 0.07922363 0.2788086
vt 0.07922363 0.2788086
vt 0.07922363 0.2788086
vt 0.07922363 0.2788086
vt 0.07922363 0.2788086
vt 0.07922363 0.2788086
vt 0.07922363 0.2788086
vt 0.07922363 0.2788086
vt 0.07922363 0.2788086
vt 0.07922363 0.2788086
vt 0.07922363 0.2788086
vt 0.07922363 0.2788086
vt 0.07922363 0.2788086
vt 0.07922363 0.2788086
vt 0.07922363 0.2788086
vt 0.07922363 0.2788086
vt 0.07922363 0.2788086
vt 0.07922363 0.2788086
vt 0.07922363 0.2788086
vt 0.07922363 0.2788086
vt 0.07922363 0.2788086
vt 0.07922363 0.2788086
vt 0.07922363 0.2788086
vt 0.07922363 0.2788086
vt 0.07922363 0.2788086
vt 0.07922363 0.2788086
vt 0.07922363 0.2788086
vt 0.07922363 0.2788086
vt 0.07922363 0.2788086
vt 0.07922363 0.2788086
vt 0.07922363 0.2788086
vt 0.07922363 0.2788086
vt 0.07922363 0.2788086
vt 0.07922363 0.2788086
vt 0.07922363 0.2788086
vt 0.07922363 0.2788086
vt 0.07922363 0.2788086
vt 0.07922363 0.2788086
vt 0.07922363 0.2788086
vt 0.07922363 0.2788086
vt 0.07922363 0.2788086
vt 0.07922363 0.2788086
vt 0.07922363 0.2788086
vt 0.07922363 0.2788086
vt 0.07922363 0.2788086
vt 0.07922363 0.2788086
vt 0.07922363 0.2788086
vt 0.07922363 0.2788086
vt 0.07922363 0.2788086
vt 0.07922363 0.2788086
vt 0.07922363 0.2788086
vt 0.07922363 0.2788086
vt 0.07922363 0.2788086
vt 0.07922363 0.2788086
vt 0.07922363 0.2788086
vt 0.07922363 0.2788086
vt 0.07922363 0.2788086
vt 0.07922363 0.2788086
vt 0.07922363 0.2788086
vt 0.07922363 0.2788086
vt 0.07922363 0.2788086
vt 0.07922363 0.2788086
vt 0.07922363 0.2788086
vt 0.07922363 0.2788086
vt 0.07922363 0.2788086
vt 0.07922363 0.2788086
vt 0.07922363 0.2788086
vt 0.07922363 0.2788086
vt 0.07922363 0.2788086
vt 0.07922363 0.2788086
vt 0.07922363 0.2788086
vt 0.07922363 0.2788086
vt 0.07922363 0.2788086
vt 0.07922363 0.2788086
vt 0.07922363 0.2788086
vt 0.07922363 0.2788086
vt 0.07922363 0.2788086
vt 0.07922363 0.2788086
vt 0.07922363 0.2788086
vt 0.07922363 0.2788086
vt 0.07922363 0.2788086
vt 0.07922363 0.2788086
vt 0.07922363 0.2788086
vt 0.07922363 0.2788086
vt 0.07922363 0.2788086
vt 0.07922363 0.2788086
vt 0.07922363 0.2788086
vt 0.07922363 0.2788086
vt 0.07922363 0.2788086
vt 0.07922363 0.2788086
vt 0.07922363 0.2788086
vt 0.07922363 0.2788086
vt 0.07922363 0.2788086
vt 0.07922363 0.2788086
vt 0.07922363 0.2788086
vt 0.07922363 0.2788086
vt 0.07922363 0.2788086
vt 0.07922363 0.2788086
vt 0.07922363 0.2788086
vt 0.07922363 0.2788086
vt 0.07922363 0.2788086
vt 0.07922363 0.2788086
vt 0.07922363 0.2788086
vt 0.07922363 0.2788086
vt 0.07922363 0.2788086
vt 0.07922363 0.2788086
vt 0.07922363 0.2788086
vt 0.07922363 0.2788086
vt 0.07922363 0.2788086
vt 0.07922363 0.2788086
vt 0.07922363 0.2788086
vt 0.07922363 0.2788086
vt 0.07922363 0.2788086
vt 0.07922363 0.2788086
vt 0.07922363 0.2788086
vt 0.07922363 0.2788086
vt 0.07922363 0.2788086
vt 0.07922363 0.2788086
vt 0.07922363 0.2788086
vt 0.07922363 0.2788086
vt 0.07922363 0.2788086
vt 0.07922363 0.2788086
vt 0.07922363 0.2788086
vt 0.07922363 0.2788086
vt 0.07922363 0.2788086
vt 0.07922363 0.2788086
vt 0.07922363 0.2788086
vt 0.07922363 0.2788086
vt 0.07922363 0.2788086
vt 0.07922363 0.2788086
vt 0.07922363 0.2788086
vt 0.07922363 0.2788086
vt 0.07922363 0.2788086
vt 0.07922363 0.2788086
vt 0.07922363 0.2788086
vt 0.07922363 0.2788086
vt 0.07922363 0.2788086
vt 0.07922363 0.2788086
vt 0.07922363 0.2788086
vt 0.07922363 0.2788086
vt 0.07922363 0.2788086
vt 0.07922363 0.2788086
vt 0.07922363 0.2788086
vt 0.07922363 0.2788086
vt 0.07922363 0.2788086
vt 0.07922363 0.2788086
vt 0.07922363 0.2788086
vt 0.07922363 0.2788086
vt 0.07922363 0.2788086
vt 0.07922363 0.2788086
vt 0.07922363 0.2788086
vt 0.07922363 0.2788086
vt 0.07922363 0.2788086
vt 0.07922363 0.2788086
vt 0.07922363 0.2788086
vt 0.07922363 0.2788086
vt 0.07922363 0.2788086
vt 0.07922363 0.2788086
vt 0.07922363 0.2788086
vt 0.07922363 0.2788086
vt 0.07922363 0.2788086
vt 0.07922363 0.2788086
vt 0.07922363 0.2788086
vt 0.07922363 0.2788086
vt 0.07922363 0.2788086
vt 0.07922363 0.2788086
vt 0.07922363 0.2788086
vt 0.07922363 0.2788086
vt 0.07922363 0.2788086
vt 0.07922363 0.2788086
vt 0.07922363 0.2788086
vt 0.07922363 0.2788086
vt 0.07922363 0.2788086
vt 0.07922363 0.2788086
vt 0.07922363 0.2788086
vt 0.07922363 0.2788086
vt 0.07922363 0.2788086
vt 0.07922363 0.2788086
vt 0.07922363 0.2788086
vt 0.07922363 0.2788086
vt 0.07922363 0.2788086
vt 0.07922363 0.2788086

g SM_Prop_TrashBag_01_(1)_323_13
usemtl SM_Prop_TrashBag_01_(1)_323_13
usemap SM_Prop_TrashBag_01_(1)_323_13
f 1/1/1 3/3/3 2/2/2
f 1/1/1 4/4/4 3/3/3
f 2/2/2 3/3/3 5/5/5
f 2/2/2 5/5/5 6/6/6
f 7/7/7 9/9/9 8/8/8
f 7/7/7 10/10/10 9/9/9
f 11/11/11 13/13/13 12/12/12
f 11/11/11 14/14/14 13/13/13
f 15/15/15 17/17/17 16/16/16
f 15/15/15 18/18/18 17/17/17
f 19/19/19 21/21/21 20/20/20
f 19/19/19 22/22/22 21/21/21
f 23/23/23 25/25/25 24/24/24
f 23/23/23 26/26/26 25/25/25
f 24/24/24 25/25/25 27/27/27
f 24/24/24 27/27/27 28/28/28
f 29/29/29 31/31/31 30/30/30
f 29/29/29 32/32/32 31/31/31
f 33/33/33 35/35/35 34/34/34
f 33/33/33 36/36/36 35/35/35
f 37/37/37 39/39/39 38/38/38
f 40/40/40 37/37/37 38/38/38
f 41/41/41 40/40/40 38/38/38
f 42/42/42 41/41/41 38/38/38
f 43/43/43 42/42/42 38/38/38
f 44/44/44 43/43/43 38/38/38
f 45/45/45 44/44/44 38/38/38
f 39/39/39 45/45/45 38/38/38
f 46/46/46 48/48/48 47/47/47
f 46/46/46 49/49/49 48/48/48
f 50/50/50 52/52/52 51/51/51
f 50/50/50 53/53/53 52/52/52
f 54/54/54 56/56/56 55/55/55
f 54/54/54 57/57/57 56/56/56
f 58/58/58 60/60/60 59/59/59
f 58/58/58 61/61/61 60/60/60
f 62/62/62 64/64/64 63/63/63
f 62/62/62 65/65/65 64/64/64
f 66/66/66 68/68/68 67/67/67
f 66/66/66 69/69/69 68/68/68
f 70/70/70 72/72/72 71/71/71
f 70/70/70 73/73/73 72/72/72
f 74/74/74 76/76/76 75/75/75
f 74/74/74 77/77/77 76/76/76
f 78/78/78 80/80/80 79/79/79
f 78/78/78 81/81/81 80/80/80
f 82/82/82 84/84/84 83/83/83
f 82/82/82 85/85/85 84/84/84
f 86/86/86 88/88/88 87/87/87
f 86/86/86 89/89/89 88/88/88
f 90/90/90 92/92/92 91/91/91
f 90/90/90 93/93/93 92/92/92
f 94/94/94 96/96/96 95/95/95
f 94/94/94 97/97/97 96/96/96
f 98/98/98 100/100/100 99/99/99
f 98/98/98 101/101/101 100/100/100
f 102/102/102 104/104/104 103/103/103
f 102/102/102 105/105/105 104/104/104
f 106/106/106 108/108/108 107/107/107
f 106/106/106 109/109/109 108/108/108
f 110/110/110 112/112/112 111/111/111
f 110/110/110 113/113/113 112/112/112
f 114/114/114 116/116/116 115/115/115
f 114/114/114 117/117/117 116/116/116
f 117/117/117 118/118/118 116/116/116
f 117/117/117 119/119/119 118/118/118
f 120/120/120 122/122/122 121/121/121
f 120/120/120 123/123/123 122/122/122
f 123/123/123 124/124/124 122/122/122
f 123/123/123 125/125/125 124/124/124
f 126/126/126 128/128/128 127/127/127
f 126/126/126 129/129/129 128/128/128
f 130/130/130 132/132/132 131/131/131
f 130/130/130 133/133/133 132/132/132
f 133/133/133 134/134/134 132/132/132
f 133/133/133 135/135/135 134/134/134
f 136/136/136 138/138/138 137/137/137
f 136/136/136 139/139/139 138/138/138
f 140/140/140 142/142/142 141/141/141
f 140/140/140 143/143/143 142/142/142
f 144/144/144 146/146/146 145/145/145
f 144/144/144 147/147/147 146/146/146
f 148/148/148 150/150/150 149/149/149
f 148/148/148 151/151/151 150/150/150
f 152/152/152 154/154/154 153/153/153
f 152/152/152 155/155/155 154/154/154
f 156/156/156 158/158/158 157/157/157
f 156/156/156 159/159/159 158/158/158
f 160/160/160 162/162/162 161/161/161
f 160/160/160 163/163/163 162/162/162
f 164/164/164 166/166/166 165/165/165
f 164/164/164 167/167/167 166/166/166
f 168/168/168 170/170/170 169/169/169
f 171/171/171 173/173/173 172/172/172
f 174/174/174 176/176/176 175/175/175
f 177/177/177 179/179/179 178/178/178
f 180/180/180 182/182/182 181/181/181
f 183/183/183 185/185/185 184/184/184
f 186/186/186 188/188/188 187/187/187
f 189/189/189 191/191/191 190/190/190
f 192/192/192 194/194/194 193/193/193
f 192/192/192 195/195/195 194/194/194
f 196/196/196 198/198/198 197/197/197
f 196/196/196 199/199/199 198/198/198
f 200/200/200 202/202/202 201/201/201
f 200/200/200 203/203/203 202/202/202
f 204/204/204 206/206/206 205/205/205
f 204/204/204 207/207/207 206/206/206
f 208/208/208 210/210/210 209/209/209
f 208/208/208 211/211/211 210/210/210
f 212/212/212 214/214/214 213/213/213
f 212/212/212 215/215/215 214/214/214
f 216/216/216 218/218/218 217/217/217
f 216/216/216 219/219/219 218/218/218
f 220/220/220 222/222/222 221/221/221
f 220/220/220 223/223/223 222/222/222
f 224/224/224 226/226/226 225/225/225
f 224/224/224 227/227/227 226/226/226
f 228/228/228 230/230/230 229/229/229
f 228/228/228 231/231/231 230/230/230
f 232/232/232 234/234/234 233/233/233
f 232/232/232 235/235/235 234/234/234
f 236/236/236 238/238/238 237/237/237
f 236/236/236 239/239/239 238/238/238
f 240/240/240 242/242/242 241/241/241
f 240/240/240 243/243/243 242/242/242
f 244/244/244 246/246/246 245/245/245
f 244/244/244 247/247/247 246/246/246
