#SM_Prop_Soda_03_(2)_319_17.obj

v 0.08063984 -0.07065523 0.03521919
v 0.0140543 -0.05188663 -0.0102582
v -0.04019833 -0.06713761 0.01209259
v 0.02978802 -0.07744431 0.09156322
v 0.02978802 -0.07744431 0.09156322
v -0.04019833 -0.06713761 0.01209259
v -0.07030392 -0.01110685 0.03857946
v 0.004552841 -0.01534414 0.1277943
v 0.004552841 -0.01534414 0.1277943
v -0.07030392 -0.01110685 0.03857946
v -0.04271603 0.0511256 0.02792645
v 0.03017044 0.05354512 0.1076803
v 0.03017044 0.05354512 0.1076803
v -0.04271603 0.0511256 0.02792645
v 0.01499462 0.05732717 -0.009213448
v 0.08100796 0.06033421 0.05133629
v 0.08100796 0.06033421 0.05133629
v 0.01499462 0.05732717 -0.009213448
v 0.04165745 0.01034582 -0.02090359
v 0.1062422 -0.001765966 0.01510525
v 0.1062422 -0.001765966 0.01510525
v 0.04165745 0.01034582 -0.02090359
v 0.0140543 -0.05188663 -0.0102582
v 0.08063984 -0.07065523 0.03521919
v 0.05267811 -0.06734622 0.1043344
v 0.07376957 -0.01061642 0.08777475
v 0.09455109 -0.06175542 0.05793285
v 0.03189754 -0.01620722 0.1341767
v 0.05298042 0.04052269 0.117609
v 0.0948534 0.04611337 0.07120705
v 0.1156416 -0.005025625 0.04137278
v -0.01512623 -0.0430429 -0.1083217
v -0.04611588 0.01062 -0.09845686
v -0.07648754 -0.044195 -0.09523964
v -0.1074762 0.00946784 -0.08537436
v -0.07709789 0.06428289 -0.08859205
v 0.01524544 0.01177216 -0.1115394
v -0.01575089 0.06543499 -0.1016741
v -0.07709789 0.06428289 -0.08859205
v -0.04611588 0.01062 -0.09845686
v -0.01575089 0.06543499 -0.1016741
v 0.02978802 -0.07744431 0.09156322
v 0.05267811 -0.06734622 0.1043344
v 0.09455109 -0.06175542 0.05793285
v 0.08063984 -0.07065523 0.03521919
v 0.004552841 -0.01534414 0.1277943
v 0.03189754 -0.01620722 0.1341767
v 0.05267811 -0.06734622 0.1043344
v 0.02978802 -0.07744431 0.09156322
v 0.03017044 0.05354512 0.1076803
v 0.05298042 0.04052269 0.117609
v 0.03189754 -0.01620722 0.1341767
v 0.004552841 -0.01534414 0.1277943
v 0.08100796 0.06033421 0.05133629
v 0.0948534 0.04611337 0.07120705
v 0.05298042 0.04052269 0.117609
v 0.03017044 0.05354512 0.1076803
v 0.1062422 -0.001765966 0.01510525
v 0.1156416 -0.005025625 0.04137278
v 0.0948534 0.04611337 0.07120705
v 0.08100796 0.06033421 0.05133629
v 0.08063984 -0.07065523 0.03521919
v 0.09455109 -0.06175542 0.05793285
v 0.1156416 -0.005025625 0.04137278
v 0.1062422 -0.001765966 0.01510525
v -0.003326416 -0.05598998 -0.08636427
v -0.01512623 -0.0430429 -0.1083217
v -0.07648754 -0.044195 -0.09523964
v -0.07782555 -0.05738908 -0.0704813
v -0.07782555 -0.05738908 -0.0704813
v -0.07648754 -0.044195 -0.09523964
v -0.1074762 0.00946784 -0.08537436
v -0.1154566 0.007775903 -0.05849886
v -0.1154566 0.007775903 -0.05849886
v -0.1074762 0.00946784 -0.08537436
v -0.07709789 0.06428289 -0.08859205
v -0.07859039 0.07433999 -0.06240749
v -0.07859039 0.07433999 -0.06240749
v -0.07709789 0.06428289 -0.08859205
v -0.01575089 0.06543499 -0.1016741
v -0.00407505 0.07573906 -0.07829762
v -0.00407505 0.07573906 -0.07829762
v -0.01575089 0.06543499 -0.1016741
v 0.01524544 0.01177216 -0.1115394
v 0.03355598 0.01057407 -0.09027243
v 0.03355598 0.01057407 -0.09027243
v 0.01524544 0.01177216 -0.1115394
v -0.01512623 -0.0430429 -0.1083217
v -0.003326416 -0.05598998 -0.08636427
v 0.01499462 0.05732717 -0.009213448
v -0.00407505 0.07573906 -0.07829762
v 0.03355598 0.01057407 -0.09027243
v 0.04165745 0.01034582 -0.02090359
v -0.04271603 0.0511256 0.02792645
v -0.07859039 0.07433999 -0.06240749
v -0.00407505 0.07573906 -0.07829762
v 0.01499462 0.05732717 -0.009213448
v -0.07030392 -0.01110685 0.03857946
v -0.1154566 0.007775903 -0.05849886
v -0.07859039 0.07433999 -0.06240749
v -0.04271603 0.0511256 0.02792645
v -0.04019833 -0.06713761 0.01209259
v -0.07782555 -0.05738908 -0.0704813
v -0.1154566 0.007775903 -0.05849886
v -0.07030392 -0.01110685 0.03857946
v 0.0140543 -0.05188663 -0.0102582
v -0.003326416 -0.05598998 -0.08636427
v -0.07782555 -0.05738908 -0.0704813
v -0.04019833 -0.06713761 0.01209259
v 0.04165745 0.01034582 -0.02090359
v 0.03355598 0.01057407 -0.09027243
v -0.003326416 -0.05598998 -0.08636427
v 0.0140543 -0.05188663 -0.0102582

vn 0.01890564 -0.9692383 -0.2462158
vn 0.01890564 -0.9692383 -0.2462158
vn 0.01890564 -0.9692383 -0.2462158
vn 0.01890564 -0.9692383 -0.2462158
vn -0.6464844 -0.5712891 0.5058594
vn -0.6464844 -0.5712891 0.5058594
vn -0.6464844 -0.5712891 0.5058594
vn -0.6464844 -0.5712891 0.5058594
vn -0.6816406 0.4174805 0.6005859
vn -0.6816406 0.4174805 0.6005859
vn -0.6816406 0.4174805 0.6005859
vn -0.6816406 0.4174805 0.6005859
vn -0.08221436 0.9956055 0.0428772
vn -0.08221436 0.9956055 0.0428772
vn -0.08221436 0.9956055 0.0428772
vn -0.08221436 0.9956055 0.0428772
vn 0.5249023 0.5390625 -0.6586914
vn 0.5249023 0.5390625 -0.6586914
vn 0.5249023 0.5390625 -0.6586914
vn 0.5249023 0.5390625 -0.6586914
vn 0.427002 -0.3671875 -0.8261719
vn 0.427002 -0.3671875 -0.8261719
vn 0.427002 -0.3671875 -0.8261719
vn 0.427002 -0.3671875 -0.8261719
vn 0.7446289 -0.0836792 0.6621094
vn 0.7446289 -0.08355713 0.6621094
vn 0.7446289 -0.0836792 0.6621094
vn 0.7446289 -0.08355713 0.6621094
vn 0.7446289 -0.08343506 0.6621094
vn 0.7446289 -0.08343506 0.6621094
vn 0.7446289 -0.08355713 0.6621094
vn -0.2092285 0.05862427 -0.9760742
vn -0.2092285 0.05862427 -0.9760742
vn -0.2092285 0.05862427 -0.9760742
vn -0.2092285 0.05865479 -0.9760742
vn -0.2092285 0.05862427 -0.9760742
vn -0.2092285 0.05862427 -0.9760742
vn -0.2092285 0.05862427 -0.9760742
vn -0.2092285 0.05862427 -0.9760742
vn -0.2092285 0.05862427 -0.9760742
vn -0.2092285 0.05862427 -0.9760742
vn 0.3154297 -0.9331055 0.1723633
vn 0.3154297 -0.9331055 0.1723633
vn 0.3154297 -0.9331055 0.1723633
vn 0.3154297 -0.9331055 0.1723633
vn -0.2056885 -0.5541992 0.8066406
vn -0.2056885 -0.5541992 0.8066406
vn -0.2056885 -0.5541992 0.8066406
vn -0.2056885 -0.5541992 0.8066406
vn -0.203125 0.3432617 0.9169922
vn -0.203125 0.3432617 0.9169922
vn -0.203125 0.3432617 0.9169922
vn -0.203125 0.3432617 0.9169922
vn 0.3208008 0.8618164 0.3933105
vn 0.3208008 0.8618164 0.3933105
vn 0.3208008 0.8618164 0.3933105
vn 0.3208008 0.8618164 0.3933105
vn 0.8417969 0.4829102 -0.2412109
vn 0.8417969 0.4829102 -0.2412109
vn 0.8417969 0.4829102 -0.2412109
vn 0.8417969 0.4829102 -0.2412109
vn 0.8393555 -0.4145508 -0.3518066
vn 0.8393555 -0.4145508 -0.3518066
vn 0.8393555 -0.4145508 -0.3518066
vn 0.8393555 -0.4145508 -0.3518066
vn -0.08416748 -0.8774414 -0.472168
vn -0.08416748 -0.8774414 -0.472168
vn -0.08416748 -0.8774414 -0.472168
vn -0.08416748 -0.8774414 -0.472168
vn -0.8525391 -0.4406738 -0.2810059
vn -0.8525391 -0.4406738 -0.2810059
vn -0.8525391 -0.4406738 -0.2810059
vn -0.8525391 -0.4406738 -0.2810059
vn -0.8579102 0.4619141 -0.2259521
vn -0.8579102 0.4619141 -0.2259521
vn -0.8579102 0.4619141 -0.2259521
vn -0.8579102 0.4619141 -0.2259521
vn -0.09454346 0.9277344 -0.3615723
vn -0.09454346 0.9277344 -0.3615723
vn -0.09454346 0.9277344 -0.3615723
vn -0.09454346 0.9277344 -0.3615723
vn 0.6738281 0.4907227 -0.5527344
vn 0.6738281 0.4907227 -0.5527344
vn 0.6738281 0.4907227 -0.5527344
vn 0.6738281 0.4907227 -0.5527344
vn 0.6791992 -0.4118652 -0.6079102
vn 0.6791992 -0.4118652 -0.6079102
vn 0.6791992 -0.4118652 -0.6079102
vn 0.6791992 -0.4118652 -0.6079102
vn 0.8540039 0.5107422 -0.09887695
vn 0.8540039 0.5107422 -0.09887695
vn 0.8540039 0.5107422 -0.09887695
vn 0.8540039 0.5107422 -0.09887695
vn 0.04025269 0.9702148 0.2393799
vn 0.04025269 0.9702148 0.2393799
vn 0.04025269 0.9702148 0.2393799
vn 0.04025269 0.9702148 0.2393799
vn -0.7832031 0.4414063 0.4377441
vn -0.7832031 0.4414063 0.4377441
vn -0.7832031 0.4414063 0.4377441
vn -0.7832031 0.4414063 0.4377441
vn -0.796875 -0.534668 0.2817383
vn -0.796875 -0.534668 0.2817383
vn -0.796875 -0.534668 0.2817383
vn -0.796875 -0.534668 0.2817383
vn 0.1067505 -0.9916992 -0.07226563
vn 0.1067505 -0.9916992 -0.07226563
vn 0.1067505 -0.9916992 -0.07226563
vn 0.1067505 -0.9916992 -0.07226563
vn 0.878418 -0.4560547 -0.1417236
vn 0.878418 -0.4560547 -0.1417236
vn 0.878418 -0.4560547 -0.1417236
vn 0.878418 -0.4560547 -0.1417236

vt 0.1289063 0.4702148
vt 0.1289063 0.4702148
vt 0.1289063 0.4702148
vt 0.1289063 0.4702148
vt 0.1289063 0.4702148
vt 0.1289063 0.4702148
vt 0.1289063 0.4702148
vt 0.1289063 0.4702148
vt 0.1289063 0.4702148
vt 0.1289063 0.4702148
vt 0.1289063 0.4702148
vt 0.1289063 0.4702148
vt 0.1289063 0.4702148
vt 0.1289063 0.4702148
vt 0.1289063 0.4702148
vt 0.1289063 0.4702148
vt 0.1289063 0.4702148
vt 0.1289063 0.4702148
vt 0.1289063 0.4702148
vt 0.1289063 0.4702148
vt 0.1289063 0.4702148
vt 0.1289063 0.4702148
vt 0.1289063 0.4702148
vt 0.1289063 0.4702148
vt 0.09106445 0.3254395
vt 0.09106445 0.3254395
vt 0.09106445 0.3254395
vt 0.09106445 0.3254395
vt 0.09106445 0.3254395
vt 0.09106445 0.3254395
vt 0.09106445 0.3254395
vt 0.09106445 0.3254395
vt 0.09106445 0.3254395
vt 0.09106445 0.3254395
vt 0.09106445 0.3254395
vt 0.09106445 0.3254395
vt 0.09106445 0.3254395
vt 0.09106445 0.3254395
vt 0.08813477 0.2546387
vt 0.08813477 0.2546387
vt 0.08813477 0.2546387
vt 0.09106445 0.3254395
vt 0.09106445 0.3254395
vt 0.09106445 0.3254395
vt 0.09106445 0.3254395
vt 0.09106445 0.3254395
vt 0.09106445 0.3254395
vt 0.09106445 0.3254395
vt 0.09106445 0.3254395
vt 0.09106445 0.3254395
vt 0.09106445 0.3254395
vt 0.09106445 0.3254395
vt 0.09106445 0.3254395
vt 0.09106445 0.3254395
vt 0.09106445 0.3254395
vt 0.09106445 0.3254395
vt 0.09106445 0.3254395
vt 0.09106445 0.3254395
vt 0.09106445 0.3254395
vt 0.09106445 0.3254395
vt 0.09106445 0.3254395
vt 0.09106445 0.3254395
vt 0.09106445 0.3254395
vt 0.09106445 0.3254395
vt 0.09106445 0.3254395
vt 0.09106445 0.3254395
vt 0.09106445 0.3254395
vt 0.09106445 0.3254395
vt 0.09106445 0.3254395
vt 0.09106445 0.3254395
vt 0.09106445 0.3254395
vt 0.09106445 0.3254395
vt 0.09106445 0.3254395
vt 0.09106445 0.3254395
vt 0.09106445 0.3254395
vt 0.09106445 0.3254395
vt 0.09106445 0.3254395
vt 0.09106445 0.3254395
vt 0.09106445 0.3254395
vt 0.09106445 0.3254395
vt 0.09106445 0.3254395
vt 0.09106445 0.3254395
vt 0.09106445 0.3254395
vt 0.09106445 0.3254395
vt 0.09106445 0.3254395
vt 0.09106445 0.3254395
vt 0.09106445 0.3254395
vt 0.09106445 0.3254395
vt 0.09106445 0.3254395
vt 0.1289063 0.4702148
vt 0.1289063 0.4702148
vt 0.1289063 0.4702148
vt 0.1289063 0.4702148
vt 0.1289063 0.4702148
vt 0.1289063 0.4702148
vt 0.1289063 0.4702148
vt 0.1289063 0.4702148
vt 0.1289063 0.4702148
vt 0.1289063 0.4702148
vt 0.1289063 0.4702148
vt 0.1289063 0.4702148
vt 0.1289063 0.4702148
vt 0.1289063 0.4702148
vt 0.1289063 0.4702148
vt 0.1289063 0.4702148
vt 0.1289063 0.4702148
vt 0.1289063 0.4702148
vt 0.1289063 0.4702148
vt 0.1289063 0.4702148
vt 0.1289063 0.4702148
vt 0.1289063 0.4702148
vt 0.1289063 0.4702148
vt 0.1289063 0.4702148

g SM_Prop_Soda_03_(2)_319_17
usemtl SM_Prop_Soda_03_(2)_319_17
usemap SM_Prop_Soda_03_(2)_319_17
f 1/1/1 3/3/3 2/2/2
f 1/1/1 4/4/4 3/3/3
f 5/5/5 7/7/7 6/6/6
f 5/5/5 8/8/8 7/7/7
f 9/9/9 11/11/11 10/10/10
f 9/9/9 12/12/12 11/11/11
f 13/13/13 15/15/15 14/14/14
f 13/13/13 16/16/16 15/15/15
f 17/17/17 19/19/19 18/18/18
f 17/17/17 20/20/20 19/19/19
f 21/21/21 23/23/23 22/22/22
f 21/21/21 24/24/24 23/23/23
f 25/25/25 27/27/27 26/26/26
f 28/28/28 25/25/25 26/26/26
f 29/29/29 28/28/28 26/26/26
f 30/30/30 29/29/29 26/26/26
f 31/31/31 30/30/30 26/26/26
f 27/27/27 31/31/31 26/26/26
f 32/32/32 34/34/34 33/33/33
f 34/34/34 35/35/35 33/33/33
f 35/35/35 36/36/36 33/33/33
f 37/37/37 32/32/32 33/33/33
f 38/38/38 37/37/37 33/33/33
f 39/39/39 41/41/41 40/40/40
f 42/42/42 44/44/44 43/43/43
f 42/42/42 45/45/45 44/44/44
f 46/46/46 48/48/48 47/47/47
f 46/46/46 49/49/49 48/48/48
f 50/50/50 52/52/52 51/51/51
f 50/50/50 53/53/53 52/52/52
f 54/54/54 56/56/56 55/55/55
f 54/54/54 57/57/57 56/56/56
f 58/58/58 60/60/60 59/59/59
f 58/58/58 61/61/61 60/60/60
f 62/62/62 64/64/64 63/63/63
f 62/62/62 65/65/65 64/64/64
f 66/66/66 68/68/68 67/67/67
f 66/66/66 69/69/69 68/68/68
f 70/70/70 72/72/72 71/71/71
f 70/70/70 73/73/73 72/72/72
f 74/74/74 76/76/76 75/75/75
f 74/74/74 77/77/77 76/76/76
f 78/78/78 80/80/80 79/79/79
f 78/78/78 81/81/81 80/80/80
f 82/82/82 84/84/84 83/83/83
f 82/82/82 85/85/85 84/84/84
f 86/86/86 88/88/88 87/87/87
f 86/86/86 89/89/89 88/88/88
f 90/90/90 92/92/92 91/91/91
f 90/90/90 93/93/93 92/92/92
f 94/94/94 96/96/96 95/95/95
f 94/94/94 97/97/97 96/96/96
f 98/98/98 100/100/100 99/99/99
f 98/98/98 101/101/101 100/100/100
f 102/102/102 104/104/104 103/103/103
f 102/102/102 105/105/105 104/104/104
f 106/106/106 108/108/108 107/107/107
f 106/106/106 109/109/109 108/108/108
f 110/110/110 112/112/112 111/111/111
f 110/110/110 113/113/113 112/112/112
