#SM_Prop_Paper_05_327_23.obj

v -0.09519196 -0.0581084 0.03872156
v -0.06289864 -0.1643666 0.0204463
v -0.1547613 -0.1162476 0.03064823
v -0.06289864 -0.1643666 0.0204463
v -0.04440117 -0.08329599 0.1283171
v 0.03616524 -0.1642279 0.02963352
v 0.03476143 -0.09339806 0.1182003
v 0.03476143 -0.09339806 0.1182003
v 0.05551529 -0.05023546 0.05907106
v 0.03616524 -0.1642279 0.02963352
v -0.1660624 -0.1162476 -0.09305716
v -0.1547613 -0.1162476 0.03064823
v -0.1133194 -0.1648395 -0.1157579
v -0.1547613 -0.1162476 0.03064823
v -0.06289864 -0.1643666 0.0204463
v -0.1133194 -0.1648395 -0.1157579
v -0.1133194 -0.1648395 -0.1157579
v -0.06289864 -0.1643666 0.0204463
v 0.02632713 -0.1641609 -0.08988285
v 0.03616524 -0.1642279 0.02963352
v 0.03616524 -0.1642279 0.02963352
v 0.1337585 -0.1256295 0.005525589
v 0.02632713 -0.1641609 -0.08988285
v 0.1337585 -0.1256295 0.005525589
v 0.1818237 -0.09205394 -0.05212593
v 0.02632713 -0.1641609 -0.08988285
v -0.1453114 -0.05808477 -0.1335397
v -0.1133194 -0.1648395 -0.1157579
v -0.09431458 -0.1161002 -0.1863589
v -0.09431458 -0.1161002 -0.1863589
v -0.1133194 -0.1648395 -0.1157579
v -0.02029228 -0.09283684 -0.1602511
v -0.1133194 -0.1648395 -0.1157579
v 0.02632713 -0.1641609 -0.08988285
v -0.02029228 -0.09283684 -0.1602511
v 0.02632713 -0.1641609 -0.08988285
v 0.1818237 -0.09205394 -0.05212593
v 0.03616333 -0.03449925 -0.1073856
v 0.03616524 -0.1642279 0.02963352
v 0.05551529 -0.05023546 0.05907106
v 0.1337585 -0.1256295 0.005525589
v 0.02632713 -0.1641609 -0.08988285
v 0.03616333 -0.03449925 -0.1073856
v -0.02029228 -0.09283684 -0.1602511
v -0.1660624 -0.1162476 -0.09305716
v -0.1133194 -0.1648395 -0.1157579
v -0.1453114 -0.05808477 -0.1335397
v -0.09519196 -0.0581084 0.03872156
v -0.04440117 -0.08329599 0.1283171
v -0.06289864 -0.1643666 0.0204463
v -0.08127022 -0.05579551 0.02166891
v -0.1442442 -0.1057241 0.01841593
v -0.05393219 -0.144887 0.009224415
v 0.02340889 -0.08345913 0.1052577
v -0.03384399 -0.0732901 0.1143842
v 0.02573013 -0.144887 0.01950932
v -0.05393219 -0.144887 0.009224415
v 0.02340889 -0.08345913 0.1052577
v 0.02573013 -0.144887 0.01950932
v 0.03908348 -0.04716551 0.04388571
v -0.05393219 -0.144887 0.009224415
v -0.1442442 -0.1057241 0.01841593
v -0.1031017 -0.144887 -0.1066365
v -0.1442442 -0.1057241 0.01841593
v -0.1555452 -0.1057241 -0.08202457
v -0.1031017 -0.144887 -0.1066365
v 0.02573013 -0.144887 0.01950932
v -0.05393219 -0.144887 0.009224415
v 0.01577187 -0.144887 -0.07975054
v -0.1031017 -0.144887 -0.1066365
v 0.02573013 -0.144887 0.01950932
v 0.01577187 -0.144887 -0.07975054
v 0.1195221 -0.1158885 -0.006477356
v 0.01577187 -0.144887 -0.07975054
v 0.1693954 -0.08345913 -0.04179525
v 0.1195221 -0.1158885 -0.006477356
v -0.1304245 -0.05579551 -0.119081
v -0.08163261 -0.1057241 -0.1755023
v -0.1031017 -0.144887 -0.1066365
v 0.01577187 -0.144887 -0.07975054
v -0.1031017 -0.144887 -0.1066365
v -0.03083611 -0.08345913 -0.1486087
v -0.1031017 -0.144887 -0.1066365
v -0.08163261 -0.1057241 -0.1755023
v -0.03083611 -0.08345913 -0.1486087
v 0.01577187 -0.144887 -0.07975054
v 0.02117348 -0.03353055 -0.09219503
v 0.1693954 -0.08345913 -0.04179525
v 0.02573013 -0.144887 0.01950932
v 0.1195221 -0.1158885 -0.006477356
v 0.03908348 -0.04716551 0.04388571
v 0.01577187 -0.144887 -0.07975054
v -0.03083611 -0.08345913 -0.1486087
v 0.02117348 -0.03353055 -0.09219503
v -0.1555452 -0.1057241 -0.08202457
v -0.1304245 -0.05579551 -0.119081
v -0.1031017 -0.144887 -0.1066365
v -0.08127022 -0.05579551 0.02166891
v -0.05393219 -0.144887 0.009224415
v -0.03384399 -0.0732901 0.1143842
v -0.1547613 -0.1162476 0.03064823
v -0.1442442 -0.1057241 0.01841593
v -0.09519196 -0.0581084 0.03872156
v -0.1555452 -0.1057241 -0.08202457
v -0.1442442 -0.1057241 0.01841593
v -0.08127022 -0.05579551 0.02166891
v -0.09519196 -0.0581084 0.03872156
v -0.03384399 -0.0732901 0.1143842
v 0.02340889 -0.08345913 0.1052577
v -0.04440117 -0.08329599 0.1283171
v 0.02340889 -0.08345913 0.1052577
v 0.03476143 -0.09339806 0.1182003
v -0.04440117 -0.08329599 0.1283171
v 0.03476143 -0.09339806 0.1182003
v 0.02340889 -0.08345913 0.1052577
v 0.05551529 -0.05023546 0.05907106
v 0.02340889 -0.08345913 0.1052577
v 0.03908348 -0.04716551 0.04388571
v 0.05551529 -0.05023546 0.05907106
v -0.1660624 -0.1162476 -0.09305716
v -0.1555452 -0.1057241 -0.08202457
v -0.1547613 -0.1162476 0.03064823
v 0.1195221 -0.1158885 -0.006477356
v 0.1693954 -0.08345913 -0.04179525
v 0.1337585 -0.1256295 0.005525589
v 0.1693954 -0.08345913 -0.04179525
v 0.1818237 -0.09205394 -0.05212593
v 0.1337585 -0.1256295 0.005525589
v -0.09431458 -0.1161002 -0.1863589
v -0.08163261 -0.1057241 -0.1755023
v -0.1453114 -0.05808477 -0.1335397
v -0.02029228 -0.09283684 -0.1602511
v -0.08163261 -0.1057241 -0.1755023
v -0.1304245 -0.05579551 -0.119081
v -0.1453114 -0.05808477 -0.1335397
v -0.03083611 -0.08345913 -0.1486087
v -0.08163261 -0.1057241 -0.1755023
v -0.02029228 -0.09283684 -0.1602511
v 0.1818237 -0.09205394 -0.05212593
v 0.1693954 -0.08345913 -0.04179525
v 0.03616333 -0.03449925 -0.1073856
v 0.1693954 -0.08345913 -0.04179525
v 0.02117348 -0.03353055 -0.09219503
v 0.03616333 -0.03449925 -0.1073856
v 0.03908348 -0.04716551 0.04388571
v 0.1195221 -0.1158885 -0.006477356
v 0.05551529 -0.05023546 0.05907106
v 0.1195221 -0.1158885 -0.006477356
v 0.1337585 -0.1256295 0.005525589
v 0.05551529 -0.05023546 0.05907106
v 0.02117348 -0.03353055 -0.09219503
v -0.03083611 -0.08345913 -0.1486087
v 0.03616333 -0.03449925 -0.1073856
v -0.03083611 -0.08345913 -0.1486087
v -0.02029228 -0.09283684 -0.1602511
v 0.03616333 -0.03449925 -0.1073856
v -0.1304245 -0.05579551 -0.119081
v -0.1555452 -0.1057241 -0.08202457
v -0.1453114 -0.05808477 -0.1335397
v -0.1555452 -0.1057241 -0.08202457
v -0.1660624 -0.1162476 -0.09305716
v -0.1453114 -0.05808477 -0.1335397
v -0.08127022 -0.05579551 0.02166891
v -0.03384399 -0.0732901 0.1143842
v -0.09519196 -0.0581084 0.03872156
v -0.03384399 -0.0732901 0.1143842
v -0.04440117 -0.08329599 0.1283171
v -0.09519196 -0.0581084 0.03872156

vn 0.02459717 -0.1622314 0.9863281
vn 0.02459717 -0.1622314 0.9863281
vn 0.02459717 -0.1622314 0.9863281
vn -0.05508423 -0.793457 0.605957
vn -0.03747559 -0.7875977 0.6152344
vn -0.03747559 -0.7875977 0.6152344
vn -0.0198822 -0.7807617 0.6240234
vn 0.9604492 -0.2103271 0.1834717
vn 0.9604492 -0.2103271 0.1834717
vn 0.9604492 -0.2103271 0.1834717
vn -0.6621094 -0.7470703 0.06048584
vn -0.6621094 -0.7470703 0.06048584
vn -0.6621094 -0.7470703 0.06048584
vn -0.4428711 -0.8808594 0.1669922
vn -0.4428711 -0.8808594 0.1669922
vn -0.4428711 -0.8808594 0.1669922
vn 0.004528046 -1 0.001796722
vn 0.002994537 -1 0.0008983612
vn 0.002994537 -1 0.0008983612
vn 0.00146389 -1 0
vn 0.361084 -0.9321289 -0.03024292
vn 0.361084 -0.9321289 -0.03024292
vn 0.361084 -0.9321289 -0.03024292
vn 0.4448242 -0.8837891 -0.1439209
vn 0.4448242 -0.8837891 -0.1439209
vn 0.4448242 -0.8837891 -0.1439209
vn -0.8330078 -0.3242188 -0.4482422
vn -0.8330078 -0.3242188 -0.4482422
vn -0.8330078 -0.3242188 -0.4482422
vn 0.4072266 -0.7993164 -0.4421387
vn 0.4072266 -0.7993164 -0.4421387
vn 0.4072266 -0.7993164 -0.4421387
vn 0.1419678 -0.6464844 -0.7495117
vn 0.1419678 -0.6464844 -0.7495117
vn 0.1419678 -0.6464844 -0.7495117
vn 0.2983398 -0.1499023 -0.9423828
vn 0.2983398 -0.1499023 -0.9423828
vn 0.2983398 -0.1499023 -0.9423828
vn 0.3356934 -0.2885742 0.8964844
vn 0.3356934 -0.2885742 0.8964844
vn 0.3356934 -0.2885742 0.8964844
vn 0.7514648 -0.1439209 -0.6435547
vn 0.7514648 -0.1439209 -0.6435547
vn 0.7514648 -0.1439209 -0.6435547
vn -0.5981445 -0.3029785 -0.7416992
vn -0.5981445 -0.3029785 -0.7416992
vn -0.5981445 -0.3029785 -0.7416992
vn -0.8583984 -0.3286133 0.394043
vn -0.8583984 -0.3286133 0.394043
vn -0.8583984 -0.3286133 0.394043
vn -0.04711914 0.1240234 -0.9912109
vn -0.04711914 0.1240234 -0.9912109
vn -0.04711914 0.1240234 -0.9912109
vn 0.05175781 0.8125 -0.5805664
vn 0.06274414 0.8154297 -0.5756836
vn 0.06274414 0.8154297 -0.5756836
vn 0.07366943 0.8178711 -0.5708008
vn -0.9741211 0.1700439 -0.1481934
vn -0.9741211 0.1700439 -0.1481934
vn -0.9741211 0.1700439 -0.1481934
vn 0.3789063 0.9116211 -0.1607666
vn 0.3789063 0.9116211 -0.1607666
vn 0.3789063 0.9116211 -0.1607666
vn 0.5771484 0.8139648 -0.06494141
vn 0.5771484 0.8139648 -0.06494141
vn 0.5771484 0.8139648 -0.06494141
vn 0 1 0
vn 0 1 0
vn 0 1 0
vn 0 1 0
vn -0.2878418 0.9570313 0.02888489
vn -0.2878418 0.9570313 0.02888489
vn -0.2878418 0.9570313 0.02888489
vn -0.4099121 0.8823242 0.2312012
vn -0.4099121 0.8823242 0.2312012
vn -0.4099121 0.8823242 0.2312012
vn 0.8378906 0.3188477 0.442627
vn 0.8378906 0.3188477 0.442627
vn 0.8378906 0.3188477 0.442627
vn -0.1618652 0.6791992 0.7158203
vn -0.1618652 0.6791992 0.7158203
vn -0.1618652 0.6791992 0.7158203
vn -0.5112305 0.8056641 0.2988281
vn -0.5112305 0.8056641 0.2988281
vn -0.5112305 0.8056641 0.2988281
vn -0.2832031 0.1200562 0.9516602
vn -0.2832031 0.1200562 0.9516602
vn -0.2832031 0.1200562 0.9516602
vn -0.3339844 0.270752 -0.902832
vn -0.3339844 0.270752 -0.902832
vn -0.3339844 0.270752 -0.902832
vn -0.7763672 0.1070557 0.6210938
vn -0.7763672 0.1070557 0.6210938
vn -0.7763672 0.1070557 0.6210938
vn 0.5722656 0.282959 0.7695313
vn 0.5722656 0.282959 0.7695313
vn 0.5722656 0.282959 0.7695313
vn 0.8666992 0.3195801 -0.3830566
vn 0.8666992 0.3195801 -0.3830566
vn 0.8666992 0.3195801 -0.3830566
vn -0.7011719 0.7109375 0.0519104
vn -0.6806641 0.7314453 0.04397583
vn -0.6992188 0.7148438 0.0135498
vn -0.6606445 0.7470703 0.07434082
vn -0.5673828 0.7392578 -0.362793
vn -0.5673828 0.7392578 -0.362793
vn -0.5673828 0.7392578 -0.362793
vn 0.2319336 0.6982422 0.6772461
vn 0.2319336 0.6982422 0.6772461
vn 0.2319336 0.6982422 0.6772461
vn 0.1722412 0.8486328 0.5004883
vn 0.1722412 0.8486328 0.5004883
vn 0.1722412 0.8486328 0.5004883
vn 0.02482605 0.8032227 0.5952148
vn 0.02482605 0.8032227 0.5952148
vn 0.02482605 0.8032227 0.5952148
vn -0.2502441 0.8598633 0.4445801
vn -0.2502441 0.8598633 0.4445801
vn -0.2502441 0.8598633 0.4445801
vn -0.7402344 0.6689453 0.06762695
vn -0.7402344 0.6689453 0.06762695
vn -0.7202148 0.6923828 0.0406189
vn -0.03111267 0.7578125 0.6518555
vn -0.03111267 0.7578125 0.6518555
vn -0.03111267 0.7578125 0.6518555
vn 0.7001953 0.1828613 0.6904297
vn 0.7001953 0.1828613 0.6904297
vn 0.7001953 0.1828613 0.6904297
vn 0.03692627 0.7006836 -0.7128906
vn 0.03692627 0.7006836 -0.7128906
vn 0.04641724 0.6943359 -0.7177734
vn 0.02742004 0.706543 -0.7070313
vn 0.3181152 0.8295898 -0.4589844
vn 0.3181152 0.8295898 -0.4589844
vn 0.3181152 0.8295898 -0.4589844
vn 0 0.7758789 -0.6308594
vn 0 0.7758789 -0.6308594
vn 0 0.7758789 -0.6308594
vn 0.4282227 0.8779297 -0.2149658
vn 0.4282227 0.8779297 -0.2149658
vn 0.4282227 0.8779297 -0.2149658
vn 0.2546387 0.9482422 0.1906738
vn 0.2546387 0.9482422 0.1906738
vn 0.2546387 0.9482422 0.1906738
vn 0.4731445 0.809082 -0.3483887
vn 0.4731445 0.809082 -0.3483887
vn 0.4731445 0.809082 -0.3483887
vn 0.6362305 0.7587891 -0.1387939
vn 0.6362305 0.7587891 -0.1387939
vn 0.6362305 0.7587891 -0.1387939
vn -0.3605957 0.8378906 -0.4094238
vn -0.3605957 0.8378906 -0.4094238
vn -0.3605957 0.8378906 -0.4094238
vn -0.1092529 0.7236328 -0.6816406
vn -0.1092529 0.7236328 -0.6816406
vn -0.1092529 0.7236328 -0.6816406
vn -0.5766602 0.6538086 0.4899902
vn -0.5766602 0.6538086 0.4899902
vn -0.5766602 0.6538086 0.4899902
vn -0.8134766 0.4987793 0.2995605
vn -0.8134766 0.4987793 0.2995605
vn -0.8134766 0.4987793 0.2995605
vn 0.03936768 0.9853516 0.1657715
vn 0.03936768 0.9853516 0.1657715
vn 0.03936768 0.9853516 0.1657715
vn -0.286377 0.8676758 0.40625
vn -0.286377 0.8676758 0.40625
vn -0.286377 0.8676758 0.40625

vt 0.1330566 0.3535156
vt 0.1330566 0.3535156
vt 0.1330566 0.3535156
vt 0.1330566 0.3535156
vt 0.1330566 0.3535156
vt 0.1330566 0.3535156
vt 0.1330566 0.3535156
vt 0.1330566 0.3535156
vt 0.1330566 0.3535156
vt 0.1330566 0.3535156
vt 0.1330566 0.3535156
vt 0.1330566 0.3535156
vt 0.1330566 0.3535156
vt 0.1330566 0.3535156
vt 0.1330566 0.3535156
vt 0.1330566 0.3535156
vt 0.1330566 0.3535156
vt 0.1330566 0.3535156
vt 0.1330566 0.3535156
vt 0.1330566 0.3535156
vt 0.1330566 0.3535156
vt 0.1330566 0.3535156
vt 0.1330566 0.3535156
vt 0.1330566 0.3535156
vt 0.1330566 0.3535156
vt 0.1330566 0.3535156
vt 0.1330566 0.3535156
vt 0.1330566 0.3535156
vt 0.1330566 0.3535156
vt 0.1330566 0.3535156
vt 0.1330566 0.3535156
vt 0.1330566 0.3535156
vt 0.1330566 0.3535156
vt 0.1330566 0.3535156
vt 0.1330566 0.3535156
vt 0.1330566 0.3535156
vt 0.1330566 0.3535156
vt 0.1330566 0.3535156
vt 0.1330566 0.3535156
vt 0.1330566 0.3535156
vt 0.1330566 0.3535156
vt 0.1330566 0.3535156
vt 0.1330566 0.3535156
vt 0.1330566 0.3535156
vt 0.1330566 0.3535156
vt 0.1330566 0.3535156
vt 0.1330566 0.3535156
vt 0.1330566 0.3535156
vt 0.1330566 0.3535156
vt 0.1330566 0.3535156
vt 0.1330566 0.3535156
vt 0.1330566 0.3535156
vt 0.1330566 0.3535156
vt 0.1330566 0.3535156
vt 0.1330566 0.3535156
vt 0.1330566 0.3535156
vt 0.1330566 0.3535156
vt 0.1330566 0.3535156
vt 0.1330566 0.3535156
vt 0.1330566 0.3535156
vt 0.1330566 0.3535156
vt 0.1330566 0.3535156
vt 0.1330566 0.3535156
vt 0.1330566 0.3535156
vt 0.1330566 0.3535156
vt 0.1330566 0.3535156
vt 0.1330566 0.3535156
vt 0.1330566 0.3535156
vt 0.1330566 0.3535156
vt 0.1330566 0.3535156
vt 0.1330566 0.3535156
vt 0.1330566 0.3535156
vt 0.1330566 0.3535156
vt 0.1330566 0.3535156
vt 0.1330566 0.3535156
vt 0.1330566 0.3535156
vt 0.1330566 0.3535156
vt 0.1330566 0.3535156
vt 0.1330566 0.3535156
vt 0.1330566 0.3535156
vt 0.1330566 0.3535156
vt 0.1330566 0.3535156
vt 0.1330566 0.3535156
vt 0.1330566 0.3535156
vt 0.1330566 0.3535156
vt 0.1330566 0.3535156
vt 0.1330566 0.3535156
vt 0.1330566 0.3535156
vt 0.1330566 0.3535156
vt 0.1330566 0.3535156
vt 0.1330566 0.3535156
vt 0.1330566 0.3535156
vt 0.1330566 0.3535156
vt 0.1330566 0.3535156
vt 0.1330566 0.3535156
vt 0.1330566 0.3535156
vt 0.1330566 0.3535156
vt 0.1330566 0.3535156
vt 0.1330566 0.3535156
vt 0.1330566 0.3535156
vt 0.1330566 0.3535156
vt 0.1330566 0.3535156
vt 0.1330566 0.3535156
vt 0.1330566 0.3535156
vt 0.1330566 0.3535156
vt 0.1330566 0.3535156
vt 0.1330566 0.3535156
vt 0.1330566 0.3535156
vt 0.1330566 0.3535156
vt 0.1330566 0.3535156
vt 0.1330566 0.3535156
vt 0.1330566 0.3535156
vt 0.1330566 0.3535156
vt 0.1330566 0.3535156
vt 0.1330566 0.3535156
vt 0.1330566 0.3535156
vt 0.1330566 0.3535156
vt 0.1330566 0.3535156
vt 0.1330566 0.3535156
vt 0.1330566 0.3535156
vt 0.1330566 0.3535156
vt 0.1330566 0.3535156
vt 0.1330566 0.3535156
vt 0.1330566 0.3535156
vt 0.1330566 0.3535156
vt 0.1330566 0.3535156
vt 0.1330566 0.3535156
vt 0.1330566 0.3535156
vt 0.1330566 0.3535156
vt 0.1330566 0.3535156
vt 0.1330566 0.3535156
vt 0.1330566 0.3535156
vt 0.1330566 0.3535156
vt 0.1330566 0.3535156
vt 0.1330566 0.3535156
vt 0.1330566 0.3535156
vt 0.1330566 0.3535156
vt 0.1330566 0.3535156
vt 0.1330566 0.3535156
vt 0.1330566 0.3535156
vt 0.1330566 0.3535156
vt 0.1330566 0.3535156
vt 0.1330566 0.3535156
vt 0.1330566 0.3535156
vt 0.1330566 0.3535156
vt 0.1330566 0.3535156
vt 0.1330566 0.3535156
vt 0.1330566 0.3535156
vt 0.1330566 0.3535156
vt 0.1330566 0.3535156
vt 0.1330566 0.3535156
vt 0.1330566 0.3535156
vt 0.1330566 0.3535156
vt 0.1330566 0.3535156
vt 0.1330566 0.3535156
vt 0.1330566 0.3535156
vt 0.1330566 0.3535156
vt 0.1330566 0.3535156
vt 0.1330566 0.3535156
vt 0.1330566 0.3535156
vt 0.1330566 0.3535156
vt 0.1330566 0.3535156
vt 0.1330566 0.3535156
vt 0.1330566 0.3535156
vt 0.1330566 0.3535156
vt 0.1330566 0.3535156
vt 0.1330566 0.3535156
vt 0.1330566 0.3535156

g SM_Prop_Paper_05_327_23
usemtl SM_Prop_Paper_05_327_23
usemap SM_Prop_Paper_05_327_23
f 1/1/1 3/3/3 2/2/2
f 4/4/4 6/6/6 5/5/5
f 5/5/5 6/6/6 7/7/7
f 8/8/8 10/10/10 9/9/9
f 11/11/11 13/13/13 12/12/12
f 14/14/14 16/16/16 15/15/15
f 17/17/17 19/19/19 18/18/18
f 18/18/18 19/19/19 20/20/20
f 21/21/21 23/23/23 22/22/22
f 24/24/24 26/26/26 25/25/25
f 27/27/27 29/29/29 28/28/28
f 30/30/30 32/32/32 31/31/31
f 33/33/33 35/35/35 34/34/34
f 36/36/36 38/38/38 37/37/37
f 39/39/39 41/41/41 40/40/40
f 42/42/42 44/44/44 43/43/43
f 45/45/45 47/47/47 46/46/46
f 48/48/48 50/50/50 49/49/49
f 51/51/51 53/53/53 52/52/52
f 54/54/54 56/56/56 55/55/55
f 55/55/55 56/56/56 57/57/57
f 58/58/58 60/60/60 59/59/59
f 61/61/61 63/63/63 62/62/62
f 64/64/64 66/66/66 65/65/65
f 67/67/67 69/69/69 68/68/68
f 68/68/68 69/69/69 70/70/70
f 71/71/71 73/73/73 72/72/72
f 74/74/74 76/76/76 75/75/75
f 77/77/77 79/79/79 78/78/78
f 80/80/80 82/82/82 81/81/81
f 83/83/83 85/85/85 84/84/84
f 86/86/86 88/88/88 87/87/87
f 89/89/89 91/91/91 90/90/90
f 92/92/92 94/94/94 93/93/93
f 95/95/95 97/97/97 96/96/96
f 98/98/98 100/100/100 99/99/99
f 101/101/101 103/103/103 102/102/102
f 104/104/104 101/101/101 102/102/102
f 105/105/105 107/107/107 106/106/106
f 108/108/108 110/110/110 109/109/109
f 111/111/111 113/113/113 112/112/112
f 114/114/114 116/116/116 115/115/115
f 117/117/117 119/119/119 118/118/118
f 120/120/120 122/122/122 121/121/121
f 123/123/123 125/125/125 124/124/124
f 126/126/126 128/128/128 127/127/127
f 129/129/129 131/131/131 130/130/130
f 130/130/130 132/132/132 129/129/129
f 133/133/133 135/135/135 134/134/134
f 136/136/136 138/138/138 137/137/137
f 139/139/139 141/141/141 140/140/140
f 142/142/142 144/144/144 143/143/143
f 145/145/145 147/147/147 146/146/146
f 148/148/148 150/150/150 149/149/149
f 151/151/151 153/153/153 152/152/152
f 154/154/154 156/156/156 155/155/155
f 157/157/157 159/159/159 158/158/158
f 160/160/160 162/162/162 161/161/161
f 163/163/163 165/165/165 164/164/164
f 166/166/166 168/168/168 167/167/167
