#SM_Prop_TrashBag_03_(2)_324_14.obj

v 0.2323303 0.1107152 -0.3070974
v 0.2650337 0.3092148 -0.2689161
v 0.04885864 0.3092148 -0.3845482
v 0.03742981 0.06069607 -0.4253006
v 0.03742981 0.06069607 -0.4253006
v 0.04885864 0.3092148 -0.3845482
v -0.1673317 0.3092148 -0.2689161
v -0.258667 0.06069607 -0.2226782
v -0.258667 0.06069607 -0.2226782
v -0.1673317 0.3092148 -0.2689161
v -0.2568703 0.3092148 0.01025391
v -0.3546753 0.112707 0.04912567
v -0.1558228 0.5372731 -0.02287292
v -0.1006165 0.52317 -0.2211523
v -0.3546753 0.112707 0.04912567
v -0.2568703 0.3092148 0.01025391
v -0.1669502 0.3057065 0.2906446
v -0.1399994 0.06069607 0.311553
v -0.1399994 0.06069607 0.311553
v -0.1669502 0.3057065 0.2906446
v 0.05059814 0.292821 0.4107552
v 0.0581665 0.126487 0.425293
v 0.0581665 0.126487 0.425293
v 0.05059814 0.292821 0.4107552
v 0.2594185 0.2975329 0.2842283
v 0.2377167 0.06069607 0.311553
v 0.2377167 0.06069607 0.311553
v 0.2594185 0.2975329 0.2842283
v 0.3546791 0.3082529 0.0105896
v 0.3159332 0.06069607 0.01025391
v 0.3159332 0.06069607 0.01025391
v 0.3546791 0.3082529 0.0105896
v 0.2650337 0.3092148 -0.2689161
v 0.2323303 0.1107152 -0.3070974
v 0.03742981 0 -0.3294396
v 0.04885864 0 0.009902954
v 0.1960526 0 -0.233849
v -0.2170181 0 -0.1537862
v -0.2158852 0 0.07254028
v -0.09835052 0 0.242661
v 0.04885864 0 0.3167138
v 0.1960526 0 0.242661
v 0.2570381 0 0.009902954
v 0.03742981 0.06069607 -0.4253006
v 0.03742981 0 -0.3294396
v 0.1960526 0 -0.233849
v 0.2323303 0.1107152 -0.3070974
v -0.258667 0.06069607 -0.2226782
v -0.2170181 0 -0.1537862
v 0.03742981 0 -0.3294396
v 0.03742981 0.06069607 -0.4253006
v -0.3546753 0.112707 0.04912567
v -0.2158852 0 0.07254028
v -0.2170181 0 -0.1537862
v -0.258667 0.06069607 -0.2226782
v -0.1399994 0.06069607 0.311553
v -0.09835052 0 0.242661
v -0.2158852 0 0.07254028
v -0.3546753 0.112707 0.04912567
v 0.0581665 0.126487 0.425293
v 0.04885864 0 0.3167138
v -0.09835052 0 0.242661
v -0.1399994 0.06069607 0.311553
v 0.2377167 0.06069607 0.311553
v 0.1960526 0 0.242661
v 0.04885864 0 0.3167138
v 0.0581665 0.126487 0.425293
v 0.3159332 0.06069607 0.01025391
v 0.2570381 0 0.009902954
v 0.1960526 0 0.242661
v 0.2377167 0.06069607 0.311553
v 0.2323303 0.1107152 -0.3070974
v 0.1960526 0 -0.233849
v 0.2570381 0 0.009902954
v 0.3159332 0.06069607 0.01025391
v 0.1919098 0.4622893 -0.2444754
v 0.1867104 0.5826078 -0.1636529
v 0.07260132 0.6133624 -0.2235618
v 0.0592041 0.5444439 -0.2998886
v 0.0592041 0.5444439 -0.2998886
v 0.07260132 0.6133624 -0.2235618
v -0.04317093 0.6236824 -0.1601281
v -0.1006165 0.52317 -0.2211523
v -0.1006165 0.52317 -0.2211523
v -0.04317093 0.6236824 -0.1601281
v -0.09292316 0.605162 -0.01010895
v -0.1558228 0.5372731 -0.02287292
v -0.1558228 0.5372731 -0.02287292
v -0.09292316 0.605162 -0.01010895
v -0.02363968 0.5781285 0.1412759
v -0.09788513 0.4744968 0.1732321
v -0.09788513 0.4744968 0.1732321
v -0.02363968 0.5781285 0.1412759
v 0.06387329 0.5000231 0.205091
v 0.04884338 0.4105371 0.2553024
v 0.04884338 0.4105371 0.2553024
v 0.06387329 0.5000231 0.205091
v 0.1796455 0.4897029 0.141665
v 0.1952209 0.3651856 0.159873
v 0.1952209 0.3651856 0.159873
v 0.1796455 0.4897029 0.141665
v 0.2307711 0.5274736 -0.01168823
v 0.265976 0.4473901 -0.0268631
v 0.265976 0.4473901 -0.0268631
v 0.2307711 0.5274736 -0.01168823
v 0.1867104 0.5826078 -0.1636529
v 0.1919098 0.4622893 -0.2444754
v 0.09981537 0.6345536 -0.03034067
v 0.1533051 0.7409437 -0.05919361
v 0.09802246 0.757755 -0.0886035
v 0.07737732 0.6444166 -0.04290104
v 0.07737732 0.6444166 -0.04290104
v 0.09802246 0.757755 -0.0886035
v 0.06920147 0.7342586 -0.01696634
v 0.05440521 0.6469798 -0.03037882
v 0.05440521 0.6469798 -0.03037882
v 0.06920147 0.7342586 -0.01696634
v 0.01760101 0.7527282 0.01519775
v 0.04438019 0.6412634 -0.0001983643
v 0.04438019 0.6412634 -0.0001983643
v 0.01760101 0.7527282 0.01519775
v 0.07301617 0.7214579 0.06450081
v 0.05304718 0.6291731 0.0302186
v 0.09413147 0.7076007 0.1186481
v 0.07542419 0.6185204 0.0429163
v 0.07542419 0.6185204 0.0429163
v 0.09413147 0.7076007 0.1186481
v 0.1502533 0.7013298 0.0880785
v 0.09833527 0.6150307 0.03055429
v 0.09833527 0.6150307 0.03055429
v 0.1502533 0.7013298 0.0880785
v 0.1400146 0.7084764 0.01367855
v 0.1084671 0.6220915 0.0001373291
v 0.1533051 0.7409437 -0.05919361
v 0.09981537 0.6345536 -0.03034067
v 0.1533051 0.7409437 -0.05919361
v 0.1403618 0.7529408 -0.04016209
v 0.09793091 0.7663905 -0.06286144
v 0.09802246 0.757755 -0.0886035
v 0.09802246 0.757755 -0.0886035
v 0.09793091 0.7663905 -0.06286144
v 0.07733822 0.7462049 -0.005335331
v 0.06920147 0.7342586 -0.01696634
v 0.06920147 0.7342586 -0.01696634
v 0.07733822 0.7462049 -0.005335331
v 0.03608704 0.7624038 0.01694489
v 0.01760101 0.7527282 0.01519775
v 0.01760101 0.7527282 0.01519775
v 0.03608704 0.7624038 0.01694489
v 0.08074093 0.7389081 0.05327415
v 0.07301617 0.7214579 0.06450081
v 0.07301617 0.7214579 0.06450081
v 0.08074093 0.7389081 0.05327415
v 0.09501648 0.7290311 0.09624004
v 0.09413147 0.7076007 0.1186481
v 0.09413147 0.7076007 0.1186481
v 0.09501648 0.7290311 0.09624004
v 0.1381187 0.7237547 0.0728159
v 0.1502533 0.7013298 0.0880785
v 0.1502533 0.7013298 0.0880785
v 0.1381187 0.7237547 0.0728159
v 0.1281662 0.7283297 0.01567745
v 0.1400146 0.7084764 0.01367855
v 0.1400146 0.7084764 0.01367855
v 0.1281662 0.7283297 0.01567745
v 0.1403618 0.7529408 -0.04016209
v 0.1533051 0.7409437 -0.05919361
v 0.1403618 0.7529408 -0.04016209
v 0.07859802 0.6441686 0.001846313
v 0.09793091 0.7663905 -0.06286144
v 0.09793091 0.7663905 -0.06286144
v 0.07859802 0.6441686 0.001846313
v 0.07733822 0.7462049 -0.005335331
v 0.07733822 0.7462049 -0.005335331
v 0.07859802 0.6441686 0.001846313
v 0.03608704 0.7624038 0.01694489
v 0.03608704 0.7624038 0.01694489
v 0.07859802 0.6441686 0.001846313
v 0.08074093 0.7389081 0.05327415
v 0.08074093 0.7389081 0.05327415
v 0.07859802 0.6441686 0.001846313
v 0.09501648 0.7290311 0.09624004
v 0.09501648 0.7290311 0.09624004
v 0.07859802 0.6441686 0.001846313
v 0.1381187 0.7237547 0.0728159
v 0.1381187 0.7237547 0.0728159
v 0.07859802 0.6441686 0.001846313
v 0.1281662 0.7283297 0.01567745
v 0.1281662 0.7283297 0.01567745
v 0.07859802 0.6441686 0.001846313
v 0.1403618 0.7529408 -0.04016209
v 0.1796455 0.4897029 0.141665
v 0.09833527 0.6150307 0.03055429
v 0.1084671 0.6220915 0.0001373291
v 0.2307711 0.5274736 -0.01168823
v 0.06387329 0.5000231 0.205091
v 0.07542419 0.6185204 0.0429163
v 0.09833527 0.6150307 0.03055429
v 0.1796455 0.4897029 0.141665
v -0.02363968 0.5781285 0.1412759
v 0.05304718 0.6291731 0.0302186
v 0.07542419 0.6185204 0.0429163
v 0.06387329 0.5000231 0.205091
v -0.09292316 0.605162 -0.01010895
v 0.04438019 0.6412634 -0.0001983643
v 0.05304718 0.6291731 0.0302186
v -0.02363968 0.5781285 0.1412759
v -0.04317093 0.6236824 -0.1601281
v 0.05440521 0.6469798 -0.03037882
v 0.04438019 0.6412634 -0.0001983643
v -0.09292316 0.605162 -0.01010895
v 0.07260132 0.6133624 -0.2235618
v 0.07737732 0.6444166 -0.04290104
v 0.05440521 0.6469798 -0.03037882
v -0.04317093 0.6236824 -0.1601281
v 0.1867104 0.5826078 -0.1636529
v 0.09981537 0.6345536 -0.03034067
v 0.07737732 0.6444166 -0.04290104
v 0.07260132 0.6133624 -0.2235618
v 0.2307711 0.5274736 -0.01168823
v 0.1084671 0.6220915 0.0001373291
v 0.09981537 0.6345536 -0.03034067
v 0.1867104 0.5826078 -0.1636529
v 0.2594185 0.2975329 0.2842283
v 0.1952209 0.3651856 0.159873
v 0.265976 0.4473901 -0.0268631
v 0.3546791 0.3082529 0.0105896
v 0.05059814 0.292821 0.4107552
v 0.04884338 0.4105371 0.2553024
v 0.1952209 0.3651856 0.159873
v 0.2594185 0.2975329 0.2842283
v -0.1669502 0.3057065 0.2906446
v -0.09788513 0.4744968 0.1732321
v 0.04884338 0.4105371 0.2553024
v 0.05059814 0.292821 0.4107552
v -0.2568703 0.3092148 0.01025391
v -0.1558228 0.5372731 -0.02287292
v -0.09788513 0.4744968 0.1732321
v -0.1669502 0.3057065 0.2906446
v 0.04885864 0.3092148 -0.3845482
v 0.0592041 0.5444439 -0.2998886
v -0.1006165 0.52317 -0.2211523
v -0.1673317 0.3092148 -0.2689161
v 0.2650337 0.3092148 -0.2689161
v 0.1919098 0.4622893 -0.2444754
v 0.0592041 0.5444439 -0.2998886
v 0.04885864 0.3092148 -0.3845482
v 0.3546791 0.3082529 0.0105896
v 0.265976 0.4473901 -0.0268631
v 0.1919098 0.4622893 -0.2444754
v 0.2650337 0.3092148 -0.2689161

vn 0.4819336 0.1060181 -0.8696289
vn 0.4819336 0.1060181 -0.8696289
vn 0.4819336 0.1060181 -0.8696289
vn 0.4819336 0.1060181 -0.8696289
vn -0.5249023 0.09924316 -0.8452148
vn -0.5249023 0.09924316 -0.8452148
vn -0.5249023 0.09924316 -0.8452148
vn -0.5249023 0.09924316 -0.8452148
vn -0.8901367 0.3151855 -0.3295898
vn -0.8925781 0.3320313 -0.3054199
vn -0.8925781 0.3320313 -0.3054199
vn -0.8901367 0.3151855 -0.3295898
vn -0.894043 0.3486328 -0.28125
vn -0.894043 0.3486328 -0.28125
vn -0.8452148 0.2026367 0.494873
vn -0.8452148 0.2026367 0.494873
vn -0.8452148 0.2026367 0.494873
vn -0.8452148 0.2026367 0.494873
vn -0.4931641 0.0335083 0.8691406
vn -0.4931641 0.0335083 0.8691406
vn -0.4931641 0.0335083 0.8691406
vn -0.4931641 0.0335083 0.8691406
vn 0.5327148 0.06890869 0.84375
vn 0.5327148 0.06890869 0.84375
vn 0.5327148 0.06890869 0.84375
vn 0.5327148 0.06890869 0.84375
vn 0.9526367 -0.1029663 0.2856445
vn 0.9526367 -0.1029663 0.2856445
vn 0.9526367 -0.1029663 0.2856445
vn 0.9526367 -0.1029663 0.2856445
vn 0.949707 -0.1273193 -0.2866211
vn 0.949707 -0.1273193 -0.2866211
vn 0.949707 -0.1273193 -0.2866211
vn 0.949707 -0.1273193 -0.2866211
vn 0 -1 0
vn 0 -1 0
vn 0 -1 0
vn 0 -1 0
vn 0 -1 0
vn 0 -1 0
vn 0 -1 0
vn 0 -1 0
vn 0 -1 0
vn 0.4499512 -0.6738281 -0.5864258
vn 0.4499512 -0.6738281 -0.5864258
vn 0.4499512 -0.6738281 -0.5864258
vn 0.4499512 -0.6738281 -0.5864258
vn -0.3430176 -0.7954102 -0.4995117
vn -0.3430176 -0.7954102 -0.4995117
vn -0.3430176 -0.7954102 -0.4995117
vn -0.3430176 -0.7954102 -0.4995117
vn -0.6777344 -0.7333984 -0.05255127
vn -0.6777344 -0.7333984 -0.05255127
vn -0.6777344 -0.7333984 -0.05255127
vn -0.6777344 -0.7333984 -0.05255127
vn -0.59375 -0.7148438 0.369873
vn -0.59375 -0.7148438 0.369873
vn -0.59375 -0.7148438 0.369873
vn -0.59375 -0.7148438 0.369873
vn -0.2402344 -0.6894531 0.6835938
vn -0.2402344 -0.6894531 0.6835938
vn -0.2402344 -0.6894531 0.6835938
vn -0.2402344 -0.6894531 0.6835938
vn 0.2437744 -0.7011719 0.6699219
vn 0.2437744 -0.7011719 0.6699219
vn 0.2437744 -0.7011719 0.6699219
vn 0.2437744 -0.7011719 0.6699219
vn 0.703125 -0.6870117 0.1832275
vn 0.703125 -0.6870117 0.1832275
vn 0.703125 -0.6870117 0.1832275
vn 0.703125 -0.6870117 0.1832275
vn 0.7958984 -0.5498047 -0.2541504
vn 0.7958984 -0.5498047 -0.2541504
vn 0.7958984 -0.5498047 -0.2541504
vn 0.7958984 -0.5498047 -0.2541504
vn 0.5454102 0.5214844 -0.65625
vn 0.5454102 0.5214844 -0.65625
vn 0.5454102 0.5214844 -0.65625
vn 0.5454102 0.5214844 -0.65625
vn -0.3598633 0.6738281 -0.6455078
vn -0.3598633 0.6738281 -0.6455078
vn -0.3598633 0.6738281 -0.6455078
vn -0.3598633 0.6738281 -0.6455078
vn -0.746582 0.6289063 -0.217041
vn -0.746582 0.6289063 -0.217041
vn -0.746582 0.6289063 -0.217041
vn -0.746582 0.6289063 -0.217041
vn -0.6904297 0.5976563 0.4072266
vn -0.6904297 0.5976563 0.4072266
vn -0.6904297 0.5976563 0.4072266
vn -0.6904297 0.5976563 0.4072266
vn -0.2414551 0.4724121 0.8476563
vn -0.2414551 0.4724121 0.8476563
vn -0.2414551 0.4724121 0.8476563
vn -0.2414551 0.4724121 0.8476563
vn 0.5400391 0.2575684 0.8012695
vn 0.5400391 0.2575684 0.8012695
vn 0.5400391 0.2575684 0.8012695
vn 0.5400391 0.2575684 0.8012695
vn 0.8886719 0.2264404 0.3984375
vn 0.8886719 0.2264404 0.3984375
vn 0.8886719 0.2264404 0.3984375
vn 0.8886719 0.2264404 0.3984375
vn 0.9233398 0.300293 -0.2382813
vn 0.9233398 0.300293 -0.2382813
vn 0.9233398 0.300293 -0.2382813
vn 0.9233398 0.300293 -0.2382813
vn 0.3251953 -0.4003906 -0.8569336
vn 0.3251953 -0.4003906 -0.8569336
vn 0.3251953 -0.4003906 -0.8569336
vn 0.3251953 -0.4003906 -0.8569336
vn -0.8574219 0.0692749 -0.5102539
vn -0.8574219 0.0692749 -0.5102539
vn -0.8574219 0.0692749 -0.5102539
vn -0.8574219 0.0692749 -0.5102539
vn -0.7036133 0.06018066 -0.7080078
vn -0.7036133 0.06018066 -0.7080078
vn -0.7036133 0.06018066 -0.7080078
vn -0.7036133 0.06018066 -0.7080078
vn -0.8105469 -0.1641846 0.5620117
vn -0.8105469 -0.1641846 0.5620117
vn -0.8320313 -0.1453857 0.5356445
vn -0.8320313 -0.1453857 0.5356445
vn -0.8520508 -0.1264648 0.5078125
vn -0.8520508 -0.1264648 0.5078125
vn 0.2988281 -0.6508789 0.6982422
vn 0.2988281 -0.6508789 0.6982422
vn 0.2988281 -0.6508789 0.6982422
vn 0.2988281 -0.6508789 0.6982422
vn 0.9077148 -0.4152832 -0.05722046
vn 0.9077148 -0.4152832 -0.05722046
vn 0.9057617 -0.4123535 -0.09729004
vn 0.9057617 -0.4123535 -0.09729004
vn 0.9023438 -0.4089355 -0.137207
vn 0.9023438 -0.4089355 -0.137207
vn 0.4162598 0.8657227 -0.277832
vn 0.4162598 0.8657227 -0.277832
vn 0.4162598 0.8657227 -0.277832
vn 0.4162598 0.8657227 -0.277832
vn -0.8232422 0.5537109 -0.1276855
vn -0.8232422 0.5537109 -0.1276855
vn -0.8232422 0.5537109 -0.1276855
vn -0.8232422 0.5537109 -0.1276855
vn -0.1765137 0.6660156 -0.7250977
vn -0.1765137 0.6660156 -0.7250977
vn -0.1765137 0.6660156 -0.7250977
vn -0.1765137 0.6660156 -0.7250977
vn -0.3256836 0.5766602 0.7495117
vn -0.3256836 0.5766602 0.7495117
vn -0.3256836 0.5766602 0.7495117
vn -0.3256836 0.5766602 0.7495117
vn -0.7568359 0.5151367 0.4018555
vn -0.7568359 0.5151367 0.4018555
vn -0.7568359 0.5151367 0.4018555
vn -0.7568359 0.5151367 0.4018555
vn 0.4199219 0.6508789 0.6323242
vn 0.4199219 0.6508789 0.6323242
vn 0.4199219 0.6508789 0.6323242
vn 0.4199219 0.6508789 0.6323242
vn 0.878418 0.4689941 -0.09301758
vn 0.878418 0.4689941 -0.09301758
vn 0.878418 0.4689941 -0.09301758
vn 0.878418 0.4689941 -0.09301758
vn 0.8369141 0.4191895 0.3515625
vn 0.8369141 0.4191895 0.3515625
vn 0.8369141 0.4191895 0.3515625
vn 0.8369141 0.4191895 0.3515625
vn -0.2890625 0.4831543 0.8266602
vn -0.2890625 0.4831543 0.8266602
vn -0.2890625 0.4831543 0.8266602
vn 0.9370117 0.03607178 0.3479004
vn 0.9370117 0.03607178 0.3479004
vn 0.9370117 0.03607178 0.3479004
vn 0.4943848 0.06707764 0.8666992
vn 0.4943848 0.06707764 0.8666992
vn 0.4943848 0.06707764 0.8666992
vn 0.6943359 0.3312988 -0.6391602
vn 0.6943359 0.3312988 -0.6391602
vn 0.6943359 0.3312988 -0.6391602
vn 0.9492188 0.1331787 -0.2849121
vn 0.9492188 0.1331787 -0.2849121
vn 0.9492188 0.1331787 -0.2849121
vn -0.2480469 0.7416992 -0.6235352
vn -0.2480469 0.7416992 -0.6235352
vn -0.2480469 0.7416992 -0.6235352
vn -0.859375 0.4753418 0.1877441
vn -0.859375 0.4753418 0.1877441
vn -0.859375 0.4753418 0.1877441
vn -0.8637695 0.5029297 0.03317261
vn -0.8637695 0.5029297 0.03317261
vn -0.8637695 0.5029297 0.03317261
vn 0.5917969 0.715332 0.3718262
vn 0.5917969 0.715332 0.3718262
vn 0.5917969 0.715332 0.3718262
vn 0.5917969 0.715332 0.3718262
vn 0.3793945 0.7363281 0.5600586
vn 0.3793945 0.7363281 0.5600586
vn 0.3793945 0.7363281 0.5600586
vn 0.3793945 0.7363281 0.5600586
vn 0.2415771 0.7875977 0.5668945
vn 0.2415771 0.7875977 0.5668945
vn 0.2415771 0.7875977 0.5668945
vn 0.2415771 0.7875977 0.5668945
vn -0.2348633 0.9248047 0.2998047
vn -0.2348633 0.9248047 0.2998047
vn -0.2348633 0.9248047 0.2998047
vn -0.2348633 0.9248047 0.2998047
vn -0.2675781 0.9628906 0.04067993
vn -0.2675781 0.9628906 0.04067993
vn -0.2675781 0.9628906 0.04067993
vn -0.2675781 0.9628906 0.04067993
vn -0.002504349 0.9853516 -0.1716309
vn -0.002504349 0.9853516 -0.1716309
vn -0.002504349 0.9853516 -0.1716309
vn -0.002504349 0.9853516 -0.1716309
vn 0.3547363 0.9228516 -0.151123
vn 0.3547363 0.9228516 -0.151123
vn 0.3547363 0.9228516 -0.151123
vn 0.3547363 0.9228516 -0.151123
vn 0.6201172 0.7768555 0.1088257
vn 0.6201172 0.7768555 0.1088257
vn 0.6201172 0.7768555 0.1088257
vn 0.6201172 0.7768555 0.1088257
vn 0.59375 0.7202148 0.359375
vn 0.59375 0.7202148 0.359375
vn 0.59375 0.7202148 0.359375
vn 0.59375 0.7202148 0.359375
vn 0.3737793 0.8115234 0.4494629
vn 0.3737793 0.8115234 0.4494629
vn 0.3737793 0.8115234 0.4494629
vn 0.3737793 0.8115234 0.4494629
vn -0.2286377 0.6992188 0.6777344
vn -0.2286377 0.6992188 0.6777344
vn -0.2286377 0.6992188 0.6777344
vn -0.2286377 0.6992188 0.6777344
vn -0.8203125 0.4733887 0.3205566
vn -0.8203125 0.4733887 0.3205566
vn -0.8203125 0.4733887 0.3205566
vn -0.8203125 0.4733887 0.3205566
vn -0.4489746 0.3227539 -0.8330078
vn -0.4489746 0.3227539 -0.8330078
vn -0.4489746 0.3227539 -0.8330078
vn -0.4489746 0.3227539 -0.8330078
vn 0.4763184 0.3083496 -0.8232422
vn 0.4763184 0.3083496 -0.8232422
vn 0.4763184 0.3083496 -0.8232422
vn 0.4763184 0.3083496 -0.8232422
vn 0.8486328 0.4580078 -0.2648926
vn 0.8486328 0.4580078 -0.2648926
vn 0.8486328 0.4580078 -0.2648926
vn 0.8486328 0.4580078 -0.2648926

vt 0.07922363 0.2788086
vt 0.07922363 0.2788086
vt 0.07922363 0.2788086
vt 0.07922363 0.2788086
vt 0.07922363 0.2788086
vt 0.07922363 0.2788086
vt 0.07922363 0.2788086
vt 0.07922363 0.2788086
vt 0.07922363 0.2788086
vt 0.07922363 0.2788086
vt 0.07922363 0.2788086
vt 0.07922363 0.2788086
vt 0.07922363 0.2788086
vt 0.07922363 0.2788086
vt 0.07922363 0.2788086
vt 0.07922363 0.2788086
vt 0.07922363 0.2788086
vt 0.07922363 0.2788086
vt 0.07922363 0.2788086
vt 0.07922363 0.2788086
vt 0.07922363 0.2788086
vt 0.07922363 0.2788086
vt 0.07922363 0.2788086
vt 0.07922363 0.2788086
vt 0.07922363 0.2788086
vt 0.07922363 0.2788086
vt 0.07922363 0.2788086
vt 0.07922363 0.2788086
vt 0.07922363 0.2788086
vt 0.07922363 0.2788086
vt 0.07922363 0.2788086
vt 0.07922363 0.2788086
vt 0.07922363 0.2788086
vt 0.07922363 0.2788086
vt 0.07922363 0.2788086
vt 0.07922363 0.2788086
vt 0.07922363 0.2788086
vt 0.07922363 0.2788086
vt 0.07922363 0.2788086
vt 0.07922363 0.2788086
vt 0.07922363 0.2788086
vt 0.07922363 0.2788086
vt 0.07922363 0.2788086
vt 0.07922363 0.2788086
vt 0.07922363 0.2788086
vt 0.07922363 0.2788086
vt 0.07922363 0.2788086
vt 0.07922363 0.2788086
vt 0.07922363 0.2788086
vt 0.07922363 0.2788086
vt 0.07922363 0.2788086
vt 0.07922363 0.2788086
vt 0.07922363 0.2788086
vt 0.07922363 0.2788086
vt 0.07922363 0.2788086
vt 0.07922363 0.2788086
vt 0.07922363 0.2788086
vt 0.07922363 0.2788086
vt 0.07922363 0.2788086
vt 0.07922363 0.2788086
vt 0.07922363 0.2788086
vt 0.07922363 0.2788086
vt 0.07922363 0.2788086
vt 0.07922363 0.2788086
vt 0.07922363 0.2788086
vt 0.07922363 0.2788086
vt 0.07922363 0.2788086
vt 0.07922363 0.2788086
vt 0.07922363 0.2788086
vt 0.07922363 0.2788086
vt 0.07922363 0.2788086
vt 0.07922363 0.2788086
vt 0.07922363 0.2788086
vt 0.07922363 0.2788086
vt 0.07922363 0.2788086
vt 0.07922363 0.2788086
vt 0.07922363 0.2788086
vt 0.07922363 0.2788086
vt 0.07922363 0.2788086
vt 0.07922363 0.2788086
vt 0.07922363 0.2788086
vt 0.07922363 0.2788086
vt 0.07922363 0.2788086
vt 0.07922363 0.2788086
vt 0.07922363 0.2788086
vt 0.07922363 0.2788086
vt 0.07922363 0.2788086
vt 0.07922363 0.2788086
vt 0.07922363 0.2788086
vt 0.07922363 0.2788086
vt 0.07922363 0.2788086
vt 0.07922363 0.2788086
vt 0.07922363 0.2788086
vt 0.07922363 0.2788086
vt 0.07922363 0.2788086
vt 0.07922363 0.2788086
vt 0.07922363 0.2788086
vt 0.07922363 0.2788086
vt 0.07922363 0.2788086
vt 0.07922363 0.2788086
vt 0.07922363 0.2788086
vt 0.07922363 0.2788086
vt 0.07922363 0.2788086
vt 0.07922363 0.2788086
vt 0.07922363 0.2788086
vt 0.07922363 0.2788086
vt 0.07922363 0.2788086
vt 0.07922363 0.2788086
vt 0.07922363 0.2788086
vt 0.07922363 0.2788086
vt 0.07922363 0.2788086
vt 0.07922363 0.2788086
vt 0.07922363 0.2788086
vt 0.07922363 0.2788086
vt 0.07922363 0.2788086
vt 0.07922363 0.2788086
vt 0.07922363 0.2788086
vt 0.07922363 0.2788086
vt 0.07922363 0.2788086
vt 0.07922363 0.2788086
vt 0.07922363 0.2788086
vt 0.07922363 0.2788086
vt 0.07922363 0.2788086
vt 0.07922363 0.2788086
vt 0.07922363 0.2788086
vt 0.07922363 0.2788086
vt 0.07922363 0.2788086
vt 0.07922363 0.2788086
vt 0.07922363 0.2788086
vt 0.07922363 0.2788086
vt 0.07922363 0.2788086
vt 0.07922363 0.2788086
vt 0.07922363 0.2788086
vt 0.07922363 0.2788086
vt 0.07922363 0.2788086
vt 0.07922363 0.2788086
vt 0.07922363 0.2788086
vt 0.07922363 0.2788086
vt 0.07922363 0.2788086
vt 0.07922363 0.2788086
vt 0.07922363 0.2788086
vt 0.07922363 0.2788086
vt 0.07922363 0.2788086
vt 0.07922363 0.2788086
vt 0.07922363 0.2788086
vt 0.07922363 0.2788086
vt 0.07922363 0.2788086
vt 0.07922363 0.2788086
vt 0.07922363 0.2788086
vt 0.07922363 0.2788086
vt 0.07922363 0.2788086
vt 0.07922363 0.2788086
vt 0.07922363 0.2788086
vt 0.07922363 0.2788086
vt 0.07922363 0.2788086
vt 0.07922363 0.2788086
vt 0.07922363 0.2788086
vt 0.07922363 0.2788086
vt 0.07922363 0.2788086
vt 0.07922363 0.2788086
vt 0.07922363 0.2788086
vt 0.07922363 0.2788086
vt 0.07922363 0.2788086
vt 0.07922363 0.2788086
vt 0.07922363 0.2788086
vt 0.07922363 0.2788086
vt 0.07922363 0.2788086
vt 0.07922363 0.2788086
vt 0.07922363 0.2788086
vt 0.07922363 0.2788086
vt 0.07922363 0.2788086
vt 0.07922363 0.2788086
vt 0.07922363 0.2788086
vt 0.07922363 0.2788086
vt 0.07922363 0.2788086
vt 0.07922363 0.2788086
vt 0.07922363 0.2788086
vt 0.07922363 0.2788086
vt 0.07922363 0.2788086
vt 0.07922363 0.2788086
vt 0.07922363 0.2788086
vt 0.07922363 0.2788086
vt 0.07922363 0.2788086
vt 0.07922363 0.2788086
vt 0.07922363 0.2788086
vt 0.07922363 0.2788086
vt 0.07922363 0.2788086
vt 0.07922363 0.2788086
vt 0.07922363 0.2788086
vt 0.07922363 0.2788086
vt 0.07922363 0.2788086
vt 0.07922363 0.2788086
vt 0.07922363 0.2788086
vt 0.07922363 0.2788086
vt 0.07922363 0.2788086
vt 0.07922363 0.2788086
vt 0.07922363 0.2788086
vt 0.07922363 0.2788086
vt 0.07922363 0.2788086
vt 0.07922363 0.2788086
vt 0.07922363 0.2788086
vt 0.07922363 0.2788086
vt 0.07922363 0.2788086
vt 0.07922363 0.2788086
vt 0.07922363 0.2788086
vt 0.07922363 0.2788086
vt 0.07922363 0.2788086
vt 0.07922363 0.2788086
vt 0.07922363 0.2788086
vt 0.07922363 0.2788086
vt 0.07922363 0.2788086
vt 0.07922363 0.2788086
vt 0.07922363 0.2788086
vt 0.07922363 0.2788086
vt 0.07922363 0.2788086
vt 0.07922363 0.2788086
vt 0.07922363 0.2788086
vt 0.07922363 0.2788086
vt 0.07922363 0.2788086
vt 0.07922363 0.2788086
vt 0.07922363 0.2788086
vt 0.07922363 0.2788086
vt 0.07922363 0.2788086
vt 0.07922363 0.2788086
vt 0.07922363 0.2788086
vt 0.07922363 0.2788086
vt 0.07922363 0.2788086
vt 0.07922363 0.2788086
vt 0.07922363 0.2788086
vt 0.07922363 0.2788086
vt 0.07922363 0.2788086
vt 0.07922363 0.2788086
vt 0.07922363 0.2788086
vt 0.07922363 0.2788086
vt 0.07922363 0.2788086
vt 0.07922363 0.2788086
vt 0.07922363 0.2788086
vt 0.07922363 0.2788086
vt 0.07922363 0.2788086
vt 0.07922363 0.2788086
vt 0.07922363 0.2788086
vt 0.07922363 0.2788086
vt 0.07922363 0.2788086
vt 0.07922363 0.2788086
vt 0.07922363 0.2788086
vt 0.07922363 0.2788086
vt 0.07922363 0.2788086
vt 0.07922363 0.2788086
vt 0.07922363 0.2788086
vt 0.07922363 0.2788086
vt 0.07922363 0.2788086

g SM_Prop_TrashBag_03_(2)_324_14
usemtl SM_Prop_TrashBag_03_(2)_324_14
usemap SM_Prop_TrashBag_03_(2)_324_14
f 1/1/1 3/3/3 2/2/2
f 1/1/1 4/4/4 3/3/3
f 5/5/5 7/7/7 6/6/6
f 5/5/5 8/8/8 7/7/7
f 9/9/9 11/11/11 10/10/10
f 9/9/9 12/12/12 11/11/11
f 10/10/10 11/11/11 13/13/13
f 10/10/10 13/13/13 14/14/14
f 15/15/15 17/17/17 16/16/16
f 15/15/15 18/18/18 17/17/17
f 19/19/19 21/21/21 20/20/20
f 19/19/19 22/22/22 21/21/21
f 23/23/23 25/25/25 24/24/24
f 23/23/23 26/26/26 25/25/25
f 27/27/27 29/29/29 28/28/28
f 27/27/27 30/30/30 29/29/29
f 31/31/31 33/33/33 32/32/32
f 31/31/31 34/34/34 33/33/33
f 35/35/35 37/37/37 36/36/36
f 38/38/38 35/35/35 36/36/36
f 39/39/39 38/38/38 36/36/36
f 40/40/40 39/39/39 36/36/36
f 41/41/41 40/40/40 36/36/36
f 42/42/42 41/41/41 36/36/36
f 43/43/43 42/42/42 36/36/36
f 37/37/37 43/43/43 36/36/36
f 44/44/44 46/46/46 45/45/45
f 44/44/44 47/47/47 46/46/46
f 48/48/48 50/50/50 49/49/49
f 48/48/48 51/51/51 50/50/50
f 52/52/52 54/54/54 53/53/53
f 52/52/52 55/55/55 54/54/54
f 56/56/56 58/58/58 57/57/57
f 56/56/56 59/59/59 58/58/58
f 60/60/60 62/62/62 61/61/61
f 60/60/60 63/63/63 62/62/62
f 64/64/64 66/66/66 65/65/65
f 64/64/64 67/67/67 66/66/66
f 68/68/68 70/70/70 69/69/69
f 68/68/68 71/71/71 70/70/70
f 72/72/72 74/74/74 73/73/73
f 72/72/72 75/75/75 74/74/74
f 76/76/76 78/78/78 77/77/77
f 76/76/76 79/79/79 78/78/78
f 80/80/80 82/82/82 81/81/81
f 80/80/80 83/83/83 82/82/82
f 84/84/84 86/86/86 85/85/85
f 84/84/84 87/87/87 86/86/86
f 88/88/88 90/90/90 89/89/89
f 88/88/88 91/91/91 90/90/90
f 92/92/92 94/94/94 93/93/93
f 92/92/92 95/95/95 94/94/94
f 96/96/96 98/98/98 97/97/97
f 96/96/96 99/99/99 98/98/98
f 100/100/100 102/102/102 101/101/101
f 100/100/100 103/103/103 102/102/102
f 104/104/104 106/106/106 105/105/105
f 104/104/104 107/107/107 106/106/106
f 108/108/108 110/110/110 109/109/109
f 108/108/108 111/111/111 110/110/110
f 112/112/112 114/114/114 113/113/113
f 112/112/112 115/115/115 114/114/114
f 116/116/116 118/118/118 117/117/117
f 116/116/116 119/119/119 118/118/118
f 120/120/120 122/122/122 121/121/121
f 120/120/120 123/123/123 122/122/122
f 123/123/123 124/124/124 122/122/122
f 123/123/123 125/125/125 124/124/124
f 126/126/126 128/128/128 127/127/127
f 126/126/126 129/129/129 128/128/128
f 130/130/130 132/132/132 131/131/131
f 130/130/130 133/133/133 132/132/132
f 133/133/133 134/134/134 132/132/132
f 133/133/133 135/135/135 134/134/134
f 136/136/136 138/138/138 137/137/137
f 136/136/136 139/139/139 138/138/138
f 140/140/140 142/142/142 141/141/141
f 140/140/140 143/143/143 142/142/142
f 144/144/144 146/146/146 145/145/145
f 144/144/144 147/147/147 146/146/146
f 148/148/148 150/150/150 149/149/149
f 148/148/148 151/151/151 150/150/150
f 152/152/152 154/154/154 153/153/153
f 152/152/152 155/155/155 154/154/154
f 156/156/156 158/158/158 157/157/157
f 156/156/156 159/159/159 158/158/158
f 160/160/160 162/162/162 161/161/161
f 160/160/160 163/163/163 162/162/162
f 164/164/164 166/166/166 165/165/165
f 164/164/164 167/167/167 166/166/166
f 168/168/168 170/170/170 169/169/169
f 171/171/171 173/173/173 172/172/172
f 174/174/174 176/176/176 175/175/175
f 177/177/177 179/179/179 178/178/178
f 180/180/180 182/182/182 181/181/181
f 183/183/183 185/185/185 184/184/184
f 186/186/186 188/188/188 187/187/187
f 189/189/189 191/191/191 190/190/190
f 192/192/192 194/194/194 193/193/193
f 192/192/192 195/195/195 194/194/194
f 196/196/196 198/198/198 197/197/197
f 196/196/196 199/199/199 198/198/198
f 200/200/200 202/202/202 201/201/201
f 200/200/200 203/203/203 202/202/202
f 204/204/204 206/206/206 205/205/205
f 204/204/204 207/207/207 206/206/206
f 208/208/208 210/210/210 209/209/209
f 208/208/208 211/211/211 210/210/210
f 212/212/212 214/214/214 213/213/213
f 212/212/212 215/215/215 214/214/214
f 216/216/216 218/218/218 217/217/217
f 216/216/216 219/219/219 218/218/218
f 220/220/220 222/222/222 221/221/221
f 220/220/220 223/223/223 222/222/222
f 224/224/224 226/226/226 225/225/225
f 224/224/224 227/227/227 226/226/226
f 228/228/228 230/230/230 229/229/229
f 228/228/228 231/231/231 230/230/230
f 232/232/232 234/234/234 233/233/233
f 232/232/232 235/235/235 234/234/234
f 236/236/236 238/238/238 237/237/237
f 236/236/236 239/239/239 238/238/238
f 240/240/240 242/242/242 241/241/241
f 240/240/240 243/243/243 242/242/242
f 244/244/244 246/246/246 245/245/245
f 244/244/244 247/247/247 246/246/246
f 248/248/248 250/250/250 249/249/249
f 248/248/248 251/251/251 250/250/250
